<svg version="1.2" xmlns="http://www.w3.org/2000/svg" viewBox="0 0 24 24" width="24" height="24">
	<style>
		.s0 { fill: none } 
		.s1 { fill: none;stroke: #000000;stroke-linecap: round;stroke-linejoin: round;stroke-width: 2 } 
	</style>
	<g id="Layer 1">
		<path class="s0" d="m12 28.97l-16.97-16.97 16.97-16.97 16.97 16.97z"/>
		<path class="s1" d="m20.81 13.79q0.09-0.43 0.14-0.87 0.04-0.44 0.04-0.88 0.01-0.44-0.04-0.88-0.04-0.44-0.12-0.88"/>
		<path class="s1" d="m19.5 7.03q-0.25-0.36-0.53-0.7-0.28-0.35-0.59-0.66-0.31-0.31-0.65-0.59-0.34-0.28-0.71-0.53"/>
		<path class="s1" d="m13.79 3.19q-0.43-0.09-0.87-0.14-0.44-0.04-0.88-0.04-0.44-0.01-0.88 0.04-0.44 0.04-0.88 0.12"/>
		<path class="s1" d="m7.03 4.5q-0.36 0.25-0.7 0.53-0.34 0.28-0.65 0.59-0.32 0.31-0.6 0.65-0.28 0.34-0.52 0.71"/>
		<path class="s1" d="m3.19 10.21q-0.09 0.43-0.14 0.87-0.04 0.44-0.04 0.88-0.01 0.44 0.04 0.88 0.04 0.44 0.12 0.88"/>
		<path class="s1" d="m4.5 16.97q0.25 0.36 0.53 0.7 0.28 0.35 0.59 0.66 0.31 0.31 0.65 0.59 0.34 0.28 0.71 0.53"/>
		<path class="s1" d="m10.21 20.81q0.43 0.09 0.87 0.14 0.44 0.04 0.88 0.04 0.44 0.01 0.88-0.04 0.44-0.04 0.88-0.12"/>
		<path class="s1" d="m16.97 19.5q0.36-0.24 0.71-0.52 0.34-0.28 0.65-0.59 0.32-0.31 0.6-0.65 0.28-0.34 0.53-0.71"/>
		<path class="s1" d="m5.64 5.64c-1.69 1.68-2.64 3.97-2.64 6.36 0 2.39 0.95 4.68 2.64 6.36 1.68 1.69 3.97 2.64 6.36 2.64 2.39 0 4.68-0.95 6.36-2.64"/>
		<path class="s1" d="m9 9q0-0.27 0.14-0.5 0.13-0.24 0.37-0.37 0.23-0.13 0.5-0.13 0.27 0.01 0.51 0.14l4.99 3q0.23 0.14 0.36 0.37 0.13 0.23 0.13 0.49 0 0.26-0.13 0.49-0.13 0.23-0.36 0.37l-4.99 3q-0.24 0.13-0.51 0.14-0.27 0-0.5-0.13-0.24-0.13-0.38-0.37-0.13-0.23-0.13-0.5z"/>
	</g>
</svg>