<svg xmlns="http://www.w3.org/2000/svg" width="24" height="24" viewBox="0 0 24 24" fill="none" stroke="currentColor" stroke-width="2" stroke-linecap="round" stroke-linejoin="round" >
	<path class="s0" d="m9 9q0-0.27 0.14-0.5 0.13-0.24 0.37-0.37 0.23-0.13 0.5-0.13 0.27 0.01 0.51 0.14l4.99 3q0.23 0.14 0.36 0.37 0.13 0.23 0.13 0.49 0 0.26-0.13 0.49-0.13 0.23-0.36 0.37l-4.99 3q-0.24 0.13-0.51 0.14-0.27 0-0.5-0.13-0.24-0.13-0.38-0.37-0.13-0.23-0.13-0.5z"/>
	<g id="Layer 1">
		<path class="s0" d="m12 2c1.94 0 3.84 0.56 5.46 1.62 1.63 1.06 2.91 2.57 3.69 4.35 0.79 1.77 1.03 3.74 0.72 5.65-0.32 1.92-1.18 3.7-2.49 5.13"/>
		<path class="s0" d="m2.5 8.88q-0.12 0.36-0.21 0.73-0.09 0.37-0.15 0.75-0.07 0.37-0.1 0.75-0.04 0.38-0.04 0.77"/>
		<path class="s0" d="m2.83 16q0.21 0.48 0.47 0.94 0.26 0.46 0.57 0.89 0.3 0.43 0.65 0.82 0.35 0.39 0.74 0.75"/>
		<path class="s0" d="m4.64 5.24q0.1-0.12 0.21-0.23 0.11-0.11 0.22-0.22 0.11-0.1 0.22-0.21 0.12-0.1 0.24-0.2"/>
		<path class="s0" d="m8.64 21.42q0.93 0.33 1.9 0.47 0.98 0.15 1.96 0.1 0.98-0.05 1.93-0.29 0.96-0.24 1.84-0.66"/>
	</g>
</svg>