<svg version="1.2" xmlns="http://www.w3.org/2000/svg" viewBox="0 0 24 24" width="24" height="24">
	<style>
		.s0 { fill: none;stroke: #000000;stroke-linecap: round;stroke-linejoin: round;stroke-width: 2 } 
	</style>
	<path class="s0" d="m12 22c-5.53 0-10-4.47-10-10 0-5.53 4.47-10 10-10 5.53 0 10 4.47 10 10 0 5.53-4.47 10-10 10z"/>
	<g id="Layer 1">
		<path class="s0" d="m11.33 8.55q0.17-0.03 0.33-0.05 0.17-0.01 0.34-0.01 0.17 0 0.34 0.01 0.16 0.02 0.33 0.05"/>
		<path class="s0" d="m12.67 15.45q-0.17 0.03-0.33 0.05-0.17 0.01-0.34 0.01-0.17 0-0.34-0.01-0.16-0.02-0.33-0.05"/>
		<path class="s0" d="m8.55 12.67q-0.03-0.17-0.05-0.33-0.01-0.17-0.01-0.34 0-0.17 0.01-0.34 0.02-0.16 0.05-0.33"/>
		<path class="s0" d="m15.45 11.33q0.03 0.17 0.05 0.33 0.01 0.17 0.01 0.34 0 0.17-0.01 0.34-0.02 0.16-0.05 0.33"/>
	</g>
</svg>