<svg version="1.2" xmlns="http://www.w3.org/2000/svg" viewBox="0 0 24 24" width="24" height="24">
	<style>
		.s0 { fill: none;stroke: #000000;stroke-linecap: round;stroke-linejoin: round;stroke-width: 2 } 
	</style>
	<g id="Layer 1">
		<path class="s0" d="m10.1 2.18q0.47-0.09 0.95-0.13 0.47-0.05 0.95-0.05 0.48 0 0.95 0.05 0.48 0.04 0.95 0.13"/>
		<path class="s0" d="m13.9 21.82q-0.47 0.09-0.95 0.13-0.47 0.05-0.95 0.05-0.48 0-0.95-0.05-0.48-0.04-0.95-0.13"/>
		<path class="s0" d="m17.61 3.72q0.4 0.27 0.77 0.58 0.37 0.3 0.7 0.64 0.34 0.34 0.65 0.71 0.3 0.37 0.57 0.77"/>
		<path class="s0" d="m2.18 13.9q-0.09-0.47-0.13-0.95-0.05-0.47-0.05-0.95 0-0.48 0.05-0.95 0.04-0.48 0.13-0.95"/>
		<path class="s0" d="m20.28 17.61q-0.27 0.4-0.58 0.77-0.3 0.37-0.64 0.7-0.34 0.34-0.71 0.65-0.37 0.3-0.77 0.57"/>
		<path class="s0" d="m21.82 10.1q0.09 0.47 0.13 0.95 0.05 0.47 0.05 0.95 0 0.48-0.05 0.95-0.04 0.48-0.13 0.95"/>
		<path class="s0" d="m3.72 6.39q0.27-0.4 0.58-0.77 0.3-0.37 0.64-0.7 0.34-0.34 0.71-0.65 0.37-0.3 0.77-0.57"/>
		<path class="s0" d="m6.39 20.28q-0.4-0.27-0.77-0.58-0.37-0.3-0.7-0.64-0.34-0.34-0.65-0.71-0.3-0.37-0.57-0.77"/>
		<path class="s0" d="m12 16c-2.21 0-4-1.79-4-4 0-2.21 1.79-4 4-4 2.21 0 4 1.79 4 4 0 2.21-1.79 4-4 4z"/>
	</g>
</svg>