<svg xmlns="http://www.w3.org/2000/svg" width="24" height="24" fill="none" stroke="currentColor" stroke-width="2" stroke-linecap="round" stroke-linejoin="round" class="icon icon-tabler icons-tabler-outline icon-tabler-pyramid"><path d="M11.528 1.062a1.947 1.947 0 0 0-.928.538c-.228.229-.791 1.122-4.587 7.281-2.38 3.86-4.365 7.108-4.412 7.216a2.474 2.474 0 0 0-.128.481c-.087.56.146 1.247.564 1.664.202.201.401.312 2.123 1.186 4.114 2.088 6.772 3.393 7.08 3.473.413.109 1.108.109 1.52 0 .206-.054.886-.37 2.18-1.014 3.873-1.925 6.767-3.408 6.94-3.556.553-.474.802-1.392.567-2.093-.065-.191-1.264-2.169-4.439-7.32-3.816-6.19-4.383-7.09-4.61-7.318-.504-.505-1.223-.712-1.87-.538m-.543 19.527c-.032.032-7.506-3.731-7.496-3.773.006-.025 1.694-2.771 3.751-6.103l3.74-6.058.01 7.959c.006 4.378.003 7.966-.005 7.975m9.535-3.754c0 .023-7.454 3.765-7.5 3.765-.011 0-.02-3.594-.02-7.987V4.627l3.76 6.092c2.068 3.35 3.76 6.102 3.76 6.116" fill="#000" fill-rule="evenodd" stroke="none"/></svg>