<svg xmlns="http://www.w3.org/2000/svg" width="24" height="24" fill="none" stroke="currentColor" stroke-width="2" stroke-linecap="round" stroke-linejoin="round" class="icon icon-tabler icons-tabler-outline icon-tabler-cone"><path d="M11.602 1.044c-.468.091-1.024.471-1.276.87-.155.245-8.018 14.744-8.192 15.105-.127.265-.134.301-.134.724 0 .583.045.807.243 1.211.645 1.311 2.891 2.345 6.097 2.804 1.263.182 1.881.218 3.66.218 1.31 0 1.861-.015 2.4-.068 4.371-.43 7.127-1.684 7.539-3.432.035-.149.06-.448.06-.716.001-.423-.008-.479-.113-.7-.149-.315-8.059-14.904-8.212-15.146-.415-.658-1.287-1.024-2.072-.87m4.408 9.354c3.142 5.794 3.99 7.388 3.99 7.499 0 .642-2.083 1.505-4.5 1.864-1.211.18-1.771.214-3.5.214s-2.289-.034-3.5-.214C6.082 19.402 4 18.539 4 17.896c0-.111.841-1.693 3.99-7.498C10.184 6.351 11.989 3.04 12 3.04c.011.001 1.816 3.312 4.01 7.358" fill="#000" fill-rule="evenodd" stroke="none"/></svg>