<svg xmlns="http://www.w3.org/2000/svg" width="24" height="24" fill="none" stroke="currentColor" stroke-width="2" stroke-linecap="round" stroke-linejoin="round" class="icon icon-tabler icons-tabler-outline icon-tabler-cylinder"><path d="M11.04 2.023c-1.568.132-2.216.238-3.2.522-2.009.581-3.358 1.577-3.731 2.755l-.089.28v12.84l.089.28C4.727 20.653 7.948 22 12 22s7.273-1.347 7.891-3.3l.089-.28V5.58l-.089-.28c-.515-1.626-2.813-2.839-6.071-3.204-.493-.056-2.395-.105-2.78-.073m2.686 2.074c2.067.249 3.769.942 4.223 1.72.115.197.033.399-.284.703-.657.629-2.123 1.152-3.885 1.386-.738.098-2.822.098-3.56 0-1.762-.234-3.228-.757-3.885-1.386-.317-.304-.399-.506-.284-.703.168-.288.559-.601 1.062-.852 1.065-.531 2.236-.807 3.987-.941.424-.033 2.144.016 2.626.073M6.869 9.126c3.134 1.265 8.05 1.145 10.852-.266L18 8.719v4.69c0 5.304.036 4.757-.335 5.111-.511.49-1.647.97-2.885 1.22-.97.196-1.432.235-2.78.235-1.348 0-1.81-.039-2.78-.235-1.238-.25-2.374-.73-2.885-1.22-.371-.354-.335.193-.335-5.111v-4.69l.279.141c.154.077.419.197.59.266" fill="#000" fill-rule="evenodd" stroke="none"/></svg>