<!-- Generated by IcoMoon.io -->
<svg version="1.1" xmlns="http://www.w3.org/2000/svg" width="1024" height="1024" viewBox="0 0 1024 1024">
<g id="icomoon-ignore">
</g>
<path fill="none" stroke-linejoin="round" stroke-linecap="round" stroke-miterlimit="4" stroke-width="85.3333" stroke="#000" d="M725.333 896c-47.128 0-85.333-38.205-85.333-85.333v0-85.333c0-47.128 38.205-85.333 85.333-85.333v0h85.333c47.128 0 85.333 38.205 85.333 85.333v0 85.333c0 47.128-38.205 85.333-85.333 85.333v0z"></path>
<path fill="none" stroke-linejoin="round" stroke-linecap="round" stroke-miterlimit="4" stroke-width="85.3333" stroke="#000" d="M725.333 384c-47.128 0-85.333-38.205-85.333-85.333v0-85.333c0-47.128 38.205-85.333 85.333-85.333v0h85.333c47.128 0 85.333 38.205 85.333 85.333v0 85.333c0 47.128-38.205 85.333-85.333 85.333v0z"></path>
<path fill="none" stroke-linejoin="round" stroke-linecap="round" stroke-miterlimit="4" stroke-width="85.3333" stroke="#000" d="M213.333 640c-47.128 0-85.333-38.205-85.333-85.333v0-85.333c0-47.128 38.205-85.333 85.333-85.333v0h85.333c47.128 0 85.333 38.205 85.333 85.333v0 85.333c0 47.128-38.205 85.333-85.333 85.333v0z"></path>
<path fill="none" stroke-linejoin="round" stroke-linecap="round" stroke-miterlimit="4" stroke-width="85.3333" stroke="#000" d="M640 768h-42.667c-47.128 0-85.333-38.205-85.333-85.333v0-341.333c0-47.128 38.205-85.333 85.333-85.333v0h42.667"></path>
<path fill="none" stroke-linejoin="round" stroke-linecap="round" stroke-miterlimit="4" stroke-width="85.3333" stroke="#000" d="M384 512h128"></path>
</svg>
