# WaveFront *.obj file (generated by Cinema 4D)

mtllib ./plane.mtl

v -2.000000 0.000000 -2.000000
v -2.000000 0.000000 2.000000
v 2.000000 0.000000 2.000000
v 2.000000 0.000000 -2.000000
v -2.000000 -0.026667 -2.000000
v -2.000000 -0.026667 2.000000
v 2.000000 -0.026667 2.000000
v 2.000000 -0.026667 -2.000000
# 8 vertices

vn 0.000000 1.000000 0.000000
vn 0.000000 -1.000000 0.000000
vn -1.000000 0.000000 0.000000
vn 0.000000 0.000000 1.000000
vn 1.000000 0.000000 0.000000
vn 0.000000 0.000000 -1.000000
# 6 normals

vt 1.000000 1.000000 0.000000
vt 0.000000 1.000000 0.000000
vt 0.000000 0.000000 0.000000
vt 1.000000 0.000000 0.000000
# 4 texture coordinates

o plane
usemtl default
f 1/3/1 2/2/1 3/1/1
f 1/3/1 3/1/1 4/4/1
f 5/3/2 7/1/2 6/2/2
f 5/3/2 8/4/2 7/1/2
f 6/2/3 2/2/3 1/3/3
f 7/1/4 3/1/4 2/2/4
f 8/4/5 4/4/5 3/1/5
f 5/3/6 1/3/6 4/4/6
f 5/3/3 6/2/3 1/3/3
f 6/2/4 7/1/4 2/2/4
f 7/1/5 8/4/5 3/1/5
f 8/4/6 5/3/6 4/4/6

