# WaveFront *.obj file (generated by Cinema 4D)

mtllib ./test.mtl

v -0.203020 -0.262000 -0.918570
v 0.201258 -0.262000 -0.918570
v 0.326195 0.122505 -0.918570
v -0.000895 0.360117 -0.918570
v -0.327847 0.122505 -0.918570
v -0.636181 0.223001 -0.717167
v -0.394126 -0.525158 -0.717522
v 0.392447 -0.525158 -0.717522
v 0.635555 0.222815 -0.717764
v -0.000895 0.685412 -0.717522
v 0.719209 -0.418889 -0.505612
v 0.837708 -0.055022 -0.504908
v 0.635555 0.566909 -0.505151
v 0.326195 0.791680 -0.505151
v -0.327847 0.791680 -0.505151
v -0.636923 0.566909 -0.504798
v -0.839304 -0.055208 -0.505151
v -0.721105 -0.418889 -0.505151
v -0.192084 -0.803394 -0.505151
v 0.190022 -0.803394 -0.504689
v -0.394126 -0.869066 -0.161325
v -0.721105 -0.631426 -0.161325
v 0.392747 -0.869066 -0.161217
v 0.719836 -0.631426 -0.161787
v 0.962617 0.116733 -0.161216
v 0.837708 0.501237 -0.161434
v 0.201258 0.963620 -0.161325
v -0.203020 0.963620 -0.161325
v -0.840274 0.501237 -0.161680
v -0.964131 0.116733 -0.161325
v -0.203020 -0.931203 0.163997
v 0.201258 -0.931203 0.163997
v 0.837708 -0.468792 0.163997
v 0.962617 -0.084288 0.163997
v 0.719509 0.663871 0.163997
v 0.392447 0.901511 0.163997
v -0.721105 0.663871 0.163997
v -0.394126 0.901511 0.163997
v -0.839304 -0.468792 0.163997
v -0.963645 -0.084288 0.163712
v 0.326195 -0.759235 0.508295
v 0.635555 -0.534465 0.507902
v -0.637151 -0.534464 0.508098
v -0.327847 -0.759235 0.508098
v -0.839419 0.087652 0.508031
v -0.721105 0.451334 0.508098
v -0.192084 0.835839 0.508098
v 0.190322 0.835839 0.508098
v 0.837708 0.087652 0.508098
v 0.719509 0.451334 0.508098
v -0.000867 -0.652967 0.720469
v -0.637637 -0.190584 0.720754
v -0.394126 0.557602 0.720469
v 0.392447 0.557602 0.720469
v 0.635555 -0.190556 0.720469
v -0.203020 0.294445 0.921274
v 0.201258 0.294445 0.921979
v 0.326195 -0.090060 0.921518
v -0.000867 -0.327672 0.921518
v -0.327846 -0.090060 0.921056
# 60 vertices

vn -0.000437 -0.000600 1.000000
vn -0.000873 -0.000400 1.000000
vn 0.000706 -0.000971 0.999999
vn 0.525742 0.723571 0.447259
vn 0.525768 0.723608 0.447168
vn 0.525662 0.723459 0.447534
vn 0.850591 -0.276512 0.447255
vn 0.850658 -0.276470 0.447151
vn 0.850632 -0.276428 0.447228
vn 0.850665 0.276326 -0.447228
vn 0.850642 0.276240 -0.447326
vn 0.850673 0.276329 -0.447211
vn 0.525142 -0.723818 -0.447564
vn 0.525065 -0.723735 -0.447788
vn 0.525326 -0.724070 -0.446940
vn 0.000000 0.000000 -1.000000
vn -0.849787 0.277138 -0.448394
vn -0.849714 0.275841 -0.449331
vn -0.849483 0.278898 -0.447878
vn -0.525865 -0.723443 -0.447321
vn -0.525854 -0.723467 -0.447295
vn -0.526020 -0.723362 -0.447270
vn -0.851234 -0.275826 0.446453
vn -0.851283 -0.276137 0.446167
vn -0.851001 -0.274864 0.447489
vn 0.000092 -0.894457 0.447154
vn -0.000155 -0.894478 0.447111
vn 0.000000 -0.894513 0.447042
vn -0.525988 0.723504 0.447077
vn -0.525858 0.723603 0.447071
vn -0.525929 0.723649 0.446913
vn 0.000000 0.894398 -0.447271
vn 0.000000 0.894361 -0.447345
vn 0.000000 0.894399 -0.447271
vn 0.000038 -0.982227 -0.187695
vn -0.000112 -0.982220 -0.187735
vn 0.000057 -0.982219 -0.187737
vn 0.000076 -0.982235 -0.187654
vn 0.000002 -0.982243 -0.187611
vn 0.000001 -0.982243 -0.187611
vn 0.000147 -0.607184 -0.794561
vn -0.000521 -0.607327 -0.794452
vn -0.000260 -0.607330 -0.794450
vn 0.000191 -0.607046 -0.794667
vn -0.000388 -0.606910 -0.794770
vn 0.000287 -0.606902 -0.794777
vn 0.934092 -0.303658 -0.187786
vn 0.934096 -0.303690 -0.187717
vn 0.934074 -0.303758 -0.187716
vn 0.934351 -0.302825 -0.187843
vn 0.934871 -0.301190 -0.187888
vn 0.934500 -0.302325 -0.187907
vn 0.577263 -0.187672 -0.794700
vn 0.577018 -0.188909 -0.794584
vn 0.577235 -0.188270 -0.794578
vn 0.577174 -0.187464 -0.794813
vn 0.576753 -0.188287 -0.794924
vn 0.577035 -0.187380 -0.794933
vn -0.577892 -0.186956 -0.794410
vn -0.579342 -0.188079 -0.793088
vn -0.578172 -0.186528 -0.794307
vn -0.577169 -0.186791 -0.794975
vn -0.577173 -0.187584 -0.794785
vn -0.577252 -0.187698 -0.794701
vn -0.357069 0.490981 -0.794631
vn -0.356568 0.491183 -0.794732
vn -0.357069 0.490809 -0.794738
vn -0.357966 0.490512 -0.794518
vn -0.359257 0.489776 -0.794389
vn -0.358164 0.490550 -0.794405
vn -0.577623 0.794431 -0.187703
vn -0.577582 0.794482 -0.187612
vn -0.577525 0.794523 -0.187614
vn -0.576508 0.795224 -0.187768
vn -0.574235 0.796858 -0.187809
vn -0.576028 0.795554 -0.187845
vn 0.577335 0.794674 -0.187559
vn 0.577394 0.794664 -0.187418
vn 0.577353 0.794677 -0.187490
vn 0.577324 0.794668 -0.187616
vn 0.577363 0.794646 -0.187589
vn 0.577330 0.794657 -0.187643
vn 0.356652 0.491031 -0.794788
vn 0.356637 0.490853 -0.794904
vn 0.356635 0.491012 -0.794808
vn 0.356669 0.491082 -0.794749
vn 0.356687 0.491005 -0.794788
vn 0.356688 0.491037 -0.794768
vn 0.000018 0.982265 0.187498
vn 0.000055 0.982265 0.187499
vn 0.000028 0.982265 0.187498
vn -0.000018 0.982265 0.187498
vn -0.000055 0.982265 0.187499
vn -0.000028 0.982265 0.187498
vn -0.000013 0.607115 0.794614
vn 0.001346 0.607350 0.794433
vn -0.000020 0.607333 0.794447
vn -0.000422 0.606891 0.794785
vn 0.000120 0.606678 0.794948
vn 0.000060 0.606679 0.794947
vn 0.934170 0.303561 0.187556
vn 0.934149 0.303571 0.187643
vn 0.934180 0.303531 0.187557
vn 0.934174 0.303573 0.187517
vn 0.934161 0.303608 0.187526
vn 0.934156 0.303615 0.187540
vn 0.577147 0.187548 0.794812
vn 0.577010 0.187532 0.794916
vn 0.577178 0.187474 0.794808
vn 0.577774 0.187420 0.794387
vn 0.578889 0.187146 0.793640
vn 0.577988 0.187422 0.794231
vn -0.934396 0.303196 0.187019
vn -0.934476 0.303971 0.185355
vn -0.934488 0.303047 0.186801
vn -0.934297 0.302237 0.189057
vn -0.934175 0.301093 0.191467
vn -0.934196 0.302295 0.189462
vn -0.934270 -0.303545 -0.187084
vn -0.934197 -0.303619 -0.187328
vn -0.934194 -0.303837 -0.186988
vn -0.934342 -0.303109 -0.187431
vn -0.934412 -0.302309 -0.188369
vn -0.934417 -0.302635 -0.187823
vn -0.577467 -0.794590 0.187505
vn -0.577484 -0.794586 0.187468
vn -0.577477 -0.794597 0.187447
vn -0.577450 -0.794594 0.187542
vn -0.577432 -0.794598 0.187580
vn -0.577440 -0.794587 0.187601
vn -0.577158 0.187959 0.794707
vn -0.577177 0.187621 0.794774
vn -0.577125 0.187546 0.794829
vn -0.576559 0.187533 0.795243
vn -0.575379 0.186341 0.796377
vn -0.576303 0.187564 0.795421
vn -0.356403 -0.491046 0.794890
vn -0.357253 -0.491613 0.794158
vn -0.356163 -0.491279 0.794854
vn -0.356609 -0.490816 0.794940
vn -0.357870 -0.490922 0.794308
vn -0.357377 -0.490752 0.794635
vn 0.356706 -0.490955 0.794811
vn 0.356812 -0.491134 0.794652
vn 0.356836 -0.491143 0.794636
vn 0.357013 -0.490902 0.794706
vn 0.357733 -0.490974 0.794338
vn 0.357089 -0.490777 0.794749
vn 0.577295 -0.794660 0.187737
vn 0.576841 -0.794986 0.187755
vn 0.577171 -0.794748 0.187749
vn 0.577502 -0.794514 0.187723
vn 0.577460 -0.794547 0.187713
vn 0.577502 -0.794516 0.187714
vn -0.001662 -0.000115 0.999999
vn 0.525822 0.723682 0.446986
vn 0.850672 -0.276491 0.447113
vn 0.850626 0.276196 -0.447383
vn 0.524935 -0.723568 -0.448211
vn -0.849826 0.274311 -0.450055
vn -0.525771 -0.723520 -0.447307
vn -0.851423 -0.276773 0.445506
vn -0.000232 -0.894461 0.447146
vn -0.525823 0.723579 0.447150
vn 0.000000 0.894343 -0.447382
vn -0.001745 -0.000000 0.999999
vn 0.525820 0.723682 0.446988
vn 0.850794 -0.276387 0.446945
vn 0.850595 0.276068 -0.447521
vn 0.524912 -0.723569 -0.448235
vn -0.849561 0.273245 -0.451201
vn -0.525832 -0.723516 -0.447243
vn -0.851381 -0.276759 0.445596
vn -0.000647 -0.894521 0.447026
vn -0.525597 0.723799 0.447060
vn 0.000000 0.894288 -0.447493
# 176 normals

vt 0.940000 0.509000 0.000000
vt 0.824000 0.463000 0.000000
vt 0.866000 0.528000 0.000000
vt 0.000000 1.000000 0.000000
vt 0.725000 0.380000 0.000000
vt 0.668000 0.490000 0.000000
vt 0.737000 0.456000 0.000000
vt 0.132000 0.929000 0.000000
vt 0.254000 0.902000 0.000000
vt 0.183000 0.872000 0.000000
vt 0.404000 0.420000 0.000000
vt 0.502000 0.343000 0.000000
vt 0.425000 0.346000 0.000000
vt 0.365000 0.737000 0.000000
vt 0.405000 0.854000 0.000000
vt 0.428000 0.781000 0.000000
vt 0.570000 0.739000 0.000000
vt 0.486000 0.648000 0.000000
vt 0.494000 0.725000 0.000000
vt 0.680000 0.035000 0.000000
vt 0.803000 0.055000 0.000000
vt 0.749000 0.001000 0.000000
vt 0.408000 0.607000 0.000000
vt 0.287000 0.634000 0.000000
vt 0.356000 0.664000 0.000000
vt 0.186000 0.455000 0.000000
vt 0.150000 0.574000 0.000000
vt 0.211000 0.528000 0.000000
vt 0.152000 0.662000 0.000000
vt 0.237000 0.753000 0.000000
vt 0.228000 0.677000 0.000000
vt 0.771000 0.323000 0.000000
vt 0.804000 0.203000 0.000000
vt 0.744000 0.251000 0.000000
vt 0.672000 0.239000 0.000000
vt 0.552000 0.271000 0.000000
vt 0.624000 0.299000 0.000000
vt 0.303000 0.782000 0.000000
vt 0.436000 0.767000 0.000000
vt 0.419000 0.619000 0.000000
vt 0.331000 0.985000 0.000000
vt 0.404000 0.985000 0.000000
vt 0.441000 0.917000 0.000000
vt 0.328000 0.856000 0.000000
vt 0.293000 0.919000 0.000000
vt 0.454000 0.908000 0.000000
vt 0.529000 0.891000 0.000000
vt 0.551000 0.822000 0.000000
vt 0.499000 0.766000 0.000000
vt 0.481000 0.606000 0.000000
vt 0.519000 0.539000 0.000000
vt 0.482000 0.476000 0.000000
vt 0.405000 0.477000 0.000000
vt 0.369000 0.541000 0.000000
vt 0.505000 0.142000 0.000000
vt 0.557000 0.194000 0.000000
vt 0.631000 0.175000 0.000000
vt 0.650000 0.105000 0.000000
vt 0.596000 0.050000 0.000000
vt 0.526000 0.068000 0.000000
vt 0.645000 0.167000 0.000000
vt 0.793000 0.192000 0.000000
vt 0.767000 0.124000 0.000000
vt 0.692000 0.111000 0.000000
vt 0.529000 0.415000 0.000000
vt 0.601000 0.426000 0.000000
vt 0.649000 0.367000 0.000000
vt 0.548000 0.286000 0.000000
vt 0.487000 0.303000 0.000000
vt 0.496000 0.154000 0.000000
vt 0.427000 0.189000 0.000000
vt 0.423000 0.261000 0.000000
vt 0.752000 0.452000 0.000000
vt 0.873000 0.404000 0.000000
vt 0.847000 0.336000 0.000000
vt 0.544000 0.454000 0.000000
vt 0.523000 0.528000 0.000000
vt 0.574000 0.580000 0.000000
vt 0.649000 0.560000 0.000000
vt 0.614000 0.435000 0.000000
vt 0.664000 0.563000 0.000000
vt 0.728000 0.605000 0.000000
vt 0.793000 0.572000 0.000000
vt 0.798000 0.496000 0.000000
vt 0.869000 0.246000 0.000000
vt 0.934000 0.213000 0.000000
vt 0.938000 0.136000 0.000000
vt 0.877000 0.096000 0.000000
vt 0.809000 0.130000 0.000000
vt 0.391000 0.471000 0.000000
vt 0.339000 0.415000 0.000000
vt 0.267000 0.431000 0.000000
vt 0.245000 0.503000 0.000000
vt 0.294000 0.557000 0.000000
vt 0.278000 0.558000 0.000000
vt 0.157000 0.647000 0.000000
vt 0.939000 0.227000 0.000000
vt 0.848000 0.320000 0.000000
vt 0.899000 0.371000 0.000000
vt 0.974000 0.352000 0.000000
vt 0.993000 0.281000 0.000000
vt 0.115000 0.599000 0.000000
vt 0.038000 0.600000 0.000000
vt 0.003000 0.663000 0.000000
vt 0.041000 0.729000 0.000000
vt 0.114000 0.729000 0.000000
vt 0.044000 0.745000 0.000000
vt 0.021000 0.819000 0.000000
vt 0.070000 0.871000 0.000000
vt 0.144000 0.855000 0.000000
vt 0.167000 0.785000 0.000000
vt 0.175000 0.799000 0.000000
vt 0.312000 0.859000 0.000000
vt 0.945000 0.432000 0.000000
vt 0.171000 0.995000 0.000000
vt 0.469000 0.463000 0.000000
vt 0.607000 0.673000 0.000000
vt 0.111000 0.458000 0.000000
vt 0.246000 0.979000 0.000000
vt 0.556000 0.616000 0.000000
vt 0.086000 0.529000 0.000000
# 121 texture coordinates

o Platonic
usemtl default
f 58/3/3 57/2/2 59/1/1
f 54/7/6 50/6/5 48/5/4
f 42/10/9 33/9/8 55/8/7
f 9/13/12 13/12/11 12/11/10
f 8/16/15 11/15/14 20/14/13
f 2/19/16 1/18/16 3/17/16
f 17/22/19 30/21/18 6/20/17
f 19/25/22 21/24/21 7/23/20
f 39/28/25 43/27/24 40/26/23
f 31/31/28 32/30/27 44/29/26
f 38/34/31 37/33/30 47/32/29
f 27/37/34 14/36/33 28/35/32
f 20/14/37 23/38/36 32/30/35
f 31/31/40 21/24/39 19/25/38
f 2/19/43 8/39/42 20/14/41
f 19/25/46 7/40/45 1/18/44
f 12/43/49 25/42/48 34/41/47
f 33/45/52 24/44/51 11/15/50
f 3/48/55 9/47/54 12/46/53
f 11/15/58 8/16/57 2/49/56
f 6/52/61 5/51/60 1/50/59
f 7/23/64 18/54/63 17/53/62
f 15/57/67 10/56/66 4/55/65
f 5/60/70 6/59/69 16/58/68
f 38/34/73 28/35/72 15/61/71
f 16/64/76 29/63/75 37/62/74
f 36/67/79 35/66/78 26/65/77
f 13/12/82 14/68/81 27/37/80
f 10/56/85 14/36/84 13/69/83
f 9/72/88 3/71/87 4/70/86
f 48/5/91 36/67/90 27/37/89
f 28/35/94 38/34/93 47/32/92
f 57/2/97 54/73/96 48/5/95
f 47/32/100 53/75/99 56/74/98
f 34/78/103 25/77/102 26/76/101
f 35/80/106 50/6/105 49/79/104
f 55/82/109 49/81/108 50/6/107
f 54/7/112 57/84/111 58/83/110
f 40/87/115 45/86/114 46/85/113
f 37/33/118 29/89/117 30/88/116
f 30/91/121 17/90/120 18/54/119
f 22/94/124 39/93/123 40/92/122
f 22/95/127 21/24/126 31/31/125
f 44/96/130 43/27/129 39/28/128
f 53/98/133 46/85/132 45/97/131
f 52/101/136 60/100/135 56/99/134
f 52/103/139 43/102/138 44/29/137
f 51/106/142 59/105/141 60/104/140
f 58/108/145 59/107/144 51/106/143
f 41/111/148 42/110/147 55/109/146
f 41/112/151 32/30/150 23/38/149
f 24/113/154 33/9/153 42/10/152
f 60/114/155 59/1/1 57/2/2
f 36/67/156 48/5/4 50/6/5
f 49/115/157 55/8/7 33/9/8
f 25/116/158 12/11/10 13/12/11
f 23/38/159 20/14/13 11/15/14
f 4/117/16 3/17/16 1/18/16
f 16/64/160 6/20/17 30/21/18
f 18/54/161 7/23/20 21/24/21
f 45/118/162 40/26/23 43/27/24
f 51/106/163 44/29/26 32/30/27
f 53/98/164 47/32/29 37/33/30
f 15/57/165 28/35/32 14/36/33
f 19/25/38 20/14/37 32/30/35
f 32/30/35 31/31/40 19/25/38
f 1/18/44 2/19/43 20/14/41
f 20/14/41 19/25/46 1/18/44
f 11/15/50 12/43/49 34/41/47
f 34/41/47 33/45/52 11/15/50
f 2/49/56 3/48/55 12/46/53
f 12/46/53 11/15/58 2/49/56
f 17/53/62 6/52/61 1/50/59
f 1/50/59 7/23/64 17/53/62
f 16/58/68 15/57/67 4/55/65
f 4/55/65 5/60/70 16/58/68
f 37/62/74 38/34/73 15/61/71
f 15/61/71 16/64/76 37/62/74
f 27/37/80 36/67/79 26/65/77
f 26/65/77 13/12/82 27/37/80
f 4/70/86 10/56/85 13/69/83
f 13/69/83 9/72/88 4/70/86
f 47/32/92 48/5/91 27/37/89
f 27/37/89 28/35/94 47/32/92
f 56/74/98 57/2/97 48/5/95
f 48/5/95 47/32/100 56/74/98
f 49/79/104 34/78/103 26/76/101
f 26/76/101 35/80/106 49/79/104
f 58/83/110 55/82/109 50/6/107
f 50/6/107 54/7/112 58/83/110
f 30/88/116 40/87/115 46/85/113
f 46/85/113 37/33/118 30/88/116
f 40/92/122 30/91/121 18/54/119
f 18/54/119 22/94/124 40/92/122
f 39/28/128 22/95/127 31/31/125
f 31/31/125 44/96/130 39/28/128
f 56/99/134 53/98/133 45/97/131
f 45/97/131 52/101/136 56/99/134
f 60/104/140 52/103/139 44/29/137
f 44/29/137 51/106/142 60/104/140
f 55/109/146 58/108/145 51/106/143
f 51/106/143 41/111/148 55/109/146
f 42/10/152 41/112/151 23/38/149
f 23/38/149 24/113/154 42/10/152
f 56/74/166 60/114/155 57/2/2
f 35/80/167 36/67/156 50/6/5
f 34/119/168 49/115/157 33/9/8
f 26/65/169 25/116/158 13/12/11
f 24/44/170 23/38/159 11/15/14
f 5/120/16 4/117/16 1/18/16
f 29/63/171 16/64/160 30/21/18
f 22/94/172 18/54/161 21/24/21
f 52/121/173 45/118/162 43/27/24
f 41/111/174 51/106/163 32/30/27
f 46/85/175 53/98/164 37/33/30
f 10/56/176 15/57/165 14/36/33

