# WaveFront *.obj file (generated by Cinema 4D)

mtllib ./gzm.mtl

v 0.000000 0.000000 -1.169966
v 0.000000 0.000000 -1.169966
v 0.000000 0.000000 -1.169966
v 0.000000 0.000000 -1.169966
v -1.169966 0.000000 0.000000
v -1.169966 0.000000 0.000000
v -0.000000 -1.169966 -0.000000
v -0.000000 -1.169966 -0.000000
v -1.169966 0.000000 0.000000
v 0.162764 -0.162764 -0.829935
v -0.162764 -0.162764 -0.829935
v -0.162764 0.162764 -0.829935
v 0.162764 0.162764 -0.829935
v 0.162764 -0.829935 -0.162764
v 0.162764 -0.829935 0.162764
v -0.162764 -0.829935 -0.162764
v -0.000000 -1.169966 -0.000000
v -0.000000 -1.169966 -0.000000
v -0.162764 -0.829935 0.162764
v -1.169966 0.000000 0.000000
v -0.829935 0.062849 0.062849
v -0.829935 0.062849 -0.062849
v -0.829935 -0.062849 0.062849
v -0.829935 -0.062849 -0.062849
v -0.062849 -0.829935 0.062849
v -0.062849 -0.829935 -0.062849
v 0.062849 -0.829935 0.062849
v 0.062849 -0.829935 -0.062849
v 0.062849 0.062849 -0.829935
v -0.062849 0.062849 -0.829935
v -0.062849 -0.062849 -0.829935
v 0.062849 -0.062849 -0.829935
v -0.829935 0.162764 0.162764
v -0.829935 0.162764 -0.162764
v -0.829935 -0.162764 0.162764
v -0.829935 -0.162764 -0.162764
v -0.120864 -0.120864 -0.120864
v -0.120864 0.120864 -0.120864
v 0.120864 -0.120864 -0.120864
v 0.120864 0.120864 -0.120864
v 0.120864 -0.120864 0.120864
v 0.120864 0.120864 0.120864
v -0.120864 -0.120864 0.120864
v -0.120864 0.120864 0.120864
v 0.120864 -0.062849 -0.062849
v 0.120864 0.062849 -0.062849
v 0.120864 -0.062849 0.062849
v 0.120864 0.062849 0.062849
v 0.062849 -0.062849 0.120864
v 0.062849 0.062849 0.120864
v -0.062849 -0.062849 0.120864
v -0.062849 0.062849 0.120864
v -0.062849 0.120864 -0.062849
v 0.062849 0.120864 -0.062849
v 0.062849 0.120864 0.062849
v -0.062849 0.120864 0.062849
v 0.829935 -0.062849 -0.062849
v 0.829935 0.062849 -0.062849
v 0.829935 -0.062849 0.062849
v 0.829935 0.062849 0.062849
v 0.062849 -0.062849 0.829935
v 0.062849 0.062849 0.829935
v -0.062849 -0.062849 0.829935
v -0.062849 0.062849 0.829935
v -0.062849 0.829935 -0.062849
v 0.062849 0.829935 -0.062849
v 0.062849 0.829935 0.062849
v -0.062849 0.829935 0.062849
v 0.829935 -0.162764 -0.162764
v 0.829935 0.162764 -0.162764
v 0.829935 -0.162764 0.162764
v 0.829935 0.162764 0.162764
v 0.162764 -0.162764 0.829935
v 0.162764 0.162764 0.829935
v -0.162764 -0.162764 0.829935
v -0.162764 0.162764 0.829935
v -0.162764 0.829935 -0.162764
v 0.162764 0.829935 -0.162764
v 0.162764 0.829935 0.162764
v -0.162764 0.829935 0.162764
v 1.169966 -0.000000 0.000000
v 1.169966 -0.000000 0.000000
v 1.169966 -0.000000 0.000000
v 1.169966 -0.000000 0.000000
v -0.000000 -0.000000 1.169966
v -0.000000 -0.000000 1.169966
v -0.000000 -0.000000 1.169966
v -0.000000 -0.000000 1.169966
v 0.000000 1.169966 0.000000
v 0.000000 1.169966 0.000000
v 0.000000 1.169966 0.000000
v 0.000000 1.169966 0.000000
# 92 vertices

vn 0.000000 0.902000 -0.431688
vn -1.000000 0.000000 -0.000000
vn -0.996125 -0.087656 -0.000000
vn -0.996125 0.000000 -0.087656
vn -0.975187 0.000000 -0.221344
vn -0.000000 -0.902000 -0.431688
vn 0.902000 -0.000000 -0.431688
vn -0.000000 -0.431688 0.902000
vn 1.000000 -0.000000 0.000000
vn 0.902000 -0.431688 0.000000
vn 0.000000 -0.431688 -0.902000
vn -0.975187 -0.221344 -0.000000
vn -0.431688 -0.000000 0.902000
vn -0.431688 -0.902000 -0.000000
vn -0.431688 0.000000 -0.902000
vn -0.431688 0.902000 0.000000
vn -0.000000 -0.000000 1.000000
vn 0.000000 1.000000 0.000000
vn 0.000000 0.000000 -1.000000
vn 0.996125 -0.000000 0.087719
vn 0.996125 0.087719 0.000000
vn -0.000000 -1.000000 -0.000000
vn 0.975187 -0.000000 0.221344
vn 0.975187 0.221344 0.000000
vn 0.431750 0.000000 -0.901969
vn 0.431750 0.901969 0.000000
vn 0.431750 -0.000000 0.901969
vn 0.431750 -0.901969 -0.000000
vn 0.000000 0.901969 0.431750
vn -0.901969 0.000000 0.431750
vn -0.000000 -0.901969 0.431750
vn -0.901969 0.431750 -0.000000
vn -0.000000 0.431750 0.901969
vn 0.000000 0.431750 -0.901969
# 34 normals

vt 0.480000 0.480000 0.000000
vt 0.520000 0.480000 0.000000
vt 0.000000 1.000000 0.000000
vt 0.480000 0.520000 0.000000
vt 0.520000 0.520000 0.000000
vt 0.240000 0.760000 0.000000
vt 0.760000 0.760000 0.000000
vt 0.240000 0.240000 0.000000
vt 0.760000 0.240000 0.000000
vt 1.000000 1.000000 0.000000
vt 0.000000 0.000000 0.000000
vt 1.000000 0.000000 0.000000
# 12 texture coordinates

o Cube.1
usemtl default
f 12/2/1 13/1/1 4/1/1
f 9/1/2 6/4/2 5/2/2
f 18/1/2 17/4/3 8/2/2
f 11/5/5 12/2/5 3/2/4
f 4/1/2 1/4/2 3/2/4
f 10/4/6 11/5/6 2/5/6
f 13/1/7 10/4/7 1/4/7
f 15/2/8 19/1/8 18/1/8
f 33/1/9 22/6/9 34/4/9
f 14/5/10 15/2/10 8/2/10
f 34/4/9 24/7/9 36/5/9
f 16/4/11 14/5/11 7/5/11
f 19/1/12 16/4/12 17/4/3
f 35/2/13 33/1/13 9/1/13
f 36/5/14 35/2/14 5/2/14
f 34/4/15 36/5/15 20/5/15
f 33/1/16 34/4/16 6/4/16
f 12/2/17 29/8/17 13/1/17
f 36/5/9 23/9/9 35/2/9
f 35/2/9 21/8/9 33/1/9
f 19/1/18 26/6/18 16/4/18
f 1/4/2 2/5/2 3/2/4
f 16/4/18 28/7/18 14/5/18
f 17/4/3 7/5/2 8/2/2
f 6/4/2 20/5/2 5/2/2
f 14/5/18 27/9/18 15/2/18
f 11/5/17 30/9/17 12/2/17
f 10/4/17 31/7/17 11/5/17
f 13/1/17 32/6/17 10/4/17
f 15/2/18 25/8/18 19/1/18
f 33/1/9 21/8/9 22/6/9
f 34/4/9 22/6/9 24/7/9
f 36/5/9 24/7/9 23/9/9
f 35/2/9 23/9/9 21/8/9
f 19/1/18 25/8/18 26/6/18
f 16/4/18 26/6/18 28/7/18
f 14/5/18 28/7/18 27/9/18
f 15/2/18 27/9/18 25/8/18
f 13/1/17 29/8/17 32/6/17
f 10/4/17 32/6/17 31/7/17
f 11/5/17 31/7/17 30/9/17
f 12/2/17 30/9/17 29/8/17
f 9/1/2 33/1/2 6/4/2
f 6/4/2 34/4/2 20/5/2
f 20/5/2 36/5/2 5/2/2
f 5/2/2 35/2/2 9/1/2
f 18/1/2 19/1/12 17/4/3
f 17/4/3 16/4/12 7/5/2
f 7/5/2 14/5/2 8/2/2
f 8/2/2 15/2/2 18/1/2
f 4/1/2 13/1/2 1/4/2
f 1/4/2 10/4/2 2/5/2
f 2/5/2 11/5/5 3/2/4
f 3/2/4 12/2/5 4/1/2
f 37/11/19 38/3/19 40/10/19
f 81/1/9 82/4/9 83/2/9
f 85/1/9 86/4/20 87/2/9
f 43/11/2 44/3/2 38/10/2
f 89/1/9 92/4/9 90/2/21
f 43/11/22 37/3/22 39/10/22
f 45/8/9 39/11/9 40/3/9
f 46/6/9 40/3/9 42/10/9
f 48/7/9 42/10/9 41/12/9
f 47/9/9 41/12/9 39/11/9
f 49/8/17 41/11/17 42/3/17
f 50/6/17 42/3/17 44/10/17
f 52/7/17 44/10/17 43/12/17
f 51/9/17 43/12/17 41/11/17
f 53/8/18 38/11/18 44/3/18
f 56/6/18 44/3/18 42/10/18
f 55/7/18 42/10/18 40/12/18
f 54/9/18 40/12/18 38/11/18
f 57/8/19 45/8/19 46/6/19
f 58/6/18 46/6/18 48/7/18
f 60/7/17 48/7/17 47/9/17
f 59/9/22 47/9/22 45/8/22
f 61/8/9 49/8/9 50/6/9
f 62/6/18 50/6/18 52/7/18
f 64/7/2 52/7/2 51/9/2
f 63/9/22 51/9/22 49/8/22
f 65/8/2 53/8/2 56/6/2
f 68/6/17 56/6/17 55/7/17
f 67/7/9 55/7/9 54/9/9
f 66/9/19 54/9/19 53/8/19
f 69/1/2 57/8/2 58/6/2
f 70/4/2 58/6/2 60/7/2
f 72/5/2 60/7/2 59/9/2
f 71/2/2 59/9/2 57/8/2
f 73/1/19 61/8/19 62/6/19
f 74/4/19 62/6/19 64/7/19
f 76/5/19 64/7/19 63/9/19
f 75/2/19 63/9/19 61/8/19
f 77/1/22 65/8/22 68/6/22
f 80/4/22 68/6/22 67/7/22
f 79/5/22 67/7/22 66/9/22
f 78/2/22 66/9/22 65/8/22
f 81/1/9 69/1/9 82/4/9
f 82/4/9 70/4/9 84/5/9
f 84/5/9 72/5/9 83/2/9
f 83/2/9 71/2/9 81/1/9
f 85/1/9 73/1/23 86/4/20
f 86/4/20 74/4/23 88/5/9
f 88/5/9 76/5/9 87/2/9
f 87/2/9 75/2/9 85/1/9
f 89/1/9 77/1/9 92/4/9
f 92/4/9 80/4/9 91/5/9
f 91/5/9 79/5/24 90/2/21
f 90/2/21 78/2/24 89/1/9
f 37/11/19 40/10/19 39/12/19
f 82/4/9 84/5/9 83/2/9
f 86/4/20 88/5/9 87/2/9
f 43/11/2 38/10/2 37/12/2
f 92/4/9 91/5/9 90/2/21
f 43/11/22 39/10/22 41/12/22
f 45/8/9 40/3/9 46/6/9
f 46/6/9 42/10/9 48/7/9
f 48/7/9 41/12/9 47/9/9
f 47/9/9 39/11/9 45/8/9
f 49/8/17 42/3/17 50/6/17
f 50/6/17 44/10/17 52/7/17
f 52/7/17 43/12/17 51/9/17
f 51/9/17 41/11/17 49/8/17
f 53/8/18 44/3/18 56/6/18
f 56/6/18 42/10/18 55/7/18
f 55/7/18 40/12/18 54/9/18
f 54/9/18 38/11/18 53/8/18
f 57/8/19 46/6/19 58/6/19
f 58/6/18 48/7/18 60/7/18
f 60/7/17 47/9/17 59/9/17
f 59/9/22 45/8/22 57/8/22
f 61/8/9 50/6/9 62/6/9
f 62/6/18 52/7/18 64/7/18
f 64/7/2 51/9/2 63/9/2
f 63/9/22 49/8/22 61/8/22
f 65/8/2 56/6/2 68/6/2
f 68/6/17 55/7/17 67/7/17
f 67/7/9 54/9/9 66/9/9
f 66/9/19 53/8/19 65/8/19
f 69/1/2 58/6/2 70/4/2
f 70/4/2 60/7/2 72/5/2
f 72/5/2 59/9/2 71/2/2
f 71/2/2 57/8/2 69/1/2
f 73/1/19 62/6/19 74/4/19
f 74/4/19 64/7/19 76/5/19
f 76/5/19 63/9/19 75/2/19
f 75/2/19 61/8/19 73/1/19
f 77/1/22 68/6/22 80/4/22
f 80/4/22 67/7/22 79/5/22
f 79/5/22 66/9/22 78/2/22
f 78/2/22 65/8/22 77/1/22
f 69/1/25 70/4/25 82/4/25
f 70/4/26 72/5/26 84/5/26
f 72/5/27 71/2/27 83/2/27
f 71/2/28 69/1/28 81/1/28
f 73/1/23 74/4/23 86/4/20
f 74/4/29 76/5/29 88/5/29
f 76/5/30 75/2/30 87/2/30
f 75/2/31 73/1/31 85/1/31
f 77/1/32 80/4/32 92/4/32
f 80/4/33 79/5/33 91/5/33
f 79/5/24 78/2/24 90/2/21
f 78/2/34 77/1/34 89/1/34

