<svg xmlns="http://www.w3.org/2000/svg" width="24" height="24" fill="none" stroke="currentColor" stroke-width="2" stroke-linecap="round" stroke-linejoin="round" class="icon icon-tabler icons-tabler-outline icon-tabler-a-b-2"><path d="m5.62 2.022-.3.062c-.292.056-.884.347-1.169.573-.521.415-.965 1.132-1.09 1.763-.055.274-.062.645-.052 2.603l.011 2.283.121.197a.998.998 0 0 0 1.718 0c.12-.195.121-.203.134-.85L5.007 8h1.986l.014.653c.013.647.014.655.134.85a.998.998 0 0 0 1.718 0l.121-.197.011-2.283c.01-1.958.003-2.329-.052-2.603-.125-.632-.569-1.349-1.09-1.762-.27-.214-.779-.476-1.089-.56-.219-.06-.988-.111-1.14-.076m5.959.05a.982.982 0 0 0-.577.908c0 .284.089.505.282.697.229.23.414.286 1.069.324.686.039 1.042.089 1.573.222a7.98 7.98 0 0 1 5.132 4.027c.578 1.097.851 2.128.924 3.49.029.54.087.723.301.937a.995.995 0 0 0 1.458-.049c.219-.255.275-.51.243-1.087-.142-2.515-1.102-4.741-2.802-6.496A9.916 9.916 0 0 0 14.4 2.28a8.417 8.417 0 0 0-1.98-.265c-.609-.017-.697-.011-.841.057M6.425 4.113c.182.094.376.291.48.487.061.115.077.252.088.77l.014.63H4.993l.014-.63c.015-.69.04-.78.287-1.043a.949.949 0 0 1 1.131-.214m-3.848 6.963a1.098 1.098 0 0 0-.521.55c-.058.15-.064.274-.044.825.114 3.138 1.798 6.098 4.488 7.887.467.311 1.514.838 2.065 1.039.949.347 2.146.574 3.115.591.494.009.556.002.73-.083.323-.157.59-.566.59-.905 0-.182-.131-.511-.259-.654-.236-.261-.398-.312-1.141-.361-.78-.051-1.201-.121-1.834-.303a8.078 8.078 0 0 1-4.576-3.473C4.462 15.016 4 13.456 4 12.169c0-.531-.19-.89-.571-1.08a1.136 1.136 0 0 0-.852-.013m13.118 2.981a1.04 1.04 0 0 0-.567.459l-.108.184-.011 3.212c-.007 2.093.003 3.265.03 3.364.06.222.251.463.469.591l.192.113 1.765.012c1.994.013 2.137-.001 2.655-.26.414-.207.885-.678 1.092-1.092.458-.917.334-2.009-.312-2.747l-.18-.206.083-.194c.193-.445.245-1.036.137-1.553-.186-.893-.987-1.694-1.88-1.88-.38-.079-3.113-.082-3.365-.003m3.149 2.088c.173.174.201.42.068.614-.154.228-.208.24-1.102.24L17 17v-1.004l.859.012.86.012.125.125m.504 3.029c.131.144.14.17.122.354-.015.156-.047.227-.145.326l-.126.126-1.1.012-1.099.012v-1.008l1.103.012 1.103.012.142.154" fill="#000" fill-rule="evenodd" stroke="none"/></svg>