<svg xmlns="http://www.w3.org/2000/svg" width="24" height="24" fill="none" stroke="currentColor" stroke-width="2" stroke-linecap="round" stroke-linejoin="round" class="icon icon-tabler icons-tabler-outline icon-tabler-a-b"><path d="M11.695 5.057a1.04 1.04 0 0 0-.567.459l-.108.184v12.606l.121.197a.998.998 0 0 0 1.718 0l.121-.197V5.7l-.108-.184a1.005 1.005 0 0 0-1.177-.459M4.873 7.06a3.536 3.536 0 0 0-1.915 1.045c-.396.419-.64.844-.828 1.443l-.11.352v6.406l.121.197a.998.998 0 0 0 1.718 0l.121-.197.012-1.653L4.003 13h2.994l.011 1.653.012 1.653.121.197a.998.998 0 0 0 1.718 0l.121-.197.011-3.023c.007-1.939-.003-3.119-.03-3.291a3.538 3.538 0 0 0-2.583-2.874c-.419-.109-1.098-.135-1.505-.058m10.822-.004c-.23.074-.44.244-.567.46l-.108.184-.011 4.213c-.007 2.759.004 4.265.03 4.364.06.221.251.462.469.59l.192.113h1.92c1.901 0 1.923-.001 2.22-.094a3.086 3.086 0 0 0 2.046-2.046c.135-.434.135-1.247 0-1.679a2.905 2.905 0 0 0-.484-.953L21.238 12l.164-.208c.207-.262.364-.571.484-.953.135-.432.135-1.245 0-1.679a3.08 3.08 0 0 0-2.025-2.037c-.32-.099-.326-.1-2.161-.11-1.441-.008-1.876.001-2.005.043M6.119 9.143c.298.136.609.449.743.749.089.198.112.318.129.674l.02.434H3.989l.02-.435c.017-.359.04-.477.128-.67.189-.416.614-.766 1.037-.856.267-.057.696-.009.945.104m13.191-.082c.378.112.69.537.69.94 0 .33-.216.695-.516.871l-.184.108-1.15.012-1.15.013V9h1.053c.826 0 1.097.013 1.257.061m0 4c.378.112.69.537.69.94 0 .33-.216.695-.516.871l-.184.108-1.15.012-1.15.013V13h1.053c.826 0 1.097.013 1.257.061" fill="#000" fill-rule="evenodd" stroke="none"/></svg>