<svg xmlns="http://www.w3.org/2000/svg" width="24" height="24" fill="none" stroke="currentColor" stroke-width="2" stroke-linecap="round" stroke-linejoin="round"><path d="M11.695 1.057c-.644.201-.896.983-.497 1.534.065.09.201.212.302.271.17.1.24.111.979.163 1.356.094 2.36.353 3.461.892 1.217.596 2.229 1.406 3.127 2.503.471.576 1.076 1.67 1.39 2.511.619 1.665.705 3.546.243 5.354a9.12 9.12 0 0 1-1.842 3.535c-.371.434-.466.627-.466.944 0 .44.288.816.722.942.25.073.462.051.719-.073.274-.132.999-1.008 1.517-1.833 1.372-2.185 1.929-4.97 1.507-7.54-.378-2.304-1.457-4.429-3.053-6.011-1.923-1.907-4.343-3.012-7.024-3.208-.703-.051-.879-.049-1.085.016M5.083 3.49c-.217.105-1.17 1.02-1.308 1.256-.357.608.053 1.409.758 1.482.411.042.546-.036 1.245-.721.392-.384.641-.662.68-.756a1.153 1.153 0 0 0-.014-.771 1.212 1.212 0 0 0-.533-.518c-.217-.09-.611-.077-.828.028M9.6 7.041c-.099.02-.326.109-.505.198-.523.258-.878.705-1.033 1.299-.093.356-.093 6.563-.001 6.924.1.389.254.659.536.941a1.97 1.97 0 0 0 2.063.48c.138-.048 1.351-.749 2.859-1.653 2.261-1.355 2.656-1.606 2.883-1.83a1.948 1.948 0 0 0 .02-2.784c-.206-.208-.632-.479-2.862-1.818-1.741-1.046-2.711-1.605-2.891-1.667-.306-.106-.795-.147-1.069-.09m-7.36.876c-.392.12-.599.358-.757.871-.22.712-.368 1.48-.447 2.317-.066.71-.038 1.046.109 1.285a.999.999 0 0 0 1.709.001c.105-.171.119-.236.151-.72.06-.901.168-1.505.456-2.551.195-.711-.52-1.416-1.221-1.203m10.33 2.625c1.314.791 2.39 1.449 2.39 1.462 0 .013-1.075.669-2.39 1.457a767.501 767.501 0 0 0-2.48 1.49l-.09.058V8.991l.09.057c.049.031 1.165.704 2.48 1.494M2.463 15.081a.958.958 0 0 0-.616.982c.034.525.871 1.985 1.73 3.017.45.541 1.057 1.12 1.283 1.226.365.17.747.108 1.06-.173a.92.92 0 0 0 .329-.716c.003-.358-.065-.477-.566-.997-.779-.808-1.3-1.536-1.775-2.483-.297-.593-.386-.703-.678-.838a.913.913 0 0 0-.767-.018m13.046 5.2c-1.324.537-2.488.755-3.787.707-.91-.034-1.857-.202-2.618-.466-.274-.095-.647-.107-.838-.027-.498.208-.753.814-.546 1.296.144.336.357.498.865.662a11.72 11.72 0 0 0 1.855.433c.83.129 2.326.13 3.14.002 1.246-.195 2.816-.707 3.328-1.086.157-.116.325-.422.356-.648.054-.395-.173-.802-.553-.992-.361-.181-.497-.167-1.202.119" fill-rule="evenodd" fill="#000" stroke="none"/></svg>