<svg version="1.2" xmlns="http://www.w3.org/2000/svg" width="24" height="24"><path d="M11.232 2.044c-.589.046-1.174.144-1.369.231-.364.162-.564.484-.561.905.002.446.221.763.635.921.197.075.444.069 1.063-.026.524-.08 1.704-.058 2.293.044.543.094.698.088.948-.039.306-.156.559-.574.559-.921 0-.28-.234-.665-.498-.82-.225-.132-.883-.251-1.662-.3-.656-.042-.806-.041-1.408.005M6.62 3.595c-.209.097-.809.557-1.36 1.046C3.571 6.137 2.465 8.217 2.093 10.6c-.101.647-.101 2.153 0 2.8.348 2.228 1.297 4.117 2.844 5.662 1.552 1.55 3.438 2.497 5.663 2.845.647.101 2.153.101 2.8 0 2.739-.428 5.001-1.782 6.648-3.979.322-.429.4-.601.4-.884 0-.643-.529-1.085-1.182-.987-.274.041-.469.201-.829.679-1.015 1.349-2.406 2.358-3.943 2.862a8.408 8.408 0 0 1-2.994.366c-1.149-.082-2.048-.315-2.999-.781-1.538-.751-2.913-2.116-3.671-3.643-.464-.933-.723-1.945-.81-3.16-.035-.483.038-1.381.162-2.008.37-1.87 1.452-3.55 3.099-4.812.547-.42.652-.544.722-.857.136-.608-.342-1.184-.98-1.182-.15 0-.304.029-.403.074m10.054.021a1.028 1.028 0 0 0-.629.738c-.049.227.021.593.144.761.042.058.292.267.554.465a9.1 9.1 0 0 1 1.697 1.699c.422.552.542.653.866.726.679.152 1.315-.489 1.168-1.175-.102-.476-1.232-1.81-2.174-2.568-.475-.382-.826-.618-.988-.664a1.2 1.2 0 0 0-.638.018M9.6 7.041c-.099.02-.326.109-.505.198-.523.258-.878.705-1.033 1.299-.093.356-.093 6.563-.001 6.924.1.389.254.659.536.941a1.97 1.97 0 0 0 2.063.48c.138-.048 1.351-.749 2.859-1.653 2.261-1.355 2.656-1.606 2.883-1.83a1.948 1.948 0 0 0 .02-2.784c-.206-.208-.632-.479-2.862-1.818-1.741-1.046-2.711-1.605-2.891-1.667-.306-.106-.795-.147-1.069-.09m2.97 3.501c1.314.791 2.39 1.449 2.39 1.462 0 .013-1.075.669-2.39 1.457a767.501 767.501 0 0 0-2.48 1.49l-.09.058V8.991l.09.057c.049.031 1.165.704 2.48 1.494m7.99-1.225a1.004 1.004 0 0 0-.66.619c-.077.199-.072.416.024 1.064.084.571.063 1.65-.044 2.293-.091.542-.091.558-.021.78.098.312.357.571.673.67.2.063.263.066.457.026.415-.088.718-.394.809-.819.171-.797.24-1.923.165-2.71-.077-.814-.155-1.234-.269-1.443-.213-.391-.72-.606-1.134-.48" fill-rule="evenodd"/></svg>