<svg xmlns="http://www.w3.org/2000/svg" width="24" height="24" fill="none" stroke="currentColor" stroke-width="2" stroke-linecap="round" stroke-linejoin="round" class="icon icon-tabler icons-tabler-outline icon-tabler-alert-triangle"><path d="M11.36 1.743c-.363.077-1.009.411-1.303.674a3.346 3.346 0 0 0-.443.51c-.281.41-8.241 13.715-8.356 13.967-.175.381-.237.694-.237 1.186 0 .542.066.832.297 1.3a2.823 2.823 0 0 0 1.302 1.302c.66.325-.204.298 9.38.298 9.583 0 8.719.027 9.38-.298a2.851 2.851 0 0 0 1.302-1.302c.231-.468.297-.758.297-1.3 0-.491-.062-.805-.235-1.183-.115-.25-8.079-13.563-8.358-13.97a3.346 3.346 0 0 0-.443-.51c-.31-.277-.941-.597-1.336-.678a3.577 3.577 0 0 0-1.247.004m1.02 2.013c.088.041.208.126.267.189.142.154 8.233 13.671 8.305 13.875.156.446-.147 1.009-.612 1.136-.226.062-16.433.062-16.677 0-.498-.125-.801-.754-.587-1.216.131-.283 8.167-13.676 8.277-13.795A.879.879 0 0 1 12 3.682c.13 0 .286.03.38.074m-.685 4.301a1.04 1.04 0 0 0-.567.459l-.108.184v4.606l.121.197c.068.11.205.253.311.325.471.316 1.102.171 1.407-.325l.121-.197V8.7l-.108-.184a1.005 1.005 0 0 0-1.177-.459m0 6.998a1.05 1.05 0 0 0-.567.461c-.091.156-.108.23-.108.484 0 .257.016.327.113.492.518.882 1.865.526 1.865-.492a.994.994 0 0 0-.535-.888 1.17 1.17 0 0 0-.768-.057" fill="#000" fill-rule="evenodd" stroke="none"/></svg>