<svg xmlns="http://www.w3.org/2000/svg" width="24" height="24" fill="none" stroke="currentColor" stroke-width="2" stroke-linecap="round" stroke-linejoin="round" class="icon icon-tabler icons-tabler-outline icon-tabler-angle"><path d="M11.671 3.064a.99.99 0 0 0-.344.207c-.181.175-9.176 15.144-9.275 15.435-.167.49.116 1.058.618 1.237.223.08 18.437.08 18.66 0 .221-.079.414-.241.539-.454.095-.161.111-.233.111-.489 0-.254-.017-.328-.108-.484a1.02 1.02 0 0 0-.582-.461c-.152-.046-1.546-.055-8.354-.055H4.764l4.1-6.834c3.836-6.393 4.102-6.848 4.123-7.054a.966.966 0 0 0-.292-.815c-.284-.276-.629-.355-1.024-.233m3.542 1.938a.88.88 0 0 0-.541.31c-.175.193-.249.4-.247.688a.911.911 0 0 0 .306.686c.432.42 1.158.35 1.514-.146.519-.723-.145-1.713-1.032-1.538M17.3 7.775c-.871.412-.726 1.654.219 1.872.902.209 1.575-.902.973-1.605a1.007 1.007 0 0 0-1.192-.267m2.02 3.022a1.09 1.09 0 0 0-.706.535c-.112.215-.117.579-.013.821.207.482.72.711 1.259.562.215-.059.556-.4.615-.615.138-.499-.042-.962-.46-1.186a1.081 1.081 0 0 0-.695-.117m1.093 3.405a.88.88 0 0 0-.541.31c-.175.193-.249.4-.247.688a.911.911 0 0 0 .306.686c.432.42 1.158.35 1.514-.146.519-.723-.145-1.713-1.032-1.538" fill="#000" fill-rule="evenodd" stroke="none"/></svg>