<svg xmlns="http://www.w3.org/2000/svg" width="24" height="24" fill="none" stroke="currentColor" stroke-width="2" stroke-linecap="round" stroke-linejoin="round" class="icon icon-tabler icons-tabler-outline icon-tabler-atom-2"><path d="M11.42 1.985c-1.376.075-2.71.419-3.92 1.012-.971.476-1.966 1.168-2.163 1.505-.358.611.048 1.413.751 1.485.32.033.509-.039.941-.359 1.216-.901 2.408-1.393 3.851-1.592.728-.1 1.908-.052 2.68.11 1.137.237 2.181.719 3.211 1.481.214.159.457.308.54.331.454.126.919-.062 1.158-.469.095-.161.111-.233.111-.489 0-.386-.111-.586-.489-.885A10.116 10.116 0 0 0 13.18 2.06a13.473 13.473 0 0 0-1.76-.075M2.695 8.057a1.04 1.04 0 0 0-.567.459c-.143.244-.153.695-.021.944a1.01 1.01 0 0 0 1.786 0c.132-.249.122-.7-.021-.944a1.005 1.005 0 0 0-1.177-.459m8.663.004c-1.128.176-2.215.913-2.789 1.892a3.992 3.992 0 0 0 1.943 5.751 3.988 3.988 0 0 0 5.192-2.216 3.963 3.963 0 0 0 .001-2.972 3.978 3.978 0 0 0-3.1-2.458 3.728 3.728 0 0 0-1.247.003m9.337-.004a1.04 1.04 0 0 0-.567.459c-.092.156-.108.229-.107.484.001.332.08.533.285.728.479.453 1.274.318 1.587-.268.132-.249.122-.7-.021-.944a1.005 1.005 0 0 0-1.177-.459m-8.172 2.016a2.011 2.011 0 0 1 1.444 1.617c.1.653-.094 1.243-.564 1.714-.401.403-.856.596-1.403.596-.515 0-.962-.178-1.347-.535-1.33-1.236-.464-3.46 1.347-3.46.143 0 .378.031.523.068m-9.834 1.983a.984.984 0 0 0-.676.832c-.024.239.098 1.031.252 1.632.697 2.72 2.616 5.118 5.104 6.377.32.162.412.192.614.193.431.004.799-.251.957-.664.128-.335.022-.779-.246-1.034a3.45 3.45 0 0 0-.494-.314c-1.239-.671-2.165-1.517-2.931-2.678-.678-1.026-1.047-2.036-1.271-3.471-.056-.358-.216-.616-.484-.781a1.06 1.06 0 0 0-.825-.092m17.981.001c-.432.154-.597.416-.71 1.124-.045.285-.126.684-.179.886-.57 2.152-2.105 4.066-4.051 5.048-.31.156-.512.332-.616.536-.338.663.154 1.446.903 1.439.202-.001.294-.031.614-.193 2.78-1.407 4.753-4.115 5.285-7.252.101-.597.104-.733.018-.985-.168-.493-.769-.78-1.264-.603m-8.975 8a1.04 1.04 0 0 0-.567.459c-.092.156-.108.229-.107.484.001.332.08.533.285.728.479.453 1.274.318 1.587-.268.132-.249.122-.7-.021-.944a1.005 1.005 0 0 0-1.177-.459" fill="#000" fill-rule="evenodd" stroke="none"/></svg>