<svg xmlns="http://www.w3.org/2000/svg" width="24" height="24" fill="none" stroke="currentColor" stroke-width="2" stroke-linecap="round" stroke-linejoin="round" class="icon icon-tabler icons-tabler-outline icon-tabler-atom"><path d="M5.77 3.442a2.778 2.778 0 0 0-1.556.818c-.567.571-.815 1.241-.818 2.209-.003.731.117 1.364.425 2.249.323.928.954 2.162 1.57 3.071l.141.21-.151.228c-.641.966-1.242 2.143-1.561 3.058-.307.882-.427 1.516-.424 2.246.002.625.095 1.058.331 1.549.133.278.227.403.51.684.532.528 1.058.759 1.896.834 1.333.119 3.147-.46 5.076-1.622.204-.123.465-.287.58-.366l.21-.142.228.151c.392.261.895.558 1.373.811 1.924 1.019 3.618 1.39 4.896 1.071.739-.185 1.457-.76 1.777-1.422.565-1.169.415-2.759-.438-4.656a16.452 16.452 0 0 0-1.225-2.212l-.142-.21.151-.228c.641-.966 1.242-2.143 1.561-3.058.307-.883.425-1.507.423-2.244-.002-.632-.093-1.06-.33-1.55a2.775 2.775 0 0 0-1.193-1.19c-.558-.273-.751-.31-1.6-.308-.611.001-.809.017-1.136.089-1.142.253-2.427.817-3.774 1.656l-.57.356-.57-.355c-1.356-.844-2.545-1.368-3.696-1.632-.386-.088-.593-.11-1.114-.12-.352-.007-.735.004-.85.025m1.297 1.999a7.45 7.45 0 0 1 1.213.346c.376.148 1.328.616 1.695.834l.314.186-.154.127c-.887.724-2.466 2.303-3.199 3.198l-.123.151-.115-.172c-.192-.289-.796-1.512-.934-1.892-.235-.647-.327-1.05-.352-1.54-.037-.747.112-1.084.541-1.216.221-.068.766-.079 1.114-.022m11.113.081c.288.148.393.369.413.875.026.644-.155 1.389-.557 2.292a13.806 13.806 0 0 1-.728 1.404l-.118.193-.125-.153c-.73-.893-2.394-2.555-3.2-3.195l-.154-.122.175-.115c.266-.177 1.413-.753 1.781-.894.383-.147.95-.316 1.233-.366.11-.02.398-.032.641-.028.385.006.466.02.639.109m-5.612 2.942a25.224 25.224 0 0 1 3.185 3.227l.253.31-.271.33c-.988 1.199-2.317 2.528-3.425 3.424l-.311.251-.414-.341a25.499 25.499 0 0 1-3.338-3.355L7.995 12l.252-.31A24.7 24.7 0 0 1 10.4 9.385c.539-.513 1.562-1.388 1.608-1.374.015.005.267.209.56.453m-.873 2.593a1.04 1.04 0 0 0-.567.459c-.092.156-.108.229-.107.484.001.332.08.533.285.728.479.453 1.274.318 1.587-.268.132-.249.122-.7-.021-.944a1.005 1.005 0 0 0-1.177-.459M7.546 14.56c.727.807 1.902 1.945 2.589 2.507l.155.126-.195.125c-.107.068-.519.285-.915.481-1.269.63-2.216.885-2.955.796-.573-.069-.789-.327-.818-.977-.024-.553.104-1.194.38-1.898.148-.376.616-1.328.834-1.695l.186-.314.127.154c.069.085.345.397.612.695m10.05-.14c.461.862.708 1.466.91 2.22.048.183.07.421.072.8.002.489-.007.558-.092.731-.279.566-1.253.59-2.706.065-.364-.131-1.572-.725-1.895-.931l-.175-.112.155-.127c.888-.725 2.554-2.391 3.195-3.196l.12-.15.069.09c.038.05.194.324.347.61" fill="#000" fill-rule="evenodd" stroke="none"/></svg>