<svg xmlns="http://www.w3.org/2000/svg" width="24" height="24" fill="none" stroke="currentColor" stroke-width="2" stroke-linecap="round" stroke-linejoin="round" class="icon icon-tabler icons-tabler-outline icon-tabler-axis-x"><path d="M3.695 4.057a1.04 1.04 0 0 0-.567.459c-.092.156-.108.229-.107.484.001.332.08.533.285.728.479.453 1.274.318 1.587-.268.132-.249.122-.7-.021-.944a1.005 1.005 0 0 0-1.177-.459m0 4a1.04 1.04 0 0 0-.567.459c-.092.156-.108.229-.107.484.001.332.08.533.285.728.479.453 1.274.318 1.587-.268.132-.249.122-.7-.021-.944a1.005 1.005 0 0 0-1.177-.459M7.45 10.34a1.006 1.006 0 0 0-.619.916c-.003.408.296.845.649.946.077.021.5.104.94.182.44.079.805.148.811.154.006.006-1.298.828-2.898 1.827-1.6.998-2.975 1.88-3.056 1.96-.295.291-.356.806-.139 1.176.237.403.757.599 1.182.445.077-.028 1.514-.911 3.194-1.961 1.68-1.051 3.063-1.901 3.075-1.89.011.012-.056.449-.148.973-.093.524-.168 1.036-.167 1.138.005.723.811 1.196 1.447.85.24-.131.423-.336.481-.536.075-.264.798-4.411.798-4.578 0-.209-.161-.539-.338-.695a1.097 1.097 0 0 0-.308-.178c-.249-.087-4.334-.791-4.574-.788a1.03 1.03 0 0 0-.33.059m-3.755 1.717a1.04 1.04 0 0 0-.567.459c-.092.156-.108.229-.107.484.001.332.08.533.285.728.479.453 1.274.318 1.587-.268.132-.249.122-.7-.021-.944a1.005 1.005 0 0 0-1.177-.459m4 7a1.04 1.04 0 0 0-.567.459c-.092.156-.108.229-.107.484.001.332.08.533.285.728.479.453 1.274.318 1.587-.268.132-.249.122-.7-.021-.944a1.005 1.005 0 0 0-1.177-.459m4 0a1.04 1.04 0 0 0-.567.459c-.092.156-.108.229-.107.484.001.332.08.533.285.728.479.453 1.274.318 1.587-.268.132-.249.122-.7-.021-.944a1.005 1.005 0 0 0-1.177-.459m4 0a1.04 1.04 0 0 0-.567.459c-.092.156-.108.229-.107.484.001.332.08.533.285.728.479.453 1.274.318 1.587-.268.132-.249.122-.7-.021-.944a1.005 1.005 0 0 0-1.177-.459" fill="#000" fill-rule="evenodd" stroke="none"/></svg>