<svg xmlns="http://www.w3.org/2000/svg" width="24" height="24" fill="none" stroke="currentColor" stroke-width="2" stroke-linecap="round" stroke-linejoin="round" class="icon icon-tabler icons-tabler-outline icon-tabler-axis-y"><path d="M6.58 3.096c-.156.075-.551.449-1.806 1.71-.883.888-1.639 1.677-1.679 1.754-.052.099-.074.228-.074.44-.001.258.015.327.112.492.13.222.369.409.603.473.203.054.531.024.709-.066.074-.038.454-.385.845-.772l.709-.703.011 6.941.01 6.941.121.197a.998.998 0 0 0 1.718 0l.121-.197.01-6.941.011-6.941.709.703c.391.387.773.737.85.777.1.053.227.075.44.075.258.001.327-.015.492-.112.222-.13.409-.369.473-.603a1.187 1.187 0 0 0-.066-.709c-.037-.074-.79-.861-1.673-1.749-1.255-1.261-1.65-1.635-1.806-1.71a.967.967 0 0 0-.84 0m4.14 15.941c-.86.262-.978 1.442-.185 1.85a1.016 1.016 0 0 0 1.332-.395c.097-.165.113-.235.113-.492 0-.254-.017-.328-.108-.484-.231-.393-.739-.604-1.152-.479m4 0c-.86.262-.978 1.442-.185 1.85a1.016 1.016 0 0 0 1.332-.395c.097-.165.113-.235.113-.492 0-.254-.017-.328-.108-.484-.231-.393-.739-.604-1.152-.479m4 0c-.86.262-.978 1.442-.185 1.85a1.016 1.016 0 0 0 1.332-.395c.097-.165.113-.235.113-.492 0-.254-.017-.328-.108-.484-.231-.393-.739-.604-1.152-.479" fill="#000" fill-rule="evenodd" stroke="none"/></svg>