<svg xmlns="http://www.w3.org/2000/svg" width="24" height="24" fill="none" stroke="currentColor" stroke-width="2" stroke-linecap="round" stroke-linejoin="round" class="icon icon-tabler icons-tabler-outline icon-tabler-background"><path d="M7.64 3.068c-.154.053-.489.37-2.293 2.167-1.162 1.158-2.158 2.181-2.213 2.273-.272.46-.102 1.079.374 1.359.165.097.234.113.492.112.212 0 .341-.022.44-.074.192-.1 4.299-4.2 4.433-4.425.091-.152.107-.226.107-.48s-.017-.328-.108-.484a1.016 1.016 0 0 0-1.232-.448m6 0c-.157.053-.834.715-5.293 5.167-2.972 2.967-5.157 5.18-5.22 5.285-.091.152-.107.226-.107.48 0 .257.016.327.113.492.13.222.369.409.603.473.202.054.53.024.709-.066.185-.092 10.291-10.191 10.428-10.419.091-.153.107-.226.107-.48s-.017-.328-.108-.484a1.016 1.016 0 0 0-1.232-.448m6 0c-.158.053-1.18 1.06-8.293 8.167-4.764 4.76-8.157 8.179-8.22 8.285-.091.152-.107.226-.107.48 0 .257.016.327.113.492.13.222.369.409.603.473.202.054.53.024.709-.066.185-.092 16.291-16.19 16.428-16.419.091-.153.107-.226.107-.48s-.017-.328-.108-.484a1.015 1.015 0 0 0-1.232-.448m0 6c-.157.053-.834.715-5.293 5.167-2.972 2.967-5.157 5.18-5.22 5.285-.091.152-.107.226-.107.48 0 .257.016.327.113.492.13.222.369.409.603.473.202.054.53.024.709-.066.185-.092 10.291-10.191 10.428-10.419.091-.153.107-.226.107-.48s-.017-.328-.108-.484a1.016 1.016 0 0 0-1.232-.448m0 6c-.154.053-.489.37-2.293 2.167-1.162 1.158-2.158 2.181-2.213 2.273-.272.46-.102 1.079.374 1.359.165.097.234.113.492.112.212 0 .341-.022.44-.074.192-.1 4.299-4.2 4.433-4.425.091-.152.107-.226.107-.48s-.017-.328-.108-.484a1.016 1.016 0 0 0-1.232-.448" fill="#000" fill-rule="evenodd" stroke="none"/></svg>