<svg xmlns="http://www.w3.org/2000/svg" width="24" height="24" fill="none" stroke="currentColor" stroke-width="2" stroke-linecap="round" stroke-linejoin="round" class="lucide lucide-brain-circuit-icon lucide-brain-circuit"><path d="M8.52 1.028a4.07 4.07 0 0 0-1.422.456c-1.087.607-1.78 1.562-2.036 2.802-.017.086-.096.146-.407.313-1.33.71-2.239 1.932-2.562 3.441-.054.252-.072.506-.071.98.002.638.045.946.201 1.425l.06.184-.278.37a5.004 5.004 0 0 0-.744 4.586c.26.778.624 1.349 1.259 1.98l.468.466.028.366c.087 1.164.668 2.384 1.517 3.191 1.562 1.484 3.817 1.823 5.727.862.697-.351 1.441-1.002 1.859-1.626.289-.431.583-1.061.691-1.478l.089-.346H15.5c1.731 0 2.653.015 2.76.044.326.087.608.365.692.682.037.136.029.159-.114.332a1.544 1.544 0 0 0-.237 1.475c.186.496.657.873 1.181.944a1.493 1.493 0 0 0 1.695-1.695c-.036-.267-.188-.599-.348-.765-.097-.099-.125-.171-.149-.38-.132-1.154-.978-2.157-2.119-2.515l-.321-.1-2.77-.013-2.77-.013V14h1.884l.128.124c.17.165.501.316.77.353a1.493 1.493 0 0 0 1.695-1.695 1.511 1.511 0 0 0-.829-1.126c-.208-.106-.264-.116-.648-.116-.381 0-.441.01-.642.113a1.824 1.824 0 0 0-.348.23l-.126.117H13V9h5.884l.128.124c.17.165.501.316.77.353a1.493 1.493 0 0 0 1.695-1.695 1.511 1.511 0 0 0-.829-1.126c-.208-.106-.264-.116-.648-.116-.381 0-.441.01-.642.113a1.824 1.824 0 0 0-.348.23L18.884 7H17V5.947c0-1.11.029-1.338.195-1.535l.075-.088.214.081c.296.113.739.11 1.049-.006a1.496 1.496 0 0 0 .115-2.743c-.208-.106-.264-.116-.648-.116s-.44.01-.649.116c-.225.114-.611.46-.651.582-.01.034-.105.11-.21.169-.609.343-1.138 1.01-1.374 1.733-.085.263-.092.358-.107 1.57L14.993 7H13V5.845c0-1.515-.059-1.871-.432-2.625A3.951 3.951 0 0 0 9.66 1.059a4.828 4.828 0 0 0-1.14-.031m.981 2.034c.721.188 1.324.832 1.456 1.555.057.315.058 4.346.001 4.703-.2 1.247-1.067 2.282-2.298 2.743a1.013 1.013 0 0 0-.648 1.044.992.992 0 0 0 1.082.882c.357-.037 1.206-.445 1.683-.809.101-.077.193-.14.205-.14.012 0 .016 1.228.008 2.73-.015 3.025-.004 2.895-.288 3.497-.521 1.105-1.669 1.796-2.855 1.719-1.062-.069-2.013-.674-2.478-1.576-.257-.499-.259-.483.06-.439.449.061.849.021 1.067-.107a1.07 1.07 0 0 0 .469-.6c.099-.367-.048-.815-.34-1.038-.204-.155-.32-.189-.781-.23-1.303-.116-2.276-.871-2.695-2.094-.112-.328-.124-.409-.125-.862-.001-.598.059-.865.314-1.38.266-.54.563-.861 1.15-1.248.408-.269.569-.527.569-.912a.984.984 0 0 0-.829-.974c-.152-.026-.167-.04-.2-.187-.045-.204-.006-.815.07-1.099.082-.305.386-.902.575-1.129.087-.104.264-.279.393-.389l.234-.2.134.269c.244.49.54.704.967.7a.989.989 0 0 0 .894-1.411c-.263-.557-.337-.966-.258-1.425a2.038 2.038 0 0 1 1.454-1.593c.28-.076.719-.076 1.01 0" fill-rule="evenodd" fill="#000" stroke="none"/></svg>