<svg xmlns="http://www.w3.org/2000/svg" width="24" height="24" fill="none" stroke="currentColor" stroke-width="2" stroke-linecap="round" stroke-linejoin="round" class="icon icon-tabler icons-tabler-outline icon-tabler-brain"><path d="M7.9 2.045a4.6 4.6 0 0 0-2.043.826 4.495 4.495 0 0 0-1.795 2.904C4.015 6.047 4 6.438 4 7.442v1.311l-.25.196a4.464 4.464 0 0 0-1.509 2.122c-.376 1.123-.294 2.387.223 3.418a5.003 5.003 0 0 0 1.322 1.598l.206.156.018.969c.016.878.027 1.004.12 1.351.317 1.19 1.014 2.149 2.006 2.76a4.476 4.476 0 0 0 5.534-.647l.33-.331.33.331a4.476 4.476 0 0 0 5.534.647c.992-.611 1.689-1.57 2.006-2.76.093-.347.104-.473.12-1.351l.018-.969.206-.156a5.003 5.003 0 0 0 1.322-1.598c.398-.794.554-1.845.402-2.714a4.511 4.511 0 0 0-1.688-2.826L20 8.753V7.442c0-1.445-.03-1.742-.241-2.371-.664-1.981-2.632-3.253-4.699-3.038a4.456 4.456 0 0 0-2.79 1.349l-.27.275-.27-.275A4.497 4.497 0 0 0 7.9 2.045M9.02 4.06a2.502 2.502 0 0 1 1.695 1.302c.289.587.284.505.284 4.144L11 12.752l-.307-.174a4.281 4.281 0 0 0-2.053-.555c-.359-.002-.443.01-.58.083-.21.114-.4.316-.482.512a1.176 1.176 0 0 0 0 .764c.148.356.546.616.942.618.906.005 1.799.559 2.195 1.362.235.477.284.757.284 1.638 0 .874-.049 1.162-.276 1.62a2.53 2.53 0 0 1-1.403 1.248c-.268.097-.355.108-.82.108-.465 0-.552-.011-.82-.108a2.53 2.53 0 0 1-1.403-1.248c-.194-.393-.275-.762-.276-1.26L6 16.98l.326.013c.389.016.608-.054.847-.269a.989.989 0 0 0 .055-1.398c-.21-.218-.396-.29-.856-.33-.513-.045-.899-.174-1.264-.422A2.565 2.565 0 0 1 4.001 12.5c0-.921.549-1.815 1.361-2.215.425-.209.774-.283 1.358-.286.655-.004.92-.121 1.149-.51.095-.161.111-.233.111-.489 0-.255-.016-.328-.109-.486a1.036 1.036 0 0 0-.651-.477c-.125-.028-.41-.04-.714-.03L6 8.024l.001-.882c.001-1.035.041-1.286.284-1.78.489-.991 1.629-1.534 2.735-1.302m7 0a2.502 2.502 0 0 1 1.695 1.302c.243.494.283.745.284 1.78l.001.882-.506-.017c-.304-.01-.589.002-.714.03a1.036 1.036 0 0 0-.651.477c-.093.158-.109.231-.109.486 0 .256.016.328.111.489.229.389.494.506 1.149.51.584.003.933.077 1.358.286.812.4 1.361 1.294 1.361 2.215 0 .808-.43 1.613-1.107 2.074-.365.248-.751.377-1.264.422-.46.04-.646.112-.856.33a1.02 1.02 0 0 0-.182 1.079c.177.399.564.609 1.084.588L18 16.98l-.001.38c-.001.498-.082.867-.276 1.26a2.53 2.53 0 0 1-1.403 1.248c-.268.097-.355.108-.82.108-.465 0-.552-.011-.82-.108a2.53 2.53 0 0 1-1.403-1.248c-.227-.458-.276-.746-.276-1.62 0-.881.049-1.161.284-1.638.396-.803 1.289-1.357 2.195-1.362.396-.002.794-.262.942-.618a1.176 1.176 0 0 0 0-.764 1.13 1.13 0 0 0-.482-.512c-.137-.073-.221-.085-.58-.083a4.281 4.281 0 0 0-2.053.555l-.307.174.001-3.246c0-3.639-.005-3.557.284-4.144.489-.991 1.629-1.534 2.735-1.302" fill="#000" fill-rule="evenodd" stroke="none"/></svg>