<svg xmlns="http://www.w3.org/2000/svg" width="24" height="24" fill="none" stroke="currentColor" stroke-width="2" stroke-linecap="round" stroke-linejoin="round" class="icon icon-tabler icons-tabler-outline icon-tabler-chart-bubble"><path d="M13.86 2.047a5.486 5.486 0 0 0-3.281 1.612c-2.096 2.112-2.099 5.542-.006 7.674 1.597 1.627 3.928 2.103 6.051 1.237 1.275-.521 2.425-1.671 2.946-2.946.746-1.827.503-3.826-.655-5.387a5.495 5.495 0 0 0-5.055-2.19m1.545 2.068c.97.251 1.827.979 2.273 1.931.228.486.3.835.3 1.454s-.072.968-.3 1.454a3.569 3.569 0 0 1-2.318 1.951c-.367.102-1.353.102-1.72 0-1.228-.34-2.203-1.304-2.529-2.5-.119-.437-.119-1.373 0-1.81.356-1.309 1.504-2.344 2.831-2.553.355-.056 1.108-.018 1.463.073M5.358 12.061c-1.128.176-2.215.913-2.789 1.892a3.992 3.992 0 0 0 1.943 5.751 3.988 3.988 0 0 0 5.192-2.216 3.963 3.963 0 0 0 .001-2.972 3.978 3.978 0 0 0-3.1-2.458 3.728 3.728 0 0 0-1.247.003m1.165 2.012a2.011 2.011 0 0 1 1.444 1.617c.1.653-.094 1.243-.564 1.714C7.002 17.807 6.547 18 6 18c-.515 0-.962-.178-1.347-.535-1.33-1.236-.464-3.46 1.347-3.46.143 0 .378.031.523.068m8.976 1.967a3.05 3.05 0 0 0-2.385 2.12c-.135.434-.135 1.246 0 1.68a3.086 3.086 0 0 0 2.046 2.046c.252.078.387.093.84.093.453 0 .588-.015.84-.093a3.086 3.086 0 0 0 2.046-2.046c.135-.434.135-1.246 0-1.68-.305-.981-1.076-1.753-2.025-2.031-.361-.106-1.029-.149-1.362-.089m.811 2.021c.378.112.69.537.69.94 0 .33-.216.695-.516.871-.156.091-.23.108-.484.108s-.328-.017-.484-.108c-.584-.344-.685-1.097-.209-1.573.275-.275.611-.355 1.003-.238" fill="#000" fill-rule="evenodd" stroke="none"/></svg>