<svg xmlns="http://www.w3.org/2000/svg" width="24" height="24" fill="none" stroke="currentColor" stroke-width="2" stroke-linecap="round" stroke-linejoin="round" class="lucide lucide-bug-off-icon lucide-bug-off"><path d="M1.67 1.061c-.222.081-.42.248-.542.455-.092.156-.108.229-.107.484 0 .212.022.341.074.44.04.077 1.214 1.283 2.609 2.68l2.535 2.54-.24.32a5.08 5.08 0 0 0-.737 1.426C5.064 9.998 5 10.455 5 11.29V12H3.446c-1.688 0-1.788.011-2.064.221-.08.061-.195.194-.254.295-.091.156-.108.23-.108.484 0 .256.016.328.111.489.061.103.173.236.25.294.273.208.319.213 2.029.215L5 14v.238c0 .478.19 1.578.34 1.966.019.05-.029.087-.208.159-1.104.447-2.074 1.34-2.588 2.383-.357.724-.521 1.382-.523 2.097-.001.446.003.47.12.66a.999.999 0 0 0 1.711.011c.097-.158.12-.25.152-.62.047-.546.119-.837.299-1.204.271-.555.768-1.071 1.294-1.344.256-.133.675-.288.701-.26l.219.274c1.216 1.531 2.927 2.446 4.942 2.641 1.93.187 4.08-.61 5.49-2.034l.297-.3 2.087 2.082c1.148 1.146 2.15 2.116 2.227 2.156.099.052.228.074.44.074.258.001.327-.015.492-.112.476-.28.647-.9.373-1.359-.055-.092-4.65-4.715-10.212-10.273C3.3 1.889 2.525 1.125 2.343 1.065a1.015 1.015 0 0 0-.673-.004m5.98.005c-.524.186-.803.885-.549 1.375.082.159 2.021 2.163 2.22 2.295.204.135.493.188.739.136.217-.046.347-.122.612-.362.398-.359 1.057-.559 1.592-.482a2.02 2.02 0 0 1 1.719 1.759l.026.207-.794.013c-.725.012-.809.021-.955.099-.353.191-.548.509-.548.894s.195.703.548.893c.148.08.235.088 1.2.11.911.02 1.08.034 1.36.113a3.046 3.046 0 0 1 2.055 2.023c.089.294.099.412.121 1.401.023 1.006.03 1.091.111 1.243.097.18.357.434.489.476.047.015.119.093.161.174.102.198.305.385.523.484.173.078.254.081 2.04.08 2.002-.001 2.022-.002 2.299-.214.077-.058.189-.191.25-.294.095-.161.111-.233.111-.489 0-.254-.017-.328-.108-.484a1.209 1.209 0 0 0-.254-.295c-.276-.21-.376-.221-2.064-.221H19v-.69c0-.632-.054-1.175-.152-1.528-.032-.115-.027-.12.29-.273 1.505-.727 2.533-2.112 2.806-3.78.037-.227.056-.525.047-.717-.014-.276-.035-.356-.134-.514a1 1 0 0 0-1.434-.306c-.199.137-.374.411-.398.623l-.058.525a2.748 2.748 0 0 1-.373 1.153c-.326.553-.999 1.136-1.489 1.291l-.207.065-.314-.323a5.251 5.251 0 0 0-1.282-.951L16 6.42l-.001-.36a4.04 4.04 0 0 0-.412-1.826l-.135-.266.656-.654c.802-.798.872-.904.872-1.314 0-.254-.017-.328-.108-.484a1 1 0 0 0-1.215-.449c-.166.056-.312.18-.917.776l-.72.709-.22-.115c-.345-.18-.903-.346-1.351-.402a4.037 4.037 0 0 0-2.225.393l-.276.139-.704-.72c-.653-.669-.72-.725-.921-.784-.265-.077-.449-.076-.673.003m1.7 9.704L11 12.42v6.502l-.11-.026a7.498 7.498 0 0 1-1.11-.396 5.04 5.04 0 0 1-1.59-1.248c-.292-.357-.715-1.06-.847-1.406-.315-.825-.352-1.217-.334-3.506.013-1.62.025-1.913.084-2.12.113-.398.483-1.1.58-1.1.015 0 .769.742 1.677 1.65m6.45 6.486c0 .069-.623.643-.922.849a5.7 5.7 0 0 1-1.768.791l-.11.026V14.42l1.4 1.4c.77.77 1.4 1.416 1.4 1.436" fill-rule="evenodd" fill="#000" stroke="none"/></svg>