<svg xmlns="http://www.w3.org/2000/svg" width="24" height="24" fill="none" stroke="currentColor" stroke-width="2" stroke-linecap="round" stroke-linejoin="round" class="lucide lucide-bug-icon lucide-bug"><path d="M7.67 1.061c-.222.081-.42.248-.542.455-.091.156-.108.23-.108.484 0 .411.07.516.876 1.319.636.632.66.662.604.747-.13.199-.34.783-.418 1.162-.05.247-.082.558-.082.8v.394l-.29.145c-.421.209-.934.59-1.294.959l-.314.323-.207-.065c-.49-.155-1.163-.738-1.489-1.291a2.748 2.748 0 0 1-.373-1.153 510.34 510.34 0 0 1-.058-.525c-.024-.212-.199-.486-.398-.623a1 1 0 0 0-1.434.306c-.099.158-.12.238-.134.514-.02.407.07.978.236 1.497A4.961 4.961 0 0 0 4.75 9.448l.415.212-.024.14-.083.48A7.393 7.393 0 0 0 5 11.31V12H3.446c-1.688 0-1.788.011-2.064.221-.08.061-.195.194-.254.295-.091.156-.108.23-.108.484 0 .256.016.328.111.489.061.103.173.236.25.294.273.208.319.213 2.023.215L4.989 14l.027.399a7.73 7.73 0 0 0 .243 1.474c.056.205.101.378.101.385 0 .007-.104.055-.23.106-1.102.446-2.072 1.34-2.586 2.382-.357.724-.521 1.382-.523 2.097-.001.446.003.47.12.66a.999.999 0 0 0 1.711.011c.097-.158.12-.25.152-.62.047-.546.119-.837.299-1.204a3.094 3.094 0 0 1 1.774-1.551l.217-.07.083.1c.593.719.906 1.031 1.443 1.438.879.667 1.988 1.129 3.16 1.319.412.066 1.627.066 2.04 0 1.164-.188 2.286-.656 3.16-1.319.537-.407.85-.719 1.443-1.438l.083-.1.217.07a3.107 3.107 0 0 1 1.774 1.551c.18.367.252.658.299 1.204.032.37.055.462.152.62a.999.999 0 0 0 1.711-.011c.117-.19.121-.214.12-.66-.004-1.692-1.024-3.369-2.559-4.211a6.534 6.534 0 0 0-.55-.268 1.417 1.417 0 0 1-.23-.106c0-.007.045-.18.101-.385a7.73 7.73 0 0 0 .243-1.474l.027-.399 1.585-.002c1.704-.002 1.75-.007 2.023-.215.077-.058.189-.191.25-.294.095-.161.111-.233.111-.489 0-.254-.017-.328-.108-.484a1.209 1.209 0 0 0-.254-.295c-.276-.21-.376-.221-2.064-.221H19v-.69c0-.632-.054-1.175-.152-1.528-.032-.115-.027-.12.29-.273 1.505-.727 2.533-2.112 2.806-3.78.037-.227.056-.525.047-.717-.014-.276-.035-.356-.134-.514a1 1 0 0 0-1.434-.306c-.199.137-.374.411-.398.623l-.058.525a2.748 2.748 0 0 1-.373 1.153c-.326.553-.999 1.136-1.489 1.291l-.207.065-.314-.323a5.251 5.251 0 0 0-1.282-.951L16 6.42v-.394c0-.234-.032-.551-.079-.783-.077-.375-.294-.983-.419-1.175-.058-.088-.042-.109.602-.749.806-.803.876-.908.876-1.319 0-.254-.017-.328-.108-.484a1 1 0 0 0-1.215-.449c-.166.056-.312.18-.917.776l-.72.709-.24-.122A4.28 4.28 0 0 0 12 2a4.28 4.28 0 0 0-1.78.43l-.24.122-.72-.709c-.605-.596-.751-.72-.917-.776a.998.998 0 0 0-.673-.006m4.808 3.001c.478.109.911.423 1.208.875.169.259.252.493.295.839l.028.224H10v-.102c0-.222.132-.663.265-.884.474-.792 1.319-1.155 2.213-.952m2.362 4.054a3.083 3.083 0 0 1 2.037 2.023c.099.318.1.336.114 2.121.016 1.891-.011 2.431-.152 2.98a5.064 5.064 0 0 1-2.627 3.236c-.336.165-.821.341-1.061.385l-.15.028-.01-4.095-.011-4.094-.109-.186a1.01 1.01 0 0 0-1.742 0l-.109.186-.011 4.094-.01 4.095-.15-.028c-.241-.044-.725-.22-1.064-.387a5.054 5.054 0 0 1-2.624-3.234c-.141-.549-.168-1.089-.152-2.98.014-1.785.015-1.803.114-2.121a3.043 3.043 0 0 1 2.376-2.097c.11-.019 1.29-.03 2.621-.025 2.378.009 2.425.011 2.72.099" fill-rule="evenodd" fill="#000" stroke="none"/></svg>