<svg xmlns="http://www.w3.org/2000/svg" width="24" height="24" fill="none" stroke="currentColor" stroke-width="2" stroke-linecap="round" stroke-linejoin="round" class="icon icon-tabler icons-tabler-outline icon-tabler-video"><path d="M4.499 5.043c-1.12.191-2.038 1.005-2.385 2.117l-.094.3v9.08l.094.3a3.086 3.086 0 0 0 2.046 2.046l.3.094h9.08l.3-.094a3.086 3.086 0 0 0 2.039-2.026 3.11 3.11 0 0 0 .11-.75c.013-.259.029-.47.037-.47.008 0 .732.359 1.608.797.877.439 1.701.829 1.83.867.494.146 1.153.053 1.591-.225.434-.275.801-.8.903-1.29.031-.147.041-1.337.033-3.91L21.98 8.18l-.094-.234c-.235-.582-.729-1.057-1.274-1.226-.356-.11-.888-.109-1.216.002-.134.044-.943.431-1.799.86-.856.428-1.563.778-1.571.778-.008 0-.024-.211-.037-.47a3.11 3.11 0 0 0-.11-.75 3.087 3.087 0 0 0-2.018-2.019l-.321-.101-4.42-.006c-2.431-.003-4.511.01-4.621.029m8.811 2.018c.279.083.546.35.629.629.053.177.061.751.061 4.311 0 4.457.007 4.318-.221 4.617-.061.08-.194.195-.295.254l-.184.108H4.7l-.184-.108a1.051 1.051 0 0 1-.458-.556c-.089-.254-.087-8.324.003-8.626.079-.269.351-.547.612-.627.289-.089 8.338-.091 8.637-.002M20 12c0 1.848-.009 3.36-.02 3.36-.011 0-.911-.445-2-.99L16 13.38v-2.76l1.97-.988c1.083-.543 1.983-.989 2-.99.017-.001.03 1.51.03 3.358" fill="#000" fill-rule="evenodd" stroke="none"/></svg>