<svg version="1.2" xmlns="http://www.w3.org/2000/svg" width="24" height="24"><path d="m11.28 1.023-.56.06c-2.27.241-4.544 1.292-6.218 2.876-1.897 1.793-3.001 3.919-3.409 6.561-.101.65-.101 2.31 0 2.96.265 1.719.845 3.257 1.726 4.58a11 11 0 0 0 6.191 4.523c3.283.945 6.911.256 9.67-1.837.636-.483 1.583-1.43 2.066-2.066.603-.796 1.226-1.924 1.553-2.813a11.035 11.035 0 0 0 0-7.734 12.883 12.883 0 0 0-1.108-2.177c-1.81-2.709-4.548-4.422-7.768-4.86C13 1.038 11.574.99 11.28 1.023m2.04 2.078a8.623 8.623 0 0 1 2.66.839 8.747 8.747 0 0 1 4.08 4.08c.653 1.326.917 2.469.917 3.98 0 1.511-.264 2.654-.917 3.98a8.785 8.785 0 0 1-4.067 4.079 8.956 8.956 0 0 1-6.85.472c-.66-.219-1.569-.66-2.114-1.025A8.862 8.862 0 0 1 3.94 15.98c-.653-1.326-.917-2.469-.917-3.98 0-1.511.264-2.654.917-3.98a8.747 8.747 0 0 1 4.08-4.08c1.062-.523 2.068-.802 3.3-.915.356-.033 1.589.014 2 .076M11.6 7.504c-.366.043-.635.111-.789.2-.217.126-.403.399-.461.675a.964.964 0 0 0 .24.827c.243.269.413.336.81.318.43-.019.77-.019 1.2 0 .397.018.567-.049.81-.318.529-.586.205-1.475-.598-1.641-.232-.048-.995-.087-1.212-.061m-3.293 2.86a1.09 1.09 0 0 0-.609.456c-.291.496-.285 1.9.01 2.37.149.238.381.399.66.458a.692.692 0 0 0 .455-.024c.306-.096.548-.323.66-.618.08-.213.083-.249.037-.616a2.615 2.615 0 0 1 0-.78c.046-.367.043-.403-.037-.616a1.02 1.02 0 0 0-.646-.611c-.233-.069-.305-.072-.53-.019m6.82.032a1.016 1.016 0 0 0-.611.602c-.078.207-.081.249-.038.612a2.91 2.91 0 0 1 0 .78c-.043.365-.041.405.039.616.112.295.354.522.66.618a.692.692 0 0 0 .455.024c.279-.059.511-.22.66-.458.295-.47.301-1.874.01-2.37a1.065 1.065 0 0 0-.627-.458c-.239-.055-.302-.051-.548.034m-4.027 4.08a1.049 1.049 0 0 0-.725.703.681.681 0 0 0-.025.442c.058.28.245.549.47.681.487.285 1.873.285 2.36 0 .225-.132.412-.401.47-.681a.964.964 0 0 0-.24-.827c-.236-.261-.414-.332-.79-.316-.578.024-.916.022-1.16-.005a1.309 1.309 0 0 0-.36.003" fill-rule="evenodd"/></svg>