<svg xmlns="http://www.w3.org/2000/svg" width="24" height="24" fill="none" stroke="currentColor" stroke-width="2" stroke-linecap="round" stroke-linejoin="round" class="lucide lucide-circle-play-icon lucide-circle-play"><path d="m11.28 1.023-.56.06c-1.888.2-3.729.94-5.36 2.152-.609.453-1.676 1.52-2.134 2.132C.728 8.714.301 13.032 2.097 16.78c.546 1.138 1.179 2.021 2.141 2.982.961.962 1.844 1.595 2.982 2.141 3.747 1.796 8.068 1.367 11.417-1.133.609-.454 1.679-1.524 2.133-2.133 2.974-3.985 2.974-9.289 0-13.274-.454-.608-1.523-1.677-2.13-2.128-1.595-1.186-3.275-1.875-5.217-2.139C13 1.038 11.574.99 11.28 1.023m2.04 2.078c2.563.387 4.804 1.83 6.24 4.019.303.463.743 1.359.932 1.9.346.993.485 1.845.485 2.98 0 1.493-.257 2.621-.897 3.94-.705 1.454-1.769 2.667-3.153 3.592-.789.528-2.051 1.056-3.019 1.265a9.053 9.053 0 0 1-7.538-1.778c-1.513-1.212-2.648-2.99-3.103-4.859-.186-.763-.244-1.272-.244-2.16 0-1.493.257-2.621.897-3.94a8.983 8.983 0 0 1 5.24-4.594c.705-.233 1.272-.348 2.18-.442.322-.033 1.571.015 1.98.077M9.536 7.058c-.566.16-1.09.569-1.308 1.022C7.996 8.563 8 8.492 8 12s-.004 3.437.228 3.92c.138.286.566.714.852.852.513.247 1.073.288 1.57.113.298-.104 5.473-3.21 5.703-3.422.828-.762.86-2.049.071-2.845-.209-.212-.605-.463-2.784-1.766-2.999-1.793-2.771-1.661-3.02-1.747-.277-.096-.827-.12-1.084-.047m5.424 4.946c0 .013-1.075.669-2.39 1.457a767.501 767.501 0 0 0-2.48 1.49l-.09.058V9.004l2.48 1.488c1.364.818 2.48 1.499 2.48 1.512" fill-rule="evenodd" fill="#000" stroke="none"/></svg>