<svg xmlns="http://www.w3.org/2000/svg" width="24" height="24" fill="none" stroke="currentColor" stroke-width="2" stroke-linecap="round" stroke-linejoin="round" class="lucide lucide-circle-dashed-icon lucide-circle-dashed"><path d="M11.038 1.042c-.703.068-1.262.181-1.458.296-.47.275-.615.944-.305 1.403.126.186.458.398.678.433.084.014.3-.001.481-.033a9.23 9.23 0 0 1 2.876-.034c.236.037.521.067.632.066.512-.007.949-.465.949-.997a.999.999 0 0 0-.618-.913c-.43-.18-2.322-.309-3.235-.221M5.978 2.82c-.648.327-2.095 1.667-2.745 2.54-.414.556-.473.668-.501.939-.069.665.568 1.222 1.215 1.063.28-.068.456-.214.766-.634.617-.834 1.17-1.387 2.021-2.02.469-.348.592-.5.658-.809.17-.795-.685-1.448-1.414-1.079m11.375-.063c-.426.138-.746.54-.751.943-.005.378.164.635.66 1.004a8.949 8.949 0 0 1 2.03 2.03c.177.239.387.475.465.524.209.131.511.194.714.149.661-.149 1.005-.828.716-1.416-.4-.811-2.038-2.479-3.057-3.113-.217-.134-.567-.189-.777-.121M1.691 9.24a.984.984 0 0 0-.471.62c-.271.947-.271 3.326 0 4.283.081.283.25.497.5.633.565.308 1.263-.009 1.428-.648.041-.157.035-.269-.037-.727-.12-.765-.12-2.035 0-2.801.099-.633.079-.8-.129-1.085a1.01 1.01 0 0 0-1.291-.275m19.673-.015a1.028 1.028 0 0 0-.52.655c-.03.139-.02.302.045.72.12.766.12 2.036 0 2.8-.098.621-.08.782.115 1.066.486.706 1.535.513 1.776-.326.136-.475.198-1.143.198-2.14 0-.726-.019-1.104-.071-1.46-.124-.852-.234-1.091-.598-1.3a.998.998 0 0 0-.945-.015m-18.15 7.494a.985.985 0 0 0-.42 1.257c.263.594 1.668 2.123 2.566 2.791.556.414.668.473.939.501.822.085 1.385-.857.921-1.539-.051-.076-.252-.256-.447-.4-.859-.638-1.422-1.202-2.074-2.074-.279-.373-.367-.462-.544-.55a.995.995 0 0 0-.941.014m16.843-.083c-.283.072-.459.218-.775.643-.635.853-1.143 1.361-2.026 2.022-.472.354-.582.49-.649.804-.17.797.713 1.463 1.426 1.075.688-.375 2.088-1.676 2.733-2.54.414-.555.474-.668.502-.939a.99.99 0 0 0-.892-1.077 1.11 1.11 0 0 0-.319.012M9.602 20.967c-.516.314-.647.919-.309 1.423.189.281.439.392 1.127.499.467.072.73.087 1.58.087.85 0 1.113-.015 1.58-.087.688-.107.938-.218 1.127-.499.338-.504.207-1.109-.309-1.423-.215-.132-.223-.133-.578-.111-.198.012-.567.049-.82.082a9.41 9.41 0 0 1-1 .059 9.41 9.41 0 0 1-1-.059c-.253-.033-.622-.07-.82-.082-.355-.022-.363-.021-.578.111" fill-rule="evenodd" fill="#000" stroke="none"/></svg>