<svg xmlns="http://www.w3.org/2000/svg" width="24" height="24" fill="none" stroke="currentColor" stroke-width="2" stroke-linecap="round" stroke-linejoin="round" class="lucide lucide-circle-chevron-right-icon lucide-circle-chevron-right"><path d="m11.28 1.023-.56.06c-1.888.2-3.729.94-5.36 2.152-.609.453-1.676 1.52-2.134 2.132C.728 8.714.301 13.032 2.097 16.78c.546 1.138 1.179 2.021 2.141 2.982.961.962 1.844 1.595 2.982 2.141 3.747 1.796 8.068 1.367 11.417-1.133.609-.454 1.679-1.524 2.133-2.133 2.974-3.985 2.974-9.289 0-13.274-.454-.608-1.523-1.677-2.13-2.128-1.595-1.186-3.275-1.875-5.217-2.139C13 1.038 11.574.99 11.28 1.023m2.04 2.078c2.563.387 4.804 1.83 6.24 4.019.303.463.743 1.359.932 1.9.346.993.485 1.845.485 2.98 0 1.493-.257 2.621-.897 3.94-.705 1.454-1.769 2.667-3.153 3.592-.789.528-2.051 1.056-3.019 1.265a9.053 9.053 0 0 1-7.538-1.778c-1.513-1.212-2.648-2.99-3.103-4.859-.186-.763-.244-1.272-.244-2.16 0-1.493.257-2.621.897-3.94a8.983 8.983 0 0 1 5.24-4.594c.705-.233 1.272-.348 2.18-.442.322-.033 1.571.015 1.98.077m-3.65 3.96c-.222.081-.42.248-.542.455-.092.156-.108.229-.107.484 0 .212.022.341.074.44.04.077.841.91 1.779 1.85L12.579 12l-1.705 1.71c-.938.94-1.736 1.771-1.773 1.845-.229.455-.045 1.046.407 1.312.165.097.235.113.492.113.254 0 .328-.016.48-.107.225-.134 4.325-4.241 4.425-4.433.052-.099.074-.228.074-.44.001-.255-.015-.327-.106-.48-.06-.101-1.039-1.108-2.22-2.285-1.905-1.897-2.132-2.111-2.31-2.17a1.015 1.015 0 0 0-.673-.004" fill-rule="evenodd" fill="#000" stroke="none"/></svg>