<svg version="1.2" xmlns="http://www.w3.org/2000/svg" width="24" height="24"><path d="M11.045 1.047c-.702.061-1.263.172-1.465.291-.335.196-.537.647-.456 1.022.059.274.237.534.454.661.283.166.455.19.854.12a9.375 9.375 0 0 1 2.18-.108c.337.026.763.075.947.107.406.071.578.048.85-.115.63-.378.636-1.321.011-1.687-.433-.254-2.124-.399-3.375-.291M5.898 2.863c-.993.595-2.75 2.379-3.097 3.143-.264.582.151 1.289.809 1.379.399.054.703-.128 1.099-.658a9.343 9.343 0 0 1 2.037-2.031c.387-.287.46-.361.556-.556.334-.684-.133-1.42-.902-1.42-.232 0-.294.017-.502.143m11.455-.106c-.617.2-.916.853-.637 1.393.104.203.176.273.61.6a9.339 9.339 0 0 1 1.978 1.996c.291.392.359.459.563.559.83.406 1.712-.436 1.34-1.279-.247-.557-1.438-1.886-2.333-2.602-.686-.548-.89-.667-1.182-.687a1.218 1.218 0 0 0-.339.02M11.4 7.044c-1.64.185-3.139 1.245-3.874 2.741-.368.748-.506 1.351-.506 2.215 0 1.061.257 1.915.848 2.815.24.366.951 1.077 1.317 1.317.9.591 1.754.848 2.815.848 1.062 0 1.92-.259 2.815-.848.366-.242 1.075-.951 1.317-1.317.589-.895.848-1.753.848-2.815 0-.448-.02-.714-.073-.96-.208-.973-.63-1.783-1.291-2.477-1.093-1.149-2.62-1.699-4.216-1.519m1.461 2.085c.943.276 1.723 1.054 2.014 2.01.083.273.098.403.098.861 0 .458-.015.588-.098.861a3.073 3.073 0 0 1-2.035 2.025c-.434.135-1.246.135-1.68 0a3.073 3.073 0 0 1-2.035-2.025c-.083-.273-.098-.403-.098-.861 0-.458.015-.588.098-.861a3.042 3.042 0 0 1 2.374-2.099c.333-.06 1.001-.017 1.362.089m-11.17.111a.982.982 0 0 0-.471.62c-.266.918-.266 3.356 0 4.283.127.444.506.747.941.753.319.004.652-.168.826-.426.18-.268.214-.473.149-.898a18.292 18.292 0 0 1-.102-.962 9.809 9.809 0 0 1 .102-2.182c.065-.425.031-.63-.149-.897-.275-.408-.861-.54-1.296-.291m19.664-.009c-.424.221-.589.624-.493 1.209.117.714.156 1.52.104 2.17-.026.336-.073.763-.104.95-.098.598.068.991.514 1.219.577.294 1.221.002 1.404-.636.266-.927.266-3.365 0-4.283a.982.982 0 0 0-.471-.62.989.989 0 0 0-.954-.009M3.208 16.722a.992.992 0 0 0-.381 1.332c.402.788 2.336 2.719 3.128 3.124.589.301 1.337-.111 1.43-.788.054-.399-.128-.703-.658-1.099a9.355 9.355 0 0 1-2.03-2.036c-.278-.374-.364-.461-.542-.55a.996.996 0 0 0-.947.017m16.8-.065c-.274.089-.409.205-.721.622a9.491 9.491 0 0 1-2.026 2.021c-.395.292-.467.364-.563.56-.284.581.01 1.218.647 1.403.378.11.59.029 1.295-.496.835-.622 2.228-2.115 2.538-2.722.105-.204.124-.519.045-.755-.162-.487-.738-.787-1.215-.633M9.61 20.959c-.512.3-.652.931-.317 1.431.23.342.602.46 1.787.568 1.18.107 2.795-.026 3.28-.269.686-.345.708-1.315.039-1.722-.213-.129-.229-.132-.559-.113a18.29 18.29 0 0 0-.86.082 9.796 9.796 0 0 1-.98.063c-.253 0-.694-.028-.98-.063a16.895 16.895 0 0 0-.86-.081c-.324-.018-.35-.013-.55.104" fill-rule="evenodd"/></svg>