<svg xmlns="http://www.w3.org/2000/svg" width="24" height="24" fill="none" stroke="currentColor" stroke-width="2" stroke-linecap="round" stroke-linejoin="round" class="lucide lucide-circle-stop-icon lucide-circle-stop"><path d="m11.28 1.023-.56.06c-1.888.2-3.729.94-5.36 2.152-.609.453-1.676 1.52-2.134 2.132C.728 8.714.301 13.032 2.097 16.78c.546 1.138 1.179 2.021 2.141 2.982.961.962 1.844 1.595 2.982 2.141 3.747 1.796 8.068 1.367 11.417-1.133.609-.454 1.679-1.524 2.133-2.133 2.974-3.985 2.974-9.289 0-13.274-.454-.608-1.523-1.677-2.13-2.128-1.595-1.186-3.275-1.875-5.217-2.139C13 1.038 11.574.99 11.28 1.023m2.04 2.078c2.563.387 4.804 1.83 6.24 4.019.303.463.743 1.359.932 1.9.346.993.485 1.845.485 2.98 0 1.493-.257 2.621-.897 3.94-.705 1.454-1.769 2.667-3.153 3.592-.789.528-2.051 1.056-3.019 1.265a9.053 9.053 0 0 1-7.538-1.778c-1.513-1.212-2.648-2.99-3.103-4.859-.186-.763-.244-1.272-.244-2.16 0-1.493.257-2.621.897-3.94a8.983 8.983 0 0 1 5.24-4.594c.705-.233 1.272-.348 2.18-.442.322-.033 1.571.015 1.98.077M9.477 8.073c-.671.176-1.239.75-1.417 1.435-.05.19-.06.615-.06 2.492 0 2.455.003 2.491.225 2.93.136.269.576.709.845.845.439.222.475.225 2.93.225s2.491-.003 2.93-.225c.266-.135.708-.575.841-.838.225-.443.229-.495.228-2.923 0-2.413-.008-2.518-.218-2.931-.135-.267-.484-.634-.764-.802-.453-.273-.493-.276-3.017-.276-2.008 0-2.289.007-2.523.068M14 12v2h-4v-4h4v2" fill="#000" fill-rule="evenodd" stroke="none"/></svg>