<svg xmlns="http://www.w3.org/2000/svg" width="24" height="24" fill="none" stroke="currentColor" stroke-width="2" stroke-linecap="round" stroke-linejoin="round" class="icon icon-tabler icons-tabler-outline icon-tabler-copy"><path d="M4.499 2.043c-.643.109-1.104.355-1.603.853-.4.4-.6.717-.771 1.217l-.105.307v5.52c0 6.221-.026 5.702.317 6.4.265.541.696.997 1.186 1.259.687.366 1.473-.093 1.476-.861.001-.35-.139-.613-.444-.835-.311-.226-.461-.423-.515-.676-.032-.148-.041-1.675-.032-5.347.012-4.99.014-5.145.089-5.296.099-.199.288-.388.487-.487.152-.075.304-.077 5.349-.088 5.855-.012 5.345-.041 5.587.319.317.472.522.621.905.661a.946.946 0 0 0 .744-.262c.183-.166.253-.289.312-.551.064-.285-.009-.522-.286-.937-.378-.566-.835-.927-1.424-1.127L15.5 2.02l-5.4-.006c-2.97-.003-5.491.01-5.601.029M9.28 6.025c-.606.095-.991.216-1.382.435-.738.412-1.379 1.149-1.653 1.9-.24.658-.225.276-.225 5.64s-.015 4.982.225 5.64c.336.919 1.196 1.779 2.115 2.115.658.24.276.225 5.64.225s4.982.015 5.64-.225c.919-.336 1.779-1.196 2.115-2.115.24-.658.225-.276.225-5.64s.015-4.982-.225-5.64c-.336-.918-1.191-1.774-2.115-2.116-.631-.233-.314-.22-5.5-.228a421.79 421.79 0 0 0-4.86.009m9.646 2.086c.439.178.785.524.963.963l.091.226.011 4.556c.007 2.966-.003 4.632-.03 4.775a1.673 1.673 0 0 1-1.221 1.315c-.295.078-9.185.078-9.48 0a1.675 1.675 0 0 1-1.22-1.304c-.055-.29-.055-8.994 0-9.284a1.678 1.678 0 0 1 1.287-1.316c.095-.019 2.243-.031 4.773-.028l4.6.006.226.091" fill="#000" fill-rule="evenodd" stroke="none"/></svg>