<svg xmlns="http://www.w3.org/2000/svg" width="24" height="24" fill="none" stroke="currentColor" stroke-width="2" stroke-linecap="round" stroke-linejoin="round" class="icon icon-tabler icons-tabler-outline icon-tabler-circle-dashed-x"><path d="M11.67 2.058a1.097 1.097 0 0 0-.542.458c-.092.156-.108.23-.108.487 0 .268.014.326.121.5.148.241.439.445.67.472.093.01.431.038.751.061.771.056 1.284.162 2.064.426.72.243.924.266 1.214.135.388-.176.576-.467.578-.897.004-.599-.274-.859-1.271-1.184a10.034 10.034 0 0 0-2.767-.496c-.433-.016-.594-.007-.71.038m-3.378.682c-.254.07-1.144.512-1.586.789-.774.483-1.743 1.296-1.935 1.621-.095.162-.111.234-.111.49 0 .257.016.327.113.492a.99.99 0 0 0 .972.496c.279-.029.403-.101.787-.456a8.272 8.272 0 0 1 2.146-1.44c.499-.234.643-.344.774-.592.114-.215.12-.655.012-.873a1.013 1.013 0 0 0-1.172-.527m9.738 1.961c-.222.081-.42.248-.542.455-.092.156-.108.229-.107.484.001.37.044.456.445.892a8.03 8.03 0 0 1 1.42 2.108c.259.539.368.683.609.807.615.316 1.358-.093 1.453-.8.099-.74-1.845-3.681-2.605-3.94a.998.998 0 0 0-.673-.006M3.247 7.683c-.285.142-.367.244-.554.689-.417.987-.739 2.693-.685 3.625.014.247.041.351.128.499a.995.995 0 0 0 1.803-.174c.034-.095.061-.275.061-.4 0-.768.162-1.663.462-2.548.243-.72.266-.924.135-1.214a.946.946 0 0 0-.546-.52c-.306-.114-.512-.103-.804.043M9.67 9.061c-.222.081-.42.248-.542.455-.092.156-.108.229-.107.484 0 .213.022.34.075.44.04.077.39.46.777.85l.704.71-.704.71c-.387.391-.734.771-.772.845-.229.453-.045 1.046.407 1.312.165.097.234.113.492.112.213 0 .34-.022.44-.075.077-.04.46-.39.85-.777l.71-.704.71.704c.391.387.773.737.85.777.1.053.227.075.44.075.258.001.327-.015.492-.112.222-.13.409-.369.473-.603a1.187 1.187 0 0 0-.066-.709c-.038-.074-.385-.454-.772-.845l-.704-.71.704-.71c.387-.39.737-.773.777-.85.053-.1.075-.227.075-.44.001-.255-.015-.328-.107-.484a1 1 0 0 0-1.215-.449c-.166.056-.312.18-.927.787l-.73.72-.73-.72c-.615-.607-.761-.731-.927-.787a.998.998 0 0 0-.673-.006m11 2a.969.969 0 0 0-.656.891c-.08 1.259-.171 1.773-.476 2.674-.243.72-.266.924-.135 1.214.176.388.467.576.897.578.623.004.848-.252 1.214-1.382.309-.955.458-1.831.463-2.736.003-.583 0-.605-.105-.784-.246-.418-.766-.615-1.202-.455M3.242 14.565c-.19.095-.278.17-.367.309a1.137 1.137 0 0 0-.195.575c-.001.384.704 1.729 1.35 2.578.395.518.92 1.084 1.109 1.194a1.004 1.004 0 0 0 1.368-.369c.097-.165.113-.234.112-.492-.001-.371-.044-.457-.447-.892-.592-.639-1.013-1.265-1.418-2.108-.276-.574-.405-.728-.703-.84-.307-.115-.511-.103-.809.045m14.797 2.856c-.126.039-.288.154-.54.382-.722.654-1.354 1.08-2.179 1.467-.253.118-.511.264-.574.323-.483.456-.361 1.298.231 1.587.411.201.594.179 1.323-.16.798-.371 1.676-.962 2.429-1.634.508-.454.611-.627.611-1.026 0-.254-.017-.328-.108-.484a1.02 1.02 0 0 0-.582-.461.916.916 0 0 0-.611.006M8.16 19.403a.965.965 0 0 0-.588.816c-.026.246.033.452.195.69.141.207.461.369 1.197.606a9.712 9.712 0 0 0 2.616.472c.599.026.776-.008 1.026-.198.25-.191.374-.459.374-.808 0-.233-.018-.312-.108-.465-.204-.346-.539-.516-1.02-.516-.72 0-1.595-.163-2.478-.462-.72-.243-.924-.266-1.214-.135" fill="#000" fill-rule="evenodd" stroke="none"/></svg>