<svg xmlns="http://www.w3.org/2000/svg" width="512" height="512"><path d="M51.2 1.398C31.667 5.167 12.412 21.19 4.788 40.02.007 51.827 0 51.95 0 128c0 76.05.007 76.173 4.788 87.98 6.174 15.25 19.966 29.022 35.303 35.254 9.966 4.049 15.98 4.766 39.996 4.766 37.763 0 55.271 2.897 78.937 13.061 48.518 20.836 83.797 64.504 93.895 116.219 2.288 11.719 3.081 23.725 3.081 46.633 0 16.414.333 23.744 1.288 28.37a64.824 64.824 0 0 0 50.429 50.429c9.297 1.92 143.269 1.92 152.566 0a64.824 64.824 0 0 0 50.429-50.429c1.92-9.297 1.92-143.269 0-152.566-4.075-19.725-16.846-36.151-34.913-44.903-12.447-6.029-17.731-6.812-46.027-6.821-31.403-.009-45.09-1.756-64.423-8.219-54.436-18.198-95.266-64.709-106.268-121.054-2.288-11.719-3.081-23.725-3.081-46.633 0-24.039-.713-30.004-4.788-40.067-5.693-14.06-17.37-26.403-31.413-33.206-14.368-6.96-12.53-6.826-92.533-6.733C70.238.148 56.439.387 51.2 1.398m154.453 33.857c6.175 3.16 12.035 8.998 15.02 14.965l2.411 4.82.609 28.587c.757 35.448 2.618 49.507 9.328 70.456 20.366 63.577 71.595 111.762 136.046 127.959 18.153 4.562 28.447 5.645 59.707 6.28l28.186.573 4.693 2.381c6.139 3.114 12.011 8.945 15.051 14.944l2.443 4.82v145.92l-2.518 4.973c-3.261 6.442-10.808 13.457-17.293 16.075L454.4 480H313.6l-4.936-1.992c-6.518-2.631-14.044-9.639-17.263-16.075l-2.487-4.973-.582-28.186c-.646-31.254-1.734-41.576-6.29-59.707-16.645-66.233-67.216-118.517-132.949-137.454-19.528-5.625-26.758-6.476-60.773-7.147-29.058-.573-30.987-.71-35.656-2.528-6.467-2.519-13.991-9.483-17.293-16.005l-2.518-4.973V55.04l2.405-4.693c4.033-7.875 10.596-13.716 18.569-16.528 3.319-1.17 12.399-1.309 75.453-1.148l71.68.182 4.693 2.402M88.52 64.908c-8.725 2.111-17.736 9.648-21.641 18.102l-2.452 5.31v79.36l2.407 5.209c3.046 6.59 9.646 13.162 16.366 16.296l5.12 2.388h79.36l5.209-2.407c6.59-3.046 13.162-9.646 16.296-16.366l2.388-5.12V88.32l-2.452-5.31c-3.005-6.506-9.664-13.064-16.532-16.283l-4.909-2.3-37.973-.148c-20.886-.082-39.42.201-41.187.629m256 0c-8.725 2.111-17.736 9.648-21.641 18.102l-2.452 5.31v79.36l2.407 5.209c3.046 6.59 9.646 13.162 16.366 16.296l5.12 2.388h79.36l5.209-2.407c6.59-3.046 13.162-9.646 16.296-16.366l2.388-5.12V88.32l-2.452-5.31c-3.005-6.506-9.664-13.064-16.532-16.283l-4.909-2.3-37.973-.148c-20.886-.082-39.42.201-41.187.629m71.053 63.519v32h-63.146v-64h63.146v32M88.52 320.908c-8.725 2.111-17.736 9.648-21.641 18.102l-2.452 5.31v79.36l2.407 5.209c3.046 6.59 9.646 13.162 16.366 16.296l5.12 2.388h79.36l5.209-2.407c6.59-3.046 13.162-9.646 16.296-16.366l2.388-5.12v-79.36l-2.452-5.31c-3.005-6.506-9.664-13.064-16.532-16.283l-4.909-2.3-37.973-.148c-20.886-.082-39.42.201-41.187.629m256 0c-8.725 2.111-17.736 9.648-21.641 18.102l-2.452 5.31v79.36l2.407 5.209c3.046 6.59 9.646 13.162 16.366 16.296l5.12 2.388h79.36l5.209-2.407c6.59-3.046 13.162-9.646 16.296-16.366l2.388-5.12v-79.36l-2.452-5.31c-3.005-6.506-9.664-13.064-16.532-16.283l-4.909-2.3-37.973-.148c-20.886-.082-39.42.201-41.187.629m-184.947 63.519v32H96.427v-64h63.146v32" fill-rule="evenodd"/></svg>