<svg xmlns="http://www.w3.org/2000/svg" width="24" height="24" fill="none" stroke="currentColor" stroke-width="2" stroke-linecap="round" stroke-linejoin="round" class="icon icon-tabler icons-tabler-outline icon-tabler-terminal-2"><path d="M4.499 3.043C3.38 3.232 2.461 4.048 2.114 5.16l-.094.3v13.08l.094.3a3.086 3.086 0 0 0 2.046 2.046l.3.094h15.08l.3-.094a3.086 3.086 0 0 0 2.046-2.046l.094-.3V5.46l-.094-.3a3.089 3.089 0 0 0-2.025-2.039l-.321-.101-7.42-.006c-4.081-.003-7.511.01-7.621.029M19.31 5.061c.279.083.546.35.629.629.053.179.061.961.061 6.311 0 5.058-.009 6.138-.055 6.289a1.02 1.02 0 0 1-.461.582l-.184.108H4.7l-.184-.108a1.051 1.051 0 0 1-.458-.556c-.09-.256-.087-12.323.003-12.626.079-.269.351-.547.612-.627.291-.089 14.336-.092 14.637-.002m-11.64 3c-.222.081-.42.248-.542.455-.092.156-.108.229-.107.484 0 .213.022.341.074.44.041.077.616.685 1.279 1.35L9.578 12l-1.204 1.21c-.663.666-1.236 1.271-1.273 1.345-.229.454-.045 1.046.407 1.312.165.097.234.113.492.112.212 0 .341-.022.44-.074.192-.101 3.299-3.201 3.433-3.425.091-.152.107-.226.107-.48s-.017-.328-.107-.48c-.059-.099-.833-.902-1.72-1.784-1.439-1.431-1.634-1.612-1.81-1.67a1.01 1.01 0 0 0-.673-.005m5.025 5.996a1.04 1.04 0 0 0-.567.459c-.091.156-.108.23-.108.484 0 .256.016.328.111.489.125.213.318.375.539.454.218.078 3.442.078 3.66 0 .221-.079.414-.241.539-.454.095-.161.111-.233.111-.489 0-.254-.017-.328-.108-.484a1.02 1.02 0 0 0-.582-.461c-.255-.077-3.349-.075-3.595.002" fill="#000" fill-rule="evenodd" stroke="none"/></svg>