<svg xmlns="http://www.w3.org/2000/svg" width="24" height="24" fill="none" stroke="currentColor" stroke-width="2" stroke-linecap="round" stroke-linejoin="round" class="icon icon-tabler icons-tabler-outline icon-tabler-code-off"><path d="M2.67 2.061c-.222.081-.42.248-.542.455-.092.156-.108.229-.107.484 0 .212.022.341.074.44.04.077.953 1.022 2.029 2.1L6.08 7.501 4.157 9.42c-1.057 1.056-1.97 2.001-2.03 2.1-.091.153-.107.225-.106.48 0 .212.022.341.074.44.097.186 4.197 4.297 4.413 4.425.459.274 1.079.103 1.359-.373.097-.165.113-.234.112-.492 0-.212-.022-.341-.074-.44-.04-.077-.841-.91-1.779-1.85l-1.705-1.711L5.96 10.46 7.5 8.92l1.696 1.696 1.696 1.697-.95 3.793c-1.045 4.174-1.018 4.029-.804 4.395a.996.996 0 0 0 1.178.441c.215-.077.421-.236.529-.41.055-.089.371-1.281.89-3.355l.805-3.217 3.9 3.903c2.23 2.231 3.977 3.948 4.08 4.01.153.091.226.107.48.107.257 0 .327-.016.492-.113.476-.28.647-.9.373-1.359-.055-.092-4.2-4.265-9.212-9.273-8.422-8.415-9.128-9.11-9.31-9.17a1.015 1.015 0 0 0-.673-.004m10.997 1.001c-.225.082-.45.277-.542.469-.044.093-.363 1.294-.707 2.669-.534 2.137-.622 2.531-.604 2.712.071.717.882 1.122 1.492.745.37-.229.354-.183 1.06-3 .707-2.819.704-2.801.496-3.158a1.013 1.013 0 0 0-1.195-.437m3.003 3.999c-.222.081-.42.248-.542.455-.092.156-.108.229-.107.484 0 .212.022.341.074.44.04.077.841.91 1.779 1.85L19.579 12l-.924.93c-.508.512-.96.984-1.004 1.05-.196.291-.186.758.021 1.072.295.444.95.572 1.383.269.245-.17 2.764-2.718 2.85-2.881.052-.099.074-.227.074-.44.001-.255-.015-.327-.106-.48-.06-.101-1.039-1.108-2.22-2.285-1.905-1.897-2.132-2.111-2.31-2.17a1.015 1.015 0 0 0-.673-.004" fill="#000" fill-rule="evenodd" stroke="none"/></svg>