<svg xmlns="http://www.w3.org/2000/svg" width="24" height="24" fill="none" stroke="currentColor" stroke-width="2" stroke-linecap="round" stroke-linejoin="round" class="icon icon-tabler icons-tabler-outline icon-tabler-sdk"><path d="M3.477 7.073c-.671.176-1.239.75-1.417 1.435C2.013 8.687 2 9.009 2 10c0 1.368.018 1.521.225 1.93.136.269.576.709.845.845.402.204.572.225 1.798.225H6v2H4.446c-1.688 0-1.788.011-2.064.221-.08.061-.195.194-.254.295-.091.156-.108.23-.108.484 0 .256.016.328.111.489.061.103.173.236.25.294.275.21.308.213 2.161.215 1.866.002 1.961-.007 2.388-.223.266-.135.708-.575.841-.838.208-.41.229-.585.228-1.923 0-1.332-.025-1.551-.218-1.931-.135-.267-.484-.634-.764-.802-.408-.246-.612-.276-1.887-.279L4 11V9l1.59-.002c1.71-.002 1.756-.007 2.029-.215.077-.058.189-.191.25-.294.095-.161.111-.233.111-.489 0-.254-.017-.328-.108-.484a1.209 1.209 0 0 0-.254-.295c-.279-.213-.365-.221-2.194-.219-1.458.002-1.719.012-1.947.071m6.218-.018a1.05 1.05 0 0 0-.567.461L9.02 7.7l-.011 4.213c-.007 2.759.004 4.265.03 4.364.06.221.251.462.469.59l.192.113h1.42c1.377 0 1.429-.003 1.72-.094a3.086 3.086 0 0 0 2.046-2.046l.094-.3V9.46l-.094-.3a3.077 3.077 0 0 0-2.025-2.036c-.31-.096-.366-.099-1.661-.11-1.034-.009-1.378 0-1.505.041m7 .002a1.04 1.04 0 0 0-.567.459l-.108.184v8.606l.121.197a.998.998 0 0 0 1.718 0l.121-.197.012-1.317.012-1.317 1.156 1.541c1.265 1.687 1.309 1.731 1.728 1.774a.992.992 0 0 0 1.069-1.256c-.041-.147-.353-.591-1.365-1.941-.722-.963-1.312-1.768-1.312-1.79 0-.022.59-.827 1.312-1.79 1.012-1.35 1.324-1.794 1.365-1.941a.988.988 0 0 0-1.076-1.252c-.422.05-.459.088-1.721 1.77l-1.156 1.541-.012-1.314L17.98 7.7l-.108-.184a1.005 1.005 0 0 0-1.177-.459M12.31 9.061c.279.083.546.35.629.629.086.288.091 4.317.006 4.6a1.02 1.02 0 0 1-.461.582c-.176.103-.212.109-.834.121l-.65.014V9h.553c.378 0 .617.019.757.061" fill="#000" fill-rule="evenodd" stroke="none"/></svg>