<svg xmlns="http://www.w3.org/2000/svg" width="24" height="24" fill="none" stroke="currentColor" stroke-width="2" stroke-linecap="round" stroke-linejoin="round" class="icon icon-tabler icons-tabler-outline icon-tabler-api"><path d="M5.873 7.06a3.536 3.536 0 0 0-1.915 1.045c-.396.419-.64.844-.828 1.443l-.11.352v6.406l.121.197a.998.998 0 0 0 1.718 0l.121-.196.012-1.154L5.005 14h2.99l.013 1.153.012 1.154.121.196a.998.998 0 0 0 1.718 0l.121-.197.011-3.023c.007-1.939-.003-3.119-.03-3.291a3.538 3.538 0 0 0-2.583-2.874c-.419-.109-1.098-.135-1.505-.058m5.822-.004c-.23.074-.44.244-.567.46l-.108.184v8.606l.121.197a.998.998 0 0 0 1.718 0l.121-.196.012-1.15.012-1.15 1.288-.016c1.21-.015 1.305-.022 1.568-.107a3.108 3.108 0 0 0 2.026-2.044c.088-.282.094-.361.094-1.34 0-.979-.006-1.058-.094-1.34a3.08 3.08 0 0 0-2.025-2.037c-.32-.099-.326-.1-2.161-.11-1.441-.008-1.876.001-2.005.043m8 .001a1.04 1.04 0 0 0-.567.459l-.108.184v8.606l.121.197a.998.998 0 0 0 1.718 0l.121-.197V7.7l-.108-.184a1.005 1.005 0 0 0-1.177-.459M7.119 9.143c.296.135.608.449.748.753.111.241.112.254.126 1.174l.014.93H4.993l.013-.93c.014-.921.016-.932.126-1.17.197-.423.618-.771 1.042-.861.267-.057.696-.009.945.104m8.191-.082c.279.083.546.35.629.629.081.271.085 1.338.006 1.6a1.02 1.02 0 0 1-.461.582l-.184.108-1.15.012-1.15.013V9h1.053c.826 0 1.097.013 1.257.061" fill="#000" fill-rule="evenodd" stroke="none"/></svg>