<svg xmlns="http://www.w3.org/2000/svg" width="24" height="24" fill="none" stroke="currentColor" stroke-width="2" stroke-linecap="round" stroke-linejoin="round" class="icon icon-tabler icons-tabler-outline icon-tabler-brand-python"><path d="M9.499 2.042c-1.113.192-2.017.988-2.383 2.098-.09.273-.093.327-.107 2.067l-.014 1.786-1.268.016c-1.209.016-1.282.021-1.588.115a3.077 3.077 0 0 0-2.025 2.036l-.094.3v5.08l.094.3a3.108 3.108 0 0 0 2.026 2.044c.263.085.359.092 1.565.107l1.286.016.019.786c.016.671.032.828.108 1.067a3.099 3.099 0 0 0 2.042 2.026l.3.094h5.08l.3-.094a3.106 3.106 0 0 0 2.044-2.026c.09-.273.093-.327.107-2.067l.014-1.786 1.288-.016c1.209-.015 1.304-.022 1.567-.107a3.108 3.108 0 0 0 2.026-2.044l.094-.3V8.46l-.094-.3a3.077 3.077 0 0 0-2.025-2.036c-.306-.094-.379-.099-1.586-.115l-1.266-.016-.019-.786c-.016-.671-.032-.828-.108-1.067a3.096 3.096 0 0 0-2.021-2.018l-.321-.1-2.42-.007c-1.331-.004-2.511.008-2.621.027m4.811 2.019c.279.083.546.35.629.629.086.289.092 5.316.006 5.6a1.02 1.02 0 0 1-.461.582l-.184.108-2.42.022-2.42.021-.321.1a3.1 3.1 0 0 0-2.023 2.017c-.085.263-.092.358-.107 1.572l-.016 1.292-1.146-.012L4.7 15.98l-.184-.108a1.199 1.199 0 0 1-.291-.249C4 15.327 4 15.332 4 13.022c0-2.436-.003-2.413.303-2.719.318-.318.111-.303 4.234-.305 2.939-.001 3.672-.012 3.793-.055.221-.079.414-.241.539-.454.095-.161.111-.233.111-.489 0-.254-.017-.328-.108-.484a1.209 1.209 0 0 0-.254-.295c-.276-.21-.376-.221-2.064-.221H9V6.447c0-1.798.007-1.848.304-2.144.3-.301.265-.297 2.679-.3 1.789-.003 2.155.007 2.327.058m-3.615.996a1.04 1.04 0 0 0-.567.459c-.092.156-.108.229-.107.484.001.332.08.533.285.728.479.453 1.274.318 1.587-.268.132-.249.122-.7-.021-.944a1.005 1.005 0 0 0-1.177-.459m8.615 3.004c.279.083.546.35.629.629.086.288.091 4.317.006 4.6a1.02 1.02 0 0 1-.461.582l-.184.108-3.78.02c-2.903.015-3.806.032-3.893.07a1.146 1.146 0 0 0-.499.446c-.091.156-.108.23-.108.484 0 .256.016.328.111.489.061.103.173.236.25.294.273.208.319.213 2.029.215L15 16v1.554c0 1.688-.011 1.788-.221 2.064-.061.08-.194.195-.295.254l-.184.108H9.7l-.184-.108a1.199 1.199 0 0 1-.291-.249c-.229-.3-.225-.245-.225-3.101 0-2.962-.005-2.903.283-3.201.306-.314.165-.298 2.877-.322 2.393-.022 2.423-.023 2.7-.114a3.132 3.132 0 0 0 2.024-2.025c.085-.263.092-.358.107-1.57L17.007 8h1.049c.823 0 1.094.013 1.254.061m-6.615 8.996a1.04 1.04 0 0 0-.567.459c-.092.156-.108.229-.107.484.001.332.08.533.285.728.479.453 1.274.318 1.587-.268.132-.249.122-.7-.021-.944a1.005 1.005 0 0 0-1.177-.459" fill="#000" fill-rule="evenodd" stroke="none"/></svg>