<svg xmlns="http://www.w3.org/2000/svg" width="24" height="24" fill="none" stroke="currentColor" stroke-width="2" stroke-linecap="round" stroke-linejoin="round" class="icon icon-tabler icons-tabler-outline icon-tabler-color-filter"><path d="M11.54 1.023c-.825.079-1.29.177-1.92.404A7 7 0 0 0 5.095 6.88a7.417 7.417 0 0 0 .039 2.467l.05.243-.262.129c-1.757.859-3.134 2.501-3.654 4.361a7.16 7.16 0 0 0-.065 3.58 7.029 7.029 0 0 0 5.677 5.245 7.11 7.11 0 0 0 2.6-.069c.774-.177 1.629-.524 2.196-.891.158-.102.303-.185.324-.185.02 0 .15.074.289.164.573.373 1.459.736 2.231.912a7.11 7.11 0 0 0 2.6.069 7.025 7.025 0 0 0 5.154-3.815c.925-1.85.961-4.121.094-5.99-.68-1.466-1.867-2.686-3.29-3.381l-.262-.129.05-.243c.192-.932.16-2.105-.083-3.067-.679-2.686-2.965-4.771-5.681-5.182-.376-.057-1.289-.101-1.562-.075m1.012 2.02a5.008 5.008 0 0 1 4.128 3.205c.412 1.072.405 2.472-.017 3.545a5.076 5.076 0 0 1-3.063 2.939c-.556.19-.93.248-1.6.248s-1.044-.058-1.6-.248A5.041 5.041 0 0 1 7.161 9.24c-.241-.933-.178-2.115.159-2.992a4.997 4.997 0 0 1 5.232-3.205M6.021 11.63c.203.353.672.947 1.037 1.31 1.067 1.066 2.358 1.723 3.902 1.984.171.029.652.052 1.12.054l.82.002.051.38a5.69 5.69 0 0 1-.052 1.59 4.882 4.882 0 0 1-1.36 2.553c-1.017 1.021-2.324 1.542-3.719 1.483a4.656 4.656 0 0 1-2.106-.553c-2.423-1.236-3.403-4.236-2.178-6.664a5.163 5.163 0 0 1 2.045-2.148c.174-.1.32-.181.324-.181.004 0 .056.085.116.19m12.857.284c1.006.707 1.797 1.922 2.024 3.111.128.668.109 1.537-.047 2.155A5.064 5.064 0 0 1 17 20.899c-.464.1-1.265.121-1.729.045a5.72 5.72 0 0 1-1.451-.454 6.107 6.107 0 0 1-.293-.151c-.007-.006.106-.185.251-.397a6.954 6.954 0 0 0 1.161-4.81 7.418 7.418 0 0 0-.096-.597c-.033-.122-.028-.128.17-.22.34-.159.88-.491 1.232-.759.63-.478 1.382-1.314 1.733-1.926l.109-.19.267.147c.146.08.382.228.524.327" fill="#000" fill-rule="evenodd" stroke="none"/></svg>