<svg xmlns="http://www.w3.org/2000/svg" width="24" height="24" fill="none" stroke="currentColor" stroke-width="2" stroke-linecap="round" stroke-linejoin="round" class="icon icon-tabler icons-tabler-outline icon-tabler-color-picker"><path d="M16.103 3.045a1.666 1.666 0 0 0-.58.178c-.284.139-.403.248-1.91 1.748l-1.608 1.601-.25-.227c-.355-.321-.66-.406-1.045-.29a1.02 1.02 0 0 0-.582.461c-.092.156-.108.229-.107.484.001.354.055.476.351.789l.203.215-3.723 3.728c-3.473 3.478-3.727 3.742-3.789 3.932-.058.182-.064.45-.054 2.42L3.02 20.3l.111.189c.125.213.318.375.539.454.118.042.611.054 2.313.055 1.893.002 2.187-.006 2.36-.063.18-.06.515-.383 3.925-3.788l3.728-3.722.215.203c.266.251.421.333.684.36a.99.99 0 0 0 .972-.496c.097-.165.113-.234.112-.492-.001-.354-.055-.476-.351-.789l-.202-.214 1.604-1.608c1.498-1.503 1.613-1.628 1.744-1.901.283-.592.284-1.183.001-1.768-.136-.282-.238-.393-1.67-1.825-1.404-1.403-1.548-1.536-1.816-1.667-.261-.129-.403-.165-.789-.202a2.72 2.72 0 0 0-.397.019M17.7 6.32l1.28 1.28-1.49 1.49L16 10.58l-1.29-1.29L13.42 8l1.48-1.48a79.934 79.934 0 0 1 1.5-1.48c.011 0 .596.576 1.3 1.28m-4.4 4.4L14.58 12l-3.5 3.5-3.5 3.5H5v-2.58l3.49-3.49A438.03 438.03 0 0 1 12 9.44c.011 0 .596.576 1.3 1.28" fill="#000" fill-rule="evenodd" stroke="none"/></svg>