<svg xmlns="http://www.w3.org/2000/svg" width="24" height="24" fill="none" stroke="currentColor" stroke-width="2" stroke-linecap="round" stroke-linejoin="round" class="icon icon-tabler icons-tabler-outline icon-tabler-seedling"><path d="M2.695 3.055a1.05 1.05 0 0 0-.567.461L2.02 3.7v1.48c0 1.567.02 1.82.202 2.545.611 2.431 2.578 4.418 4.992 5.039.705.182.921.202 2.375.224l1.409.02.011 3.649.011 3.649.121.197a.998.998 0 0 0 1.718 0l.121-.197.011-2.149.012-2.149 1.408-.02c1.679-.025 2.016-.072 2.969-.415a6.987 6.987 0 0 0 4.193-4.193c.328-.912.407-1.433.407-2.7V7.7l-.109-.186a1.034 1.034 0 0 0-.647-.476c-.315-.071-3.85-.027-4.324.053-1.399.237-2.543.791-3.625 1.757a3.79 3.79 0 0 1-.325.272c-.01 0-.031-.103-.046-.229-.061-.523-.342-1.405-.63-1.981-1.025-2.049-2.9-3.434-5.174-3.819-.509-.086-4.158-.116-4.405-.036m3.857 1.988a5.008 5.008 0 0 1 4.128 3.205c.222.577.32 1.243.32 2.174v.584l-1.35-.017c-1.446-.019-1.602-.037-2.25-.257A5.041 5.041 0 0 1 4.162 7.24C4.054 6.82 4 6.262 4 5.582V5h1.082c.594 0 1.256.019 1.47.043M20 9.082c0 .219-.094.891-.161 1.158-.409 1.61-1.653 2.951-3.239 3.492-.648.22-.804.238-2.25.257l-1.35.017v-.084c0-.224.093-.894.162-1.162.505-1.977 2.229-3.489 4.238-3.716.165-.018.818-.036 1.45-.039C19.982 9 20 9.001 20 9.082" fill="#000" fill-rule="evenodd" stroke="none"/></svg>