<svg xmlns="http://www.w3.org/2000/svg" width="24" height="24" fill="none" stroke="currentColor" stroke-width="2" stroke-linecap="round" stroke-linejoin="round" class="lucide lucide-diameter-icon lucide-diameter"><path d="M10.88 1.058c-1.514.179-2.841.581-4.028 1.221l-.288.156-.212-.115c-.394-.213-.789-.298-1.372-.295-.431.002-.575.019-.841.1A3.073 3.073 0 0 0 2.114 4.16c-.081.258-.094.379-.091.86.003.498.015.596.111.88.06.176.149.398.199.493l.091.172-.214.419a11.515 11.515 0 0 0-1.111 3.476c-.088.56-.121 1.851-.063 2.484a11.038 11.038 0 0 0 4.944 8.267c.592.389 1.555.873 2.234 1.121.607.223 1.62.478 2.286.575.682.101 2.335.101 2.98 0 1.308-.203 2.474-.57 3.505-1.103l.445-.231.175.092c.096.051.319.141.495.201.284.096.382.108.88.111.481.003.602-.01.86-.091a3.086 3.086 0 0 0 2.046-2.046c.081-.258.094-.379.091-.86-.003-.498-.015-.596-.111-.88a4.325 4.325 0 0 0-.201-.495l-.092-.175.231-.445c.527-1.019.896-2.183 1.104-3.485.1-.622.099-2.321-.001-3-.531-3.611-2.727-6.688-5.927-8.303a10.603 10.603 0 0 0-3.38-1.079c-.708-.107-2.072-.137-2.72-.06m2.442 2.039c1.963.312 3.666 1.171 5.038 2.543 2.531 2.531 3.315 6.282 2.016 9.646-.113.292-.348.809-.392.862a1.534 1.534 0 0 1-.246-.058c-.169-.047-.389-.066-.758-.064-.439.001-.57.017-.84.102a8.094 8.094 0 0 0-.38.126c-.043.019-1.496-1.41-5.047-4.964L7.725 6.3l.126-.36c.119-.341.125-.391.124-.94-.001-.424-.019-.633-.067-.778a1.227 1.227 0 0 1-.057-.205c.053-.044.57-.279.863-.393a9.309 9.309 0 0 1 2.106-.541l.48-.06c.255-.035 1.659.016 2.022.074m-8.013.964C5.683 4.172 6 4.603 6 5c0 .22-.12.51-.278.673-.241.249-.375.305-.722.305-.344 0-.461-.048-.709-.297-.386-.386-.381-.985.013-1.378.278-.279.612-.359 1.005-.242m5.978 8.649 4.988 4.99-.126.36c-.119.341-.125.391-.124.94.001.424.019.633.067.778.036.109.061.201.057.205-.005.004-.12.063-.256.131-.619.311-1.613.624-2.453.774-.416.074-.651.089-1.4.09-.972.002-1.308-.033-2.1-.22-3.316-.781-5.933-3.397-6.699-6.696a9.12 9.12 0 0 1 .383-5.348c.114-.293.349-.81.393-.863.004-.004.096.021.205.057.145.048.353.065.778.066.548.002.599-.005.92-.12l.36-.128c.011-.003 2.264 2.24 5.007 4.984m8.019 5.349c.377.113.694.542.694.942 0 .33-.216.695-.516.871-.156.091-.23.108-.484.108-.351 0-.558-.094-.76-.346-.335-.417-.309-.958.064-1.331.277-.278.612-.359 1.002-.244" fill-rule="evenodd" fill="#000" stroke="none"/></svg>