<svg xmlns="http://www.w3.org/2000/svg" width="24" height="24" fill="none" stroke="currentColor" stroke-width="2" stroke-linecap="round" stroke-linejoin="round" class="lucide lucide-square-pen-icon lucide-square-pen"><path d="M19.38 1.041a3.052 3.052 0 0 0-1.38.595c-.334.255-9.509 9.444-9.671 9.687-.068.1-.177.29-.244.421-.16.315-1.045 3.32-1.074 3.647a1.486 1.486 0 0 0 1.586 1.597c.335-.027 3.317-.902 3.666-1.075.138-.069.365-.211.504-.316.4-.302 9.551-9.493 9.735-9.777a3.156 3.156 0 0 0 .275-2.846 3.194 3.194 0 0 0-2.058-1.852 4.026 4.026 0 0 0-1.339-.081M4.499 2.043C3.383 2.23 2.461 3.048 2.114 4.16l-.094.3v15.08l.094.3a3.086 3.086 0 0 0 2.046 2.046l.3.094h15.08l.3-.094a3.086 3.086 0 0 0 2.046-2.046l.094-.3V11.7l-.109-.186a1.01 1.01 0 0 0-1.742 0l-.109.186-.02 3.78c-.015 2.903-.032 3.806-.07 3.893a1.146 1.146 0 0 1-.446.499l-.184.108H4.7l-.184-.108a1.199 1.199 0 0 1-.291-.249c-.239-.314-.225.172-.225-7.601 0-8.016-.025-7.391.303-7.719.318-.318.111-.303 4.234-.305 2.939-.001 3.672-.012 3.793-.055.221-.079.414-.241.539-.454.095-.161.111-.233.111-.489 0-.254-.017-.328-.108-.484a1.209 1.209 0 0 0-.254-.295c-.298-.227-.192-.221-4.214-.216-2.037.002-3.795.02-3.905.038m15.889 1.1c.382.185.588.535.587.997 0 .224-.021.32-.105.48-.079.151-1.234 1.328-4.737 4.828-2.721 2.718-4.683 4.648-4.753 4.675-.178.07-2.113.637-2.127.624-.017-.018.537-1.904.614-2.087.086-.205 9.226-9.38 9.473-9.509.088-.046.214-.098.28-.116.193-.05.544-.001.768.108" fill-rule="evenodd" fill="#000" stroke="none"/></svg>