<svg xmlns="http://www.w3.org/2000/svg" width="24" height="24" fill="none" stroke="currentColor" stroke-width="2" stroke-linecap="round" stroke-linejoin="round" class="icon icon-tabler icons-tabler-outline icon-tabler-puzzle"><path d="M9.499 2.04a3.061 3.061 0 0 0-2.381 2.1c-.076.239-.092.396-.108 1.07L6.991 6l-1.626.002c-1.402.002-1.661.012-1.888.071-.671.176-1.239.75-1.417 1.435-.088.336-.088 3.648 0 3.984.093.36.25.626.536.912.485.485.825.596 1.825.596.84 0 1.014.041 1.276.303.273.274.36.616.248.987a1.02 1.02 0 0 1-.461.582c-.18.106-.202.109-1.044.132-.966.028-1.117.059-1.503.308-.438.284-.751.71-.877 1.196-.088.336-.088 3.648 0 3.984.093.36.25.626.536.912.286.286.552.443.912.536.346.09 3.633.088 3.983-.003.372-.096.623-.243.913-.533.483-.482.596-.831.596-1.833 0-.831.042-1.007.303-1.268.183-.183.46-.303.697-.303.237 0 .514.12.697.303.262.262.303.436.303 1.276 0 .745.04.986.225 1.351.136.269.576.709.845.845.427.216.519.225 2.43.225s2.003-.009 2.43-.225c.266-.135.708-.575.841-.838.217-.427.229-.552.229-2.308v-1.62l.79-.019c.674-.016.831-.032 1.07-.108a3.097 3.097 0 0 0 2.026-2.042c.078-.252.093-.387.093-.84 0-.453-.015-.588-.093-.84a3.068 3.068 0 0 0-2.025-2.034c-.277-.083-.428-.099-1.091-.116l-.77-.019-.001-1.606c0-1.732-.017-1.906-.218-2.302-.135-.267-.484-.634-.764-.802-.433-.261-.562-.276-2.382-.279L13.009 6l-.019-.79c-.016-.674-.032-.831-.108-1.07-.311-.97-1.081-1.736-2.021-2.011-.361-.106-1.029-.149-1.362-.089m.811 2.021a.893.893 0 0 1 .387.242c.262.262.303.436.303 1.276 0 .745.04.986.225 1.351.136.269.576.709.845.845.423.215.531.225 2.298.225H16v1.632c0 1.767.01 1.875.225 2.298.136.269.576.709.845.845.365.185.606.225 1.351.225.84 0 1.014.041 1.276.303.273.274.36.616.248.987a1.02 1.02 0 0 1-.461.582c-.18.106-.202.109-1.044.132-.629.018-.915.042-1.063.09-.44.141-.95.578-1.161.994-.204.403-.216.525-.216 2.28V20h-2.991l-.019-.79c-.016-.674-.032-.831-.108-1.07a3.083 3.083 0 0 0-2.021-2.015c-.273-.083-.403-.098-.861-.098-.458 0-.588.015-.861.098a3.083 3.083 0 0 0-2.021 2.015c-.076.239-.092.396-.108 1.07l-.019.79H4v-2.991l.79-.019c.674-.016.831-.032 1.07-.108a3.097 3.097 0 0 0 2.026-2.042c.135-.434.135-1.246 0-1.68a3.068 3.068 0 0 0-2.025-2.034c-.277-.083-.428-.099-1.091-.116L4 10.991V8h1.632c1.767 0 1.875-.01 2.298-.225.266-.135.708-.575.841-.838.185-.364.229-.629.229-1.366 0-.832.042-1.007.304-1.268.279-.279.612-.359 1.006-.242" fill="#000" fill-rule="evenodd" stroke="none"/></svg>