<svg xmlns="http://www.w3.org/2000/svg" width="24" height="24" fill="none" stroke="currentColor" stroke-width="2" stroke-linecap="round" stroke-linejoin="round" class="icon icon-tabler icons-tabler-outline icon-tabler-eye-up"><path d="M11.16 5.043c-3.343.254-6.198 2.157-8.536 5.688-.542.819-.604.949-.604 1.269 0 .32.062.45.604 1.269 1.961 2.962 4.254 4.757 6.935 5.43 1.039.26 2.391.379 2.771.244.221-.079.414-.241.539-.454.095-.161.111-.233.111-.489 0-.254-.017-.328-.108-.484-.208-.353-.538-.516-1.048-.516-.337 0-.881-.06-1.324-.146-2.234-.431-4.191-1.837-5.895-4.234-.407-.572-.42-.597-.361-.71.076-.145.65-.94.944-1.31.388-.486 1.247-1.357 1.697-1.719a8.64 8.64 0 0 1 1.73-1.1c1.171-.556 2.075-.758 3.385-.758 1.31 0 2.214.202 3.385.758 1.555.737 2.971 2.05 4.243 3.934l.199.294-.057.166c-.142.41.113.964.537 1.166.339.161.795.098 1.076-.149.155-.136.502-.694.577-.927.069-.214.032-.506-.096-.752-.156-.3-.814-1.284-1.193-1.784-1.358-1.792-3.042-3.189-4.711-3.911-1.495-.646-3.094-.904-4.8-.775m.339 3.997a3.05 3.05 0 0 0-2.385 2.12c-.135.434-.135 1.246 0 1.68a3.086 3.086 0 0 0 2.046 2.046c.434.135 1.246.135 1.68 0a3.086 3.086 0 0 0 2.046-2.046c.135-.434.135-1.246 0-1.68-.305-.981-1.076-1.753-2.025-2.031-.361-.106-1.029-.149-1.362-.089m.811 2.021c.378.112.69.537.69.94 0 .33-.216.695-.516.871-.156.091-.23.108-.484.108s-.328-.017-.484-.108c-.581-.342-.683-1.098-.212-1.569.279-.279.612-.359 1.006-.242m6.27 4.035c-.156.075-.551.449-1.806 1.71-.883.888-1.639 1.677-1.679 1.754-.052.099-.074.228-.074.44-.001.258.015.327.112.492.13.222.369.409.603.473.203.054.531.024.709-.066.074-.038.454-.385.844-.771l.708-.702.012 1.94.011 1.94.121.197a.998.998 0 0 0 1.718 0l.121-.197.011-1.94.012-1.94.708.702c.39.386.772.736.849.776.1.053.227.075.44.075.258.001.327-.015.492-.112.222-.13.409-.369.473-.603a1.187 1.187 0 0 0-.066-.709c-.037-.074-.79-.861-1.673-1.749-1.754-1.763-1.806-1.805-2.226-1.805a.945.945 0 0 0-.42.095" fill="#000" fill-rule="evenodd" stroke="none"/></svg>