<svg xmlns="http://www.w3.org/2000/svg" width="24" height="24" fill="none" stroke="currentColor" stroke-width="2" stroke-linecap="round" stroke-linejoin="round" class="icon icon-tabler icons-tabler-outline icon-tabler-eye-off"><path d="M2.67 2.061c-.222.081-.42.248-.542.455-.092.156-.108.229-.107.484 0 .212.022.341.074.44.04.077.885.954 1.877 1.948l1.803 1.808-.117.092c-.269.21-.867.77-1.255 1.176a16.39 16.39 0 0 0-1.702 2.156c-.618.922-.681 1.051-.681 1.38 0 .32.062.45.604 1.269 1.511 2.283 3.23 3.882 5.147 4.79a10.02 10.02 0 0 0 7.119.52 11.247 11.247 0 0 0 1.455-.571l.161-.082 1.917 1.919c1.054 1.056 1.998 1.968 2.097 2.028.153.091.226.107.48.107.257 0 .327-.016.492-.113.476-.28.647-.9.373-1.359-.055-.092-4.2-4.265-9.212-9.273-8.422-8.415-9.128-9.11-9.31-9.17a1.015 1.015 0 0 0-.673-.004m8.417 2.983c-.646.058-1.134.154-1.367.269a.985.985 0 0 0-.515.682c-.082.38.118.829.455 1.027.282.165.46.191.836.119a8.219 8.219 0 0 1 2.051-.109c1.132.09 1.858.281 2.833.746 1.506.717 2.856 1.942 4.092 3.71.332.475.341.494.283.602-.165.314-.961 1.355-1.476 1.93-.292.327-.399.54-.404.807-.007.322.07.522.284.735.314.314.691.385 1.124.212.345-.138 1.489-1.545 2.316-2.849.34-.534.418-.735.392-1.008-.024-.246-.137-.464-.615-1.186-1.804-2.726-3.891-4.464-6.296-5.244a10.283 10.283 0 0 0-3.993-.443M8.247 9.67l1.027 1.03-.125.36c-.116.335-.125.399-.127.92-.002.479.012.603.092.86a3.086 3.086 0 0 0 2.046 2.046c.257.08.381.094.86.092.521-.002.585-.011.92-.127l.36-.125.853.85.852.85-.432.145c-.853.288-1.369.383-2.258.417-1.945.074-3.733-.527-5.343-1.795-.628-.495-1.507-1.414-2.078-2.173-.317-.422-.694-.976-.694-1.02 0-.052.404-.636.804-1.16A15.314 15.314 0 0 1 6.44 9.256c.244-.227.724-.616.758-.616.013 0 .485.464 1.049 1.03" fill="#000" fill-rule="evenodd" stroke="none"/></svg>