<svg xmlns="http://www.w3.org/2000/svg" width="24" height="24" fill="none" stroke="currentColor" stroke-width="2" stroke-linecap="round" stroke-linejoin="round" class="icon icon-tabler icons-tabler-outline icon-tabler-eye-minus"><path d="M11.16 5.043c-3.343.254-6.198 2.157-8.536 5.688-.542.819-.604.949-.604 1.269 0 .32.062.45.604 1.269 1.961 2.962 4.254 4.757 6.935 5.43 1.039.26 2.391.379 2.771.244.221-.079.414-.241.539-.454.095-.161.111-.233.111-.489 0-.254-.017-.328-.108-.484-.208-.353-.538-.516-1.048-.516-.337 0-.881-.06-1.324-.146-2.234-.431-4.191-1.837-5.895-4.234-.407-.572-.42-.597-.361-.71.076-.145.65-.94.944-1.31.388-.486 1.247-1.357 1.697-1.719a8.64 8.64 0 0 1 1.73-1.1c1.171-.556 2.075-.758 3.385-.758 1.31 0 2.214.202 3.385.758 1.496.71 2.851 1.938 4.087 3.707.354.507.348.49.242.664-.293.481-.976 1.361-1.513 1.948-.386.423-.479.597-.48.9-.001.316.058.485.241.693a.995.995 0 0 0 1.187.233c.351-.18 1.406-1.429 2.167-2.567.605-.906.664-1.027.664-1.361 0-.318-.062-.449-.604-1.267-1.764-2.665-3.814-4.395-6.156-5.197-1.278-.437-2.624-.6-4.06-.491m.339 3.997a3.05 3.05 0 0 0-2.385 2.12c-.135.434-.135 1.246 0 1.68a3.086 3.086 0 0 0 2.046 2.046c.434.135 1.246.135 1.68 0a3.086 3.086 0 0 0 2.046-2.046c.135-.434.135-1.246 0-1.68-.305-.981-1.076-1.753-2.025-2.031-.361-.106-1.029-.149-1.362-.089m.811 2.021c.378.112.69.537.69.94 0 .33-.216.695-.516.871-.156.091-.23.108-.484.108s-.328-.017-.484-.108c-.581-.342-.683-1.098-.212-1.569.279-.279.612-.359 1.006-.242m3.385 6.996a1.04 1.04 0 0 0-.567.459c-.091.156-.108.23-.108.484 0 .256.016.328.111.489.125.213.318.375.539.454.221.079 6.439.079 6.66 0 .221-.079.414-.241.539-.454.095-.161.111-.233.111-.489 0-.254-.017-.328-.108-.484a1.02 1.02 0 0 0-.582-.461c-.26-.078-6.345-.076-6.595.002" fill="#000" fill-rule="evenodd" stroke="none"/></svg>