<svg xmlns="http://www.w3.org/2000/svg" width="24" height="24" fill="none" stroke="currentColor" stroke-width="2" stroke-linecap="round" stroke-linejoin="round" class="icon icon-tabler icons-tabler-outline icon-tabler-eye-down"><path d="M11.16 5.043c-3.343.254-6.198 2.157-8.536 5.688-.542.819-.604.949-.604 1.269 0 .32.062.45.604 1.269 1.961 2.962 4.254 4.757 6.935 5.43 1.039.26 2.391.379 2.771.244.221-.079.414-.241.539-.454.095-.161.111-.233.111-.489 0-.254-.017-.328-.108-.484-.208-.353-.538-.516-1.048-.516-.337 0-.881-.06-1.324-.146-2.234-.431-4.191-1.837-5.895-4.234-.407-.572-.42-.597-.361-.71.076-.145.65-.94.944-1.31.388-.486 1.247-1.357 1.697-1.719a8.64 8.64 0 0 1 1.73-1.1c1.171-.556 2.075-.758 3.385-.758 1.31 0 2.214.202 3.385.758.881.418 1.62.944 2.409 1.715.848.829 1.4 1.531 2.256 2.868.233.364.362.481.632.577.679.239 1.38-.327 1.305-1.053-.017-.172-.069-.297-.231-.564-1.411-2.33-3.206-4.146-5.116-5.176-1.621-.874-3.509-1.254-5.48-1.105m.339 3.997a3.05 3.05 0 0 0-2.385 2.12c-.135.434-.135 1.246 0 1.68a3.086 3.086 0 0 0 2.046 2.046c.434.135 1.246.135 1.68 0a3.086 3.086 0 0 0 2.046-2.046c.135-.434.135-1.246 0-1.68-.305-.981-1.076-1.753-2.025-2.031-.361-.106-1.029-.149-1.362-.089m.811 2.021c.378.112.69.537.69.94 0 .33-.216.695-.516.871-.156.091-.23.108-.484.108s-.328-.017-.484-.108c-.581-.342-.683-1.098-.212-1.569.279-.279.612-.359 1.006-.242m6.385 3.996a1.04 1.04 0 0 0-.567.459l-.108.184-.011 1.935-.012 1.936-.728-.719c-.614-.605-.76-.729-.926-.785a1 1 0 0 0-1.215.449c-.092.156-.108.229-.107.484 0 .212.022.341.074.44.04.077.796.866 1.679 1.754 1.754 1.763 1.806 1.805 2.226 1.805.42 0 .472-.042 2.226-1.805.883-.888 1.639-1.677 1.679-1.754.052-.099.074-.228.074-.44.001-.255-.015-.328-.107-.484a1 1 0 0 0-1.215-.449c-.166.056-.312.18-.926.785l-.728.719-.012-1.936-.011-1.935-.108-.184a1.005 1.005 0 0 0-1.177-.459" fill="#000" fill-rule="evenodd" stroke="none"/></svg>