<svg xmlns="http://www.w3.org/2000/svg" width="24" height="24" fill="none" stroke="currentColor" stroke-width="2" stroke-linecap="round" stroke-linejoin="round" class="icon icon-tabler icons-tabler-outline icon-tabler-eye-closed"><path d="M2.673 8.056c-.225.08-.457.285-.56.495-.12.243-.128.678-.016.887.129.243 1.161 1.275 1.75 1.75.15.122.273.236.273.254 0 .018-.454.723-1.008 1.566-.555.842-1.031 1.595-1.058 1.672-.153.427.042.946.445 1.182.339.198.8.166 1.121-.079.076-.058.554-.747 1.161-1.671l1.038-1.582c.004-.005.189.08.411.189.223.109.519.246.658.303.312.13 1.206.438 1.382.476.082.018.131.053.132.095.001.037-.093.832-.208 1.767-.193 1.561-.206 1.716-.156 1.892a.996.996 0 0 0 1.553.55c.09-.065.212-.2.27-.3.098-.168.124-.318.319-1.865.117-.925.22-1.69.229-1.7.01-.009.232.001.494.022.61.051 1.584.051 2.194 0 .262-.021.484-.031.494-.022.009.01.112.775.229 1.7.195 1.547.221 1.697.319 1.865.447.762 1.583.607 1.823-.25.05-.176.037-.331-.156-1.892a88.188 88.188 0 0 1-.208-1.767c.001-.042.05-.077.132-.095.399-.086 1.423-.477 2.031-.775.227-.111.417-.198.422-.193l1.026 1.55c.559.847 1.083 1.598 1.164 1.668.167.147.404.224.673.22.657-.011 1.142-.752.879-1.346-.047-.105-.518-.848-1.048-1.651a78.11 78.11 0 0 1-.982-1.509c-.01-.028.105-.15.256-.272.59-.477 1.626-1.513 1.747-1.747.179-.345.098-.847-.181-1.126-.294-.294-.613-.376-1.013-.26-.211.061-.274.112-.817.655-1.853 1.855-3.754 2.817-6.307 3.194-.681.101-2.479.101-3.16 0-2.578-.381-4.486-1.352-6.344-3.23-.485-.49-.566-.556-.757-.613-.256-.076-.448-.078-.646-.007" fill="#000" fill-rule="evenodd" stroke="none"/></svg>