<svg xmlns="http://www.w3.org/2000/svg" width="24" height="24" fill="none" stroke="currentColor" stroke-width="2" stroke-linecap="round" stroke-linejoin="round" class="icon icon-tabler icons-tabler-outline icon-tabler-file-type-txt"><path d="M6.499 2.043C5.383 2.23 4.461 3.048 4.114 4.16l-.094.3v7.846l.121.197a.998.998 0 0 0 1.718 0l.121-.197L6 8.523c.022-4.239-.001-3.927.321-4.24C6.622 3.992 6.514 4 9.947 4H13v1.618c0 1.031.016 1.695.044 1.83.145.692.813 1.359 1.508 1.507.137.029.783.045 1.828.045h1.617l.011 1.653.012 1.653.121.197a.998.998 0 0 0 1.718 0l.121-.197.011-2.243c.011-2.007.005-2.262-.054-2.423-.056-.151-.485-.599-2.692-2.814-2.093-2.1-2.666-2.654-2.825-2.73l-.2-.095-3.76.004c-2.068.002-3.851.02-3.961.038M15.8 6.22l.779.78H15v-.78c0-.429.005-.78.01-.78.006 0 .361.351.79.78M4.24 14.037c-.449.14-.728.509-.728.963 0 .405.207.724.588.905.162.076.265.094.549.095h.349l.011 2.653.011 2.653.121.197a.998.998 0 0 0 1.718 0l.121-.197.011-2.653L7.002 16h.349c.284-.001.387-.019.549-.095.381-.181.588-.5.588-.905 0-.385-.195-.703-.548-.894-.156-.084-.2-.086-1.88-.093-.946-.004-1.765.006-1.82.024m5.41.029c-.479.17-.768.778-.596 1.254.028.077.432.712.899 1.41l.848 1.27-.848 1.27c-.467.698-.871 1.333-.899 1.41-.154.426.042.945.445 1.182.337.197.8.166 1.117-.076.069-.053.402-.512.74-1.021.339-.509.629-.925.644-.925.015 0 .305.416.644.925.338.509.671.968.74 1.021.317.242.78.273 1.117.076a.995.995 0 0 0 .442-1.172c-.031-.089-.436-.73-.9-1.425L13.199 18l.844-1.265c.464-.695.869-1.336.9-1.425.268-.759-.501-1.519-1.265-1.249a1.272 1.272 0 0 0-.296.155c-.067.051-.4.51-.738 1.019-.339.509-.629.925-.644.925-.015 0-.305-.416-.644-.925-.338-.509-.671-.968-.738-1.019a1.038 1.038 0 0 0-.968-.15m6.59-.029c-.449.14-.728.509-.728.963 0 .405.207.724.588.905.162.076.265.094.549.095h.349l.011 2.653.011 2.653.121.197a.998.998 0 0 0 1.718 0l.121-.197.011-2.653.011-2.653h.349c.284-.001.387-.019.549-.095.381-.181.588-.5.588-.905 0-.385-.195-.703-.548-.894-.156-.084-.2-.086-1.88-.093-.946-.004-1.765.006-1.82.024" fill="#000" fill-rule="evenodd" stroke="none"/></svg>