<svg xmlns="http://www.w3.org/2000/svg" width="24" height="24" fill="none" stroke="currentColor" stroke-width="2" stroke-linecap="round" stroke-linejoin="round" class="icon icon-tabler icons-tabler-outline icon-tabler-file-import"><path d="M6.499 2.043C5.383 2.23 4.461 3.048 4.114 4.16l-.094.3v8.846l.121.197a.998.998 0 0 0 1.718 0l.121-.197L6 9.023c.022-4.799-.003-4.425.321-4.74C6.622 3.992 6.514 4 9.947 4H13v1.632c0 1.767.01 1.875.225 2.298.136.269.576.709.845.845.423.215.531.225 2.298.225H18v5.054c0 4.166-.01 5.085-.055 5.236a1.02 1.02 0 0 1-.461.582l-.184.108-3.04.02c-3.021.02-3.041.021-3.2.106-.354.192-.548.509-.548.897 0 .289.107.533.315.721.326.294.149.281 3.633.267l3.12-.012.28-.093a3.145 3.145 0 0 0 2.026-2.026l.094-.28.011-5.88c.011-5.383.006-5.895-.055-6.06-.055-.152-.481-.597-2.691-2.814-2.093-2.1-2.666-2.654-2.825-2.73l-.2-.095-3.76.004c-2.068.002-3.851.02-3.961.038M15.8 6.22l.779.78H15v-.78c0-.429.005-.78.01-.78.006 0 .361.351.79.78M5.67 15.061c-.222.081-.42.248-.542.455-.092.156-.108.229-.107.484 0 .213.022.34.075.44.04.077.39.459.777.85l.704.71H4.235c-2.542 0-2.565.002-2.853.221-.08.061-.195.194-.254.295-.091.156-.108.23-.108.484 0 .256.016.328.111.489.125.213.318.375.539.454.119.042.646.054 2.529.055L6.577 20l-.704.71c-.387.391-.734.771-.772.845-.229.453-.045 1.046.407 1.312.165.097.234.113.492.112.212 0 .341-.022.44-.074.192-.101 3.299-3.201 3.433-3.425.091-.152.107-.226.107-.48s-.017-.328-.107-.48c-.059-.099-.833-.902-1.72-1.784-1.439-1.431-1.634-1.612-1.81-1.67a1.01 1.01 0 0 0-.673-.005" fill="#000" fill-rule="evenodd" stroke="none"/></svg>