<svg xmlns="http://www.w3.org/2000/svg" width="24" height="24" fill="none" stroke="currentColor" stroke-width="2" stroke-linecap="round" stroke-linejoin="round" class="lucide lucide-file-stack-icon lucide-file-stack"><path d="M13.477 1.072a2.05 2.05 0 0 0-1.417 1.436C12.009 2.704 12 3.35 12 7c0 4.64-.008 4.471.225 4.93.136.269.576.709.845.845.452.229.383.225 3.93.225s3.478.004 3.93-.225c.266-.135.708-.575.841-.838.235-.464.234-.433.221-3.609L21.98 5.42l-.105-.307c-.149-.436-.347-.768-.688-1.156-.352-.398-2.088-2.119-2.347-2.325a3.22 3.22 0 0 0-1-.517c-.29-.088-.361-.091-2.2-.102-1.705-.01-1.927-.004-2.163.059m3.846 1.992c.205.06.282.128 1.383 1.23 1.102 1.101 1.17 1.178 1.23 1.383.056.189.064.553.064 2.77V11h-6V3h1.553c1.302 0 1.588.01 1.77.064M8.477 6.073c-.671.176-1.239.75-1.417 1.435C7.009 7.704 7 8.35 7 12c0 4.64-.008 4.471.225 4.93.136.269.576.709.845.845.452.229.384.225 3.923.225 3.546 0 3.486.003 3.944-.229.26-.132.702-.574.834-.834.355-.699.284-1.393-.176-1.732-.59-.434-1.464-.088-1.578.625l-.027.17H9V8.009l.179-.027c.243-.036.533-.24.68-.479.107-.174.121-.232.121-.5 0-.257-.016-.331-.108-.487-.269-.457-.752-.611-1.395-.443m-5 5c-.671.176-1.239.75-1.417 1.435C2.009 12.704 2 13.35 2 17c0 4.64-.008 4.471.225 4.93.136.269.576.709.845.845.452.229.383.225 3.93.225s3.478.004 3.93-.225c.266-.135.708-.575.841-.838.355-.699.284-1.393-.176-1.732-.59-.434-1.464-.088-1.578.625L9.99 21H4v-7.991l.179-.027c.243-.036.533-.24.68-.479.107-.174.121-.232.121-.5 0-.257-.016-.331-.108-.487-.267-.454-.757-.609-1.395-.443" fill-rule="evenodd" fill="#000" stroke="none"/></svg>