<svg xmlns="http://www.w3.org/2000/svg" width="24" height="24" fill="none" stroke="currentColor" stroke-width="2" stroke-linecap="round" stroke-linejoin="round" class="icon icon-tabler icons-tabler-outline icon-tabler-file-download"><path d="M6.499 2.043C5.383 2.23 4.461 3.048 4.114 4.16l-.094.3v15.08l.094.3a3.086 3.086 0 0 0 2.046 2.046l.3.094h11.08l.3-.094c.976-.304 1.714-1.035 2.046-2.026l.094-.28.011-5.88c.011-5.383.006-5.895-.055-6.06-.055-.152-.481-.597-2.691-2.814-2.093-2.1-2.666-2.654-2.825-2.73l-.2-.095-3.76.004c-2.068.002-3.851.02-3.961.038M13 5.632c0 1.767.01 1.875.225 2.298.136.269.576.709.845.845.423.215.531.225 2.298.225H18v5.054c0 4.166-.01 5.085-.055 5.236a1.02 1.02 0 0 1-.461.582l-.184.108H6.7l-.184-.108a1.199 1.199 0 0 1-.291-.249c-.239-.314-.225.172-.225-7.601 0-8.017-.025-7.391.304-7.719.309-.309.16-.297 3.626-.3L13 4v1.632m2.8.588.779.78H15v-.78c0-.429.005-.78.01-.78.006 0 .361.351.79.78m-4.105 3.837a1.04 1.04 0 0 0-.567.459l-.108.184-.011 1.936-.012 1.937-.451-.445c-.514-.508-.684-.606-1.048-.607a.97.97 0 0 0-.969 1.168c.021.115.075.263.12.33.045.066.678.721 1.407 1.455 1.451 1.462 1.532 1.525 1.944 1.525.413 0 .492-.062 1.968-1.545 1.034-1.038 1.367-1.397 1.43-1.54.297-.673-.168-1.396-.896-1.393-.364.001-.534.099-1.048.607l-.451.445-.012-1.937-.011-1.936-.108-.184a1.005 1.005 0 0 0-1.177-.459" fill="#000" fill-rule="evenodd" stroke="none"/></svg>