<svg xmlns="http://www.w3.org/2000/svg" width="24" height="24" fill="none" stroke="currentColor" stroke-width="2" stroke-linecap="round" stroke-linejoin="round" class="icon icon-tabler icons-tabler-outline icon-tabler-files"><path d="M10.499 2.043c-1.107.186-2.029.998-2.381 2.097-.076.239-.092.396-.108 1.065l-.019.786-.766.019c-.658.017-.81.033-1.086.116A3.068 3.068 0 0 0 4.114 8.16l-.094.3v11.08l.094.3a3.086 3.086 0 0 0 2.046 2.046l.3.094h8.08l.3-.094a3.099 3.099 0 0 0 2.042-2.026c.076-.239.092-.396.108-1.065l.019-.786.786-.019c.669-.016.826-.032 1.065-.108.964-.309 1.697-1.04 2.026-2.022l.094-.28.011-3.88c.011-3.531.006-3.896-.054-4.06-.056-.151-.485-.6-2.692-2.814-2.093-2.1-2.666-2.654-2.825-2.73l-.2-.095-2.26.004c-1.243.002-2.351.02-2.461.038M14 5.632c0 1.767.01 1.875.225 2.298.136.269.576.709.845.845.423.215.531.225 2.298.225H19v3.054c0 3.313.003 3.271-.221 3.564-.061.08-.194.195-.295.254l-.184.108h-7.6l-.184-.108a1.199 1.199 0 0 1-.291-.249c-.237-.311-.225-.015-.225-5.601 0-5.782-.021-5.395.304-5.719.292-.292.325-.297 2.126-.3L14 4v1.632m2.8.588.779.78H16v-.78c0-.429.005-.78.01-.78.006 0 .361.351.79.78m-8.791 5.57.011 3.79.094.28a3.14 3.14 0 0 0 2.026 2.025c.278.092.298.093 2.57.106l2.29.013v.552c0 .796-.111 1.077-.516 1.316l-.184.108H6.7l-.184-.108a1.199 1.199 0 0 1-.291-.249C5.988 19.312 6 19.608 6 14.022c0-5.782-.021-5.395.304-5.719.25-.25.424-.297 1.125-.3L7.997 8l.012 3.79" fill="#000" fill-rule="evenodd" stroke="none"/></svg>