<svg xmlns="http://www.w3.org/2000/svg" width="24" height="24" fill="none" stroke="currentColor" stroke-width="2" stroke-linecap="round" stroke-linejoin="round" class="icon icon-tabler icons-tabler-outline icon-tabler-brand-telegram"><path d="M20.64 3.077c-.121.04-4.252 1.642-9.18 3.559-6.146 2.392-9.004 3.522-9.1 3.6-.3.242-.427.7-.301 1.082.129.387.192.428 2.241 1.453l1.88.94.955 2.868c.757 2.273.981 2.902 1.08 3.032.277.363.826.481 1.246.268.182-.092.305-.241 1.422-1.727l1.223-1.626 2.117 2.12c1.165 1.166 2.198 2.167 2.297 2.227.153.091.226.107.483.107.268 0 .326-.014.499-.121.397-.246.216.388 2.465-8.603 2.242-8.962 2.116-8.379 1.895-8.757a.958.958 0 0 0-.567-.442c-.243-.074-.385-.069-.655.02M19.534 5.75l-1.551 6.2-1.523 6.09-2.02-2.02L12.421 14l1.705-1.71c.938-.94 1.739-1.773 1.779-1.85.052-.099.074-.228.074-.44.001-.255-.015-.328-.107-.484a1.003 1.003 0 0 0-1.215-.451c-.178.059-.405.273-2.31 2.17-1.181 1.177-2.16 2.184-2.22 2.285-.091.153-.107.225-.106.48.001.366.056.481.402.84l.251.26-.647.869a20.77 20.77 0 0 1-.667.869c-.011.001-.342-.963-.735-2.142-.554-1.661-.743-2.181-.841-2.31-.11-.145-.262-.235-1.194-.706-.588-.297-1.069-.551-1.07-.563 0-.021 13.932-5.463 14.011-5.473.017-.002.018.046.003.106" fill="#000" fill-rule="evenodd" stroke="none"/></svg>