<svg xmlns="http://www.w3.org/2000/svg" width="24" height="24" fill="none" stroke="currentColor" stroke-width="2" stroke-linecap="round" stroke-linejoin="round" class="icon icon-tabler icons-tabler-outline icon-tabler-folders"><path d="M8.499 2.042A3.056 3.056 0 0 0 6.118 4.14c-.076.239-.092.396-.108 1.065l-.019.786-.766.019c-.658.017-.81.033-1.086.116A3.068 3.068 0 0 0 2.114 8.16l-.094.3v10.08l.094.3a3.086 3.086 0 0 0 2.046 2.046l.3.094h11.08l.3-.094a3.099 3.099 0 0 0 2.042-2.026c.076-.239.092-.396.108-1.065l.019-.786.786-.019c.669-.016.826-.032 1.065-.108a3.099 3.099 0 0 0 2.026-2.042l.094-.3V6.46l-.094-.3a3.084 3.084 0 0 0-2.025-2.038l-.321-.1-2.56-.013-2.56-.013-.92-.911c-.549-.543-.985-.942-1.08-.988-.15-.072-.271-.077-1.94-.083-.979-.003-1.871.009-1.981.028m4.019 2.892c.814.806.969.942 1.139 1 .176.059.483.066 2.823.066 2.99 0 2.906-.008 3.217.303.318.318.303.114.303 4.198 0 3.914.005 3.82-.221 4.117-.061.08-.194.195-.295.254l-.184.108H8.7l-.184-.108a1.209 1.209 0 0 1-.295-.254c-.229-.3-.221-.117-.221-5.117 0-5.201-.019-4.876.304-5.198.287-.288.347-.297 1.914-.3L11.575 4l.943.934M6.009 11.29l.012 3.29.093.28a3.14 3.14 0 0 0 2.026 2.026l.28.094 3.79.011 3.79.012v.552c0 .797-.11 1.078-.516 1.317l-.184.108H4.7l-.184-.108a1.199 1.199 0 0 1-.291-.249C3.989 18.314 4 18.562 4 13.522c0-5.224-.019-4.897.304-5.219.25-.25.424-.297 1.124-.3L5.997 8l.012 3.29" fill="#000" fill-rule="evenodd" stroke="none"/></svg>