<svg xmlns="http://www.w3.org/2000/svg" width="24" height="24" fill="none" stroke="currentColor" stroke-width="2" stroke-linecap="round" stroke-linejoin="round" class="icon icon-tabler icons-tabler-outline icon-tabler-folder-open"><path d="M4.499 3.042c-1.121.192-2.038 1.006-2.385 2.118l-.094.3v12.08l.094.3c.304.976 1.035 1.714 2.026 2.046l.28.094 7.44.011c6.707.01 7.472.005 7.76-.053.612-.123 1.066-.375 1.541-.854.366-.37.566-.696.714-1.164.124-.391 1.125-5.689 1.125-5.954 0-.598-.355-1.265-.854-1.608l-.138-.094-.018-.922c-.015-.818-.028-.954-.108-1.202a3.096 3.096 0 0 0-2.021-2.018l-.321-.101-3.56-.012-3.56-.012L11 4.585c-.901-.895-1.479-1.44-1.58-1.488-.151-.073-.282-.077-2.44-.083-1.254-.003-2.371.01-2.481.028m5.519 3.392c1.28 1.273 1.464 1.442 1.639 1.5.177.059.565.066 3.823.066 4.105 0 3.899-.015 4.217.303.251.251.303.448.303 1.144V10l-5.73.001c-6.305 0-6.037-.01-6.519.247a2.146 2.146 0 0 0-.77.727c-.063.107-.668 1.67-1.344 3.473a213.133 213.133 0 0 1-1.256 3.305c-.044.043-.253-.239-.32-.43-.054-.156-.061-.85-.061-5.803 0-6.339-.022-5.892.304-6.217.297-.297.294-.297 2.414-.3L8.577 5l1.441 1.434M20.98 12.09c-.011.049-.236 1.224-.5 2.61-.263 1.386-.507 2.596-.542 2.689-.082.218-.398.504-.626.566-.129.036-1.75.045-6.516.036l-6.343-.011 1.121-2.99L8.695 12H21.002l-.022.09" fill="#000" fill-rule="evenodd" stroke="none"/></svg>