<svg xmlns="http://www.w3.org/2000/svg" width="24" height="24" fill="none" stroke="currentColor" stroke-width="2" stroke-linecap="round" stroke-linejoin="round" class="icon icon-tabler icons-tabler-outline icon-tabler-folder"><path d="M4.499 3.042c-1.121.192-2.038 1.006-2.385 2.118l-.094.3v12.08l.094.3a3.086 3.086 0 0 0 2.046 2.046l.3.094h15.08l.3-.094a3.086 3.086 0 0 0 2.046-2.046l.094-.3V8.46l-.094-.3a3.086 3.086 0 0 0-2.025-2.038l-.321-.101-3.56-.012-3.56-.012L11 4.585c-.901-.895-1.479-1.44-1.58-1.488-.151-.073-.282-.077-2.44-.083-1.254-.003-2.371.01-2.481.028m5.519 3.392c1.28 1.273 1.464 1.442 1.639 1.5.177.059.565.066 3.823.066 4.105 0 3.899-.015 4.217.303.32.32.303.056.303 4.698 0 4.457.007 4.318-.221 4.617-.061.08-.194.195-.295.254l-.184.108H4.7l-.184-.108a1.199 1.199 0 0 1-.291-.249c-.238-.312-.225.032-.225-6.101 0-6.341-.022-5.894.304-6.219.297-.297.294-.297 2.414-.3L8.577 5l1.441 1.434" fill="#000" fill-rule="evenodd" stroke="none"/></svg>