<svg xmlns="http://www.w3.org/2000/svg" width="24" height="24" fill="none" stroke="currentColor" stroke-width="2" stroke-linecap="round" stroke-linejoin="round" class="icon icon-tabler icons-tabler-outline icon-tabler-arrows-move"><path d="M11.58 2.096c-.156.075-.551.449-1.806 1.71-.883.888-1.639 1.677-1.679 1.754-.052.099-.074.228-.074.44-.001.258.015.327.112.492.13.222.369.409.603.473.203.054.531.024.709-.066.074-.038.454-.385.844-.771l.708-.702.012 1.94.011 1.94.121.197a.998.998 0 0 0 1.718 0l.121-.197.011-1.94.012-1.94.708.702c.39.386.772.736.849.776.1.053.227.075.44.075.258.001.327-.015.492-.112.222-.13.409-.369.473-.603a1.187 1.187 0 0 0-.066-.709c-.037-.074-.79-.861-1.673-1.749-1.255-1.261-1.65-1.635-1.806-1.71a.967.967 0 0 0-.84 0M5.64 8.069c-.152.052-.435.315-1.815 1.686C2.04 11.53 2.001 11.578 2.001 12c0 .42.042.472 1.805 2.226.888.883 1.675 1.636 1.749 1.673.455.229 1.046.045 1.312-.407.097-.165.113-.234.112-.492 0-.213-.022-.34-.075-.44-.04-.077-.39-.459-.777-.85L5.423 13l1.878-.002c1.465-.001 1.912-.013 2.029-.055.221-.079.414-.241.539-.454.095-.161.111-.233.111-.489 0-.254-.017-.328-.108-.484a1.209 1.209 0 0 0-.254-.295C9.337 11.007 9.265 11 7.265 11H5.423l.704-.71c.387-.39.737-.773.777-.85.053-.1.075-.227.075-.44.001-.255-.015-.328-.107-.484a1.013 1.013 0 0 0-1.232-.447m12.03-.008c-.222.081-.42.248-.542.455-.092.156-.108.229-.107.484 0 .213.022.34.075.44.04.077.39.46.777.85l.704.71h-1.842c-2 0-2.072.007-2.353.221-.08.061-.195.194-.254.295-.091.156-.108.23-.108.484 0 .256.016.328.111.489.125.213.318.375.539.454.117.042.564.054 2.029.055l1.878.002-.704.71c-.387.391-.734.771-.772.845-.229.453-.045 1.046.407 1.312.165.097.234.113.492.112.212 0 .341-.022.44-.074.077-.04.866-.796 1.754-1.679 1.763-1.754 1.805-1.806 1.805-2.226 0-.422-.039-.47-1.824-2.244-1.459-1.449-1.656-1.632-1.832-1.69a1.01 1.01 0 0 0-.673-.005m-5.975 5.996a1.04 1.04 0 0 0-.567.459l-.108.184-.011 1.935-.012 1.936-.728-.719c-.614-.605-.76-.729-.926-.785a1 1 0 0 0-1.215.449c-.092.156-.108.229-.107.484 0 .212.022.341.074.44.04.077.796.866 1.679 1.754 1.754 1.763 1.806 1.805 2.226 1.805.42 0 .472-.042 2.226-1.805.883-.888 1.639-1.677 1.679-1.754.052-.099.074-.228.074-.44.001-.255-.015-.328-.107-.484a1 1 0 0 0-1.215-.449c-.166.056-.312.18-.926.785l-.728.719-.012-1.936-.011-1.935-.108-.184a1.005 1.005 0 0 0-1.177-.459" fill="#000" fill-rule="evenodd" stroke="none"/></svg>