<svg xmlns="http://www.w3.org/2000/svg" width="24" height="24" fill="none" stroke="currentColor" stroke-width="2" stroke-linecap="round" stroke-linejoin="round" class="lucide lucide-move3d-icon lucide-move-3d"><path d="M4.58 2.096c-.156.075-.551.449-1.806 1.71-.883.888-1.639 1.677-1.679 1.754-.052.099-.074.228-.074.44-.001.258.015.327.112.492.13.222.369.409.603.473.203.054.531.024.709-.066.074-.038.454-.385.845-.772L4 5.423v6.898l.001 6.899.094.2c.114.24.263.387.505.497.179.081.225.081 7.079.082l6.898.001-.704.71c-.387.391-.734.771-.772.845-.229.453-.045 1.046.407 1.312.165.097.234.113.492.112.212 0 .341-.022.44-.074.077-.04.866-.796 1.754-1.679 1.763-1.754 1.805-1.806 1.805-2.226 0-.422-.039-.47-1.824-2.244-1.459-1.449-1.656-1.632-1.832-1.69-.48-.16-.961.018-1.215.45-.092.156-.108.229-.107.484 0 .213.022.34.075.44.04.077.39.459.777.85l.704.71H7.421l2.205-2.21c1.213-1.215 2.239-2.273 2.279-2.35.052-.099.074-.228.074-.44.001-.255-.015-.328-.107-.484a1.003 1.003 0 0 0-1.215-.451c-.178.059-.413.281-2.427 2.289L6 16.578V5.423l.71.704c.39.387.773.737.85.777.1.053.227.075.44.075.258.001.327-.015.492-.112.222-.13.409-.369.473-.603a1.187 1.187 0 0 0-.066-.709c-.037-.074-.79-.861-1.673-1.749-1.255-1.261-1.65-1.635-1.806-1.71a.967.967 0 0 0-.84 0" fill-rule="evenodd" fill="#000" stroke="none"/></svg>