<svg xmlns="http://www.w3.org/2000/svg" width="24" height="24" fill="none" stroke="currentColor" stroke-width="2" stroke-linecap="round" stroke-linejoin="round" class="lucide lucide-axis3d-icon lucide-axis-3d"><path d="M3.695 3.057a1.04 1.04 0 0 0-.567.459L3.02 3.7l-.011 7.76c-.007 5.29.003 7.824.032 7.963.107.518.561 1.115 1.029 1.352.471.239-.037.225 8.388.223 6.347-.001 7.749-.011 7.872-.055.221-.079.414-.241.539-.454.095-.161.111-.233.111-.489 0-.254-.017-.328-.108-.484a1.02 1.02 0 0 0-.582-.461c-.152-.046-1.343-.055-7.022-.055h-6.84l.201-.212c.295-.312.349-.434.35-.788.001-.255-.015-.328-.107-.484a1.051 1.051 0 0 0-.556-.458c-.37-.13-.711-.039-1.071.287l-.244.221-.011-6.933L4.98 3.7l-.108-.184a1.005 1.005 0 0 0-1.177-.459M14.64 8.069c-.145.051-.344.226-1.014.887-.459.453-.884.896-.945.984-.401.58-.063 1.407.624 1.529.265.047.553-.009.75-.147.239-.167 1.762-1.717 1.85-1.882.052-.1.074-.227.074-.44.001-.255-.015-.328-.107-.484a1.013 1.013 0 0 0-1.232-.447m-4.56 4.534c-.214.097-1.787 1.637-1.946 1.905-.272.46-.102 1.079.374 1.359.165.097.235.113.492.113.254 0 .328-.017.48-.107.099-.059.553-.482 1.008-.94.605-.609.85-.883.91-1.019.297-.672-.168-1.396-.896-1.393-.156 0-.306.03-.422.082" fill-rule="evenodd" fill="#000" stroke="none"/></svg>