<svg xmlns="http://www.w3.org/2000/svg" width="24" height="24" fill="none" stroke="currentColor" stroke-width="2" stroke-linecap="round" stroke-linejoin="round" class="icon icon-tabler icons-tabler-outline icon-tabler-resize"><path d="M4.477 3.073c-.693.181-1.293.813-1.439 1.516-.026.128-.039.515-.031.966l.013.752.121.196a.998.998 0 0 0 1.718 0c.12-.195.121-.203.134-.85L5.007 5l.586-.002c.385-.001.639-.02.737-.055.221-.079.414-.241.539-.454.095-.161.111-.233.111-.489 0-.254-.017-.328-.108-.484a1.02 1.02 0 0 0-.582-.461c-.277-.083-1.471-.071-1.813.018m6.218-.016a1.04 1.04 0 0 0-.567.459c-.091.156-.108.23-.108.484 0 .256.016.328.111.489.125.213.318.375.539.454.215.077 2.445.077 2.66 0 .221-.079.414-.241.539-.454.095-.161.111-.233.111-.489 0-.254-.017-.328-.108-.484a1.02 1.02 0 0 0-.582-.461c-.251-.076-2.353-.074-2.595.002m7 0a1.04 1.04 0 0 0-.567.459c-.091.156-.108.23-.108.484 0 .256.016.328.111.489.125.213.318.375.539.454.098.035.352.054.737.055l.586.002.014.653c.013.647.014.655.134.85a.998.998 0 0 0 1.718 0l.121-.196.013-.745c.019-1.071-.079-1.426-.528-1.909a1.991 1.991 0 0 0-.942-.58c-.332-.086-1.568-.097-1.828-.016m-14 7a1.04 1.04 0 0 0-.567.459l-.108.184-.011 4.26c-.007 2.863.003 4.326.032 4.463.107.518.561 1.115 1.029 1.352.459.233.293.225 4.888.223 3.422-.001 4.25-.012 4.372-.055.221-.079.414-.241.539-.454.095-.161.111-.233.111-.489 0-.255-.016-.328-.109-.486a1.041 1.041 0 0 0-.657-.479L13 18.987l-.001-3.103c0-3.358-.001-3.374-.218-3.801-.135-.267-.484-.634-.764-.802-.467-.281-.397-.276-3.882-.279L5.01 11l-.027-.17a.996.996 0 0 0-.693-.775.9.9 0 0 0-.595.002m16 0a1.04 1.04 0 0 0-.567.459l-.108.184v2.606l.121.197a.998.998 0 0 0 1.718 0l.121-.197V10.7l-.108-.184a1.005 1.005 0 0 0-1.177-.459M11 16v3H5v-6h6v3m8.695 1.057a1.04 1.04 0 0 0-.567.459c-.103.176-.109.212-.121.834l-.014.65h-.55c-.795 0-1.077.111-1.315.516-.091.156-.108.23-.108.484 0 .256.016.328.111.489.125.213.318.375.539.454.22.078 1.518.077 1.822-.003.36-.093.626-.25.912-.536.503-.503.608-.847.589-1.941-.013-.746-.015-.767-.121-.947a1.005 1.005 0 0 0-1.177-.459" fill="#000" fill-rule="evenodd" stroke="none"/></svg>