<svg xmlns="http://www.w3.org/2000/svg" width="24" height="24" fill="none" stroke="currentColor" stroke-width="2" stroke-linecap="round" stroke-linejoin="round" class="lucide lucide-rotate3d-icon lucide-rotate-3d"><path d="M11.46 1.042c-1.402.217-2.748 1.335-3.684 3.058-.371.683-.76 1.614-.973 2.329l-.086.288-.288.086c-.817.243-1.973.748-2.657 1.162-.792.478-1.584 1.183-2.023 1.799a4.552 4.552 0 0 0-.613 1.256c-.1.326-.11.418-.11.98s.01.654.11.98c.508 1.671 2.08 3.04 4.544 3.959.253.095.59.211.749.258l.288.086.086.288c.124.417.402 1.15.603 1.589.913 1.995 2.163 3.276 3.614 3.7.929.272 2.224.098 2.683-.361a.984.984 0 0 0-.246-1.576c-.284-.142-.497-.149-.915-.027-.429.124-.649.13-.988.025-.64-.197-1.236-.725-1.787-1.581-.173-.27-.643-1.195-.724-1.427-.046-.132-.027-.136.397-.073.55.082 1.814.16 2.58.159a19.616 19.616 0 0 0 4.51-.517c.258-.061.47-.108.47-.103 0 .004-.189.401-.42.882-.392.816-.42.891-.42 1.119 0 .567.428.991 1 .992a.977.977 0 0 0 .731-.334c.071-.083.57-1.057 1.108-2.164.93-1.91.98-2.026.994-2.273.012-.225-.002-.29-.1-.477a1.195 1.195 0 0 0-.253-.325c-.077-.06-1.04-.547-2.14-1.082-1.819-.884-2.022-.974-2.243-.989-.453-.031-.9.273-1.017.693-.111.396.046.877.352 1.078.081.053.532.287 1.002.519.47.232.83.43.8.441-.102.037-.735.175-1.174.256-1.801.334-3.912.374-5.78.108-.445-.063-1.043-.172-1.065-.195-.027-.027-.138-.664-.214-1.231a19.233 19.233 0 0 1-.126-3.304c.047-.889.144-1.757.265-2.39.034-.175.067-.323.073-.33.007-.006.155-.039.33-.073 1.077-.207 2.719-.326 3.897-.284 2.351.086 4.257.506 5.9 1.3 1.207.583 1.898 1.169 2.324 1.971.209.394.372.557.651.652a.994.994 0 0 0 1.264-.617c.099-.297.066-.529-.134-.947-.717-1.492-2.529-2.782-5.027-3.576l-.282-.089-.21-.626c-.543-1.617-1.201-2.754-2.146-3.708-.688-.694-1.289-1.064-2.041-1.256-.353-.09-1.1-.131-1.439-.078m.868 2.002c.891.185 1.801 1.178 2.493 2.719.101.223.175.415.165.425-.01.009-.26-.01-.555-.045a21.008 21.008 0 0 0-3.326-.108c-.553.026-1.212.074-1.465.106-.652.083-.644.083-.597-.054.081-.232.551-1.157.724-1.427.669-1.041 1.459-1.63 2.221-1.656.07-.002.223.016.34.04M6.145 9.588A19.295 19.295 0 0 0 6 12c0 .844.042 1.537.145 2.412.036.303.056.56.046.571-.011.01-.225-.073-.475-.186-1.837-.825-2.866-1.993-2.681-3.043.147-.834.959-1.685 2.214-2.319.426-.216.925-.434.945-.414.009.008-.013.264-.049.567" fill-rule="evenodd" fill="#000" stroke="none"/></svg>