<svg xmlns="http://www.w3.org/2000/svg" width="24" height="24" fill="none" stroke="currentColor" stroke-width="2" stroke-linecap="round" stroke-linejoin="round" class="icon icon-tabler icons-tabler-outline icon-tabler-arrow-up-to-arc"><path d="M11.08 2.045c-1.874.165-3.719.902-5.28 2.109-.795.615-1.785 1.73-2.33 2.626-.92 1.511-1.477 3.428-1.468 5.054.002.533.144.82.509 1.035.162.095.233.111.492.111.268 0 .326-.014.5-.121.24-.148.445-.439.472-.67.011-.093.038-.43.06-.749a7.603 7.603 0 0 1 .781-2.94A8.107 8.107 0 0 1 7 5.759c.919-.752 2.239-1.368 3.422-1.598a8.026 8.026 0 0 1 5.078.655A7.92 7.92 0 0 1 19.184 8.5c.462.941.705 1.856.781 2.94.022.319.049.656.06.749.027.231.232.522.472.67.174.107.232.121.5.121.26 0 .33-.016.495-.113.222-.13.409-.369.473-.603.057-.206.02-1.121-.067-1.704-.263-1.745-.947-3.332-2.051-4.76-.337-.435-1.208-1.306-1.647-1.646-2.067-1.599-4.554-2.336-7.12-2.109m.5 6.051c-.158.076-.64.538-2.306 2.21-1.158 1.163-2.136 2.175-2.173 2.249-.229.455-.045 1.046.407 1.312.165.097.234.113.492.112.213 0 .341-.022.44-.074.077-.041.684-.616 1.349-1.278l1.21-1.204.01 4.942.011 4.941.121.197c.068.11.205.253.311.325.471.316 1.102.171 1.407-.325l.121-.197.011-4.941.01-4.942 1.21 1.204c.665.662 1.272 1.237 1.349 1.278.099.052.227.074.44.074.258.001.327-.015.492-.112.222-.13.409-.369.473-.603a1.187 1.187 0 0 0-.066-.709c-.037-.074-1.015-1.086-2.173-2.249C12.433 8.004 12.429 8.001 12 8.001a.945.945 0 0 0-.42.095" fill="#000" fill-rule="evenodd" stroke="none"/></svg>