<svg xmlns="http://www.w3.org/2000/svg" width="24" height="24" fill="none" stroke="currentColor" stroke-width="2" stroke-linecap="round" stroke-linejoin="round" class="lucide lucide-scaling-icon lucide-scaling"><path d="M4.499 2.043C3.383 2.23 2.461 3.048 2.114 4.16l-.094.3v15.08l.094.3a3.086 3.086 0 0 0 2.046 2.046l.3.094h15.08l.3-.094a3.086 3.086 0 0 0 2.046-2.046l.094-.3V11.7l-.109-.186a1.01 1.01 0 0 0-1.742 0l-.109.186-.02 3.78c-.015 2.903-.032 3.806-.07 3.893a1.146 1.146 0 0 1-.446.499l-.184.108H4.7l-.184-.108a1.199 1.199 0 0 1-.291-.249c-.239-.314-.225.172-.225-7.601 0-8.016-.025-7.391.303-7.719.318-.318.111-.303 4.234-.305 2.939-.001 3.672-.012 3.793-.055.221-.079.414-.241.539-.454.095-.161.111-.233.111-.489 0-.254-.017-.328-.108-.484a1.209 1.209 0 0 0-.254-.295c-.298-.227-.192-.221-4.214-.216-2.037.002-3.795.02-3.905.038m11.196.014a1.04 1.04 0 0 0-.567.459c-.091.156-.108.23-.108.484 0 .256.016.328.111.489.061.103.173.236.25.294.269.206.335.213 1.819.215L18.58 4 14.3 8.28l-4.28 4.28-.02-1.43-.02-1.43-.109-.186a1.01 1.01 0 0 0-1.742 0L8.02 9.7l-.011 2.74c-.011 2.471-.005 2.757.055 2.914.091.241.279.442.516.552l.2.093 2.7-.001c2.152-.001 2.73-.012 2.85-.055.221-.079.414-.241.539-.454.095-.161.111-.233.111-.489 0-.254-.017-.328-.108-.484a1.209 1.209 0 0 0-.254-.295c-.271-.206-.393-.221-1.854-.221H11.42l4.28-4.28 4.28-4.28.02 1.433.02 1.433.121.197a.998.998 0 0 0 1.718 0l.121-.197.011-2.743c.011-2.474.005-2.76-.055-2.917a1.007 1.007 0 0 0-.516-.552l-.2-.093-2.68.002c-2.074.002-2.717.014-2.845.054" fill-rule="evenodd" fill="#000" stroke="none"/></svg>