<svg xmlns="http://www.w3.org/2000/svg" width="24" height="24" fill="none" stroke="currentColor" stroke-width="2" stroke-linecap="round" stroke-linejoin="round" class="lucide lucide-circle-arrow-out-down-right-icon lucide-circle-arrow-out-down-right"><path d="m11.28 1.023-.56.06A10.685 10.685 0 0 0 7.18 2.12c-1.135.551-1.987 1.165-2.942 2.119-.961.959-1.595 1.841-2.141 2.981C.301 10.968.728 15.286 3.226 18.633c.46.615 1.526 1.681 2.141 2.141a11.094 11.094 0 0 0 5.673 2.185c1.182.105 1.546.011 1.829-.47.095-.161.111-.233.111-.489 0-.254-.017-.328-.108-.484-.211-.358-.537-.516-1.069-.516-.399 0-1.22-.098-1.711-.203-.993-.215-2.231-.736-3.052-1.286-1.883-1.262-3.249-3.199-3.773-5.351-.186-.763-.244-1.272-.244-2.16 0-1.493.257-2.621.897-3.94a8.898 8.898 0 0 1 4.14-4.14c1.319-.64 2.447-.897 3.94-.897 1.493 0 2.621.257 3.94.897a8.983 8.983 0 0 1 4.594 5.24c.279.843.398 1.513.461 2.59.032.531.042.584.151.76a.999.999 0 0 0 1.71-.002c.148-.242.175-.587.106-1.399a11.04 11.04 0 0 0-2.192-5.746c-.454-.608-1.523-1.677-2.13-2.128-1.595-1.186-3.275-1.875-5.217-2.139C13 1.038 11.574.99 11.28 1.023m.415 10.034a1.04 1.04 0 0 0-.567.459c-.092.156-.108.229-.107.484 0 .212.022.341.074.44.04.077 1.966 2.034 4.279 4.35L19.579 21h-1.843c-2.001 0-2.073.007-2.354.221-.08.061-.195.194-.254.295-.091.156-.108.23-.108.484 0 .256.016.328.111.489.125.213.318.375.539.454.12.043.781.054 3.35.055l3.2.001.2-.093c.237-.11.425-.311.516-.552.06-.158.065-.48.055-3.414l-.011-3.24-.109-.186a1.01 1.01 0 0 0-1.742 0l-.109.186-.011 1.938-.012 1.938-4.228-4.225c-4.123-4.119-4.234-4.226-4.446-4.288-.257-.075-.404-.076-.628-.006" fill-rule="evenodd" fill="#000" stroke="none"/></svg>