<svg xmlns="http://www.w3.org/2000/svg" width="24" height="24" fill="none" stroke="currentColor" stroke-width="2" stroke-linecap="round" stroke-linejoin="round" class="lucide lucide-scale3d-icon lucide-scale-3d"><path d="M4.499 2.04a3.05 3.05 0 0 0-2.385 2.12c-.135.434-.135 1.246 0 1.68A3.1 3.1 0 0 0 3.67 7.688l.33.165v5.205c0 5.67-.01 5.408.225 5.872.136.269.576.709.845.845.464.235.202.225 5.872.225h5.205l.165.33a3.1 3.1 0 0 0 1.848 1.556c.434.135 1.246.135 1.68 0a3.086 3.086 0 0 0 2.046-2.046c.135-.434.135-1.246 0-1.68a3.073 3.073 0 0 0-2.025-2.035c-.273-.083-.403-.098-.861-.098-.458 0-.588.015-.861.098a3.082 3.082 0 0 0-1.827 1.545l-.165.33H7.421l2.205-2.21c1.213-1.216 2.239-2.273 2.279-2.35.052-.099.074-.228.074-.44.001-.255-.015-.328-.107-.484a1.003 1.003 0 0 0-1.215-.451c-.178.059-.413.281-2.427 2.289L6 16.578V7.853l.33-.165A3.1 3.1 0 0 0 7.886 5.84c.135-.434.135-1.246 0-1.68-.305-.981-1.076-1.753-2.025-2.031-.361-.106-1.029-.149-1.362-.089m.811 2.021c.378.112.69.537.69.94 0 .33-.216.695-.516.871-.156.091-.23.108-.484.108s-.328-.017-.484-.108c-.581-.342-.683-1.098-.212-1.569.279-.279.612-.359 1.006-.242m14 14c.378.112.69.537.69.94 0 .33-.216.695-.516.871-.156.091-.23.108-.484.108s-.328-.017-.484-.108c-.581-.342-.683-1.098-.212-1.569.279-.279.612-.359 1.006-.242" fill-rule="evenodd" fill="#000" stroke="none"/></svg>