<svg xmlns="http://www.w3.org/2000/svg" width="24" height="24" fill="none" stroke="currentColor" stroke-width="2" stroke-linecap="round" stroke-linejoin="round" class="icon icon-tabler icons-tabler-outline icon-tabler-refresh"><path d="M11.42 3.044c-2.2.119-4.296 1.072-5.906 2.684l-.508.508-.013-.768c-.013-.754-.015-.771-.122-.954a1.01 1.01 0 0 0-1.742 0L3.02 4.7v4.6l.111.189c.125.213.318.375.539.454.219.078 4.441.078 4.66 0 .221-.079.414-.241.539-.454.095-.161.111-.233.111-.489 0-.254-.017-.328-.108-.484a1.136 1.136 0 0 0-.499-.445c-.075-.032-.464-.056-1.149-.07L6.188 7.98l.208-.26a7.42 7.42 0 0 1 3.306-2.332c1.588-.552 3.562-.466 5.126.223 1.671.737 3.065 2.169 3.727 3.829.162.407.343 1.057.425 1.531.081.47.218.704.517.888.174.107.232.121.503.121s.329-.014.502-.121c.232-.143.397-.367.465-.63.043-.162.039-.257-.022-.62-.366-2.18-1.562-4.218-3.274-5.581-1.464-1.166-3.332-1.894-5.051-1.971a20.194 20.194 0 0 1-.58-.031 7.735 7.735 0 0 0-.62.018m-7.691 8.993c-.326.083-.6.372-.696.734-.125.474.297 2.045.849 3.159a9.012 9.012 0 0 0 4.178 4.13c2.198 1.065 4.597 1.213 6.9.426a6.877 6.877 0 0 0 1.18-.495 8.923 8.923 0 0 0 2.346-1.719l.508-.508.013.771.013.772.121.196a.998.998 0 0 0 1.718 0l.121-.197V14.7l-.108-.184a1.02 1.02 0 0 0-.582-.461c-.267-.08-4.313-.08-4.58 0a.99.99 0 0 0-.512 1.536c.065.09.205.214.31.276l.192.113 1.055.02 1.055.02-.259.32a7.337 7.337 0 0 1-4.291 2.545c-.873.162-2.017.119-2.96-.11a7.075 7.075 0 0 1-2.632-1.285c-1.455-1.16-2.331-2.637-2.648-4.461-.081-.465-.218-.704-.506-.881a1.134 1.134 0 0 0-.785-.111" fill="#000" fill-rule="evenodd" stroke="none"/></svg>