<svg xmlns="http://www.w3.org/2000/svg" width="24" height="24" fill="none" stroke="currentColor" stroke-width="2" stroke-linecap="round" stroke-linejoin="round" class="lucide lucide-globe-icon lucide-globe"><path d="m11.28 1.023-.56.06c-1.888.2-3.729.94-5.36 2.152-.609.453-1.676 1.52-2.134 2.132C.728 8.714.301 13.032 2.097 16.78c.546 1.138 1.179 2.021 2.141 2.982.961.962 1.844 1.595 2.982 2.141 3.747 1.796 8.068 1.367 11.417-1.133.609-.454 1.679-1.524 2.133-2.133 2.974-3.985 2.974-9.289 0-13.274-.454-.608-1.523-1.677-2.13-2.128-1.595-1.186-3.275-1.875-5.217-2.139C13 1.038 11.574.99 11.28 1.023M9.576 3.43a15.76 15.76 0 0 0-2.5 7.04l-.051.53H3.069l.025-.239c.114-1.096.679-2.624 1.346-3.641a9.037 9.037 0 0 1 3.62-3.202c.466-.227 1.428-.597 1.555-.598.019 0 .001.049-.039.11m5.404.08c1.527.528 3.005 1.575 4.033 2.859 1.007 1.256 1.745 2.968 1.893 4.392l.025.239h-3.955l-.049-.51a15.78 15.78 0 0 0-2.505-7.062l-.074-.113.116.028c.064.016.296.091.516.167m-2.707.361c1.494 1.963 2.387 4.265 2.668 6.879l.027.25h-2.964c-2.381 0-2.964-.01-2.964-.051 0-.107.122-1.028.181-1.371.222-1.284.775-2.849 1.426-4.038.401-.731 1.254-1.98 1.353-1.98.02 0 .143.14.273.311M7.076 13.53a15.702 15.702 0 0 0 2.304 6.729c.139.22.247.407.24.414-.043.044-1.138-.377-1.64-.631a8.838 8.838 0 0 1-2.99-2.407c-1.01-1.261-1.747-2.97-1.896-4.396L3.069 13h3.956l.051.53m7.884-.479c0 .028-.027.268-.06.532-.286 2.317-1.078 4.369-2.408 6.247a9.105 9.105 0 0 1-.37.49l-.122.14-.122-.14c-.391-.45-1.061-1.505-1.434-2.26A13.159 13.159 0 0 1 9.1 13.583c-.033-.264-.06-.504-.06-.532 0-.041.582-.051 2.96-.051s2.96.01 2.96.051m5.946.188c-.114 1.096-.679 2.624-1.346 3.641a8.961 8.961 0 0 1-3.58 3.181c-.51.252-1.559.654-1.6.612-.007-.007.101-.194.24-.415a15.735 15.735 0 0 0 2.307-6.748l.049-.51h3.955l-.025.239" fill-rule="evenodd" fill="#000" stroke="none"/></svg>