<svg xmlns="http://www.w3.org/2000/svg" width="24" height="24" fill="none" stroke="currentColor" stroke-width="2" stroke-linecap="round" stroke-linejoin="round" class="icon icon-tabler icons-tabler-outline icon-tabler-grain"><path d="M8.94 2.574c-.451.149-.898.489-1.14.867-.388.604-.39 1.512-.003 2.114a1.99 1.99 0 0 0 1.703.937c.552 0 .969-.166 1.369-.544.43-.407.619-.848.619-1.448 0-.81-.417-1.457-1.168-1.816-.284-.136-.324-.144-.76-.153-.298-.006-.516.009-.62.043m10 0c-.451.149-.898.489-1.14.867-.388.604-.39 1.512-.003 2.114a1.99 1.99 0 0 0 1.703.937c.552 0 .969-.166 1.369-.544.43-.407.619-.848.619-1.448 0-.81-.417-1.457-1.168-1.816-.284-.136-.324-.144-.76-.153-.298-.006-.516.009-.62.043m-15 5c-.451.149-.898.489-1.14.867-.388.604-.39 1.512-.003 2.114a1.99 1.99 0 0 0 1.703.937c.552 0 .969-.166 1.369-.544.43-.407.619-.848.619-1.448 0-.81-.417-1.457-1.168-1.816-.284-.136-.324-.144-.76-.153-.298-.006-.516.009-.62.043m10 0c-.451.149-.898.489-1.14.867-.388.604-.39 1.512-.003 2.114a1.99 1.99 0 0 0 1.703.937c.552 0 .969-.166 1.369-.544.43-.407.619-.848.619-1.448 0-.81-.417-1.457-1.168-1.816-.284-.136-.324-.144-.76-.153-.298-.006-.516.009-.62.043m-5 5c-.451.149-.898.489-1.14.867-.388.604-.39 1.512-.003 2.114a1.99 1.99 0 0 0 1.703.937c.552 0 .969-.166 1.369-.544.43-.407.619-.848.619-1.448 0-.81-.417-1.457-1.168-1.816-.284-.136-.324-.144-.76-.153-.298-.006-.516.009-.62.043m10 0c-.451.149-.898.489-1.14.867-.388.604-.39 1.512-.003 2.114a1.99 1.99 0 0 0 1.703.937c.552 0 .969-.166 1.369-.544.43-.407.619-.848.619-1.448 0-.81-.417-1.457-1.168-1.816-.284-.136-.324-.144-.76-.153-.298-.006-.516.009-.62.043m-15 5c-.451.149-.898.489-1.14.867-.388.604-.39 1.512-.003 2.114a1.99 1.99 0 0 0 1.703.937c.552 0 .969-.166 1.369-.544.43-.407.619-.848.619-1.448 0-.81-.417-1.457-1.168-1.816-.284-.136-.324-.144-.76-.153-.298-.006-.516.009-.62.043m10 0c-.451.149-.898.489-1.14.867-.388.604-.39 1.512-.003 2.114a1.99 1.99 0 0 0 1.703.937c.552 0 .969-.166 1.369-.544.43-.407.619-.848.619-1.448 0-.81-.417-1.457-1.168-1.816-.284-.136-.324-.144-.76-.153-.298-.006-.516.009-.62.043" fill="#000" fill-rule="evenodd" stroke="none"/></svg>