<svg xmlns="http://www.w3.org/2000/svg" width="24" height="24" fill="none" stroke="currentColor" stroke-width="2" stroke-linecap="round" stroke-linejoin="round" class="icon icon-tabler icons-tabler-outline icon-tabler-grid-3x3"><path d="M7.695 2.057a1.04 1.04 0 0 0-.567.459L7.02 2.7l-.011 2.15L6.997 7H4.945c-2.227 0-2.279.004-2.563.221-.08.061-.195.194-.254.295-.091.156-.108.23-.108.484 0 .256.016.328.111.489.125.213.318.375.539.454.118.042.599.054 2.24.055L7 9v6H4.946c-2.229 0-2.28.004-2.564.221-.08.061-.195.194-.254.295-.091.156-.108.23-.108.484 0 .256.016.328.111.489.125.213.318.375.539.454.118.042.599.054 2.239.055L6.997 17l.012 2.153.011 2.153.121.197c.068.11.205.253.311.325.471.316 1.102.171 1.407-.325l.121-.197.011-2.153L9.003 17h5.994l.012 2.153.011 2.153.121.197a.998.998 0 0 0 1.718 0l.121-.197.011-2.153.012-2.153 2.088-.002c1.64-.001 2.121-.013 2.239-.055.221-.079.414-.241.539-.454.095-.161.111-.233.111-.489 0-.254-.017-.328-.108-.484a1.209 1.209 0 0 0-.254-.295c-.284-.217-.335-.221-2.564-.221H17V9l2.09-.002c1.641-.001 2.122-.013 2.24-.055.221-.079.414-.241.539-.454.095-.161.111-.233.111-.489 0-.254-.017-.328-.108-.484a1.209 1.209 0 0 0-.254-.295C21.334 7.004 21.282 7 19.055 7h-2.052l-.012-2.15-.011-2.15-.109-.186a1.01 1.01 0 0 0-1.742 0l-.109.186-.011 2.15L14.997 7H9.003l-.012-2.15L8.98 2.7l-.108-.184a1.005 1.005 0 0 0-1.177-.459M15 12v3H9V9h6v3" fill="#000" fill-rule="evenodd" stroke="none"/></svg>