<svg xmlns="http://www.w3.org/2000/svg" width="24" height="24" fill="none" stroke="currentColor" stroke-width="2" stroke-linecap="round" stroke-linejoin="round" class="lucide lucide-hand-icon lucide-hand"><path d="M11.499 1.04c-.73.133-1.311.474-1.82 1.068-.216.252-.442.652-.522.924-.034.116-.068.165-.105.15-.503-.193-1.379-.219-1.913-.057-.949.289-1.696 1.032-2.025 2.015l-.093.28-.012 3.254c-.011 2.87-.019 3.251-.072 3.23-.339-.13-.549-.162-1.037-.16-.592.002-.872.062-1.312.279a3.048 3.048 0 0 0-1.594 1.926c-.109.408-.119 1.117-.02 1.491.094.357.308.797.521 1.071.247.318 4.215 4.259 4.594 4.564 1.41 1.133 2.889 1.703 4.891 1.885.704.064 3.428.051 4.028-.019a8.939 8.939 0 0 0 2.932-.857 9.008 9.008 0 0 0 5.02-7.244c.031-.313.041-1.57.032-3.94l-.013-3.48-.093-.28c-.329-.983-1.076-1.727-2.025-2.015-.534-.162-1.41-.136-1.913.057-.037.015-.071-.034-.105-.15-.246-.831-1.079-1.632-1.982-1.907-.534-.162-1.41-.136-1.913.057-.037.015-.071-.034-.105-.15-.246-.833-1.089-1.642-1.982-1.903-.361-.106-1.029-.149-1.362-.089m.809 2.02c.13.039.263.119.371.223.32.311.299.061.321 3.74l.02 3.283.121.197a.998.998 0 0 0 1.718 0l.121-.197.02-2.283c.022-2.559.008-2.436.321-2.74C15.49 5.12 15.777 5 16 5c.223 0 .51.12.679.283.317.308.299.121.321 3.24l.02 2.783.121.197a.998.998 0 0 0 1.718 0l.121-.197.02-1.783c.022-2 .014-1.941.321-2.24C19.49 7.12 19.777 7 20 7c.238 0 .514.12.697.304.324.323.311.139.29 4.045-.018 3.599-.02 3.643-.204 4.371-.622 2.459-2.604 4.442-5.058 5.058-.747.187-.955.202-2.885.202-1.543 0-1.888-.011-2.263-.07-1.171-.186-1.995-.512-2.907-1.148-.497-.347-4.557-4.369-4.677-4.632a1.171 1.171 0 0 1-.014-.794 1.11 1.11 0 0 1 .481-.508c.211-.113.656-.119.86-.013.077.04.581.51 1.12 1.045.539.534 1.043 1.004 1.12 1.045.099.052.227.074.44.074.258.001.327-.015.492-.112a.99.99 0 0 0 .495-.979c-.03-.29-.154-.482-.604-.927L7 13.582V9.718c0-4.356-.018-4.093.306-4.418.18-.179.458-.3.694-.3.237 0 .514.12.697.303.309.309.303.252.303 2.994l.001 2.403.094.2c.181.381.5.588.905.588s.724-.207.905-.588l.094-.2L11 7.297c0-3.857-.014-3.677.304-3.994.278-.279.612-.359 1.004-.243" fill-rule="evenodd" fill="#000" stroke="none"/></svg>