<svg xmlns="http://www.w3.org/2000/svg" width="24" height="24" fill="none" stroke="currentColor" stroke-width="2" stroke-linecap="round" stroke-linejoin="round" class="lucide lucide-hand-grab-icon lucide-hand-grab"><path d="M11.499 5.04c-.735.134-1.321.479-1.829 1.08-.111.132-.209.24-.218.24-.008 0-.085-.036-.171-.079a3.274 3.274 0 0 0-.468-.169c-.455-.131-1.22-.124-1.674.013A3.09 3.09 0 0 0 5.116 8.14c-.086.265-.092.353-.107 1.646l-.015 1.365-.207-.058a3.892 3.892 0 0 0-.627-.08c-1.239-.067-2.307.562-2.864 1.687-.297.601-.362 1.235-.237 2.308a9.007 9.007 0 0 0 4.021 6.523c1.127.746 2.516 1.246 3.912 1.41.733.085 5.283.085 6.016 0a8.939 8.939 0 0 0 2.932-.857 9.012 9.012 0 0 0 5.021-7.244c.029-.3.04-1.151.031-2.44-.014-1.943-.016-1.985-.107-2.26-.324-.979-1.075-1.726-2.024-2.015-.534-.162-1.41-.136-1.913.057-.037.015-.071-.034-.105-.15-.182-.615-.763-1.304-1.402-1.664-.444-.249-.819-.34-1.421-.343-.55-.003-.947.075-1.301.256a1.638 1.638 0 0 1-.171.079c-.009 0-.107-.108-.218-.24-.607-.717-1.31-1.067-2.21-1.101a3.935 3.935 0 0 0-.621.021m.809 2.02c.13.039.263.119.371.223.302.293.299.275.321 1.94l.02 1.484.121.196a.998.998 0 0 0 1.718 0l.121-.196.02-.984c.024-1.108.036-1.162.321-1.44C15.49 8.12 15.777 8 16 8c.237 0 .514.12.697.303.292.292.303.363.303 1.994.001 1.392.002 1.405.095 1.603.181.381.5.588.905.588s.724-.207.905-.588c.079-.169.094-.263.095-.603 0-.534.069-.76.303-.994.183-.183.46-.303.697-.303.238 0 .514.12.697.304.312.312.314.323.292 2.529-.022 2.27-.054 2.542-.416 3.547a7.014 7.014 0 0 1-4.848 4.398c-.78.196-.896.202-3.725.202s-2.945-.006-3.725-.202c-3.021-.759-5.21-3.507-5.249-6.589-.005-.39.005-.47.08-.61.197-.367.501-.556.894-.556.556 0 .927.369.997.991.052.461.235.736.603.903.25.113.565.108.82-.012a.951.951 0 0 0 .497-.505c.079-.175.081-.25.082-2.863.001-3.035-.01-2.92.307-3.237.18-.179.458-.3.694-.3.223 0 .51.12.679.283.271.264.294.353.319 1.24l.022.783.121.197a.998.998 0 0 0 1.718 0l.121-.196.02-1.284c.023-1.442.025-1.452.322-1.74.266-.259.606-.336.986-.223" fill-rule="evenodd" fill="#000" stroke="none"/></svg>