<svg xmlns="http://www.w3.org/2000/svg" width="24" height="24" fill="none" stroke="currentColor" stroke-width="2" stroke-linecap="round" stroke-linejoin="round" class="lucide lucide-headphone-off-icon lucide-headphone-off"><path d="M1.67 1.061c-.222.081-.42.248-.542.455-.092.156-.108.229-.107.484 0 .212.022.341.074.44.04.077.767.836 1.615 1.686l1.541 1.546-.18.234A10.272 10.272 0 0 0 2.206 9.98c-.187.913-.186.897-.186 5.34v4.22l.094.3a3.086 3.086 0 0 0 2.046 2.046c.282.088.361.094 1.34.094.979 0 1.058-.006 1.34-.094a3.086 3.086 0 0 0 2.046-2.046c.093-.298.094-.313.094-2.34 0-2.027-.001-2.042-.094-2.34a3.077 3.077 0 0 0-2.025-2.036c-.307-.094-.379-.099-1.597-.115l-1.275-.016.023-.926c.013-.557.048-1.079.087-1.307a8.275 8.275 0 0 1 .788-2.408c.204-.4.734-1.232.785-1.232.015 0 2.12 2.093 4.676 4.65l4.648 4.65.014 1.58c.013 1.521.017 1.59.106 1.86a3.106 3.106 0 0 0 2.044 2.026c.283.089.36.094 1.36.094h1.06l.36-.127.36-.126.56.551c.308.304.623.585.7.626.1.053.226.075.44.075.258.001.327-.015.492-.112.476-.28.647-.9.373-1.359-.055-.092-4.65-4.715-10.212-10.273C3.3 1.889 2.525 1.125 2.343 1.065a1.015 1.015 0 0 0-.673-.004m9.69.963c-.829.071-1.464.184-2.16.384-.505.145-.725.265-.878.475a.994.994 0 0 0 .546 1.541c.26.076.232.079 1.133-.155.298-.077.712-.164.92-.194.54-.076 1.716-.067 2.259.017 1.807.281 3.352 1.089 4.623 2.418a7.94 7.94 0 0 1 2.077 4.133c.066.374.093.726.109 1.422l.022.924-.316.019c-.37.022-.573.111-.783.344-.364.403-.326 1.008.087 1.379.224.202.413.269.756.269H20v.245c0 .343.067.532.269.756a.976.976 0 0 0 1.104.264c.235-.09.518-.397.584-.635.08-.284.037-4.523-.051-5.05-.375-2.246-1.288-4.077-2.785-5.585C17.523 3.386 15.534 2.39 13.34 2.1c-.472-.062-1.627-.107-1.98-.076M6.31 15.061c.279.083.546.35.629.629.085.286.09 3.32.006 3.6a1.02 1.02 0 0 1-.461.582c-.183.108-.187.108-.984.108-.797 0-.801 0-.984-.108a1.199 1.199 0 0 1-.291-.249C4 19.328 4 19.328 4 17.075V15h1.053c.826 0 1.097.013 1.257.061m12.183 4.933a3.463 3.463 0 0 1-.433-.001c-.305-.013-.394-.033-.546-.123-.367-.215-.514-.526-.514-1.085v-.364l.781.779c.557.556.761.784.712.794" fill-rule="evenodd" fill="#000" stroke="none"/></svg>