<svg xmlns="http://www.w3.org/2000/svg" width="24" height="24" fill="none" stroke="currentColor" stroke-width="2" stroke-linecap="round" stroke-linejoin="round" class="icon icon-tabler icons-tabler-outline icon-tabler-home"><path d="M11.64 2.068c-.157.053-.776.657-4.846 4.726-4.465 4.465-4.668 4.675-4.735 4.881-.17.531.096 1.084.611 1.268.098.035.352.054.738.055l.589.002.012 3.29.012 3.29.093.28c.331.99 1.07 1.722 2.046 2.026l.3.094h11.08l.3-.094c.976-.304 1.715-1.036 2.046-2.026l.093-.28.012-3.29.012-3.29h.574c.625 0 .8-.038 1.046-.225.077-.059.19-.19.249-.291.091-.156.108-.23.108-.484s-.016-.328-.107-.48c-.062-.104-2.047-2.116-4.72-4.785-4.233-4.225-4.629-4.61-4.81-4.67a1.053 1.053 0 0 0-.703.003m3.696 5.688c2.91 2.911 3.304 3.319 3.227 3.343-.153.049-.372.273-.469.481l-.093.2L18 15.444c0 3.975.005 3.877-.221 4.174-.061.08-.194.195-.295.254-.176.103-.212.109-.832.121l-.648.014-.013-2.794-.012-2.793-.094-.28c-.331-.993-1.104-1.753-2.063-2.028-.31-.089-.376-.092-1.822-.092-1.446 0-1.512.003-1.822.092-.959.275-1.732 1.035-2.063 2.028l-.094.28-.012 2.793-.013 2.794-.648-.014c-.62-.012-.656-.018-.832-.121a1.199 1.199 0 0 1-.291-.249C5.992 19.317 6 19.474 6 15.465l-.001-3.685-.093-.2c-.097-.208-.316-.432-.469-.481-.077-.024.317-.432 3.227-3.343A395.536 395.536 0 0 1 12 4.44c.011 0 1.512 1.492 3.336 3.316m-2.026 6.305a.893.893 0 0 1 .387.242c.31.311.303.235.303 3.144V20h-4v-2.553c0-2.909-.007-2.833.304-3.144.28-.281.371-.297 1.679-.3.895-.002 1.164.009 1.327.058" fill="#000" fill-rule="evenodd" stroke="none"/></svg>