<svg xmlns="http://www.w3.org/2000/svg" width="24" height="24" fill="none" stroke="currentColor" stroke-width="2" stroke-linecap="round" stroke-linejoin="round" class="icon icon-tabler icons-tabler-outline icon-tabler-ikosaedr"><path d="M11.44 1.055a3.11 3.11 0 0 0-.78.276c-.306.152-7.1 4.04-7.34 4.2-.434.289-.84.773-1.05 1.25-.265.601-.248.277-.262 5.059-.01 3.229-.001 4.412.034 4.62.139.814.597 1.543 1.251 1.988.334.228 7.199 4.152 7.49 4.282.425.189.717.249 1.217.249.5 0 .792-.06 1.217-.249.289-.129 7.152-4.052 7.49-4.281.386-.262.742-.673.95-1.097.346-.705.323-.317.323-5.352 0-4.919.014-4.619-.249-5.217a3.088 3.088 0 0 0-1.051-1.252c-.31-.206-7.125-4.097-7.42-4.236a3.855 3.855 0 0 0-.52-.198c-.315-.086-1.016-.108-1.3-.042m1.548 4.065c1.287 2.083 1.744 2.841 1.723 2.862-.01.01-1.232.014-2.717.008l-2.698-.01 1.273-2.08 1.354-2.216c.077-.128.084-.132.134-.06.03.042.448.715.931 1.496m-4.359.111L7.68 6.79c-.297.488-.558.889-.58.89-.054.002-1.9-.891-1.899-.919.001-.022 3.758-2.19 3.808-2.197.016-.002-.155.298-.38.667m8.563.589c.884.506 1.607.93 1.607.941.001.023-1.84.92-1.884.92-.014-.001-.129-.176-.257-.391-.127-.215-.537-.894-.911-1.51-.373-.616-.688-1.136-.699-1.157-.025-.043.068.009 2.144 1.197M5.065 8.94c.569.275 1.032.514 1.027.53-.004.017-.476.885-1.05 1.929L4 13.299v-2.43c0-1.336.007-2.429.015-2.429s.481.225 1.05.5M20 10.827c0 1.312-.007 2.379-.015 2.37-.009-.01-.281-.503-.606-1.097-.325-.594-.786-1.43-1.025-1.857a19.121 19.121 0 0 1-.433-.8c.001-.023 1.992-.994 2.049-1 .017-.002.03 1.071.03 2.384m-5.24-.803c0 .04-2.738 4.896-2.76 4.896-.022 0-2.76-4.856-2.76-4.896 0-.013 1.242-.024 2.76-.024 1.518 0 2.76.011 2.76.024m2.269 1.956c.83 1.5 2.172 3.992 2.158 4.006-.008.008-1.24.01-2.739.004l-2.724-.01 1.387-2.466c1.142-2.03 1.395-2.455 1.431-2.4.024.036.243.426.487.866m-8.113 1.58 1.36 2.42-1.381.011c-.759.005-1.988.005-2.731 0l-1.35-.011 1.343-2.448c.738-1.347 1.355-2.436 1.37-2.42.015.015.64 1.117 1.389 2.448M11 19.28c0 .704-.009 1.28-.02 1.28-.019 0-4.421-2.514-4.457-2.545A83.56 83.56 0 0 1 8.753 18H11v1.28m6.477-1.265c-.035.03-4.439 2.545-4.458 2.545-.01 0-.019-.576-.019-1.28V18h2.247c1.235 0 2.239.007 2.23.015" fill="#000" fill-rule="evenodd" stroke="none"/></svg>