<svg xmlns="http://www.w3.org/2000/svg" width="24" height="24" fill="none" stroke="currentColor" stroke-width="2" stroke-linecap="round" stroke-linejoin="round" class="icon icon-tabler icons-tabler-outline icon-tabler-photo"><path d="M5.358 2.061c-1.627.254-2.941 1.523-3.275 3.166C2.001 5.627 2 5.723 2 12c0 6.277.001 6.373.083 6.773a4.033 4.033 0 0 0 1.873 2.663c.329.199.854.396 1.287.485.379.077.562.079 6.757.079 6.195 0 6.378-.002 6.757-.079 1.36-.278 2.436-1.166 2.947-2.433.075-.188.173-.516.217-.731.077-.379.079-.562.079-6.757 0-6.195-.002-6.378-.079-6.757a4.017 4.017 0 0 0-2.676-3.039c-.599-.205-.555-.204-7.285-.2-5.001.003-6.329.014-6.602.057m13.165 2.012c.499.13.993.526 1.249.998.228.421.227.4.227 4.627L20 13.575l-.75-.74c-.412-.408-.87-.825-1.016-.929a2.83 2.83 0 0 0-1.734-.554c-.837 0-1.491.281-2.217.953l-.288.267-1.248-1.24c-1.27-1.262-1.575-1.521-2.044-1.734-.72-.326-1.652-.334-2.362-.02-.529.234-.759.434-2.571 2.237L4 13.577V9.686c0-4.324-.006-4.221.265-4.672.281-.471.723-.813 1.212-.941.243-.063.734-.068 6.523-.068s6.28.005 6.523.068m-3.828 2.982a1.05 1.05 0 0 0-.567.461c-.091.156-.108.23-.108.484 0 .257.016.327.113.492.518.882 1.865.526 1.865-.492a.994.994 0 0 0-.535-.888 1.17 1.17 0 0 0-.768-.057M9.92 11.45c.137.062.817.716 2.84 2.732 1.463 1.457 2.723 2.682 2.8 2.723.099.052.228.074.44.074.258.001.327-.015.492-.112.222-.13.409-.369.473-.603a1.187 1.187 0 0 0-.066-.709c-.038-.074-.385-.455-.772-.845l-.704-.71.218-.222c.412-.417.849-.534 1.265-.338.147.07.545.441 1.644 1.535L20 16.418l-.001.881c-.001 1.29-.084 1.584-.599 2.105a1.833 1.833 0 0 1-.908.536c-.345.09-12.639.09-12.984 0-.685-.178-1.259-.746-1.435-1.417-.055-.21-.069-.448-.071-1.183L4 16.419l2.45-2.445c1.348-1.345 2.508-2.475 2.579-2.51.308-.155.573-.159.891-.014" fill="#000" fill-rule="evenodd" stroke="none"/></svg>