<svg xmlns="http://www.w3.org/2000/svg" width="24" height="24" fill="none" stroke="currentColor" stroke-width="2" stroke-linecap="round" stroke-linejoin="round" class="icon icon-tabler icons-tabler-outline icon-tabler-lock"><path d="M11.4 2.044c-1.639.185-3.139 1.246-3.874 2.741A5.77 5.77 0 0 0 7.096 6c-.059.256-.072.571-.085 2.145L6.995 9.99l-.283.028c-1.216.12-2.227.953-2.598 2.142l-.094.3v7.08l.094.3a3.086 3.086 0 0 0 2.046 2.046l.3.094h11.08l.3-.094a3.086 3.086 0 0 0 2.046-2.046l.094-.3v-7.08l-.094-.3a3.073 3.073 0 0 0-.975-1.465 2.967 2.967 0 0 0-1.623-.677l-.283-.028-.016-1.845c-.013-1.574-.026-1.889-.085-2.145-.361-1.551-1.32-2.789-2.691-3.475a4.976 4.976 0 0 0-2.813-.481m1.461 2.085c.942.275 1.717 1.049 2.016 2.01.099.318.1.338.114 2.091l.014 1.77h-6.01l.014-1.77c.014-1.753.015-1.773.114-2.091a3.048 3.048 0 0 1 2.376-2.099c.333-.06 1.001-.017 1.362.089m4.449 7.932c.279.083.546.35.629.629.086.29.092 6.314.006 6.6a1.02 1.02 0 0 1-.461.582l-.184.108H6.7l-.184-.108a1.051 1.051 0 0 1-.458-.556c-.089-.253-.087-6.325.003-6.626.079-.269.351-.547.612-.627.29-.089 10.337-.091 10.637-.002m-5.833 2.012c-.671.176-1.239.75-1.417 1.435a2.07 2.07 0 0 0 .165 1.422c.136.269.576.709.845.845a2.047 2.047 0 0 0 1.86 0c.266-.135.708-.575.841-.838a2.05 2.05 0 0 0 .169-1.408 1.806 1.806 0 0 0-.475-.876A1.972 1.972 0 0 0 12 14.005c-.143 0-.378.031-.523.068" fill="#000" fill-rule="evenodd" stroke="none"/></svg>