<svg xmlns="http://www.w3.org/2000/svg" width="24" height="24" fill="none" stroke="currentColor" stroke-width="2" stroke-linecap="round" stroke-linejoin="round" class="icon icon-tabler icons-tabler-outline icon-tabler-lock-open-2"><path d="M16.4 2.044c-1.639.185-3.139 1.246-3.874 2.741A5.77 5.77 0 0 0 12.096 6c-.059.256-.072.571-.085 2.149l-.016 1.848-3.768.012-3.767.012-.321.101a3.086 3.086 0 0 0-2.025 2.038l-.094.3v7.08l.094.3a3.086 3.086 0 0 0 2.046 2.046l.3.094h11.08l.3-.094a3.086 3.086 0 0 0 2.046-2.046l.094-.3v-7.08l-.094-.3a3.068 3.068 0 0 0-2.025-2.034c-.277-.083-.427-.099-1.094-.116l-.772-.02.014-1.765c.014-1.748.015-1.768.114-2.086a3.067 3.067 0 0 1 2.016-2.014c.273-.083.403-.098.861-.098.458 0 .588.015.861.098a3.067 3.067 0 0 1 2.016 2.014l.1.321.021 2.423.022 2.423.121.197a.998.998 0 0 0 1.718 0l.121-.197V8.843c0-2.231-.007-2.495-.073-2.803-.331-1.549-1.307-2.821-2.694-3.515a4.976 4.976 0 0 0-2.813-.481m-1.09 10.017c.279.083.546.35.629.629.086.29.092 6.314.006 6.6a1.02 1.02 0 0 1-.461.582l-.184.108H4.7l-.184-.108a1.051 1.051 0 0 1-.458-.556c-.089-.253-.087-6.325.003-6.626.079-.269.351-.547.612-.627.29-.089 10.337-.091 10.637-.002m-5.833 2.012c-.671.176-1.239.75-1.417 1.435a2.07 2.07 0 0 0 .165 1.422c.136.269.576.709.845.845a2.047 2.047 0 0 0 1.86 0c.266-.135.708-.575.841-.838a2.05 2.05 0 0 0 .169-1.408 1.806 1.806 0 0 0-.475-.876A1.972 1.972 0 0 0 10 14.005c-.143 0-.378.031-.523.068" fill="#000" fill-rule="evenodd" stroke="none"/></svg>