<svg xmlns="http://www.w3.org/2000/svg" width="24" height="24" fill="none" stroke="currentColor" stroke-width="2" stroke-linecap="round" stroke-linejoin="round" class="icon icon-tabler icons-tabler-outline icon-tabler-leaf"><path d="M17.499 3.856c-.089.028-.881.497-1.76 1.042l-1.599.991-.96.319C10.168 7.209 8.389 8.005 7.03 8.96c-.459.321-1.26 1.117-1.543 1.53a5.533 5.533 0 0 0-.866 2.21c-.08.469-.091 1.433-.022 1.934.078.569.301 1.217.559 1.629.045.072.031.136-.114.497-.286.713-.447 1.466-.6 2.805-.1.879-.073 1.038.231 1.369a1 1 0 0 0 1.031.246c.238-.091.487-.315.578-.521.044-.099.104-.441.155-.886.094-.828.206-1.487.311-1.834l.073-.239.199-.024c.201-.025.809-.21 2.378-.724 2.394-.783 4.099-1.683 5.542-2.924 2.067-1.777 3.273-4.222 3.597-7.288.035-.33.1-.857.145-1.172.106-.739.105-.963-.005-1.189a1.07 1.07 0 0 0-.615-.52c-.236-.07-.349-.071-.565-.003M16.48 7.087c-.235 1.441-.724 2.772-1.388 3.773-1.177 1.776-3.082 3.09-5.863 4.042l-.513.176.265-.309c.367-.426.397-.492.397-.849 0-.46-.185-.74-.615-.931-.233-.104-.603-.079-.844.056-.104.059-.387.343-.74.743-.403.456-.579.63-.596.587a4.71 4.71 0 0 1-.023-.588c0-1.254.3-1.985 1.14-2.78.991-.938 2.679-1.743 5.985-2.854l1.306-.439.754-.47c.415-.259.761-.466.769-.46.008.006-.007.142-.034.303" fill-rule="evenodd" fill="#000" stroke="none"/></svg>