<svg xmlns="http://www.w3.org/2000/svg" width="24" height="24" fill="none" stroke="currentColor" stroke-width="2" stroke-linecap="round" stroke-linejoin="round" class="lucide lucide-leaf-icon lucide-leaf"><path d="M18.7 1.056c-.253.08-.316.133-.801.689-1.515 1.737-2.668 2.237-7.363 3.191-2.015.409-2.608.595-3.461 1.085-1.959 1.126-3.312 2.901-3.857 5.058a8.153 8.153 0 0 0 .085 4.172l.105.356-.388.385c-1.056 1.045-1.651 2.206-1.921 3.748-.086.491-.121 1.316-.064 1.524.064.234.251.473.473.603.165.097.235.113.495.113.268 0 .326-.014.5-.121.241-.148.445-.439.472-.67.01-.093.038-.403.061-.689.09-1.107.433-1.98 1.084-2.763l.22-.264.08.11a8.001 8.001 0 0 0 1.36 1.486c2.081 1.744 4.637 2.314 7.5 1.672 1.365-.307 2.868-.987 4.02-1.822a13.273 13.273 0 0 0 2.26-2.137 11.466 11.466 0 0 0 2.081-4.079c.287-1.074.379-1.946.345-3.243-.058-2.221-.406-3.976-1.156-5.84-.271-.673-.802-1.837-.965-2.115a.982.982 0 0 0-1.165-.449m.258 3.268c.533 1.333.823 2.544.968 4.036.078.8.068 2.331-.018 2.876-.405 2.561-1.892 4.828-4.128 6.294-1.88 1.232-4.224 1.741-6.1 1.324a6.242 6.242 0 0 1-2.185-.977c-.576-.413-1.51-1.396-1.438-1.512.037-.06.707-.266 1.323-.407 1.217-.277 2.165-.625 3.34-1.222 1.112-.566 1.966-1.121 2.668-1.734.486-.424.592-.604.592-1.002 0-.254-.017-.328-.108-.484a1.02 1.02 0 0 0-.582-.461c-.409-.123-.677-.037-1.13.364-.653.577-1.419 1.075-2.44 1.584-1.044.52-1.701.755-2.9 1.034-.374.087-.893.233-1.153.324s-.481.159-.49.15a5.073 5.073 0 0 1-.096-.488 6.433 6.433 0 0 1 .097-2.537c.499-1.925 1.975-3.508 3.882-4.162.198-.068.99-.25 1.76-.405 3.28-.662 4.69-1.069 5.956-1.719.613-.315 1.459-.914 1.801-1.276a.57.57 0 0 1 .145-.124c.015 0 .121.236.236.524" fill-rule="evenodd" fill="#000" stroke="none"/></svg>