<svg xmlns="http://www.w3.org/2000/svg" width="24" height="24" fill="none" stroke="currentColor" stroke-width="2" stroke-linecap="round" stroke-linejoin="round" class="icon icon-tabler icons-tabler-outline icon-tabler-leaf-2"><path d="M9.264 2.057c-.215.08-.513.292-1.015.722C6.681 4.122 5.684 5.88 5.441 7.731c-.043.327-.062.388-.116.373-.233-.066-.941-.118-1.625-.119-.672-.001-.835.011-1.016.072a1 1 0 0 0-.67 1.069c.064.608.446 2.136.727 2.903.206.564.656 1.456.935 1.856.439.629 1.021 1.188 1.597 1.533.138.083.243.171.232.196-.01.026-.122.27-.247.544-.43.941-.767 2.003-.995 3.132-.182.9-.28 1.655-.246 1.886.037.246.24.535.48.683.174.107.232.121.5.121.26 0 .33-.016.495-.113.218-.128.412-.372.464-.583a19.5 19.5 0 0 0 .14-.844c.126-.843.292-1.561.522-2.26.189-.575.415-1.14.456-1.14.014 0 .088.122.165.27.95 1.846 2.651 3.039 4.973 3.487.891.172 2.295.257 2.592.157.318-.106.602-.427.673-.76.04-.185.026-.277-.178-1.148l-.236-1.016c-.018-.079-.04-.073.608-.169 1.112-.163 2.447-.598 3.569-1.161.925-.465 1.991-1.147 2.434-1.556.283-.263.392-.685.271-1.049-.21-.626-1.665-2.103-2.695-2.735l-.359-.22.111-.223c.326-.651.644-1.557.813-2.317.182-.817.239-1.382.238-2.36-.001-1.39-.078-1.743-.443-2.021-.292-.224-.388-.236-1.462-.184a23.93 23.93 0 0 0-1.42.106c-1.296.165-2.633.511-3.539.916a1.78 1.78 0 0 1-.264.103c-.018 0-.11-.131-.204-.29-.315-.53-.73-1.044-1.319-1.632-.581-.582-.971-.903-1.335-1.101-.237-.129-.58-.163-.803-.08m.504 2.353c.255.202.812.851 1.092 1.27.23.343.434.737.645 1.24.107.257.359.495.614.58.299.099.548.061.921-.141 1.422-.77 2.848-1.173 4.605-1.3l.385-.028.016.135c.026.226-.036 1.162-.104 1.559A7.83 7.83 0 0 1 16.81 10.7a4.872 4.872 0 0 0-.323.576c-.158.457.116 1.02.593 1.219.846.354 1.399.699 2.037 1.271.229.206.423.392.43.414.017.056-.352.286-.989.617-1.416.735-2.768 1.124-4.118 1.185a5.873 5.873 0 0 0-.686.064 1.018 1.018 0 0 0-.625.468c-.108.184-.109.192-.105.886.004.554.023.783.09 1.096.047.218.086.405.086.414 0 .06-1.029-.148-1.506-.305-.712-.234-1.293-.57-1.771-1.027-.504-.481-.778-.88-1.069-1.554-.189-.439-.389-1.201-.34-1.293.069-.13 1.099-1.108 1.426-1.355.71-.537 1.401-.956 2.196-1.331.497-.234.698-.413.799-.709a.949.949 0 0 0-.001-.676c-.138-.405-.587-.692-1.018-.651-.466.045-2.105.957-3.164 1.76-.673.511-1.652 1.474-2.102 2.07-.041.053-.569-.283-.832-.528-.464-.434-.875-1.108-1.191-1.955-.148-.395-.387-1.204-.387-1.308 0-.114.912.02 1.704.25.194.056.418.102.497.102.396 0 .807-.291.933-.66.056-.164.062-.3.042-.858-.028-.741.024-1.179.207-1.768.143-.464.489-1.143.808-1.592.247-.347 1.071-1.242 1.143-1.242.017 0 .104.059.194.13" fill="#000" fill-rule="evenodd" stroke="none"/></svg>