<svg xmlns="http://www.w3.org/2000/svg" width="24" height="24" fill="none" stroke="currentColor" stroke-width="2" stroke-linecap="round" stroke-linejoin="round" class="icon icon-tabler icons-tabler-outline icon-tabler-menu-4"><path d="M6.695 5.057a1.04 1.04 0 0 0-.567.459c-.091.156-.108.23-.108.484 0 .256.016.328.111.489.125.213.318.375.539.454.222.079 10.438.079 10.66 0 .221-.079.414-.241.539-.454.095-.161.111-.233.111-.489 0-.254-.017-.328-.108-.484a1.02 1.02 0 0 0-.582-.461c-.262-.079-10.344-.077-10.595.002m-3 6a1.04 1.04 0 0 0-.567.459c-.091.156-.108.23-.108.484 0 .256.016.328.111.489.125.213.318.375.539.454.123.044 1.603.054 8.35.055l8.2.001.2-.094a.976.976 0 0 0 .578-.905.976.976 0 0 0-.578-.905l-.2-.094-8.18.002c-6.572.002-8.212.013-8.345.054m3 6a1.04 1.04 0 0 0-.567.459c-.091.156-.108.23-.108.484 0 .256.016.328.111.489.125.213.318.375.539.454.222.079 10.438.079 10.66 0 .221-.079.414-.241.539-.454.095-.161.111-.233.111-.489 0-.254-.017-.328-.108-.484a1.02 1.02 0 0 0-.582-.461c-.262-.079-10.344-.077-10.595.002" fill="#000" fill-rule="evenodd" stroke="none"/></svg>