<svg xmlns="http://www.w3.org/2000/svg" width="24" height="24" fill="none" stroke="currentColor" stroke-width="2" stroke-linecap="round" stroke-linejoin="round" class="icon icon-tabler icons-tabler-outline icon-tabler-mail-opened"><path d="M11.677 2.058c-.157.058-9.233 6.09-9.404 6.251a1.052 1.052 0 0 0-.191.295l-.084.195.011 5.391.011 5.39.094.28c.332.991 1.07 1.722 2.046 2.026l.3.094h15.08l.3-.094c.976-.304 1.714-1.035 2.046-2.026l.094-.28.011-5.39.011-5.391-.084-.195a1.052 1.052 0 0 0-.191-.295c-.188-.176-9.253-6.195-9.418-6.253a.984.984 0 0 0-.632.002m3.903 4.529C17.549 7.899 19.16 8.985 19.16 9c0 .015-1.611 1.101-3.58 2.413L12 13.799 8.43 11.42C6.466 10.111 4.86 9.022 4.86 9c0-.029 7.059-4.778 7.13-4.797.006-.002 1.621 1.071 3.59 2.384m-9.77 5.487c.875.582 1.59 1.07 1.59 1.083 0 .013-.765.788-1.7 1.723L4 16.58v-5.709l.11.071 1.7 1.132M20 13.73v2.85l-1.7-1.7c-.935-.935-1.696-1.713-1.69-1.73.008-.025 3.351-2.27 3.38-2.27.005 0 .01 1.282.01 2.85m-8.31 2.213c.088.032.228.057.31.057.082 0 .222-.025.31-.057.089-.031.7-.416 1.359-.856l1.199-.799 2.526 2.526c1.389 1.389 2.526 2.545 2.526 2.568 0 .094-.26.386-.434.489l-.186.109H4.7l-.186-.109c-.174-.103-.434-.395-.434-.489 0-.023 1.137-1.179 2.526-2.568l2.526-2.526 1.199.799c.659.44 1.27.825 1.359.856" fill="#000" fill-rule="evenodd" stroke="none"/></svg>