<svg xmlns="http://www.w3.org/2000/svg" width="24" height="24" fill="none" stroke="currentColor" stroke-width="2" stroke-linecap="round" stroke-linejoin="round" class="icon icon-tabler icons-tabler-outline icon-tabler-message"><path d="M5.358 3.061c-1.627.254-2.941 1.523-3.275 3.166C2.002 6.622 2 6.744 2 11c0 4.256.002 4.378.083 4.773a3.973 3.973 0 0 0 2.429 2.931c.547.22 1.009.296 1.804.296H7v1.073c0 .894.011 1.105.066 1.267.163.479.747.773 1.218.614.075-.025 1.228-.7 2.562-1.5L13.273 19h2.547c2.384 0 2.572-.005 2.937-.079 1.36-.278 2.436-1.166 2.947-2.433.075-.188.173-.516.217-.731.076-.375.079-.557.079-4.757 0-4.2-.003-4.382-.079-4.757a4.017 4.017 0 0 0-2.676-3.039c-.599-.205-.555-.204-7.285-.2-5.001.003-6.329.014-6.602.057m13.165 2.012c.499.13.993.526 1.249.998.229.423.227.373.227 4.929 0 4.554.002 4.502-.227 4.931-.147.277-.581.712-.842.844-.445.226-.436.225-3.352.225-2.148 0-2.721.011-2.862.054-.097.03-.971.533-1.943 1.117l-1.767 1.062-.013-.767c-.013-.749-.015-.77-.121-.95a1.209 1.209 0 0 0-.254-.295C8.352 17.018 8.213 17 6.922 17c-1.276 0-1.448-.02-1.839-.219-.267-.135-.634-.484-.802-.764-.288-.478-.276-.27-.279-4.989-.002-4.703-.01-4.559.263-5.014.281-.471.723-.813 1.212-.941.243-.063.734-.068 6.523-.068s6.28.005 6.523.068M7.695 8.057a1.04 1.04 0 0 0-.567.459c-.091.156-.108.23-.108.484 0 .256.016.328.111.489.125.213.318.375.539.454.222.079 8.438.079 8.66 0 .221-.079.414-.241.539-.454.095-.161.111-.233.111-.489 0-.254-.017-.328-.108-.484a1.02 1.02 0 0 0-.582-.461c-.261-.079-8.344-.076-8.595.002m0 4a1.04 1.04 0 0 0-.567.459c-.091.156-.108.23-.108.484 0 .256.016.328.111.489.125.213.318.375.539.454.221.079 6.439.079 6.66 0 .221-.079.414-.241.539-.454.095-.161.111-.233.111-.489 0-.254-.017-.328-.108-.484a1.02 1.02 0 0 0-.582-.461c-.26-.078-6.345-.076-6.595.002" fill="#000" fill-rule="evenodd" stroke="none"/></svg>