<svg xmlns="http://www.w3.org/2000/svg" width="24" height="24" fill="none" stroke="currentColor" stroke-width="2" stroke-linecap="round" stroke-linejoin="round" class="icon icon-tabler icons-tabler-outline icon-tabler-mail"><path d="M4.499 4.043C3.38 4.232 2.461 5.048 2.114 6.16l-.094.3v11.08l.094.3a3.086 3.086 0 0 0 2.046 2.046l.3.094h15.08l.3-.094a3.086 3.086 0 0 0 2.046-2.046l.094-.3V6.46l-.094-.3a3.089 3.089 0 0 0-2.025-2.039l-.321-.101-7.42-.006c-4.081-.003-7.511.01-7.621.029M19.31 6.061a.89.89 0 0 1 .388.243c.1.1.182.196.182.213 0 .016-1.773 1.212-3.94 2.656L12 11.8 8.06 9.173c-2.167-1.444-3.94-2.64-3.94-2.656 0-.088.382-.401.553-.454.291-.089 14.336-.092 14.637-.002m-11.495 5.35c2.044 1.362 3.787 2.502 3.875 2.533a.929.929 0 0 0 .62 0c.087-.031 1.849-1.183 3.915-2.56L19.98 8.88l.012 4.07c.009 2.835-.001 4.132-.031 4.274-.056.26-.237.507-.475.647l-.186.109H4.7l-.184-.108a1.199 1.199 0 0 1-.291-.249C3.99 17.315 4 17.516 4 13.013c0-3.3.01-4.132.05-4.108.027.017 1.722 1.144 3.765 2.506" fill="#000" fill-rule="evenodd" stroke="none"/></svg>