<svg xmlns="http://www.w3.org/2000/svg" width="24" height="24" fill="none" stroke="currentColor" stroke-width="2" stroke-linecap="round" stroke-linejoin="round" class="icon icon-tabler icons-tabler-outline icon-tabler-ghost-3"><path d="M11.207 3.043c-2.403.232-4.595 1.577-5.943 3.646-.637.978-1.089 2.263-1.222 3.479-.027.249-.042 1.837-.041 4.4 0 4.37-.006 4.238.228 4.77.326.74.93 1.275 1.751 1.549.368.122 1.146.133 1.52.019.492-.148.789-.325 1.211-.72.43-.402.544-.456.839-.402.114.021.212.091.41.294.143.146.342.332.442.412.382.308 1.087.55 1.598.55.511 0 1.216-.242 1.598-.55.1-.08.299-.266.442-.412.198-.203.296-.273.41-.294.295-.054.409 0 .839.402.422.395.719.572 1.211.72.374.114 1.152.103 1.52-.019.821-.274 1.425-.809 1.751-1.549.234-.532.228-.4.228-4.77.001-2.563-.014-4.151-.041-4.4A8.223 8.223 0 0 0 18.325 6.1c-.27-.353-.815-.91-1.225-1.253-1.617-1.353-3.763-2.01-5.893-1.804m1.357 1.996a5.862 5.862 0 0 1 3.705 1.766 5.836 5.836 0 0 1 1.692 3.631c.053.554.051 7.928-.004 8.071-.099.264-.438.49-.734.492-.215.001-.48-.136-.635-.327-.277-.346-.897-.718-1.388-.834-.283-.067-.918-.067-1.2 0-.519.124-.941.379-1.406.848-.328.332-.455.389-.74.336-.11-.021-.219-.102-.453-.338-.466-.471-.882-.722-1.401-.846-.282-.067-.917-.067-1.2 0-.49.116-1.129.5-1.399.841-.148.187-.41.321-.624.32-.296-.002-.635-.228-.734-.492-.055-.143-.057-7.517-.004-8.071a5.836 5.836 0 0 1 1.692-3.631 5.918 5.918 0 0 1 4.833-1.766M9.695 9.055a1.05 1.05 0 0 0-.567.461c-.091.156-.108.23-.108.484 0 .257.016.327.113.492.518.882 1.865.526 1.865-.492a.994.994 0 0 0-.535-.888 1.17 1.17 0 0 0-.768-.057m4 0a1.05 1.05 0 0 0-.567.461c-.091.156-.108.23-.108.484 0 .257.016.327.113.492.518.882 1.865.526 1.865-.492a.994.994 0 0 0-.535-.888 1.17 1.17 0 0 0-.768-.057" fill="#000" fill-rule="evenodd" stroke="none"/></svg>