<svg xmlns="http://www.w3.org/2000/svg" width="24" height="24" fill="none" stroke="currentColor" stroke-width="2" stroke-linecap="round" stroke-linejoin="round" class="icon icon-tabler icons-tabler-outline icon-tabler-sphere"><path d="M11.08 2.045A10.098 10.098 0 0 0 6.54 3.63a9.034 9.034 0 0 0-1.621 1.328 9.852 9.852 0 0 0-2.906 7.362c.071 2.119.739 4.008 2.02 5.72.397.53 1.272 1.424 1.767 1.807 1.442 1.114 2.987 1.777 4.8 2.06.647.101 2.153.101 2.8 0 2.238-.35 4.104-1.287 5.662-2.845 1.558-1.558 2.495-3.424 2.845-5.662.101-.647.101-2.153 0-2.8-.283-1.814-.948-3.362-2.06-4.8-.337-.435-1.208-1.306-1.647-1.646-2.067-1.599-4.554-2.336-7.12-2.109m1.654 1.996a7.925 7.925 0 0 1 4.82 2.215 7.96 7.96 0 0 1 2.405 5.01c.067.71.062.75-.107.937-.568.63-2.32 1.257-4.352 1.558-1.211.18-1.771.214-3.5.214s-2.289-.034-3.5-.214c-2.03-.301-3.789-.93-4.35-1.554-.172-.191-.176-.23-.109-.941A7.946 7.946 0 0 1 5.848 6.9 7.824 7.824 0 0 1 8.5 4.816a7.918 7.918 0 0 1 4.234-.775M4.86 14.901c.898.353 2.204.674 3.48.857 1.263.182 1.881.218 3.66.218 1.779 0 2.397-.036 3.66-.218 1.276-.183 2.582-.504 3.48-.857.198-.077.363-.141.368-.141.025 0-.299.709-.472 1.035a7.93 7.93 0 0 1-1.54 2.006 7.485 7.485 0 0 1-2.025 1.399 7.941 7.941 0 0 1-6.942 0 7.485 7.485 0 0 1-2.025-1.399 7.877 7.877 0 0 1-1.563-2.051c-.183-.346-.475-.99-.448-.99.004 0 .169.064.367.141" fill="#000" fill-rule="evenodd" stroke="none"/></svg>