<svg xmlns="http://www.w3.org/2000/svg" width="24" height="24" fill="none" stroke="currentColor" stroke-width="2" stroke-linecap="round" stroke-linejoin="round" class="icon icon-tabler icons-tabler-outline icon-tabler-hexagons"><path d="M11.7 3.054c-.088.03-1.087.517-2.22 1.084-1.606.804-2.092 1.065-2.205 1.183C6.998 5.611 7 5.59 7 8.117v2.264l-1.768.879c-1.928.959-2.041 1.032-2.166 1.4-.059.173-.066.482-.066 2.84 0 2.358.007 2.667.066 2.84.128.376.21.427 2.528 1.58l2.13 1.06h.552l1.862-.93L12 19.121l1.862.929 1.862.93h.552l2.13-1.06c2.318-1.153 2.4-1.204 2.528-1.58.059-.173.066-.482.066-2.84 0-2.358-.007-2.667-.066-2.84-.125-.368-.238-.441-2.166-1.4L17 10.381V8.117c0-2.001-.008-2.285-.066-2.457-.128-.376-.211-.427-2.516-1.573-2.294-1.14-2.342-1.158-2.718-1.033m1.8 2.816 1.5.75v3.76l-1.5.75-1.5.75-1.5-.75-1.5-.75V6.62l1.49-.748c.819-.411 1.494-.749 1.5-.75.005-.001.685.335 1.51.748m-4 7 1.5.75v3.76l-1.5.75-1.5.75-1.5-.75-1.5-.75v-3.76l1.49-.748c.82-.411 1.494-.749 1.5-.75.005-.001.685.335 1.51.748m8 0 1.5.75v3.76l-1.5.75-1.5.75-1.5-.75-1.5-.75v-3.76l1.49-.748c.819-.411 1.494-.749 1.5-.75.005-.001.685.335 1.51.748" fill="#000" fill-rule="evenodd" stroke="none"/></svg>