<svg xmlns="http://www.w3.org/2000/svg" width="24" height="24" fill="none" stroke="currentColor" stroke-width="2" stroke-linecap="round" stroke-linejoin="round" class="icon icon-tabler icons-tabler-outline icon-tabler-packages"><path d="M11.7 1.049c-.066.023-1.303.751-2.749 1.618C7.026 3.821 6.293 4.28 6.216 4.382c-.215.282-.212.241-.216 2.998l-.003 2.56-2.3 1.377c-1.266.757-2.356 1.432-2.422 1.5-.271.274-.254.055-.266 3.34-.012 3.33-.021 3.217.268 3.516.146.149 5.057 3.134 5.381 3.269.175.073.505.075.673.004.071-.03 1.149-.668 2.395-1.417l2.266-1.361 2.234 1.341c1.229.738 2.306 1.375 2.394 1.415.177.082.515.099.685.034.26-.099 5.282-3.148 5.424-3.293.279-.286.274-.212.262-3.508-.01-2.792-.015-2.945-.087-3.09a1.196 1.196 0 0 0-.183-.26c-.06-.059-1.145-.729-2.413-1.487l-2.305-1.38-.002-2.54c-.001-1.622-.016-2.594-.043-2.689-.1-.359-.134-.383-2.898-2.041-1.43-.858-2.67-1.584-2.755-1.615a1 1 0 0 0-.605-.006m1.786 3.013c.756.454 1.416.852 1.468.885.092.059.054.085-1.43.975L12 6.836l-1.519-.908C9.646 5.429 8.963 5.011 8.963 5c0-.011.679-.427 1.508-.924 1.113-.667 1.526-.895 1.575-.871.036.018.684.404 1.44.857m2.513 4.288-.001 1.59-1.305.78c-.717.429-1.392.831-1.499.893l-.194.114V8.564l1.49-.899c.819-.494 1.495-.9 1.5-.902.005-.002.009.712.009 1.587m-6.476-.664L11 8.571v3.156l-.194-.114c-.107-.062-.782-.464-1.499-.893l-1.305-.78-.001-1.57c0-.864.009-1.57.022-1.57s.688.399 1.5.886m-.96 4.92c.812.487 1.477.896 1.477.91-.001.013-.676.432-1.502.931l-1.502.907-1.511-.907c-.832-.499-1.516-.923-1.521-.942-.014-.051 2.968-1.828 3.029-1.805.03.011.718.419 1.53.906m9.971-.02c.795.476 1.46.878 1.478.893.017.016-.654.438-1.49.94L17 15.331l-1.521-.911c-.836-.502-1.512-.921-1.501-.931.096-.096 3.015-1.804 3.056-1.789.03.012.705.41 1.5.886M4.693 16.28l1.305.78.001 1.588L6 20.236l-1.5-.9-1.5-.9V15.273l.194.114c.107.062.782.464 1.499.893m10 0 1.305.78.001 1.588.001 1.588-1.5-.9-1.5-.9V15.273l.194.114c.107.062.782.464 1.499.893m6.307.578v1.578l-1.5.9-1.5.9.001-1.588.001-1.588 1.489-.89c.819-.489 1.493-.89 1.499-.89.006 0 .01.71.01 1.578m-10 .02v1.558l-1.5.9-1.5.9.002-1.568.002-1.568 1.468-.888a54.797 54.797 0 0 1 1.498-.89c.017-.001.03.699.03 1.556" fill="#000" fill-rule="evenodd" stroke="none"/></svg>