<svg xmlns="http://www.w3.org/2000/svg" width="24" height="24" fill="none" stroke="currentColor" stroke-width="2" stroke-linecap="round" stroke-linejoin="round" class="icon icon-tabler icons-tabler-outline icon-tabler-cube-3d-sphere-off"><path d="M2.67 2.061c-.222.081-.42.248-.542.455-.092.156-.108.229-.107.484 0 .213.022.341.074.44.041.077.622.691 1.293 1.364l1.219 1.225-.647.354c-.528.288-.668.383-.759.516-.199.289-.207.367-.194 1.944l.013 1.463.121.197a.998.998 0 0 0 1.718 0c.117-.19.121-.215.135-.747l.014-.551.35.183c.419.218.652.255.964.151.392-.13.678-.533.678-.956v-.162l1.036 1.035c1.021 1.02 1.035 1.037 1 1.159a.997.997 0 0 0 .263.962c.099.097.475.333.932.583l.767.42.001 1.06c.002 1.03.004 1.066.096 1.26.181.381.5.588.905.588a.94.94 0 0 0 .675-.26c.167-.158.324-.482.325-.668 0-.134.148.009 3.71 3.566 2.041 2.038 3.773 3.739 3.85 3.779.099.052.228.074.44.074.258.001.327-.015.492-.112.476-.28.647-.9.373-1.359-.055-.092-4.2-4.265-9.212-9.273-8.422-8.415-9.128-9.11-9.31-9.17a1.015 1.015 0 0 0-.673-.004m9.05-.007c-.224.066-2.166 1.135-2.371 1.306-.232.194-.327.408-.327.74 0 .209.022.321.086.44.187.352.514.553.892.549.272-.003.344-.033 1.244-.529.4-.22.74-.4.756-.4.016 0 .356.18.756.4.9.496.972.526 1.244.529.378.004.705-.197.892-.549.064-.119.086-.231.086-.44 0-.311-.083-.517-.285-.708-.102-.098-1.475-.879-2.133-1.214-.306-.156-.588-.198-.84-.124m5.923 3.415c-.353.125-.643.545-.643.933 0 .191.095.458.223.625.055.073.235.21.399.306l.299.173-.285.156c-.322.177-.486.351-.575.613-.232.682.316 1.383 1.029 1.315.134-.013.319-.081.552-.202l.35-.183.014.551c.014.532.018.557.135.747a.998.998 0 0 0 1.718 0l.121-.197.013-1.463c.013-1.575.005-1.655-.192-1.942-.095-.138-.272-.25-1.199-.761-.598-.33-1.171-.631-1.274-.668a.973.973 0 0 0-.685-.003M3.695 13.057a1.04 1.04 0 0 0-.567.459l-.108.184-.012 1.488c-.011 1.439-.009 1.495.073 1.685.046.107.15.259.231.336.152.145 2.092 1.234 2.378 1.335.619.218 1.31-.28 1.31-.944 0-.227-.116-.513-.275-.676-.087-.09-.457-.32-.933-.579l-.787-.429-.013-1.108L4.98 13.7l-.108-.184a1.005 1.005 0 0 0-1.177-.459m16 0a1.04 1.04 0 0 0-.567.459l-.108.184v2.606l.121.197a.998.998 0 0 0 1.718 0l.121-.197V13.7l-.108-.184a1.005 1.005 0 0 0-1.177-.459M11.6 17.584a1.078 1.078 0 0 0-.505.516c-.084.177-.094.257-.095.708v.508l-.25-.142c-.378-.214-.498-.254-.756-.254a.86.86 0 0 0-.649.241c-.233.205-.323.41-.323.739 0 .334.093.542.334.746.087.074.65.404 1.251.734l1.093.6h.6l1.093-.6c.601-.33 1.164-.66 1.251-.734.241-.204.334-.412.334-.746 0-.327-.09-.534-.317-.734a.922.922 0 0 0-.676-.246c-.212 0-.292.024-.594.18-.193.099-.359.18-.37.18-.012 0-.021-.221-.021-.49-.001-.432-.012-.514-.095-.69a1.06 1.06 0 0 0-.514-.518c-.188-.079-.608-.078-.791.002" fill="#000" fill-rule="evenodd" stroke="none"/></svg>