<svg xmlns="http://www.w3.org/2000/svg" width="24" height="24" fill="none" stroke="currentColor" stroke-width="1.75" stroke-linecap="round" stroke-linejoin="round" class="icon icon-tabler icons-tabler-outline icon-tabler-cube-3d-sphere"><path d="M11.76 2.177c-.295.083-2.281 1.201-2.426 1.364a1 1 0 0 0-.214.61c0 .193.201.535.393.669.156.108.205.12.48.12h.307l.85-.471.85-.471.85.471.85.471h.307c.275 0 .324-.012.48-.12.248-.173.406-.49.38-.765-.025-.258-.148-.502-.317-.627-.25-.185-2.194-1.228-2.361-1.267-.206-.048-.206-.048-.429.016M5.769 5.565c-.072.021-.612.3-1.2.621-1.133.618-1.314.753-1.402 1.046-.063.211-.065 2.801-.002 3.028a.885.885 0 0 0 .23.345c.367.368.843.368 1.21 0 .239-.238.275-.374.275-1.055 0-.302.007-.55.015-.55s.166.083.35.185c.559.309.716.344 1.046.232a.932.932 0 0 0 .589-.82.945.945 0 0 0-.275-.608 3.2 3.2 0 0 0-.457-.305A2.548 2.548 0 0 1 5.84 7.5c0-.007.149-.095.33-.194.387-.211.563-.38.648-.621.115-.326.056-.607-.183-.866a.826.826 0 0 0-.866-.254m11.924.021c-.308.108-.572.487-.573.819 0 .175.116.447.252.588.07.073.276.214.458.313s.33.187.33.194c0 .008-.138.091-.308.184a3.2 3.2 0 0 0-.457.305.945.945 0 0 0-.275.608c.001.341.266.71.589.82.33.112.487.077 1.046-.232.184-.102.342-.185.35-.185.008 0 .015.248.015.55 0 .681.036.817.275 1.055.367.368.843.368 1.21 0a.885.885 0 0 0 .23-.345c.063-.227.061-2.817-.002-3.028-.088-.292-.27-.428-1.399-1.044-1.288-.703-1.374-.733-1.741-.602m-8 4.48c-.307.108-.572.487-.573.817 0 .185.121.462.261.598.076.073.493.333.928.577l.791.443.02 1.12c.02 1.102.022 1.122.12 1.297.055.098.178.233.273.3.158.111.203.122.487.122s.329-.011.487-.122c.095-.067.218-.202.273-.3.098-.175.1-.196.12-1.294l.02-1.116.814-.452c.448-.248.85-.484.894-.524.127-.114.237-.364.259-.587.016-.17 0-.242-.094-.425-.155-.3-.373-.449-.693-.472-.298-.022-.31-.017-1.288.521l-.788.434-.816-.458c-1.012-.568-1.135-.607-1.495-.479M3.78 13.155a1.054 1.054 0 0 0-.203.076c-.146.078-.37.358-.414.516-.066.238-.054 2.832.014 3.023.11.309.218.394 1.173.922 1.241.686 1.369.75 1.558.775.477.064.971-.378.972-.87a.904.904 0 0 0-.3-.627c-.096-.082-.517-.337-.937-.565l-.763-.414v-1.046c0-.613-.018-1.108-.043-1.198-.047-.17-.273-.442-.438-.527-.136-.071-.463-.105-.619-.065m16 0a1.054 1.054 0 0 0-.203.076c-.146.078-.37.358-.414.516-.025.09-.043.585-.043 1.199v1.046l-.81.452c-.47.261-.87.513-.954.599a.928.928 0 0 0-.236.628c0 .193.201.535.393.669.156.108.205.12.48.12h.307l.96-.537c1.3-.727 1.353-.763 1.487-.99l.113-.193.012-1.409c.008-.936-.003-1.463-.032-1.572-.048-.178-.272-.452-.441-.539-.136-.071-.463-.105-.619-.065m-8.099 4.527a.928.928 0 0 0-.465.453c-.087.187-.095.258-.096.796v.592l-.29-.164c-.511-.289-.624-.328-.899-.311-.33.021-.547.166-.704.472-.096.186-.11.253-.093.432.026.264.13.471.309.612.075.06.623.376 1.217.702 1.449.797 1.232.797 2.68-.001.594-.327 1.139-.638 1.21-.692.169-.126.292-.37.317-.628.016-.17 0-.242-.094-.425-.157-.306-.374-.451-.704-.472-.275-.017-.388.022-.899.311l-.29.164v-.594c0-.569-.005-.604-.11-.812-.159-.314-.373-.451-.722-.465a1.241 1.241 0 0 0-.367.03" fill="#000" fill-rule="evenodd" stroke="none"/></svg>