<svg xmlns="http://www.w3.org/2000/svg" width="24" height="24" fill="none" stroke="currentColor" stroke-width="2" stroke-linecap="round" stroke-linejoin="round" class="icon icon-tabler icons-tabler-outline icon-tabler-txt"><path d="M2.695 7.057a1.04 1.04 0 0 0-.567.459c-.091.156-.108.23-.108.484 0 .256.016.328.111.489.125.213.318.375.539.454.098.035.353.054.739.055L3.998 9l.011 3.653.011 3.653.121.197a.998.998 0 0 0 1.718 0l.121-.197.011-3.653L6.002 9l.589-.002c.386-.001.641-.02.739-.055.221-.079.414-.241.539-.454.095-.161.111-.233.111-.489 0-.254-.017-.328-.108-.484a1.02 1.02 0 0 0-.582-.461c-.257-.077-4.347-.076-4.595.002m6.972.008c-.261.08-.514.336-.606.613-.134.403-.123.433.893 2.47L10.879 12l-.925 1.852c-1.016 2.037-1.027 2.067-.893 2.47.128.385.533.678.939.678.08 0 .233-.03.34-.066.346-.118.464-.285 1.079-1.526.308-.62.569-1.128.581-1.128.012 0 .273.508.581 1.128.615 1.241.733 1.408 1.079 1.526.107.036.26.066.34.066.406 0 .811-.293.939-.678.134-.403.123-.433-.893-2.47L13.121 12l.925-1.852c1.01-2.024 1.026-2.069.898-2.455-.232-.701-1.128-.917-1.64-.396-.122.124-.307.454-.723 1.295-.308.62-.569 1.128-.581 1.128-.012 0-.273-.508-.581-1.128-.615-1.241-.733-1.408-1.079-1.526a.979.979 0 0 0-.673-.001m7.028-.008a1.04 1.04 0 0 0-.567.459c-.091.156-.108.23-.108.484 0 .256.016.328.111.489.125.213.318.375.539.454.098.035.353.054.739.055l.589.002.011 3.653.011 3.653.121.197a.998.998 0 0 0 1.718 0l.121-.197.011-3.653L20.002 9l.589-.002c.386-.001.641-.02.739-.055.221-.079.414-.241.539-.454.095-.161.111-.233.111-.489 0-.254-.017-.328-.108-.484a1.02 1.02 0 0 0-.582-.461c-.257-.077-4.347-.076-4.595.002" fill="#000" fill-rule="evenodd" stroke="none"/></svg>