<svg xmlns="http://www.w3.org/2000/svg" width="24" height="24" fill="none" stroke="currentColor" stroke-width="2" stroke-linecap="round" stroke-linejoin="round" class="lucide lucide-torus-icon lucide-torus"><path d="M11.18 3.025c-2.485.199-4.606.965-6.393 2.308-.568.427-1.391 1.213-1.806 1.727a8.94 8.94 0 0 0-1.889 4.176c-.099.592-.099 1.936 0 2.528a9.027 9.027 0 0 0 1.82 4.096 13.36 13.36 0 0 0 1.408 1.436c1.463 1.24 3.277 2.086 5.315 2.481.856.166 1.289.203 2.365.203 1.076 0 1.509-.037 2.365-.203 2.038-.395 3.852-1.241 5.315-2.481.422-.357 1.112-1.062 1.413-1.444.749-.949 1.364-2.176 1.642-3.274.2-.787.24-1.137.24-2.078 0-.941-.04-1.291-.24-2.078-.296-1.169-.972-2.475-1.781-3.442-1.776-2.121-4.407-3.502-7.394-3.881-.482-.061-1.968-.107-2.38-.074m1.68 2.016c3.488.295 6.398 2.179 7.606 4.925.362.82.51 1.557.509 2.534 0 1.204-.248 2.146-.839 3.19C18.652 18.312 15.466 20 12 20c-2.251 0-4.411-.706-6.091-1.99-1.483-1.133-2.461-2.652-2.796-4.34-.127-.642-.127-1.698 0-2.34.779-3.929 5.052-6.686 9.747-6.289M11.3 8.045c-.774.097-1.545.396-2.124.825-.521.387-.842.809-1.048 1.377-.091.253-.106.356-.106.753s.015.5.106.753c.151.418.331.701.652 1.028.484.494 1.094.84 1.82 1.034 1.725.46 3.565.049 4.62-1.032.322-.33.501-.613.652-1.03.091-.253.106-.356.106-.753s-.015-.5-.106-.753c-.206-.568-.527-.99-1.048-1.377-.92-.682-2.225-.987-3.524-.825m1.167 1.997c.555.074 1.004.264 1.302.55.296.284.286.554-.034.848-.394.364-.958.539-1.735.539-.777 0-1.341-.175-1.735-.539-.32-.294-.33-.565-.034-.847.292-.279.671-.449 1.189-.533.407-.066.656-.07 1.047-.018" fill="#000" fill-rule="evenodd" stroke="none"/></svg>