<svg xmlns="http://www.w3.org/2000/svg" width="24" height="24" fill="none" stroke="currentColor" stroke-width="2" stroke-linecap="round" stroke-linejoin="round" class="icon icon-tabler icons-tabler-outline icon-tabler-abc"><path d="M4.499 7.04a3.05 3.05 0 0 0-2.385 2.12l-.094.3v6.846l.121.197a.998.998 0 0 0 1.718 0l.121-.196.012-1.154L4.005 14h1.99l.013 1.153.012 1.154.121.196a.998.998 0 0 0 1.718 0l.121-.197V9.46l-.094-.3C7.58 8.178 6.81 7.407 5.861 7.129 5.5 7.023 4.832 6.98 4.499 7.04m5.196.017a1.04 1.04 0 0 0-.567.459L9.02 7.7v6.84l.094.3a3.086 3.086 0 0 0 2.046 2.046c.434.135 1.246.135 1.68 0a3.086 3.086 0 0 0 2.046-2.046c.088-.282.094-.361.094-1.34 0-.979-.006-1.058-.094-1.34a3.073 3.073 0 0 0-2.025-2.035c-.267-.081-.409-.098-.841-.1-.307-.001-.594.019-.7.049l-.248.07c-.062.019-.069-.076-.08-1.212L10.98 7.7l-.108-.184a1.005 1.005 0 0 0-1.177-.459M5.31 9.061a.893.893 0 0 1 .387.242c.281.281.303.4.303 1.644V12H4v-1.053c0-1.245.022-1.362.304-1.644.279-.279.612-.359 1.006-.242m13.15.998c-.865.161-1.527.612-2.014 1.372-.345.537-.446 1.008-.446 2.074 0 1.258.16 1.783.758 2.48 1.09 1.27 3.148 1.347 4.334.161.549-.549.728-1.012.567-1.468a.878.878 0 0 0-.444-.524c-.268-.144-.503-.171-.775-.09-.223.066-.242.082-.755.64-.358.389-.995.388-1.386-.003-.254-.254-.299-.435-.299-1.201 0-.769.045-.947.303-1.205.417-.418 1.141-.365 1.486.107.334.456.535.578.951.578.233 0 .311-.018.467-.11.348-.205.514-.494.512-.895-.002-.446-.464-1.083-1.064-1.466-.699-.446-1.421-.594-2.195-.45m-6.15 2.002c.279.083.546.35.629.629.081.271.085 1.338.006 1.6a1.02 1.02 0 0 1-.461.582c-.156.091-.23.108-.484.108s-.328-.017-.484-.108a1.051 1.051 0 0 1-.458-.556c-.082-.235-.081-1.345.003-1.626.112-.377.516-.678.922-.687a1.32 1.32 0 0 1 .327.058" fill="#000" fill-rule="evenodd" stroke="none"/></svg>