<svg xmlns="http://www.w3.org/2000/svg" width="24" height="24" fill="none" stroke="currentColor" stroke-width="2" stroke-linecap="round" stroke-linejoin="round" class="icon icon-tabler icons-tabler-outline icon-tabler-hexagon-3d"><path d="M11.541 2.042a2.89 2.89 0 0 0-.841.269c-.199.1-5.929 3.515-6.361 3.791a3.049 3.049 0 0 0-1.105 1.346c-.241.591-.237.504-.224 4.533.013 4.147-.011 3.83.336 4.536.148.303.249.443.509.709.304.309.534.464 3.525 2.378 2.12 1.355 3.299 2.086 3.494 2.164.766.307 1.49.306 2.26-.003.234-.095 4.482-2.775 6.436-4.062.484-.319.864-.736 1.091-1.198.339-.69.319-.407.318-4.605 0-2.046-.006-3.801-.013-3.9a2.87 2.87 0 0 1 .015-.423.703.703 0 0 0-.062-.451c-.104-.241-.372-.499-.592-.569a.917.917 0 0 1-.287-.175 5.44 5.44 0 0 0-.3-.25c-.244-.185-6.115-3.684-6.438-3.836a3.515 3.515 0 0 0-.522-.195 4.056 4.056 0 0 0-1.239-.059m.843 2.03c.177.073 5.733 3.375 5.735 3.408.002.029-2.071 1.32-2.12 1.32-.022 0-.828-.492-1.79-1.094a166.274 166.274 0 0 0-1.847-1.146c-.054-.028-.217-.052-.362-.052s-.308.024-.362.052c-.054.029-.886.545-1.849 1.147L8.038 8.802l-.959-.685a29.164 29.164 0 0 1-.977-.714c-.01-.015.364-.255.83-.532.467-.277 1.711-1.018 2.765-1.648 1.054-.629 1.972-1.16 2.04-1.18.195-.057.469-.044.647.029M6.02 9.814l.96.69.02 1.898.02 1.898.11.187c.06.103.154.222.208.264.053.042.899.578 1.88 1.19L11 17.054v1.233c0 .678-.009 1.233-.019 1.233-.067 0-5.553-3.549-5.69-3.681-.3-.289-.291-.172-.291-3.646 0-1.69.014-3.072.03-3.071.016.001.462.313.99.692m4.98.536v1.031l-.98.489c-.539.27-.99.49-1.001.49-.011 0-.016-.409-.01-.909l.011-.908.978-.612c.538-.336.983-.611.99-.611.007 0 .012.464.012 1.03m3.1-.36.88.553.011.908c.006.5.001.909-.01.909s-.462-.22-1.001-.49l-.98-.489V9.318l.11.059c.061.033.506.309.99.613m4.881 5.31c-.037.261-.229.551-.469.709-.506.334-5.478 3.511-5.494 3.511-.01 0-.018-.555-.018-1.233v-1.233l1.782-1.113a97.096 97.096 0 0 0 1.88-1.19 1.13 1.13 0 0 0 .208-.264l.11-.187.02-1.879.02-1.878.98-.613.98-.612.012 2.911c.006 1.601.001 2.983-.011 3.071m-5.991-1.688.97.488-.98.613-.98.613-.98-.613-.98-.613.97-.488c.534-.268.979-.488.99-.488.011 0 .456.22.99.488" fill="#000" fill-rule="evenodd" stroke="none"/></svg>