<svg version="1.2" xmlns="http://www.w3.org/2000/svg" width="24" height="24"><path d="m11.28 1.023-.56.06c-2.27.241-4.544 1.292-6.218 2.876-1.897 1.793-3.001 3.919-3.409 6.561-.101.65-.101 2.31 0 2.96.265 1.719.845 3.257 1.726 4.58a11 11 0 0 0 6.191 4.523c3.283.945 6.911.256 9.67-1.837.636-.483 1.583-1.43 2.066-2.066.603-.796 1.226-1.924 1.553-2.813a11.035 11.035 0 0 0 0-7.734 12.883 12.883 0 0 0-1.108-2.177c-1.81-2.709-4.548-4.422-7.768-4.86C13 1.038 11.574.99 11.28 1.023m2.04 2.078a8.623 8.623 0 0 1 2.66.839 8.747 8.747 0 0 1 4.08 4.08c.653 1.326.917 2.469.917 3.98 0 1.511-.264 2.654-.917 3.98a8.785 8.785 0 0 1-4.067 4.079 8.956 8.956 0 0 1-6.85.472c-.66-.219-1.569-.66-2.114-1.025A8.862 8.862 0 0 1 3.94 15.98c-.653-1.326-.917-2.469-.917-3.98 0-1.511.264-2.654.917-3.98a8.747 8.747 0 0 1 4.08-4.08c1.062-.523 2.068-.802 3.3-.915.356-.033 1.589.014 2 .076M11.4 7.044c-1.64.185-3.139 1.245-3.874 2.741-.368.748-.506 1.351-.506 2.215 0 1.061.257 1.915.848 2.815.24.366.951 1.077 1.317 1.317.9.591 1.754.848 2.815.848 1.062 0 1.92-.259 2.815-.848.366-.242 1.075-.951 1.317-1.317.589-.895.848-1.753.848-2.815 0-.448-.02-.714-.073-.96-.208-.973-.63-1.783-1.291-2.477-1.093-1.149-2.62-1.699-4.216-1.519m1.461 2.085c.943.276 1.723 1.054 2.014 2.01.083.273.098.403.098.861 0 .458-.015.588-.098.861a3.073 3.073 0 0 1-2.035 2.025c-.434.135-1.246.135-1.68 0a3.073 3.073 0 0 1-2.035-2.025c-.083-.273-.098-.403-.098-.861 0-.458.015-.588.098-.861a3.042 3.042 0 0 1 2.374-2.099c.333-.06 1.001-.017 1.362.089" fill-rule="evenodd"/></svg>