<svg xmlns="http://www.w3.org/2000/svg" width="24" height="24" fill="none" stroke="currentColor" stroke-width="2" stroke-linecap="round" stroke-linejoin="round" class="icon icon-tabler icons-tabler-outline icon-tabler-percentage-0"><path d="M11.08 2.045A10.098 10.098 0 0 0 6.54 3.63a9.034 9.034 0 0 0-1.621 1.328 9.852 9.852 0 0 0-2.906 7.362c.071 2.119.739 4.008 2.02 5.72.397.53 1.272 1.424 1.767 1.807 1.442 1.114 2.987 1.777 4.8 2.06.647.101 2.153.101 2.8 0 2.238-.35 4.104-1.287 5.662-2.845 1.558-1.558 2.495-3.424 2.845-5.662.101-.647.101-2.153 0-2.8-.283-1.814-.948-3.362-2.06-4.8-.337-.435-1.208-1.306-1.647-1.646-2.067-1.599-4.554-2.336-7.12-2.109m1.654 1.996a7.925 7.925 0 0 1 4.82 2.215 7.979 7.979 0 0 1 1.629 9.243 7.827 7.827 0 0 1-1.687 2.302 7.485 7.485 0 0 1-2.025 1.399 7.941 7.941 0 0 1-6.942 0 7.857 7.857 0 0 1-2.682-2.1c-1.999-2.389-2.407-5.798-1.031-8.6a7.98 7.98 0 0 1 7.104-4.495c.209-.002.575.014.814.036" fill="#000" fill-rule="evenodd" stroke="none"/></svg>