<svg xmlns="http://www.w3.org/2000/svg" width="24" height="24" fill="none" stroke="currentColor" stroke-width="2" stroke-linecap="round" stroke-linejoin="round" class="icon icon-tabler icons-tabler-outline icon-tabler-cube"><path d="M11.46 1.057a2.883 2.883 0 0 0-.857.301c-.359.182-7.035 4.008-7.273 4.169-.385.259-.808.708-.966 1.023a4.618 4.618 0 0 0-.32.922c-.062.297-.061 8.76 0 9.056.16.774.626 1.506 1.216 1.911.088.061 1.789 1.044 3.78 2.185 4.221 2.419 4.083 2.353 4.96 2.354.869.001.735.064 4.96-2.356a307.186 307.186 0 0 0 3.78-2.184c.209-.146.618-.571.767-.798.168-.257.324-.628.416-.991.077-.306.079-.437.068-4.752L21.98 7.46l-.115-.34c-.157-.468-.28-.699-.52-.981a3.12 3.12 0 0 0-.701-.635c-.382-.246-7.044-4.046-7.344-4.189a3.865 3.865 0 0 0-.56-.215 3.54 3.54 0 0 0-1.28-.043m.806 1.979c.144.041 6.655 3.758 6.653 3.798-.001.014-1.558.923-3.46 2.02L12 10.847 8.541 8.854c-1.902-1.097-3.459-2.006-3.46-2.02-.001-.035 6.5-3.755 6.634-3.795.146-.045.402-.046.551-.003m-4.729 7.543 3.463 2v3.995c0 3.18-.01 3.991-.05 3.975-.226-.09-6.524-3.738-6.639-3.846-.311-.292-.29.018-.302-4.297-.007-2.429.003-3.848.027-3.84.021.008 1.597.914 3.501 2.013m12.454 1.831c-.012 4.31.009 4.001-.302 4.293-.115.108-6.413 3.756-6.639 3.846-.04.016-.05-.795-.05-3.975v-3.995l3.47-2.007a309.685 309.685 0 0 1 3.501-2.009c.017-.002.026 1.73.02 3.847" fill="#000" fill-rule="evenodd" stroke="none"/></svg>