<svg xmlns="http://www.w3.org/2000/svg" width="24" height="24" fill="none" stroke="currentColor" stroke-width="2" stroke-linecap="round" stroke-linejoin="round" class="lucide lucide-orbit-icon lucide-orbit"><path d="M10.96 1.043c-2.479.235-4.942 1.388-6.68 3.124-2.12 2.119-3.279 4.882-3.279 7.813 0 1.794.421 3.521 1.244 5.107l.18.346-.091.174a4.22 4.22 0 0 0-.2.493c-.096.284-.108.382-.111.88-.003.481.01.602.091.86a3.086 3.086 0 0 0 2.046 2.046c.434.135 1.246.135 1.68 0a3.086 3.086 0 0 0 2.046-2.046c.135-.434.135-1.246 0-1.68a3.073 3.073 0 0 0-2.025-2.035c-.409-.124-1.217-.142-1.599-.035a1.277 1.277 0 0 1-.25.056c-.06-.061-.419-.916-.555-1.326a9.042 9.042 0 0 1 .461-6.76c1.297-2.641 3.689-4.425 6.63-4.945.685-.122 2.025-.131 2.744-.02.658.102.914.038 1.204-.301.405-.474.255-1.249-.297-1.535-.377-.194-2.19-.315-3.239-.216m7.539.997a3.05 3.05 0 0 0-2.385 2.12c-.135.434-.135 1.246 0 1.68a3.086 3.086 0 0 0 2.046 2.046c.258.081.378.093.86.09.399-.003.617-.022.758-.068a.893.893 0 0 1 .209-.054c.061.061.419.916.556 1.326a9.044 9.044 0 0 1-.46 6.76c-1.352 2.761-3.947 4.612-7.012 5.003-.629.08-1.815.06-2.431-.04-.468-.077-.721-.037-.971.15-.349.263-.493.815-.314 1.207.097.213.399.485.597.538.505.136 1.003.178 2.088.179.961 0 1.166-.011 1.62-.09 3.356-.58 6.027-2.378 7.767-5.227 1.972-3.227 2.097-7.339.328-10.747l-.18-.346.091-.174a4.22 4.22 0 0 0 .2-.493c.096-.284.108-.382.111-.88.003-.481-.01-.602-.091-.86-.306-.982-1.076-1.753-2.025-2.031-.361-.106-1.029-.149-1.362-.089m.811 2.021c.378.112.69.537.69.939 0 .22-.12.51-.278.673-.241.248-.375.305-.722.306-.255.001-.328-.015-.484-.107-.581-.342-.683-1.098-.212-1.569.279-.279.612-.359 1.006-.242m-7.952 4c-1.128.176-2.215.913-2.789 1.892a3.992 3.992 0 0 0 1.943 5.751 3.988 3.988 0 0 0 5.192-2.216 3.963 3.963 0 0 0 .001-2.972 3.978 3.978 0 0 0-3.1-2.458 3.728 3.728 0 0 0-1.247.003m1.165 2.012a2.011 2.011 0 0 1 1.444 1.617c.1.653-.094 1.243-.564 1.714-.401.403-.856.596-1.403.596-.515 0-.962-.178-1.347-.535-1.33-1.236-.464-3.46 1.347-3.46.143 0 .378.031.523.068M5.31 18.061c.378.112.69.537.69.94 0 .33-.216.695-.516.871-.156.091-.23.108-.484.108s-.328-.017-.484-.108c-.581-.342-.683-1.098-.212-1.569.279-.279.612-.359 1.006-.242" fill-rule="evenodd" fill="#000" stroke="none"/></svg>