<svg xmlns="http://www.w3.org/2000/svg" width="24" height="24" fill="none" stroke="currentColor" stroke-width="2" stroke-linecap="round" stroke-linejoin="round" class="lucide lucide-origami-icon lucide-origami"><path d="M12.48 2.073a2.034 2.034 0 0 0-1.419 1.429c-.052.2-.061.662-.061 3.155v2.921L8.61 7.196C7.161 5.751 6.149 4.773 6.038 4.71c-.372-.212-.658-.279-1.122-.264-.406.014-.438.022-.772.187-.41.204-.705.477-.891.828-.259.489-.253.405-.252 3.885 0 3.425.001 3.434.225 3.974.189.453.402.716 1.408 1.73l.982.99H4.575c-1.127 0-1.293.023-1.655.23a1.95 1.95 0 0 0-.938 1.141 2.017 2.017 0 0 0 .332 1.861c.126.162 2.786 2.306 3.064 2.469.105.062.311.146.456.186.251.069.583.073 6.613.073 4.481 0 6.411-.013 6.561-.044.506-.106.669-.223 1.573-1.131.901-.905.981-1.015 1.12-1.545.085-.326.059-.77-.066-1.104-.066-.178-4.633-8.372-5.038-9.039l-.075-.123 1.889-1.615c2.07-1.771 2.413-2.083 2.586-2.356.176-.279.283-.677.283-1.057a1.845 1.845 0 0 0-.397-1.188 2.018 2.018 0 0 0-1.22-.755c-.159-.029-1.342-.042-3.58-.041-3.012.002-3.369.009-3.603.071m6.759 1.981c-.282.263-3.68 3.146-3.705 3.145-.028-.002-.827-1.403-1.646-2.887L13.715 4h2.791c2.357 0 2.782.008 2.733.054M15.49 19.99l-3.069.011-3.613-3.611c-2.079-2.076-3.65-3.678-3.701-3.77-.087-.16-.087-.161-.098-3.18l-.01-3.02 6.78 6.78 6.781 6.78-3.07.01m.52-7.81 2.978 5.3c.07.124-.839-.759-2.943-2.86L13 11.58l.002-2.38c.001-2.216.006-2.372.066-2.26.036.066 1.359 2.424 2.942 5.24M8.6 19.02l.979.98H6.35l-1.185-.946c-.652-.52-1.202-.961-1.223-.98-.021-.019.777-.034 1.82-.034h1.859l.979.98" fill-rule="evenodd" fill="#000" stroke="none"/></svg>