<svg xmlns="http://www.w3.org/2000/svg" width="24" height="24" fill="none" stroke="currentColor" stroke-width="2" stroke-linecap="round" stroke-linejoin="round" class="icon icon-tabler icons-tabler-outline icon-tabler-palette"><path d="M11.08 2.042c-1.915.184-3.72.906-5.28 2.112-.795.615-1.785 1.73-2.33 2.626-1.364 2.24-1.804 4.963-1.21 7.48a9.829 9.829 0 0 0 2.659 4.782c.98.982 1.978 1.658 3.209 2.174a9.646 9.646 0 0 0 3.552.771c.784.026 1.018-.01 1.463-.227.268-.13.698-.502.872-.752.13-.188.321-.643.361-.862a2.559 2.559 0 0 0-.073-1.129c-.165-.521-.453-.9-.93-1.224a1.018 1.018 0 0 1-.273-.32.992.992 0 0 1 .601-1.428c.103-.029.695-.045 1.689-.045 1.936 0 2.365-.056 3.337-.437 1.715-.672 2.931-2.14 3.219-3.883.046-.281.057-.536.041-.98-.047-1.272-.346-2.381-.963-3.563C19.618 4.444 16.75 2.534 13.46 2.1c-.583-.077-1.86-.108-2.38-.058m2.235 2.057c3.342.485 6.001 2.807 6.565 5.732.123.635.146 1.275.062 1.689-.187.927-.909 1.752-1.886 2.159-.692.288-.722.292-2.776.322-2.053.03-2.064.032-2.613.303-.361.178-.592.35-.888.662a2.565 2.565 0 0 0-.616.979c-.304.836-.26 1.591.141 2.409.195.398.585.858.925 1.092.146.1.171.138.171.256 0 .237-.103.298-.502.298-1.639 0-3.425-.623-4.798-1.675-.353-.27-.91-.815-1.253-1.225-1.999-2.389-2.407-5.798-1.031-8.6a8.009 8.009 0 0 1 6.391-4.46c.449-.047 1.597-.015 2.108.059M11.94 5.574c-.451.149-.898.489-1.14.867-.388.604-.39 1.512-.003 2.114a1.99 1.99 0 0 0 1.703.937c.552 0 .969-.166 1.369-.544.43-.407.619-.848.619-1.448 0-.81-.417-1.457-1.168-1.816-.284-.136-.324-.144-.76-.153-.298-.006-.516.009-.62.043m-4 3c-.451.149-.898.489-1.14.867-.388.604-.39 1.512-.003 2.114a1.99 1.99 0 0 0 1.703.937c.552 0 .969-.166 1.369-.544.43-.407.619-.848.619-1.448 0-.81-.417-1.457-1.168-1.816-.284-.136-.324-.144-.76-.153-.298-.006-.516.009-.62.043m8 0c-.451.149-.898.489-1.14.867-.388.604-.39 1.512-.003 2.114a1.99 1.99 0 0 0 1.703.937c.552 0 .969-.166 1.369-.544.43-.407.619-.848.619-1.448 0-.81-.417-1.457-1.168-1.816-.284-.136-.324-.144-.76-.153-.298-.006-.516.009-.62.043" fill="#000" fill-rule="evenodd" stroke="none"/></svg>