<svg xmlns="http://www.w3.org/2000/svg" width="24" height="24" fill="none" stroke="currentColor" stroke-width="2" stroke-linecap="round" stroke-linejoin="round" class="lucide lucide-pencil-ruler-icon lucide-pencil-ruler"><path d="M6.466 1.039a3.737 3.737 0 0 0-1.386.554c-.243.158-3.013 2.885-3.319 3.267a3.399 3.399 0 0 0 .001 4.28c.106.132 1.013 1.059 2.015 2.059l1.821 1.819-1.414 1.421L2.77 15.86l-.182.38c-.127.267-.386 1.056-.874 2.66-.666 2.188-.694 2.294-.694 2.62 0 .288.018.377.112.58.148.317.455.625.764.765.204.093.3.111.584.113.329.002.417-.021 2.62-.693 2.27-.692 2.68-.838 3.047-1.089.106-.072.792-.725 1.524-1.452l1.331-1.32 1.909 1.901c1.05 1.046 1.999 1.965 2.109 2.043a3.396 3.396 0 0 0 4.105-.121c.373-.301 3.053-2.999 3.243-3.267a3.43 3.43 0 0 0 0-3.96c-.078-.11-.997-1.059-2.043-2.109l-1.902-1.91 1.822-1.83c1.002-1.007 1.898-1.935 1.991-2.063 1.135-1.554.983-3.646-.363-4.98C20.504.771 18.406.631 16.86 1.794c-.132.099-1.055.991-2.05 1.981L13 5.577l-1.93-1.921C8.875 1.472 8.763 1.381 7.932 1.138c-.389-.115-1.111-.163-1.466-.099m1.152 2.118c.166.082.355.233.601.481l.359.361-.704.711c-.388.39-.738.773-.778.85-.053.1-.075.227-.075.44-.001.258.015.327.112.492.13.222.369.409.603.473.203.054.531.024.709-.066.074-.038.455-.386.846-.773l.71-.704.787.786.787.787-1.245 1.272c-.685.7-1.71 1.737-2.278 2.303L7.019 11.6 5.131 9.71C2.969 7.545 3.022 7.613 3.022 7c0-.597 0-.598 1.65-2.253.785-.788 1.508-1.48 1.605-1.538a1.401 1.401 0 0 1 1.341-.052m11.95-.112c.502.107.995.485 1.223.939a1.8 1.8 0 0 1-.001 1.676c-.094.189-.296.418-.954 1.08l-.834.84-1.291-1.291-1.291-1.291.84-.834c.878-.871 1.051-1.001 1.48-1.108.258-.063.561-.068.828-.011M16.3 7.72 17.58 9l-5.258 5.258c-3.663 3.663-5.313 5.287-5.44 5.354-.208.11-3.553 1.13-3.589 1.095-.024-.025.94-3.25 1.055-3.527.05-.12 1.377-1.473 5.348-5.45C12.602 8.82 14.988 6.44 15 6.44c.011 0 .596.576 1.3 1.28m1.499 5.499.779.78-.704.71c-.388.391-.738.774-.778.851-.053.1-.075.227-.075.44-.001.258.015.327.112.492.13.222.369.409.603.473.203.054.531.024.709-.066.074-.038.455-.385.845-.773l.711-.704.361.359c.489.485.618.74.618 1.218 0 .595-.004.6-1.632 2.235-.774.778-1.498 1.472-1.608 1.543a1.352 1.352 0 0 1-1.51-.012c-.094-.066-.989-.939-1.99-1.942L12.42 17l2.28-2.28a187.994 187.994 0 0 1 2.3-2.28c.012 0 .371.351.799.779" fill-rule="evenodd" fill="#000" stroke="none"/></svg>