<svg xmlns="http://www.w3.org/2000/svg" width="24" height="24" fill="none" stroke="currentColor" stroke-width="2" stroke-linecap="round" stroke-linejoin="round" class="lucide lucide-camera-off-icon lucide-camera-off"><path d="M1.67 1.061c-.222.081-.42.248-.542.455-.092.156-.108.229-.107.484 0 .212.022.341.074.44.04.077.838.907 1.773 1.844l1.699 1.705-.553.021c-.418.017-.633.046-.875.117-.953.283-1.719 1.052-2.025 2.033l-.094.3v10.08l.094.3c.304.976 1.035 1.714 2.026 2.046l.28.094 8.08.011 8.079.01.921.915c.506.503.983.948 1.06.989.099.052.227.074.44.074.258.001.327-.015.492-.112.476-.28.647-.9.373-1.359-.055-.092-4.65-4.715-10.212-10.273C3.3 1.889 2.525 1.125 2.343 1.065a1.015 1.015 0 0 0-.673-.004m7.875 1.98c-.863.15-1.146 1.247-.456 1.773.255.195.234.193 2.691.188 2.613-.005 2.618-.005 2.892.271.081.082.263.365.404.628.543 1.016.919 1.436 1.57 1.755.627.308.675.315 2.234.341 1.549.027 1.547.026 1.837.324.296.305.283.111.283 4.372 0 2.818.012 3.839.048 3.956.067.225.354.53.579.616.235.09.511.09.746 0 .234-.09.518-.397.583-.633.036-.129.045-1.175.036-4.192l-.012-4.02-.094-.28c-.33-.984-1.074-1.724-2.025-2.016-.307-.094-.383-.099-1.721-.121-1.838-.03-1.706.029-2.283-1.025a9.99 9.99 0 0 0-.443-.746 3.18 3.18 0 0 0-1.07-.893c-.665-.326-.545-.314-3.224-.323-1.309-.005-2.468.006-2.575.025m-1.79 6.134L8.97 10.39l-.162.205c-.346.438-.625 1.074-.748 1.705-.098.5-.065 1.214.079 1.74a4.003 4.003 0 0 0 2.841 2.827c.356.097.468.11 1.02.11.516 0 .675-.015.947-.088.594-.162 1.035-.38 1.608-.798.059-.043.257.14 1.546 1.43l1.479 1.48-6.94-.011-6.94-.01-.184-.108a1.199 1.199 0 0 1-.291-.249C2.989 18.314 3 18.562 3 13.522c0-5.183-.016-4.892.283-5.201.289-.297.294-.298 1.777-.323a65.772 65.772 0 0 0 1.4-.03c.058-.006.427.339 1.295 1.207m4.045 4.047c1.327 1.329 1.377 1.384 1.3 1.444-.115.09-.407.218-.64.28-.582.155-1.308-.03-1.777-.451-.449-.404-.651-.857-.658-1.475-.004-.295.014-.455.069-.612.081-.234.258-.568.3-.568.014 0 .647.622 1.406 1.382" fill-rule="evenodd" fill="#000" stroke="none"/></svg>