<svg xmlns="http://www.w3.org/2000/svg" width="24" height="24" fill="none" stroke="currentColor" stroke-width="2" stroke-linecap="round" stroke-linejoin="round" class="icon icon-tabler icons-tabler-outline icon-tabler-camera"><path d="M8.477 3.073c-.671.176-1.239.75-1.417 1.435-.033.126-.06.312-.06.414 0 .41-.189.758-.516.95-.181.106-.198.108-1.104.133-.811.022-.958.036-1.241.121A3.068 3.068 0 0 0 2.114 8.16l-.094.3v10.08l.094.3a3.086 3.086 0 0 0 2.046 2.046l.3.094h15.08l.3-.094a3.086 3.086 0 0 0 2.046-2.046l.094-.3V8.46l-.094-.3a3.068 3.068 0 0 0-2.025-2.034c-.283-.085-.43-.099-1.241-.121-.906-.025-.923-.027-1.104-.133a1.056 1.056 0 0 1-.517-.907c0-.252-.098-.646-.218-.882-.135-.267-.484-.634-.764-.802-.469-.282-.381-.276-4.017-.276-2.953 0-3.285.006-3.523.068m6.539 2.229c.107 1.178.954 2.207 2.124 2.579.241.077.408.093 1.2.116 1.037.031 1.108.047 1.377.324.299.309.283.021.283 5.18 0 5 .008 4.817-.221 5.117-.061.08-.194.195-.295.254l-.184.108H4.7l-.184-.108a1.199 1.199 0 0 1-.291-.249C3.989 18.314 4 18.562 4 13.522c0-5.183-.016-4.892.283-5.201.269-.277.34-.293 1.377-.324.792-.023.959-.039 1.2-.116 1.17-.372 2.017-1.401 2.124-2.579L9.011 5h5.978l.027.302m-3.658 3.759c-1.128.176-2.215.913-2.789 1.892a3.992 3.992 0 0 0 1.943 5.751 3.988 3.988 0 0 0 5.192-2.216 3.963 3.963 0 0 0 .001-2.972 3.978 3.978 0 0 0-3.1-2.458 3.728 3.728 0 0 0-1.247.003m1.165 2.012a2.011 2.011 0 0 1 1.444 1.617c.1.653-.094 1.243-.564 1.714-.401.403-.856.596-1.403.596-.515 0-.962-.178-1.347-.535-1.33-1.236-.464-3.46 1.347-3.46.143 0 .378.031.523.068" fill="#000" fill-rule="evenodd" stroke="none"/></svg>