<svg xmlns="http://www.w3.org/2000/svg" width="24" height="24" fill="none" stroke="currentColor" stroke-width="2" stroke-linecap="round" stroke-linejoin="round" class="icon icon-tabler icons-tabler-outline icon-tabler-pin"><path d="M14.24 3.035c-.3.098-.552.32-.661.582a1.2 1.2 0 0 0-.019.722l.05.151-1.573 1.573-1.572 1.573-2.003.749-2.002.749-.834.823c-.458.453-.883.895-.945.983-.216.312-.229.784-.03 1.08.044.066.721.764 1.505 1.55L7.58 15l-1.925 1.93c-1.058 1.062-1.96 1.984-2.004 2.05-.278.413-.141 1.044.289 1.34.298.205.8.22 1.077.032.068-.046.991-.949 2.053-2.007L9 16.42l1.43 1.424c.786.784 1.485 1.462 1.551 1.507.278.188.782.174 1.074-.029.232-.162 1.764-1.717 1.834-1.862.032-.066.378-.978.77-2.026l.712-1.906 1.57-1.569 1.569-1.569.151.05a1.2 1.2 0 0 0 .722-.019c.347-.144.616-.547.616-.921 0-.414.035-.375-3.052-3.458-1.631-1.628-2.926-2.89-3.011-2.934-.165-.085-.54-.124-.696-.073m2.32 4.425L18.099 9l-1.743 1.75-1.744 1.75-.73 1.96-.73 1.96-.326.33-.326.33-2.791-2.791-2.79-2.79.331-.325.33-.325 1.96-.731 1.96-.73 1.74-1.734c.957-.953 1.749-1.734 1.76-1.734.011 0 .713.693 1.56 1.54" fill="#000" fill-rule="evenodd" stroke="none"/></svg>