<svg xmlns="http://www.w3.org/2000/svg" width="24" height="24" fill="none" stroke="currentColor" stroke-width="2" stroke-linecap="round" stroke-linejoin="round" class="lucide lucide-rewind-icon lucide-rewind"><path d="M9.6 3.024a3.6 3.6 0 0 0-1.349.539c-.216.146-5.971 5.865-6.454 6.414-.348.396-.542.732-.683 1.183-.081.258-.094.379-.091.86.003.488.016.6.105.867.143.432.341.766.686 1.156.58.657 6.239 6.261 6.496 6.433.468.313.959.477 1.531.512.534.032.941-.055 1.479-.315.364-.176.466-.249.764-.548.487-.49.736-.948.856-1.579.047-.242.06-.648.06-1.798v-1.485l2.53 2.522c1.591 1.587 2.623 2.585 2.78 2.69.468.314.959.478 1.531.513.534.032.941-.055 1.479-.315.364-.176.466-.249.764-.548.487-.49.736-.948.856-1.579.091-.474.09-12.619 0-13.096-.12-.629-.362-1.08-.837-1.554-.322-.323-.416-.39-.785-.568-.543-.261-.752-.309-1.338-.305-.669.004-1.163.159-1.729.541-.105.071-1.329 1.264-2.721 2.651L13 8.737V7.253c0-1.594-.028-1.9-.212-2.337-.196-.468-.325-.661-.683-1.018-.306-.306-.426-.395-.745-.553a4.457 4.457 0 0 0-.6-.248c-.222-.06-.974-.108-1.16-.073m.717 2.039c.15.044.261.114.383.239.324.333.3-.197.3 6.698 0 6.89.023 6.365-.297 6.695a.98.98 0 0 1-1.147.193c-.127-.062-1.047-.958-3.303-3.217-3.034-3.038-3.128-3.137-3.19-3.348-.079-.272-.079-.374 0-.646.062-.211.154-.307 3.23-3.384C9.26 5.326 9.473 5.122 9.66 5.066a.957.957 0 0 1 .657-.003m10 0c.15.044.261.114.383.239.324.333.3-.197.3 6.698 0 6.89.023 6.365-.297 6.695a.98.98 0 0 1-1.147.193c-.127-.062-1.047-.958-3.303-3.217-3.034-3.038-3.128-3.137-3.19-3.348-.079-.272-.079-.374 0-.646.062-.211.154-.307 3.23-3.384 2.967-2.967 3.18-3.171 3.367-3.227a.957.957 0 0 1 .657-.003" fill-rule="evenodd" fill="#000" stroke="none"/></svg>