<svg xmlns="http://www.w3.org/2000/svg" width="24" height="24" fill="none" stroke="currentColor" stroke-width="2" stroke-linecap="round" stroke-linejoin="round" class="icon icon-tabler icons-tabler-outline icon-tabler-player-track-next"><path d="M2.667 4.065c-.252.077-.512.335-.601.595-.06.178-.066.792-.064 7.357.001 5.879.011 7.19.055 7.313a1 1 0 0 0 1.258.612c.18-.06.741-.537 4.344-3.688 4.599-4.024 4.321-3.75 4.32-4.274 0-.223-.02-.315-.099-.453-.072-.127-1.139-1.084-4.036-3.62a675.716 675.716 0 0 0-4.172-3.635c-.339-.274-.607-.329-1.005-.207m11 0c-.252.077-.512.335-.601.595-.06.178-.066.792-.064 7.357.001 5.879.011 7.19.055 7.313a1 1 0 0 0 1.258.612c.18-.06.741-.537 4.344-3.688 4.599-4.024 4.321-3.75 4.32-4.274 0-.223-.02-.315-.099-.453-.072-.127-1.139-1.084-4.036-3.62a675.716 675.716 0 0 0-4.172-3.635c-.339-.274-.607-.329-1.005-.207M6.74 9.603c1.485 1.299 2.7 2.378 2.7 2.397 0 .034-5.381 4.76-5.42 4.76-.011 0-.02-2.142-.02-4.76s.009-4.76.02-4.76c.012 0 1.236 1.063 2.72 2.363m11 0c1.485 1.299 2.7 2.378 2.7 2.397 0 .034-5.381 4.76-5.42 4.76-.011 0-.02-2.142-.02-4.76s.009-4.76.02-4.76c.012 0 1.236 1.063 2.72 2.363" fill="#000" fill-rule="evenodd" stroke="none"/></svg>