<svg xmlns="http://www.w3.org/2000/svg" width="24" height="24" fill="none" stroke="currentColor" stroke-width="2" stroke-linecap="round" stroke-linejoin="round" class="icon icon-tabler icons-tabler-outline icon-tabler-player-skip-forward"><path d="M3.643 4.069a1.118 1.118 0 0 0-.343.229c-.325.325-.3-.325-.298 7.719.002 7.742-.011 7.307.215 7.602.226.298.7.452 1.047.341.271-.086 12.3-7.118 12.462-7.285.387-.399.339-1.124-.097-1.448-.261-.194-12.155-7.106-12.331-7.165a.935.935 0 0 0-.655.007m16.052-.012a1.04 1.04 0 0 0-.567.459l-.108.184v14.606l.121.197a.998.998 0 0 0 1.718 0l.121-.197V4.7l-.108-.184a1.005 1.005 0 0 0-1.177-.459M9.424 9.323c2.418 1.41 4.438 2.59 4.489 2.623.091.058-.058.149-4.393 2.677a785.892 785.892 0 0 1-4.503 2.617C5.008 17.24 5 14.882 5 12s.007-5.24.014-5.24c.008 0 1.993 1.153 4.41 2.563" fill="#000" fill-rule="evenodd" stroke="none"/></svg>