<svg xmlns="http://www.w3.org/2000/svg" width="24" height="24" fill="none" stroke="currentColor" stroke-width="2" stroke-linecap="round" stroke-linejoin="round" class="icon icon-tabler icons-tabler-outline icon-tabler-player-pause"><path d="M6.477 4.073c-.671.176-1.239.75-1.417 1.435C5.008 5.706 5 6.577 5 12c0 6.828-.012 6.462.225 6.93.136.269.576.709.845.845.409.207.562.225 1.93.225 1.368 0 1.521-.018 1.93-.225.266-.135.708-.575.841-.838.241-.475.229-.107.228-6.923 0-6.767.009-6.485-.218-6.931-.23-.455-.759-.88-1.258-1.01-.389-.101-2.657-.101-3.046 0m8 0c-.671.176-1.239.75-1.417 1.435C13.008 5.706 13 6.577 13 12c0 6.828-.012 6.462.225 6.93.136.269.576.709.845.845.409.207.562.225 1.93.225 1.368 0 1.521-.018 1.93-.225.266-.135.708-.575.841-.838.241-.475.229-.107.228-6.923 0-6.767.009-6.485-.218-6.931-.23-.455-.759-.88-1.258-1.01-.389-.101-2.657-.101-3.046 0M9 12v6H7V6h2v6m8 0v6h-2V6h2v6" fill="#000" fill-rule="evenodd" stroke="none"/></svg>