<svg xmlns="http://www.w3.org/2000/svg" width="24" height="24" fill="none" stroke="currentColor" stroke-width="2" stroke-linecap="round" stroke-linejoin="round" class="lucide lucide-fast-forward"><path d="M3.503 3.04c-.302.054-.572.152-.923.332-.447.229-1.018.801-1.227 1.228-.181.371-.259.603-.311.928-.057.347-.057 12.597 0 12.944.104.642.348 1.113.838 1.612.343.349.421.407.8.59.857.413 1.703.43 2.57.052.441-.193.719-.447 3.22-2.941L11 15.263v1.478c.001 1.813.023 1.981.354 2.657.112.228.236.39.526.686.343.349.421.407.8.59.538.259.947.346 1.479.314a2.984 2.984 0 0 0 1.531-.512c.257-.172 5.916-5.776 6.496-6.433.345-.39.543-.724.687-1.156.09-.273.102-.372.102-.887s-.012-.614-.102-.887c-.144-.432-.342-.766-.686-1.156-.478-.541-6.228-6.252-6.438-6.393-.567-.383-1.061-.537-1.729-.541-.586-.004-.795.044-1.34.306-.377.181-.459.241-.8.587-.293.297-.413.453-.527.684-.33.675-.352.847-.353 2.658v1.479L8.47 6.215c-1.392-1.387-2.616-2.58-2.721-2.651a3.627 3.627 0 0 0-.945-.449c-.304-.088-1.008-.128-1.301-.075m.949 2.076c.117.057 1.124 1.039 3.295 3.213 3.034 3.038 3.128 3.137 3.19 3.348.079.272.079.374 0 .646-.062.211-.156.31-3.19 3.348-2.256 2.259-3.176 3.155-3.303 3.217a.99.99 0 0 1-1.144-.186c-.324-.323-.3.203-.3-6.702 0-6.911-.024-6.378.303-6.705a1.01 1.01 0 0 1 1.149-.179m10 0c.117.057 1.124 1.039 3.295 3.213 3.034 3.038 3.128 3.137 3.19 3.348.034.12.063.265.063.323 0 .058-.029.203-.063.323-.062.211-.156.31-3.19 3.348-2.256 2.259-3.176 3.155-3.303 3.217a.99.99 0 0 1-1.144-.186c-.324-.323-.3.203-.3-6.702 0-6.911-.024-6.378.303-6.705a1.01 1.01 0 0 1 1.149-.179" fill-rule="evenodd" fill="#000" stroke="none"/></svg>