<svg xmlns="http://www.w3.org/2000/svg" width="24" height="24" fill="none" stroke="currentColor" stroke-width="2" stroke-linecap="round" stroke-linejoin="round" class="icon icon-tabler icons-tabler-outline icon-tabler-player-track-prev"><path d="M9.67 4.057c-.199.071-.012-.088-4.513 3.85-2.898 2.536-3.965 3.493-4.037 3.62-.079.138-.099.23-.099.453-.001.524-.279.25 4.32 4.274 3.603 3.151 4.164 3.628 4.344 3.688a1 1 0 0 0 1.258-.612c.044-.123.054-1.434.055-7.313.002-8.051.028-7.393-.301-7.722a1.016 1.016 0 0 0-1.027-.238m11 0c-.199.071-.012-.088-4.513 3.85-2.898 2.536-3.965 3.493-4.037 3.62-.079.138-.099.23-.099.453-.001.524-.279.25 4.32 4.274 3.603 3.151 4.164 3.628 4.344 3.688a1 1 0 0 0 1.258-.612c.044-.123.054-1.434.055-7.313.002-8.051.028-7.393-.301-7.722a1.016 1.016 0 0 0-1.027-.238M9 12c0 2.618-.009 4.76-.02 4.76-.056 0-5.422-4.735-5.409-4.773.017-.05 5.353-4.739 5.399-4.744C8.986 7.241 9 9.382 9 12m11 0c0 2.618-.009 4.76-.02 4.76-.056 0-5.422-4.735-5.409-4.773.017-.05 5.353-4.739 5.399-4.744.017-.002.03 2.139.03 4.757" fill="#000" fill-rule="evenodd" stroke="none"/></svg>