<svg xmlns="http://www.w3.org/2000/svg" width="24" height="24" fill="none" stroke="currentColor" stroke-width="2" stroke-linecap="round" stroke-linejoin="round" class="icon icon-tabler icons-tabler-outline icon-tabler-player-record"><path d="M11.207 4.043A8.055 8.055 0 0 0 6.9 5.847a7.857 7.857 0 0 0-2.1 2.682 7.94 7.94 0 0 0 .001 6.945 7.632 7.632 0 0 0 1.645 2.267A7.375 7.375 0 0 0 8.529 19.2c2.73 1.319 5.938.984 8.371-.874.339-.259 1.025-.932 1.311-1.286a7.993 7.993 0 0 0 .989-8.511 7.857 7.857 0 0 0-2.1-2.682c-1.617-1.353-3.763-2.01-5.893-1.804m1.357 1.996a5.991 5.991 0 0 1 5.107 4.021c.497 1.457.397 3.191-.261 4.52-.86 1.736-2.354 2.898-4.25 3.305-.606.13-1.714.13-2.32 0-1.899-.407-3.389-1.566-4.25-3.305-.658-1.329-.758-3.063-.261-4.52a5.892 5.892 0 0 1 1.402-2.255 5.918 5.918 0 0 1 4.833-1.766" fill="#000" fill-rule="evenodd" stroke="none"/></svg>