<svg xmlns="http://www.w3.org/2000/svg" width="24" height="24" fill="none" stroke="currentColor" stroke-width="2" stroke-linecap="round" stroke-linejoin="round" class="icon icon-tabler icons-tabler-outline icon-tabler-player-play"><path d="M6.667 3.065c-.252.077-.512.335-.601.595-.061.178-.066.861-.064 8.357.002 8.825-.011 8.306.215 8.602.235.308.708.455 1.07.332.276-.095 13.31-8.127 13.461-8.295.314-.353.33-.889.037-1.273-.075-.098-1.926-1.257-6.734-4.214-3.647-2.243-6.692-4.099-6.767-4.124-.179-.059-.38-.053-.617.02M13.02 8.88c2.728 1.677 4.982 3.068 5.01 3.09.036.028-1.326.886-4.92 3.098a1925.187 1925.187 0 0 1-5.04 3.097c-.067.036-.07-.27-.07-6.166 0-3.412.014-6.196.03-6.186.016.009 2.262 1.389 4.99 3.067" fill="#000" fill-rule="evenodd" stroke="none"/></svg>