<svg xmlns="http://www.w3.org/2000/svg" width="24" height="24" fill="none" stroke="currentColor" stroke-width="2" stroke-linecap="round" stroke-linejoin="round" class="icon icon-tabler icons-tabler-outline icon-tabler-player-skip-back"><path d="M3.695 4.057a1.04 1.04 0 0 0-.567.459L3.02 4.7v14.606l.121.197a.998.998 0 0 0 1.718 0l.121-.197V4.7l-.108-.184a1.005 1.005 0 0 0-1.177-.459m15.996.006c-.17.06-12.078 6.984-12.32 7.164-.436.324-.484 1.049-.097 1.448.162.167 12.191 7.199 12.462 7.285.347.111.821-.043 1.047-.341.226-.295.213.14.215-7.602.002-8.051.028-7.393-.301-7.722a.964.964 0 0 0-1.006-.232M19 12c0 2.882-.008 5.24-.017 5.24-.01 0-2.037-1.178-4.505-2.618L9.99 12.004l.175-.105c.638-.383 8.781-5.132 8.805-5.135.017-.002.03 2.354.03 5.236" fill="#000" fill-rule="evenodd" stroke="none"/></svg>