<svg xmlns="http://www.w3.org/2000/svg" width="24" height="24" fill="none" stroke="currentColor" stroke-width="2" stroke-linecap="round" stroke-linejoin="round" class="lucide lucide-play-icon lucide-play"><path d="M6.46 2.057c-1.104.218-1.935.943-2.304 2.01l-.136.393-.011 7.432c-.011 8.166-.027 7.611.231 8.254.316.79.977 1.404 1.825 1.697.374.129.424.136.935.135.919-.002.451.24 7.4-3.815 3.333-1.945 6.159-3.603 6.28-3.685a3.06 3.06 0 0 0 1.162-1.543c.129-.374.136-.424.136-.935-.001-.501-.01-.568-.13-.926a3.093 3.093 0 0 0-1.225-1.59C20.146 9.177 8.535 2.425 8.26 2.295a3.557 3.557 0 0 0-.52-.194c-.348-.09-.946-.11-1.28-.044m.824 1.989c.075.025 2.872 1.641 6.215 3.59 4.071 2.373 6.128 3.594 6.227 3.695a.97.97 0 0 1-.002 1.34c-.101.104-2.089 1.285-6.204 3.685-3.33 1.943-6.126 3.558-6.212 3.588a.958.958 0 0 1-1.005-.247C5.974 19.368 6 20.025 6 12c0-8.026-.026-7.368.304-7.697.267-.268.651-.368.98-.257" fill-rule="evenodd" fill="#000" stroke="none"/></svg>