<svg xmlns="http://www.w3.org/2000/svg" width="24" height="24" fill="none" stroke="currentColor" stroke-width="2" stroke-linecap="round" stroke-linejoin="round" class="lucide lucide-plug2-icon lucide-plug-2"><path d="M8.695 1.057a1.04 1.04 0 0 0-.567.459L8.02 1.7l-.011 2.65L7.998 7H6.445c-1.687 0-1.787.011-2.063.221-.08.061-.195.194-.254.295-.092.156-.108.23-.108.487 0 .268.014.326.121.5.146.237.436.443.676.479l.175.026.02 1.406c.022 1.451.042 1.667.224 2.372.621 2.414 2.614 4.387 5.039 4.991.212.053.461.108.554.123l.168.027.012 2.189.011 2.19.121.197c.305.496.936.641 1.407.325.106-.072.243-.215.311-.325l.121-.197.011-2.19.012-2.189.168-.027a7.492 7.492 0 0 0 1.209-.327 6.987 6.987 0 0 0 4.193-4.193c.343-.952.39-1.29.415-2.966l.02-1.406.175-.026c.24-.036.53-.242.676-.479.107-.174.121-.232.121-.5 0-.257-.016-.331-.108-.487a1.209 1.209 0 0 0-.254-.295c-.276-.21-.376-.221-2.063-.221h-1.553l-.011-2.65-.011-2.65-.109-.186a1.01 1.01 0 0 0-1.742 0l-.109.186-.011 2.65L13.998 7h-3.996l-.011-2.65L9.98 1.7l-.108-.184a1.005 1.005 0 0 0-1.177-.459M17 10.082c0 1.153-.039 1.677-.161 2.158a5.063 5.063 0 0 1-2.627 3.236c-.745.366-1.35.504-2.212.504-.67 0-1.044-.058-1.6-.248a5.04 5.04 0 0 1-3.238-3.492C7.039 11.76 7 11.237 7 10.082V9h10v1.082" fill-rule="evenodd" fill="#000" stroke="none"/></svg>