<svg xmlns="http://www.w3.org/2000/svg" width="24" height="24" fill="none" stroke="currentColor" stroke-width="2" stroke-linecap="round" stroke-linejoin="round" class="lucide lucide-unplug-icon lucide-unplug"><path d="M21.64 1.069c-.15.052-.388.269-1.41 1.284l-1.229 1.222-.391-.379c-.449-.437-.621-.575-.935-.752a3.389 3.389 0 0 0-3.815.318c-.357.286-2.68 2.636-2.765 2.798-.102.194-.102.686 0 .88.1.192 6.199 6.298 6.425 6.433.153.091.225.107.48.106.213 0 .341-.022.44-.074.175-.092 2.484-2.38 2.807-2.78.723-.899.948-2.121.586-3.179-.206-.603-.448-.967-1.047-1.576L20.422 5l1.204-1.21c.663-.665 1.238-1.273 1.279-1.35.052-.099.074-.227.074-.44.001-.255-.015-.328-.107-.484a1.014 1.014 0 0 0-1.232-.447m-5.031 3.083c.216.107.453.327 1.699 1.576 1.673 1.678 1.672 1.676 1.672 2.273 0 .559-.082.684-1.119 1.719l-.861.86-2.29-2.29L13.42 6l.84-.842c1.057-1.061 1.231-1.171 1.809-1.144.224.011.345.042.54.138M9.64 10.069c-.147.051-.36.241-1.16 1.034l-.98.971-.486-.474c-.419-.409-.515-.483-.697-.537-.266-.079-.369-.079-.64.001-.204.061-.289.136-1.452 1.29-1.563 1.551-1.764 1.8-2.027 2.501a3.422 3.422 0 0 0 0 2.29c.214.571.436.895 1.016 1.485l.364.37-1.204 1.21c-.663.665-1.236 1.271-1.273 1.345-.229.454-.045 1.046.407 1.312.165.097.234.113.492.112.213 0 .341-.022.44-.074.077-.041.685-.616 1.35-1.279L5 20.422l.37.364c.609.599.973.841 1.576 1.047 1.058.362 2.28.137 3.179-.586.4-.323 2.688-2.632 2.78-2.807.052-.099.074-.227.074-.44.001-.391-.079-.526-.636-1.079l-.423-.419.956-.961c.525-.529.988-1.024 1.029-1.101.052-.099.074-.227.074-.44.001-.255-.015-.328-.107-.484a1.001 1.001 0 0 0-1.215-.45c-.171.058-.328.196-1.178 1.039l-.982.973-.788-.789-.789-.79.923-.919c.507-.506.971-1.001 1.03-1.1.091-.152.107-.226.107-.48s-.017-.328-.108-.484a1.014 1.014 0 0 0-1.232-.447M8.3 15.72 10.58 18l-.82.823c-.451.453-.896.877-.99.942a1.384 1.384 0 0 1-1.54 0c-.094-.065-.804-.755-1.578-1.532C4.024 16.599 4.02 16.594 4.02 16c0-.56.063-.658 1.091-1.69.477-.478.876-.87.888-.87.012 0 1.047 1.026 2.301 2.28" fill-rule="evenodd" fill="#000" stroke="none"/></svg>