<svg xmlns="http://www.w3.org/2000/svg" width="24" height="24" fill="none" stroke="currentColor" stroke-width="2" stroke-linecap="round" stroke-linejoin="round" class="lucide lucide-cable-icon lucide-cable"><path d="M2.695 2.057a1.04 1.04 0 0 0-.567.459c-.106.181-.108.199-.121.973l-.013.788-.135.083c-.211.131-.541.517-.664.777-.189.399-.203.552-.186 2.055.015 1.316.02 1.402.107 1.668.386 1.179 1.404 2.017 2.581 2.124l.3.027.012 3.584.012 3.585.106.383c.467 1.699 1.623 2.854 3.31 3.308.341.092.458.103 1.063.103s.722-.011 1.063-.103c1.687-.454 2.842-1.608 3.311-3.308l.105-.383L13 12.1c.02-5.761.025-6.092.094-6.3.428-1.28 1.65-2.007 2.926-1.74a2.502 2.502 0 0 1 1.695 1.302c.29.589.284.492.284 4.263L18 12.99l-.286.028c-1.209.119-2.21.936-2.598 2.122-.087.266-.092.352-.107 1.668-.017 1.503-.003 1.656.186 2.055.12.254.434.624.66.779l.139.096.013.784.013.785.121.196a.998.998 0 0 0 1.718 0c.12-.195.121-.203.134-.85l.014-.653h1.986l.014.653c.013.647.014.655.134.85a.998.998 0 0 0 1.718 0l.121-.196.013-.785.013-.784.139-.096c.203-.139.525-.505.634-.72.212-.419.228-.579.212-2.1-.015-1.331-.02-1.416-.107-1.682a3.138 3.138 0 0 0-.973-1.445 2.97 2.97 0 0 0-1.625-.677L20 12.99V9.56c0-3.759-.001-3.772-.241-4.489-.665-1.985-2.646-3.261-4.714-3.037a4.448 4.448 0 0 0-2.188.837c-.782.582-1.319 1.313-1.616 2.2-.25.745-.241.494-.242 6.864 0 6.46.014 6.098-.276 6.685a2.53 2.53 0 0 1-1.403 1.248c-.268.097-.355.108-.82.108-.465 0-.552-.011-.82-.108a2.53 2.53 0 0 1-1.403-1.248c-.281-.567-.276-.487-.276-4.244L6 11.011l.302-.027c1.178-.107 2.196-.944 2.582-2.124.087-.265.092-.352.107-1.66.017-1.503-.004-1.712-.208-2.115-.116-.228-.451-.606-.642-.725l-.135-.083-.013-.788c-.013-.777-.015-.792-.122-.975a1.01 1.01 0 0 0-1.742 0c-.105.179-.11.212-.122.836L5.993 4H4.007l-.014-.65c-.012-.622-.018-.658-.121-.834a1.005 1.005 0 0 0-1.177-.459M7 7.054c0 1.149-.022 1.302-.221 1.564-.061.08-.194.195-.295.254L6.3 8.98H3.7l-.184-.108a1.199 1.199 0 0 1-.291-.249C3.016 8.349 3 8.241 3 7.075V6h4v1.054m13.31 8.007a.893.893 0 0 1 .387.242c.281.281.303.4.303 1.644V18h-4v-1.053c0-1.242.022-1.363.301-1.641.286-.287.355-.299 1.662-.303.913-.002 1.184.009 1.347.058" fill-rule="evenodd" fill="#000" stroke="none"/></svg>