<svg xmlns="http://www.w3.org/2000/svg" width="24" height="24" fill="none" stroke="currentColor" stroke-width="2" stroke-linecap="round" stroke-linejoin="round" class="lucide lucide-plug-zap-icon lucide-plug-zap"><path d="M17.64 2.068c-.154.053-.489.37-2.293 2.167-1.181 1.176-2.16 2.184-2.22 2.285-.09.152-.107.226-.107.48s.017.328.108.484c.059.101.172.232.249.291.292.223.314.225 2.337.225h1.864l-1.204 1.21c-.663.666-1.238 1.273-1.279 1.35-.052.099-.074.227-.074.44-.001.258.015.327.112.492.28.476.899.646 1.359.374.092-.055 1.115-1.051 2.273-2.213 1.979-1.987 2.109-2.126 2.175-2.328.178-.548-.108-1.107-.65-1.27-.143-.043-.579-.055-2.025-.055h-1.843l1.204-1.21c.663-.665 1.238-1.273 1.279-1.35.052-.099.074-.227.074-.44.001-.255-.015-.328-.107-.484a1.016 1.016 0 0 0-1.232-.448m-8 8.001c-.147.051-.36.241-1.16 1.034l-.98.971-.486-.474c-.419-.409-.515-.483-.697-.537-.266-.079-.369-.079-.64.001-.204.061-.289.136-1.452 1.29-1.563 1.551-1.764 1.8-2.027 2.501a3.422 3.422 0 0 0 0 2.29c.214.571.436.895 1.016 1.485l.364.37-1.204 1.21c-.663.665-1.236 1.271-1.273 1.345-.229.454-.045 1.046.407 1.312.165.097.234.113.492.112.213 0 .341-.022.44-.074.077-.041.685-.616 1.35-1.279L5 20.422l.37.364c.609.599.973.841 1.576 1.047 1.058.362 2.28.137 3.179-.586.4-.323 2.688-2.632 2.78-2.807.052-.099.074-.227.074-.44.001-.391-.079-.526-.636-1.079l-.423-.419.956-.961c.525-.529.988-1.024 1.029-1.101.052-.099.074-.227.074-.44.001-.255-.015-.328-.107-.484a1.001 1.001 0 0 0-1.215-.45c-.171.058-.328.196-1.178 1.039l-.982.973-.788-.789-.789-.79.923-.919c.507-.506.971-1.001 1.03-1.1.091-.152.107-.226.107-.48s-.017-.328-.108-.484a1.014 1.014 0 0 0-1.232-.447M8.3 15.72 10.58 18l-.82.823c-.451.453-.896.877-.99.942a1.384 1.384 0 0 1-1.54 0c-.094-.065-.804-.755-1.578-1.532C4.024 16.599 4.02 16.594 4.02 16c0-.56.063-.658 1.091-1.69.477-.478.876-.87.888-.87.012 0 1.047 1.026 2.301 2.28" fill-rule="evenodd" fill="#000" stroke="none"/></svg>