<svg version="1.2" xmlns="http://www.w3.org/2000/svg" width="24" height="24"><path d="M11.08 1.042c-2.699.238-5.108 1.39-7.01 3.353C2.487 6.03 1.474 8.093 1.112 10.42c-.071.461-.087.736-.088 1.56-.002 1.343.106 2.081.48 3.289A10.733 10.733 0 0 0 4.1 19.635a10.754 10.754 0 0 0 4.231 2.729c2.143.772 4.623.835 6.82.173.629-.19 1.294-.456 1.834-.734l.445-.23.175.092c.096.051.319.141.495.201.284.096.382.108.88.111.615.003.912-.061 1.383-.299.499-.251 1.064-.816 1.315-1.315.238-.471.302-.768.299-1.383-.003-.498-.015-.596-.111-.88a4.429 4.429 0 0 0-.201-.496l-.093-.176.194-.368c1.661-3.156 1.633-7.071-.075-10.259a12.897 12.897 0 0 0-1.242-1.841 14.187 14.187 0 0 0-1.529-1.505A11.008 11.008 0 0 0 13.378 1.1c-.586-.074-1.774-.104-2.298-.058m2.215 2.062c2.763.385 5.256 2.119 6.605 4.594 1.342 2.462 1.445 5.539.27 8.07-.143.309-.197.39-.247.37-.139-.056-.678-.135-.923-.135-.328 0-.795.083-1.08.192l-.219.085-2.301-2.298c-1.755-1.754-2.343-2.317-2.48-2.379-.421-.19-.955-.054-1.22.31-.234.324-.256.8-.049 1.107.044.066 1.103 1.146 2.352 2.4l2.271 2.28-.125.36c-.119.341-.125.391-.124.94.001.424.019.633.067.778.036.109.06.203.054.209-.063.063-.92.421-1.335.558a9 9 0 0 1-11.146-5.166 9.214 9.214 0 0 1-.631-4.013c.126-1.614.612-3.047 1.469-4.33 1.531-2.291 3.916-3.719 6.677-3.995.471-.047 1.558-.015 2.115.063m6.029 14.951c.215.077.427.255.547.461.091.155.108.23.108.484 0 .257-.016.328-.112.492A.996.996 0 1 1 19 18.004c.099 0 .245.023.324.051" fill-rule="evenodd"/></svg>