<svg xmlns="http://www.w3.org/2000/svg" width="24" height="24" fill="none" stroke="currentColor" stroke-width="2" stroke-linecap="round" stroke-linejoin="round" class="lucide lucide-radius-icon lucide-radius"><path d="M11.07 1.04a11.033 11.033 0 0 0-9.201 6.682 10.851 10.851 0 0 0-.856 3.918c-.087 2.521.681 4.943 2.218 6.997.462.618 1.527 1.681 2.149 2.147a10.915 10.915 0 0 0 6.92 2.202c1.704-.048 3.322-.463 4.76-1.22l.368-.194.176.093c.097.051.32.141.496.201.284.096.382.108.88.111.481.003.602-.01.86-.091a3.086 3.086 0 0 0 2.046-2.046c.081-.258.094-.379.091-.86-.003-.498-.015-.596-.111-.88a4.294 4.294 0 0 0-.199-.491l-.09-.172.281-.569a10.965 10.965 0 0 0 .602-8.262c-.541-1.675-1.389-3.055-2.658-4.33-.701-.703-.982-.936-1.777-1.467a10.856 10.856 0 0 0-4.624-1.71c-.584-.073-1.824-.104-2.331-.059m1.634 2a8.986 8.986 0 0 1 8.112 7.163c.089.436.184 1.347.184 1.751-.002 1.26-.315 2.713-.815 3.783a9.152 9.152 0 0 1-.198.409 1.057 1.057 0 0 1-.229-.048c-.535-.143-1.205-.113-1.775.081l-.283.096-1.487-1.487-1.487-1.488.125-.36c.116-.335.125-.399.127-.92.002-.479-.012-.603-.092-.86a3.073 3.073 0 0 0-2.025-2.035c-.273-.083-.403-.098-.861-.098-.458 0-.588.015-.861.098a3.073 3.073 0 0 0-2.025 2.035c-.135.434-.135 1.246 0 1.68a3.086 3.086 0 0 0 2.046 2.046c.257.08.381.094.86.092.521-.002.585-.011.92-.127l.36-.125 1.487 1.487 1.487 1.487-.125.36c-.117.336-.125.397-.126.92 0 .496.027.71.121.956.052.135-1.466.704-2.353.882-3.272.657-6.663-.549-8.746-3.111-2.496-3.069-2.717-7.416-.542-10.671 1.368-2.048 3.44-3.423 5.837-3.874a8.416 8.416 0 0 1 2.364-.122m-.394 8.021c.378.112.69.537.69.939 0 .22-.12.51-.278.673-.241.248-.375.305-.722.306-.255.001-.328-.015-.484-.107-.581-.342-.683-1.098-.212-1.569.279-.279.612-.359 1.006-.242m6.996 6.998c.377.113.694.542.694.942 0 .33-.216.695-.516.871-.156.091-.23.108-.484.108-.351 0-.558-.094-.76-.346-.335-.417-.309-.958.064-1.331.277-.278.612-.359 1.002-.244" fill-rule="evenodd" fill="#000" stroke="none"/></svg>