<svg version="1.2" xmlns="http://www.w3.org/2000/svg" width="24" height="24"><path d="M11.08 1.042c-2.699.238-5.108 1.39-7.01 3.353C2.487 6.03 1.474 8.093 1.112 10.42c-.071.461-.087.736-.088 1.56-.002 1.343.106 2.081.48 3.289A10.733 10.733 0 0 0 4.1 19.635a10.754 10.754 0 0 0 4.231 2.729c2.143.772 4.623.835 6.82.173.629-.19 1.294-.456 1.834-.734l.445-.23.175.092c.096.051.319.141.495.201.284.096.382.108.88.111.615.003.912-.061 1.383-.299.499-.251 1.064-.816 1.315-1.315.238-.471.302-.768.299-1.383-.003-.498-.015-.596-.111-.88a4.429 4.429 0 0 0-.201-.496l-.093-.176.194-.368c1.661-3.156 1.633-7.071-.075-10.259a12.897 12.897 0 0 0-1.242-1.841 14.187 14.187 0 0 0-1.529-1.505A11.008 11.008 0 0 0 13.378 1.1c-.586-.074-1.774-.104-2.298-.058m2.215 2.062c2.763.385 5.256 2.119 6.605 4.594 1.342 2.462 1.445 5.539.27 8.07-.143.309-.197.39-.247.37-.139-.056-.678-.135-.923-.135-.328 0-.795.083-1.08.193l-.22.084-.535-.536-.536-.535.141-.235a5.62 5.62 0 0 0 .826-2.564c.207-2.818-1.686-5.32-4.476-5.917-.483-.104-1.757-.104-2.24 0-2.491.533-4.292 2.584-4.476 5.097a5.603 5.603 0 0 0 5.186 6.006c1.187.087 2.332-.192 3.384-.826l.235-.141.533.535.532.536-.125.36c-.119.341-.125.391-.124.94.001.424.019.633.067.778.036.109.06.203.054.209-.063.063-.92.421-1.335.558a9 9 0 0 1-11.146-5.166 9.214 9.214 0 0 1-.631-4.013c.126-1.614.612-3.047 1.469-4.33 1.531-2.291 3.916-3.719 6.677-3.995.471-.047 1.558-.015 2.115.063m-.355 5.397a3.697 3.697 0 0 1 2.338 1.985c.258.553.3.763.3 1.514s-.042.961-.3 1.514c-.609 1.302-1.846 2.092-3.278 2.092-1.44 0-2.667-.786-3.282-2.101-.254-.544-.296-.757-.296-1.505 0-.748.042-.961.296-1.505a3.53 3.53 0 0 1 1.777-1.777c.301-.14.634-.246.925-.292.259-.041 1.282.009 1.52.075m6.384 9.554c.215.077.427.255.547.461.091.155.108.23.108.484 0 .257-.016.328-.112.492A.996.996 0 1 1 19 18.004c.099 0 .245.023.324.051" fill-rule="evenodd"/></svg>