<svg xmlns="http://www.w3.org/2000/svg" width="24" height="24" fill="none" stroke="currentColor" stroke-width="2" stroke-linecap="round" stroke-linejoin="round" class="lucide lucide-shuffle-icon lucide-shuffle"><path d="M17.67 1.061c-.222.081-.42.248-.542.455-.092.156-.108.229-.107.484 0 .213.022.341.074.44.041.077.614.683 1.275 1.347l1.202 1.206-2.116.019c-2.239.019-2.304.024-2.96.226a6.19 6.19 0 0 0-1.299.624 5.871 5.871 0 0 0-1.11 1.032c-.107.135-1.426 2.19-2.931 4.565-2.939 4.639-2.991 4.714-3.535 5.057a2.921 2.921 0 0 1-.821.374c-.234.075-.399.085-1.66.108-.958.017-1.436.04-1.513.074a1.133 1.133 0 0 0-.499.444c-.091.156-.108.23-.108.484 0 .257.016.327.113.492.13.222.37.409.601.472.245.066 2.886.021 3.226-.055a5.706 5.706 0 0 0 1.843-.771 5.874 5.874 0 0 0 1.11-1.032c.106-.135 1.425-2.189 2.93-4.565 2.798-4.414 2.945-4.629 3.396-4.96.26-.191.646-.378.981-.476.262-.076.409-.082 2.32-.095l2.04-.014-1.206 1.212c-.663.667-1.236 1.273-1.273 1.347-.229.454-.045 1.046.407 1.312.165.097.234.113.492.112.212 0 .341-.022.44-.074.077-.04 1.091-1.021 2.254-2.179C22.996 6.433 22.999 6.429 22.999 6c0-.431 0-.431-2.325-2.745-1.924-1.915-2.153-2.131-2.331-2.19a1.015 1.015 0 0 0-.673-.004M1.695 5.057c-.644.201-.896.983-.497 1.534.065.09.205.214.31.276l.192.113 1.4.024c1.578.028 1.637.037 2.24.334.546.27.988.696 1.31 1.263.3.528.819.727 1.319.506.546-.242.745-.869.454-1.43a4.814 4.814 0 0 0-.837-1.146 5.055 5.055 0 0 0-2.985-1.489c-.5-.062-2.698-.05-2.906.015m15.975 8.004c-.222.081-.42.248-.542.455-.092.156-.108.229-.107.484 0 .213.022.341.074.44.041.077.616.685 1.279 1.352l1.206 1.211-2.06-.011-2.06-.012-.395-.137c-.676-.234-1.069-.543-1.657-1.303-.362-.467-.548-.642-.763-.718a.989.989 0 0 0-1.335.927c-.003.307.07.447.558 1.075.786 1.011 1.538 1.578 2.539 1.913.704.236.681.234 3.01.252l2.156.016-1.202 1.208c-.661.664-1.233 1.268-1.27 1.342-.229.454-.045 1.046.407 1.312.165.097.234.113.492.112.212 0 .341-.022.44-.074.077-.04 1.091-1.021 2.254-2.179 2.302-2.293 2.305-2.297 2.305-2.726 0-.431 0-.431-2.325-2.745-1.924-1.915-2.153-2.131-2.331-2.19a1.015 1.015 0 0 0-.673-.004" fill-rule="evenodd" fill="#000" stroke="none"/></svg>