<svg xmlns="http://www.w3.org/2000/svg" width="24" height="24" fill="none" stroke="currentColor" stroke-width="2" stroke-linecap="round" stroke-linejoin="round" class="lucide lucide-clapperboard-icon lucide-clapperboard"><path d="M16.78 1.107c-.132.031-1.176.334-2.32.671a79.45 79.45 0 0 1-2.239.641 1.143 1.143 0 0 0-.26.08c-.055.029-2.117.65-4.58 1.379-4.95 1.467-4.892 1.446-5.39 1.916-.439.414-.73.912-.892 1.526-.084.317-.095.965-.022 1.3.029.132.243.744.478 1.36l.425 1.12.02 4.24.02 4.24.094.28c.332.99 1.07 1.722 2.046 2.026l.3.094h15.08l.3-.094a3.086 3.086 0 0 0 2.046-2.046l.094-.3V10.7l-.108-.184a1.146 1.146 0 0 0-.499-.446c-.088-.039-1.349-.054-5.697-.07l-5.584-.02 2.724-.791c1.498-.435 2.755-.79 2.793-.79.037.001.16-.035.272-.08a94.794 94.794 0 0 1 2.412-.722c1.214-.353 2.284-.678 2.377-.723.303-.144.53-.521.53-.878 0-.143-.78-2.739-.96-3.195-.317-.803-1.089-1.442-2.036-1.685-.359-.092-1.062-.097-1.424-.009m1.181 2.043c.341.178.403.29.704 1.261.165.531.255.884.232.905-.059.055-2.979.892-3.036.87-.056-.022-1.749-2.191-1.727-2.214a78.05 78.05 0 0 1 1.55-.47c1.762-.525 1.905-.547 2.277-.352m-5.238 2.299.853 1.101c.107.139.187.26.177.27-.017.017-3.942 1.167-4.063 1.19-.065.013-1.814-2.185-1.755-2.207.166-.061 4.018-1.197 4.068-1.2.038-.002.335.348.72.846m-6.022 2.09c.55.693.839 1.088.808 1.104-.125.062-3.872 1.127-3.894 1.106a13.405 13.405 0 0 1-.298-.757c-.291-.777-.329-.99-.231-1.318.056-.187.275-.452.448-.542.152-.079 2.184-.691 2.258-.68.028.004.437.494.909 1.087M20 15.554c0 3.856.005 3.768-.221 4.064-.061.08-.194.195-.295.254l-.184.108H4.7l-.184-.108a1.199 1.199 0 0 1-.291-.249C3.992 19.317 4 19.464 4 15.575V12h16v3.554" fill-rule="evenodd" fill="#000" stroke="none"/></svg>