<svg xmlns="http://www.w3.org/2000/svg" width="24" height="24" fill="none" stroke="currentColor" stroke-width="2" stroke-linecap="round" stroke-linejoin="round" class="lucide lucide-save-off-icon lucide-save-off"><path d="M1.67 1.061c-.222.081-.42.248-.542.455-.092.156-.108.229-.107.484 0 .214.022.34.075.44.041.077.323.393.628.701l.555.561-.077.203c-.213.56-.205.232-.193 8.255l.011 7.42.094.28a3.145 3.145 0 0 0 2.026 2.026l.28.094 7.42.011c8.023.012 7.695.02 8.255-.193l.203-.077.561.555c.308.305.624.587.701.628.1.053.226.075.44.075.258.001.327-.015.492-.112.476-.28.647-.9.373-1.359-.055-.092-4.65-4.715-10.212-10.273C3.3 1.889 2.525 1.125 2.343 1.065a1.015 1.015 0 0 0-.673-.004m7.025.996c-.644.201-.896.983-.497 1.534.065.09.205.214.31.276l.192.113 3.38.02 3.38.02.16.087c.199.109 4.184 4.1 4.286 4.293.07.132.075.333.094 3.523l.02 3.383.121.197a.998.998 0 0 0 1.718 0l.121-.197.011-3.383c.013-3.697.012-3.708-.22-4.253-.22-.518-.424-.747-2.639-2.95-2.227-2.215-2.309-2.287-2.858-2.509-.504-.203-.605-.208-4.134-.207-2.568.001-3.316.013-3.445.053m.375 9.945c-1.662.024-1.699.03-2.133.31-.281.182-.586.51-.721.776-.218.43-.216.396-.216 3.784v3.135l-.65-.014c-.622-.012-.658-.018-.834-.121a1.199 1.199 0 0 1-.291-.249C3.986 19.31 4 19.77 4 12.285V5.42L7.28 8.7l3.28 3.28-1.49.022m4.625-4.945a1.04 1.04 0 0 0-.567.459c-.091.156-.108.23-.108.484 0 .256.016.328.111.489.125.213.318.375.539.454.208.074 1.452.074 1.66 0 .221-.079.414-.241.539-.454.095-.161.111-.233.111-.489 0-.254-.017-.328-.108-.484a1.02 1.02 0 0 0-.582-.461c-.24-.072-1.362-.071-1.595.002m.595 8.653L16 17.42V20H8v-6h4.58l1.71 1.71m4.01 4.01.278.28H18v-.28c0-.154.005-.28.011-.28.006 0 .136.126.289.28" fill-rule="evenodd" fill="#000" stroke="none"/></svg>