<svg xmlns="http://www.w3.org/2000/svg" width="24" height="24" fill="none" stroke="currentColor" stroke-width="2" stroke-linecap="round" stroke-linejoin="round" class="lucide lucide-save-icon lucide-save"><path d="M4.499 2.043C3.383 2.23 2.461 3.048 2.114 4.16l-.094.3v15.08l.094.3a3.086 3.086 0 0 0 2.046 2.046l.3.094h15.08l.3-.094c.976-.304 1.714-1.035 2.046-2.026l.094-.28.011-5.52c.013-6.041.02-5.826-.22-6.39-.218-.515-.429-.751-2.6-2.914-1.161-1.158-2.198-2.163-2.304-2.234a4.122 4.122 0 0 0-.485-.265c-.572-.264-.409-.258-6.337-.252-2.94.002-5.436.02-5.546.038M6 5.632c0 1.767.01 1.875.225 2.298.136.269.576.709.845.845.456.231.34.225 4.388.223 3.005-.001 3.751-.012 3.872-.055.221-.079.414-.241.539-.454.095-.161.111-.233.111-.489 0-.254-.017-.328-.108-.484a1.209 1.209 0 0 0-.254-.295C15.322 6.995 15.41 7 11.554 7H8V3.998l3.73.011 3.73.011.16.087c.199.109 4.184 4.1 4.286 4.293.071.134.075.376.086 5.38.009 3.702 0 5.3-.031 5.444-.056.26-.237.507-.475.647-.179.105-.212.11-.836.122l-.65.014-.001-3.114c0-3.368-.001-3.383-.218-3.81-.135-.267-.484-.634-.764-.802-.478-.288-.266-.276-5.017-.276s-4.539-.012-5.017.276c-.28.168-.629.535-.764.802-.221.436-.219.396-.219 3.789v3.135l-.65-.014c-.622-.012-.658-.018-.834-.121a1.199 1.199 0 0 1-.291-.249c-.239-.314-.225.172-.225-7.601 0-8.017-.025-7.391.304-7.719.25-.251.423-.297 1.126-.3L6 4v1.632M16 17v3H8v-6h8v3" fill-rule="evenodd" fill="#000" stroke="none"/></svg>