<svg xmlns="http://www.w3.org/2000/svg" width="24" height="24" fill="none" stroke="currentColor" stroke-width="2" stroke-linecap="round" stroke-linejoin="round" class="lucide lucide-save-all-icon lucide-save-all"><path d="M7.499 1.043c-1.12.19-2.038 1.005-2.385 2.117l-.094.3v13.08l.094.3a3.086 3.086 0 0 0 2.046 2.046l.3.094h13.08l.3-.094c.976-.304 1.714-1.035 2.046-2.026l.094-.28.011-5.028c.012-5.476.02-5.27-.214-5.857a3.354 3.354 0 0 0-.269-.515c-.186-.279-3.167-3.294-3.528-3.567a3.199 3.199 0 0 0-.96-.498l-.28-.095-5.02-.006c-2.761-.003-5.111.01-5.221.029M9 4.132c0 1.226.021 1.396.225 1.798.136.269.576.709.845.845.446.226.432.225 3.388.223 2.169-.001 2.752-.012 2.872-.055.221-.079.414-.241.539-.454.095-.161.111-.233.111-.489 0-.254-.017-.328-.108-.484a1.209 1.209 0 0 0-.254-.295C16.328 5 16.325 5 13.554 5H11V2.998l3.23.011 3.23.011.16.087c.199.109 3.185 3.101 3.286 3.293.071.133.075.362.086 4.88.009 3.336 0 4.801-.031 4.944-.056.26-.237.507-.475.647-.179.105-.212.11-.836.122l-.65.014-.001-2.614c0-2.824-.005-2.89-.218-3.31-.135-.267-.484-.634-.764-.802-.469-.282-.381-.276-4.017-.276s-3.548-.006-4.017.276c-.28.168-.629.535-.764.802-.218.43-.219.44-.219 3.289v2.635l-.65-.014c-.622-.012-.658-.018-.834-.121a1.199 1.199 0 0 1-.291-.249c-.238-.312-.225.078-.225-6.601 0-6.899-.023-6.393.304-6.719.25-.251.423-.297 1.126-.3L9 3v1.132m-7.305.925a1.04 1.04 0 0 0-.567.459L1.02 5.7v14.84l.094.3c.304.976 1.035 1.714 2.026 2.046l.28.094 7.353.011c4.884.007 7.404-.003 7.504-.03.221-.06.462-.251.59-.469.097-.165.113-.235.113-.492 0-.254-.017-.328-.108-.484a1.146 1.146 0 0 0-.499-.446c-.089-.039-1.687-.054-7.393-.07l-7.28-.02-.184-.108a1.146 1.146 0 0 1-.446-.499c-.039-.089-.054-1.687-.07-7.393L2.98 5.7l-.108-.184a1.005 1.005 0 0 0-1.177-.459M17 14.5V17h-6v-5h6v2.5" fill-rule="evenodd" fill="#000" stroke="none"/></svg>