<svg xmlns="http://www.w3.org/2000/svg" width="24" height="24" fill="none" stroke="currentColor" stroke-width="2" stroke-linecap="round" stroke-linejoin="round" class="lucide lucide-bean-icon lucide-bean"><path d="M15.2 1.042c-2.048.254-3.913 1.397-5.017 3.074-.468.711-.714 1.268-.98 2.216-.303 1.085-.521 1.545-.923 1.95-.402.406-.879.627-2.06.955-1.648.458-2.951 1.358-3.93 2.715-.318.441-.769 1.342-.947 1.893-.406 1.253-.449 2.691-.117 3.915.781 2.874 3.1 4.863 6.066 5.203.518.059 1.684.03 2.448-.062a14.968 14.968 0 0 0 6.48-2.361 15.01 15.01 0 0 0 6.681-10.8c.092-.764.121-1.93.062-2.448-.274-2.392-1.629-4.388-3.723-5.486-.686-.36-1.279-.561-2.1-.712-.392-.072-1.532-.103-1.94-.052m1.78 2.057a4.822 4.822 0 0 1 2.523 1.36c.48.477.717.809 1.002 1.401.482 1 .594 2.057.394 3.708a12.93 12.93 0 0 1-3.529 7.435c-2.056 2.146-4.725 3.489-7.75 3.9-.707.096-1.887.118-2.34.043-1.173-.194-2.122-.691-2.909-1.522-.658-.695-1.071-1.492-1.277-2.464-.097-.455-.097-1.528 0-1.954.234-1.033.662-1.808 1.413-2.56l.454-.454.369.391c.204.215.513.496.687.624a5.536 5.536 0 0 0 2.083.918c.461.091 1.434.071 1.94-.04a5.01 5.01 0 0 0 3.839-3.825 4.907 4.907 0 0 0-.445-3.348 4.798 4.798 0 0 0-1.051-1.382l-.391-.369.454-.454c1.042-1.041 2.244-1.528 3.674-1.49.297.008.684.045.86.082M11.341 7.13c.23.306.461.763.561 1.11.099.343.102 1.108.005 1.48-.236.912-.968 1.745-1.813 2.064-1.026.387-2.062.235-2.95-.432-.231-.174-.264-.212-.2-.235.042-.015.318-.105.613-.199 1.78-.568 2.744-1.514 3.339-3.278.077-.231.16-.496.184-.59a.617.617 0 0 1 .058-.17c.008 0 .1.112.203.25" fill-rule="evenodd" fill="#000" stroke="none"/></svg>