<svg xmlns="http://www.w3.org/2000/svg" width="24" height="24" fill="none" stroke="currentColor" stroke-width="2" stroke-linecap="round" stroke-linejoin="round" class="icon icon-tabler icons-tabler-outline icon-tabler-settings"><path d="M11.579 2.039a2.683 2.683 0 0 0-2.158 1.827c-.134.427-.254.598-.493.703-.237.105-.41.08-.821-.123-.856-.422-1.627-.428-2.457-.021A2.725 2.725 0 0 0 4.132 7c.022.418.104.7.354 1.218.169.349.185.47.092.693-.102.244-.248.364-.557.456-1.043.31-1.747 1.059-1.958 2.081a2.74 2.74 0 0 0 .689 2.441c.32.343.729.585 1.234.731.296.085.482.226.577.435.113.247.096.358-.126.835a4.31 4.31 0 0 0-.259.703 2.703 2.703 0 0 0 .151 1.567c.256.646.865 1.255 1.511 1.511.781.31 1.459.271 2.321-.132.424-.198.54-.213.784-.102.209.095.35.281.435.577.146.505.388.914.731 1.234a2.758 2.758 0 0 0 3.369.316c.568-.36.943-.87 1.14-1.55.085-.296.226-.482.435-.577.237-.108.369-.095.706.067.576.278.919.373 1.359.374a2.715 2.715 0 0 0 1.941-.817c.887-.888 1.059-2.101.461-3.252-.17-.327-.193-.508-.091-.737.099-.225.28-.365.583-.452.828-.239 1.445-.782 1.774-1.56.114-.267.212-.76.212-1.06a3.46 3.46 0 0 0-.063-.552c-.21-1.02-.866-1.725-1.92-2.065-.352-.114-.492-.225-.595-.472-.096-.229-.078-.331.141-.801a4.31 4.31 0 0 0 .259-.703c.251-1.184-.369-2.439-1.472-2.982-.846-.415-1.649-.398-2.537.056-.35.179-.508.196-.758.082-.209-.095-.35-.281-.435-.577-.226-.783-.686-1.336-1.396-1.681a3.623 3.623 0 0 0-.544-.219 4.099 4.099 0 0 0-1.101-.047m.721 2.036c.231.106.29.19.46.66.181.499.369.799.702 1.125a2.75 2.75 0 0 0 1.078.648c.269.089.393.106.78.107.539.002.828-.064 1.283-.295.365-.185.543-.224.735-.161.295.098.539.415.541.704.001.068-.079.285-.176.482-.258.523-.321.788-.317 1.335.002.382.02.514.107.78.292.897.918 1.504 1.875 1.817.328.108.46.207.556.42a.68.68 0 0 1 0 .603c-.106.23-.229.326-.545.423-.938.289-1.594.921-1.886 1.817-.087.266-.105.398-.107.78-.004.547.059.812.317 1.335.201.406.215.534.087.784-.122.24-.339.405-.563.43-.155.018-.241-.007-.613-.179-.548-.253-.776-.307-1.274-.305-1.247.006-2.208.735-2.618 1.986-.144.439-.362.629-.722.629s-.578-.19-.722-.629c-.315-.96-.923-1.588-1.818-1.877-.257-.083-.406-.104-.76-.109-.535-.006-.745.043-1.314.305-.372.172-.458.197-.613.179-.224-.025-.441-.19-.563-.43-.125-.245-.113-.379.066-.743.284-.576.391-1.039.35-1.513-.103-1.2-.846-2.107-2.016-2.463-.326-.099-.494-.25-.573-.515-.126-.419.093-.765.583-.925.966-.314 1.593-.918 1.887-1.82.087-.266.105-.398.107-.78.004-.547-.059-.812-.317-1.335-.097-.197-.177-.414-.176-.482.002-.289.246-.606.541-.704.187-.061.373-.024.697.141.709.362 1.392.428 2.103.203.889-.281 1.5-.91 1.815-1.871.108-.328.207-.46.42-.556a.683.683 0 0 1 .603-.001m-.942 3.986c-1.128.176-2.215.913-2.789 1.892a3.992 3.992 0 0 0 1.943 5.751 3.988 3.988 0 0 0 5.192-2.216 3.963 3.963 0 0 0 .001-2.972 3.978 3.978 0 0 0-3.1-2.458 3.728 3.728 0 0 0-1.247.003m1.165 2.012a2.011 2.011 0 0 1 1.444 1.617c.1.653-.094 1.243-.564 1.714-.401.403-.856.596-1.403.596-.515 0-.962-.178-1.347-.535-1.33-1.236-.464-3.46 1.347-3.46.143 0 .378.031.523.068" fill="#000" fill-rule="evenodd" stroke="none"/></svg>