<svg xmlns="http://www.w3.org/2000/svg" width="24" height="24" fill="none" stroke="currentColor" stroke-width="2" stroke-linecap="round" stroke-linejoin="round" class="icon icon-tabler icons-tabler-outline icon-tabler-adjustments-horizontal"><path d="M13.499 3.04a3.049 3.049 0 0 0-2.187 1.63l-.165.33H7.52c-3.937 0-3.841-.005-4.138.221-.08.061-.195.194-.254.295-.091.156-.108.23-.108.484 0 .256.016.328.111.489.125.213.318.375.539.454.121.043.858.054 3.813.055L11.147 7l.165.33a3.1 3.1 0 0 0 1.848 1.556c.434.135 1.246.135 1.68 0a3.1 3.1 0 0 0 1.848-1.556l.165-.33 1.664-.002c1.789-.002 1.828-.006 2.102-.215.077-.058.189-.191.25-.294.095-.161.111-.233.111-.489 0-.254-.017-.328-.108-.484a1.209 1.209 0 0 0-.254-.295C20.341 5.01 20.248 5 18.48 5h-1.627l-.165-.33a3.055 3.055 0 0 0-1.827-1.541c-.361-.106-1.029-.149-1.362-.089m.811 2.021c.378.112.69.537.69.94 0 .33-.216.695-.516.871-.156.091-.23.108-.484.108s-.328-.017-.484-.108c-.581-.342-.683-1.098-.212-1.569.279-.279.612-.359 1.006-.242M7.499 9.04a3.049 3.049 0 0 0-2.187 1.63l-.165.33H4.52c-.879 0-1.147.099-1.392.516-.091.156-.108.23-.108.484 0 .256.016.328.111.489.061.103.173.236.25.294.242.185.387.213 1.102.215l.664.002.165.33a3.1 3.1 0 0 0 1.848 1.556c.434.135 1.246.135 1.68 0a3.1 3.1 0 0 0 1.848-1.556l.165-.33 4.664-.002c3.791-.001 4.691-.012 4.813-.055.221-.079.414-.241.539-.454.095-.161.111-.233.111-.489 0-.254-.017-.328-.108-.484a1.209 1.209 0 0 0-.254-.295c-.3-.229-.115-.221-5.138-.221h-4.627l-.165-.33a3.055 3.055 0 0 0-1.827-1.541C8.5 9.023 7.832 8.98 7.499 9.04m.811 2.021c.378.112.69.537.69.94 0 .33-.216.695-.516.871-.156.091-.23.108-.484.108s-.328-.017-.484-.108c-.584-.344-.685-1.097-.209-1.573.275-.275.611-.355 1.003-.238m8.189 3.979a3.049 3.049 0 0 0-2.187 1.63l-.165.33H9.02c-4.229 0-5.159.01-5.31.055a1.02 1.02 0 0 0-.582.461c-.091.156-.108.23-.108.484 0 .256.016.328.111.489.125.213.318.375.539.454.122.044 1.105.054 5.313.055l5.164.002.165.33a3.1 3.1 0 0 0 1.848 1.556c.252.078.387.093.84.093.453 0 .588-.015.84-.093a3.1 3.1 0 0 0 1.845-1.551l.163-.325.236-.021a.984.984 0 0 0 .903-1.101c-.05-.492-.499-.888-1.007-.888-.119 0-.137-.021-.292-.33a3.055 3.055 0 0 0-1.827-1.541c-.361-.106-1.029-.149-1.362-.089m.811 2.021c.378.112.69.537.69.94 0 .33-.216.695-.516.871-.156.091-.23.108-.484.108s-.328-.017-.484-.108c-.584-.344-.685-1.097-.209-1.573.275-.275.611-.355 1.003-.238" fill="#000" fill-rule="evenodd" stroke="none"/></svg>