<svg xmlns="http://www.w3.org/2000/svg" width="24" height="24" fill="none" stroke="currentColor" stroke-width="2" stroke-linecap="round" stroke-linejoin="round" class="icon icon-tabler icons-tabler-outline icon-tabler-crystal-ball"><path d="M11.4 2.024c-1.26.11-2.201.35-3.171.808C5.8 3.979 4.078 5.995 3.342 8.553a8.903 8.903 0 0 0-.176 4.147c.275 1.374.834 2.649 1.606 3.664l.274.362-.145.141a2.94 2.94 0 0 0-.787 1.294c-.135.432-.135 1.245 0 1.679a3.086 3.086 0 0 0 2.046 2.046l.3.094h11.08l.3-.094a3.086 3.086 0 0 0 2.046-2.046c.135-.434.135-1.247 0-1.679a2.94 2.94 0 0 0-.787-1.294l-.145-.141.274-.362c.938-1.234 1.554-2.839 1.735-4.518.065-.61.027-1.726-.08-2.326a9.325 9.325 0 0 0-2.016-4.343C17.488 3.533 15.31 2.343 13.2 2.081c-.372-.046-1.513-.082-1.8-.057m1.286 2.016a6.785 6.785 0 0 1 2.404.685c2.32 1.164 3.777 3.399 3.896 5.975a7.012 7.012 0 0 1-1.744 4.93l-.324.37H7.091l-.177-.19c-2.526-2.718-2.541-6.906-.035-9.58a7.01 7.01 0 0 1 5.807-2.19m-2.328 2.021c-1.633.255-2.937 1.519-3.279 3.18-.12.585-.099 1 .065 1.267a.998.998 0 0 0 1.707.007c.092-.149.121-.257.15-.56.02-.206.062-.46.093-.565.125-.411.442-.817.843-1.077.294-.191.537-.266 1.015-.312.286-.027.413-.06.551-.141.745-.436.612-1.557-.213-1.805-.221-.066-.478-.065-.932.006m6.952 12c.378.112.69.537.69.94 0 .33-.216.695-.516.871l-.184.108H6.7l-.184-.108c-.581-.342-.683-1.098-.212-1.569.317-.318-.07-.297 5.679-.3 4.475-.003 5.148.005 5.327.058" fill="#000" fill-rule="evenodd" stroke="none"/></svg>