<svg xmlns="http://www.w3.org/2000/svg" width="24" height="24" fill="none" stroke="currentColor" stroke-width="2" stroke-linecap="round" stroke-linejoin="round" class="lucide lucide-shapes-icon lucide-shapes"><path d="M11.647 1.683c-.272.053-.604.239-.824.461-.143.143-.77 1.107-2.109 3.24C7.666 7.054 6.773 8.492 6.73 8.58c-.466.943.115 2.138 1.155 2.378.111.025 1.607.04 4.118.041 4.258.001 4.111.008 4.534-.208.253-.128.561-.449.695-.722.232-.471.25-.984.05-1.44-.151-.346-3.886-6.288-4.071-6.477a1.702 1.702 0 0 0-1.564-.469m1.948 4.768a213.415 213.415 0 0 1 1.565 2.53c0 .01-1.43.019-3.177.019H8.806l1.34-2.13c1.776-2.821 1.862-2.956 1.874-2.942.006.007.715 1.142 1.575 2.523M3.477 13.073c-.671.176-1.239.75-1.417 1.435C2.01 14.7 2 15.18 2 17.5c0 3.001-.001 2.984.225 3.43.136.269.576.709.845.845.446.226.429.225 3.43.225 3.001 0 2.984.001 3.43-.225.266-.135.708-.575.841-.838.229-.452.229-.448.228-3.423 0-2.956-.004-3.009-.218-3.431-.135-.267-.484-.634-.764-.802-.462-.278-.437-.276-3.517-.276-2.48 0-2.787.007-3.023.068m13.423-.028c-1.469.184-2.849 1.2-3.479 2.564a4.503 4.503 0 0 0 .256 4.255c.61.991 1.565 1.686 2.76 2.007.341.092.458.103 1.063.103s.722-.011 1.063-.103c1.987-.534 3.327-2.16 3.425-4.154.138-2.796-2.286-5.022-5.088-4.672M9 17.5V20H4v-5h5v2.5m9.02-2.44a2.502 2.502 0 0 1 1.695 1.302c.372.756.375 1.516.008 2.258a2.53 2.53 0 0 1-1.403 1.248c-.268.097-.355.108-.82.108-.465 0-.552-.011-.82-.108a2.53 2.53 0 0 1-1.403-1.248c-.93-1.88.695-3.989 2.743-3.56" fill-rule="evenodd" fill="#000" stroke="none"/></svg>