<svg xmlns="http://www.w3.org/2000/svg" width="24" height="24" fill="none" stroke="currentColor" stroke-width="2" stroke-linecap="round" stroke-linejoin="round" class="lucide lucide-ruler-dimension-line-icon lucide-ruler-dimension-line"><path d="M3.695 3.057a1.04 1.04 0 0 0-.567.459L3.02 3.7v4.606l.121.197a.998.998 0 0 0 1.718 0c.12-.195.121-.203.134-.85L5.007 7h13.986l.014.653c.013.647.014.655.134.85a.998.998 0 0 0 1.718 0l.121-.197V3.7l-.109-.186a1.01 1.01 0 0 0-1.742 0c-.105.179-.11.212-.122.836l-.014.65H5.007l-.014-.65c-.012-.622-.018-.658-.121-.834a1.005 1.005 0 0 0-1.177-.459m-.218 8.016c-.671.176-1.239.75-1.417 1.435C2.01 12.7 2 13.18 2 15.5c0 3.001-.001 2.984.225 3.43.136.269.576.709.845.845.472.239-.087.225 8.93.225s8.458.014 8.93-.225c.266-.135.708-.575.841-.838.229-.452.229-.448.228-3.423 0-2.956-.004-3.009-.218-3.431-.135-.267-.484-.634-.764-.802-.494-.298.2-.276-9.017-.276-7.679 0-8.279.004-8.523.068m3.531 3.08.012 1.154.121.196c.068.11.205.253.311.325.471.316 1.102.171 1.407-.325l.121-.196.012-1.154L9.005 13h1.99l.013 1.153.012 1.154.121.196a.998.998 0 0 0 1.718 0l.121-.196.012-1.154.013-1.153h1.99l.013 1.153.012 1.154.121.196a.998.998 0 0 0 1.718 0l.121-.196.012-1.154.013-1.153H20v5H4v-5h2.995l.013 1.153" fill-rule="evenodd" fill="#000" stroke="none"/></svg>