<svg xmlns="http://www.w3.org/2000/svg" width="24" height="24" fill="none" stroke="currentColor" stroke-width="2" stroke-linecap="round" stroke-linejoin="round" class="lucide lucide-turtle-icon lucide-turtle"><path d="M9.34 5.024c-.908.094-1.475.209-2.18.442-1.904.629-3.544 1.89-4.692 3.607-.528.789-1.056 2.051-1.265 3.019C1.03 12.894 1 13.386 1 15.381c0 2.04.007 2.118.225 2.549.136.269.576.709.845.845.409.207.562.225 1.93.225 1.368 0 1.521-.018 1.93-.225.266-.135.708-.575.841-.838.205-.404.229-.595.229-1.813V15h6v1.132c0 1.226.021 1.396.225 1.798.136.269.576.709.845.845.409.207.562.225 1.93.225 1.368 0 1.521-.018 1.93-.225.266-.135.708-.575.841-.838.205-.403.229-.595.229-1.808v-1.12l.79-.019c.674-.016.831-.032 1.07-.108a3.097 3.097 0 0 0 2.026-2.042c.135-.434.135-1.246 0-1.68a3.08 3.08 0 0 0-2.025-2.037c-.313-.096-.357-.099-1.848-.114l-1.528-.015-.239-.327c-1.397-1.911-3.552-3.208-5.926-3.566-.409-.062-1.658-.11-1.98-.077m1.78 2.078c.443.068.821.163 1.24.314.367.131 1 .427 1 .466 0 .016-.375.274-.833.574L11.693 9H8.307l-.834-.544c-.458-.3-.833-.558-.833-.574 0-.042.646-.34 1.04-.479.581-.205 1.062-.303 1.86-.38.28-.027 1.187.018 1.58.079M5.822 9.759c.439.292.816.547.837.567.025.023-.203.52-.62 1.355L5.381 13H3.079l.025-.17c.112-.772.478-1.741.942-2.501.323-.527.822-1.135.916-1.114.034.007.421.252.86.544m9.433-.372c.838.952 1.472 2.283 1.641 3.443l.025.17h-2.302l-.658-1.319c-.418-.836-.645-1.332-.62-1.355.082-.076 1.68-1.126 1.714-1.126.019 0 .109.084.2.187M11.87 11.98c.27.539.49.989.49 1 0 .011-1.062.02-2.36.02-1.298 0-2.36-.009-2.36-.02 0-.011.22-.461.49-1l.489-.98h2.762l.489.98m8.44-.919c.378.112.69.537.69.94 0 .33-.216.695-.516.871-.18.106-.197.108-.864.108h-.68l-.012-.14c-.023-.268-.206-1.102-.322-1.47l-.117-.37h.808c.607 0 .859.015 1.013.061M5 16v1H3v-2h2v1m12 0v1h-2v-2h2v1" fill-rule="evenodd" fill="#000" stroke="none"/></svg>