<svg xmlns="http://www.w3.org/2000/svg" width="24" height="24" fill="none" stroke="currentColor" stroke-width="2" stroke-linecap="round" stroke-linejoin="round" class="icon icon-tabler icons-tabler-outline icon-tabler-brand-speedtest"><path d="M11.08 3.045c-3.845.34-7.245 2.992-8.513 6.64-.402 1.157-.545 2.028-.545 3.315 0 1.038.049 1.479.263 2.355a10.042 10.042 0 0 0 2.409 4.469c.422.45.628.556 1.013.526a.992.992 0 0 0 .887-1.275c-.046-.152-.1-.223-.731-.963-1.31-1.536-1.994-3.656-1.833-5.682.088-1.096.328-1.991.787-2.929a7.901 7.901 0 0 1 3.684-3.684 7.962 7.962 0 0 1 6.998 0 7.901 7.901 0 0 1 3.684 3.684 7.96 7.96 0 0 1 0 6.998c-.388.794-.752 1.319-1.41 2.033-.397.432-.495.747-.355 1.144.14.394.459.64.875.674.385.03.591-.076 1.013-.526a10.057 10.057 0 0 0 2.409-4.469c.215-.88.264-1.317.263-2.355-.001-1.039-.051-1.487-.263-2.355a10.009 10.009 0 0 0-10.635-7.6m4.56 5.023c-.154.053-.489.37-2.293 2.167-1.162 1.158-2.158 2.181-2.213 2.273-.272.46-.102 1.079.374 1.359.165.097.234.113.492.112.212 0 .341-.022.44-.074.192-.1 4.299-4.2 4.433-4.425.091-.152.107-.226.107-.48s-.017-.328-.108-.484a1.016 1.016 0 0 0-1.232-.448" fill="#000" fill-rule="evenodd" stroke="none"/></svg>