<svg xmlns="http://www.w3.org/2000/svg" width="24" height="24" fill="none" stroke="currentColor" stroke-width="2" stroke-linecap="round" stroke-linejoin="round" class="lucide lucide-rocket-icon lucide-rocket"><path d="M21.22 1.026c-2.172.131-4.023.644-5.816 1.612-.881.475-1.33.768-2.144 1.397-.56.433-1.74 1.614-2.181 2.182-.186.24-.375.48-.419.533l-.081.095-.399-.081A9.926 9.926 0 0 0 8 6.545c-.876 0-1.358.076-1.918.3-.918.367-1.617 1.104-2.196 2.315-.506 1.056-.94 2.558-.87 3.009.039.254.239.541.481.69l.197.121 2.444.011 2.445.011 1.208 1.209 1.207 1.209.011 2.443.011 2.443.121.197c.149.242.436.442.69.481.269.042.909-.097 1.789-.387 1.554-.513 2.644-1.207 3.199-2.037.692-1.035.839-2.586.439-4.639-.053-.274-.084-.51-.067-.525.016-.014.263-.213.548-.441a15.53 15.53 0 0 0 2.595-2.67c1.661-2.239 2.633-5.13 2.643-7.865.003-.713.002-.722-.105-.904-.268-.455-.597-.553-1.652-.49m-.26 2.025-.061.51c-.333 2.707-1.48 5.033-3.424 6.947-1.058 1.042-2.061 1.753-3.575 2.536-.695.36-1.552.756-1.635.756-.025 0-.502-.457-1.06-1.015-.903-.903-1.011-1.025-.985-1.11.047-.151.577-1.257.814-1.695 1.219-2.258 2.394-3.649 4.069-4.823a11.844 11.844 0 0 1 4.877-1.993c.264-.044.561-.087.66-.095l.25-.022c.038-.004.07-.002.07.004M9.09 8.603c.193.026.35.064.35.083 0 .02-.095.211-.211.425a30.78 30.78 0 0 0-.823 1.699l-.082.19H6.822c-.901 0-1.502-.015-1.502-.037 0-.083.256-.725.423-1.063.446-.899.814-1.193 1.697-1.356.17-.031 1.281.008 1.65.059m6.315 6.367c.081.624.072 1.584-.019 1.941-.139.541-.45.893-1.123 1.269-.247.138-.953.433-1.153.482l-.111.027.011-1.511.01-1.51.33-.138a25.61 25.61 0 0 0 1.14-.549c.445-.226.821-.413.836-.416.014-.003.049.18.079.405m-10.165.09c-1.328.266-2.32 1.378-3.02 3.384-.413 1.185-.782 2.892-.702 3.249.087.382.405.699.787.78.393.084 2.015-.262 3.251-.693 2.341-.817 3.447-2.003 3.448-3.7 0-.563-.09-.955-.333-1.44-.136-.271-.244-.413-.531-.7-.492-.492-.953-.751-1.573-.882-.327-.069-.977-.069-1.327.002m1.14 2.035c.221.103.374.242.51.461.077.123.09.2.09.524 0 .341-.011.399-.108.564-.187.317-.545.609-1.072.873-.439.219-1.492.597-1.859.665l-.152.029.029-.156c.065-.352.438-1.387.661-1.837.323-.652.7-1.066 1.072-1.178.23-.07.619-.044.829.055" fill-rule="evenodd" fill="#000" stroke="none"/></svg>