<svg xmlns="http://www.w3.org/2000/svg" width="24" height="24" fill="none" stroke="currentColor" stroke-width="2" stroke-linecap="round" stroke-linejoin="round" class="lucide lucide-snail-icon lucide-snail"><path d="M17.667 2.065c-.261.08-.514.336-.606.613-.12.361-.081.512.374 1.43l.406.818-.18.206c-.392.448-.614 1.042-.65 1.738l-.023.45-.221-.25c-1.422-1.612-3.328-2.646-5.487-2.976-.634-.097-1.926-.097-2.56 0-1.988.304-3.724 1.182-5.118 2.586a8.508 8.508 0 0 0-1.663 2.34 8.91 8.91 0 0 0 0 7.96 8.894 8.894 0 0 0 2.138 2.793l.257.227H3.113c-1.329 0-1.464.017-1.731.221-.08.061-.195.194-.254.295-.091.156-.108.23-.108.484 0 .257.016.327.113.492.128.218.369.409.592.469.102.028 2.309.037 6.704.027 7.214-.015 6.712.002 7.775-.266 3.163-.796 5.717-3.349 6.518-6.515.261-1.034.258-.971.258-5.047v-3.7l-.094-.3c-.123-.396-.325-.774-.547-1.028l-.18-.206.406-.818c.45-.908.494-1.07.379-1.415a1.002 1.002 0 0 0-1.602-.441c-.111.095-.253.336-.558.941l-.409.814-.373.006-.372.007-.4-.8c-.438-.877-.567-1.044-.894-1.155a.973.973 0 0 0-.669 0m-6.565 4.033c2.997.453 5.389 2.887 5.822 5.922.066.463.066 1.497 0 1.96a7.005 7.005 0 0 1-5.804 5.925c-.451.076-1.346.11-1.72.065-.338-.041-.333-.045.22-.171 2.252-.513 4.159-2.214 4.953-4.419.298-.827.402-1.428.405-2.34.003-.94-.133-1.519-.545-2.327a5.024 5.024 0 0 0-3.193-2.552c-.933-.241-2.115-.178-2.992.159a5.097 5.097 0 0 0-2.722 2.465 4.543 4.543 0 0 0-.506 2.175c.001.495.014.624.094.88a3.086 3.086 0 0 0 2.046 2.046c.434.135 1.246.135 1.68 0a3.08 3.08 0 0 0 2.045-2.046c.07-.229.092-.4.093-.72.002-.387-.007-.434-.107-.606a1.012 1.012 0 0 0-1.466-.309c-.236.174-.358.404-.403.761a2.58 2.58 0 0 1-.08.409 1.077 1.077 0 0 1-.438.497c-.156.091-.23.108-.484.108s-.328-.017-.484-.108c-.381-.224-.535-.554-.501-1.074a3.004 3.004 0 0 1 2.124-2.673c.273-.083.403-.098.861-.098.458 0 .588.015.861.098a3.013 3.013 0 0 1 2.123 2.627c.048.575-.091 1.457-.321 2.041-.63 1.602-1.993 2.748-3.703 3.114-.471.101-1.449.101-1.92 0-1.269-.271-2.363-.974-3.077-1.975-.826-1.158-1.089-2.341-.877-3.952.326-2.48 2.127-4.687 4.534-5.553.63-.227 1.095-.325 1.92-.404.273-.026 1.186.018 1.562.075m9.208-.037a.887.887 0 0 1 .387.243c.323.322.31.142.292 4.025-.017 3.784-.015 3.743-.289 4.649a7.035 7.035 0 0 1-4.113 4.512c-.26.104-.49.19-.509.19-.019 0 .126-.163.323-.363a8.993 8.993 0 0 0 2.54-5.309c.048-.41.059-1.145.059-3.81 0-3.746-.013-3.579.304-3.895.279-.279.612-.359 1.006-.242" fill-rule="evenodd" fill="#000" stroke="none"/></svg>