<svg xmlns="http://www.w3.org/2000/svg" width="24" height="24" fill="none" stroke="currentColor" stroke-width="2" stroke-linecap="round" stroke-linejoin="round" class="lucide lucide-stairs-arrow-up-right-icon lucide-stairs-arrow-up-right"><path d="M7.695 1.057a1.04 1.04 0 0 0-.567.459c-.091.156-.108.23-.108.484 0 .256.016.328.111.489.061.103.173.236.25.294.254.194.372.213 1.319.215L9.579 3 5.874 6.71c-2.038 2.041-3.739 3.773-3.779 3.85-.052.099-.074.228-.074.44-.001.258.015.327.112.492.13.222.369.409.603.473.202.054.53.024.709-.066.074-.037 1.803-1.733 3.842-3.77l3.708-3.703.012.94.013.941.121.196a.998.998 0 0 0 1.718 0l.121-.197.011-2.243c.011-2.01.005-2.261-.054-2.417a1.012 1.012 0 0 0-.517-.552l-.2-.093-2.18.002c-1.666.002-2.219.015-2.345.054m9 3a1.04 1.04 0 0 0-.567.459l-.108.184-.011 2.15L15.997 9h-2.052c-2.227 0-2.279.004-2.563.221-.08.061-.195.194-.254.295l-.108.184-.011 2.15-.012 2.15H8.945c-2.227 0-2.279.004-2.563.221-.08.061-.195.194-.254.295l-.108.184-.011 2.15L5.997 19H3.945c-2.227 0-2.279.004-2.563.221-.08.061-.195.194-.254.295-.091.156-.108.23-.108.484 0 .256.016.328.111.489.125.213.318.375.539.454.22.078 5.44.078 5.66 0 .221-.079.414-.241.539-.454l.111-.189.011-2.15.012-2.15 2.088-.002c1.64-.001 2.121-.013 2.239-.055.221-.079.414-.241.539-.454l.111-.189.011-2.15.012-2.15 2.088-.002c1.64-.001 2.121-.013 2.239-.055.221-.079.414-.241.539-.454l.111-.189.011-2.15.012-2.15 2.088-.002c1.64-.001 2.121-.013 2.239-.055.221-.079.414-.241.539-.454.095-.161.111-.233.111-.489 0-.254-.017-.328-.108-.484a1.02 1.02 0 0 0-.582-.461c-.259-.078-5.346-.076-5.595.002" fill-rule="evenodd" fill="#000" stroke="none"/></svg>