<svg xmlns="http://www.w3.org/2000/svg" width="24" height="24" fill="none" stroke="currentColor" stroke-width="2" stroke-linecap="round" stroke-linejoin="round" class="lucide lucide-step-forward-icon lucide-step-forward"><path d="M2.695 3.057a1.04 1.04 0 0 0-.567.459L2.02 3.7v16.606l.121.197a.998.998 0 0 0 1.718 0l.121-.197V3.7l-.108-.184a1.005 1.005 0 0 0-1.177-.459m5.765 0a3.001 3.001 0 0 0-2.31 2.02l-.13.383V18.5l.094.3c.357 1.144 1.181 1.9 2.34 2.147.581.124 1.432-.007 1.946-.298.449-.255 10.084-6.039 10.28-6.171.977-.659 1.5-1.92 1.262-3.044a3.06 3.06 0 0 0-1.262-1.911c-.44-.299-10.127-6.09-10.409-6.223a3.628 3.628 0 0 0-.531-.199c-.348-.09-.946-.11-1.28-.044m.824 1.989c.155.052 10.138 6.026 10.363 6.201.417.326.456 1.05.077 1.429-.172.172-10.134 6.169-10.408 6.265a.958.958 0 0 1-1.013-.244C7.976 18.369 8 18.905 8 12c0-6.751-.015-6.338.24-6.647.229-.279.709-.42 1.044-.307" fill-rule="evenodd" fill="#000" stroke="none"/></svg>