<svg xmlns="http://www.w3.org/2000/svg" width="24" height="24" fill="none" stroke="currentColor" stroke-width="2" stroke-linecap="round" stroke-linejoin="round" class="lucide lucide-step-back-icon lucide-step-back"><path d="M14.541 3.042a2.927 2.927 0 0 0-.901.299c-.278.139-10.085 6.015-10.37 6.213-.816.568-1.307 1.577-1.259 2.586a3.02 3.02 0 0 0 1.309 2.338c.196.132 9.831 5.916 10.28 6.171.514.291 1.365.422 1.946.298 1.159-.247 1.983-1.003 2.34-2.147l.094-.3v-13l-.094-.3a3.167 3.167 0 0 0-.974-1.504c-.249-.213-.832-.51-1.172-.597a3.803 3.803 0 0 0-1.199-.057m6.154.015a1.04 1.04 0 0 0-.567.459l-.108.184v16.606l.121.197a.998.998 0 0 0 1.718 0l.121-.197V3.7l-.108-.184a1.005 1.005 0 0 0-1.177-.459M15.46 5.124a.924.924 0 0 1 .481.573c.09.303.089 12.309-.002 12.613-.151.509-.749.81-1.255.631-.274-.096-10.236-6.093-10.408-6.265-.386-.386-.34-1.118.092-1.443.202-.152 10.195-6.136 10.332-6.187.168-.062.543-.024.76.078" fill-rule="evenodd" fill="#000" stroke="none"/></svg>