<svg xmlns="http://www.w3.org/2000/svg" width="24" height="24" fill="none" stroke="currentColor" stroke-width="2" stroke-linecap="round" stroke-linejoin="round" class="icon icon-tabler icons-tabler-outline icon-tabler-chart-bar-popular"><path d="M15.477 3.073c-.671.176-1.239.75-1.417 1.435-.046.177-.06.486-.06 1.36V7l-2.13.002c-2.379.003-2.438.009-2.887.279-.28.168-.629.535-.764.802C8.022 8.471 8 8.65 8 9.868V11l-2.13.002c-2.379.003-2.438.009-2.887.279-.28.168-.629.535-.764.802C1.997 12.52 2 12.467 2 16c0 3.547-.004 3.478.225 3.93.136.269.576.709.845.845.472.239-.087.225 8.93.225s8.458.014 8.93-.225c.266-.135.708-.575.841-.838.243-.478.229-.008.228-7.923 0-7.858.01-7.482-.218-7.931-.135-.267-.484-.634-.764-.802-.453-.273-.493-.276-3.017-.276-2.008 0-2.289.007-2.523.068M20 12v7h-4V5h4v7m-6 2v5h-4V9h4v5m-6 2v3H4v-6h4v3" fill="#000" fill-rule="evenodd" stroke="none"/></svg> 