<svg xmlns="http://www.w3.org/2000/svg" width="24" height="24" fill="none" stroke="currentColor" stroke-width="2" stroke-linecap="round" stroke-linejoin="round" class="lucide lucide-stairs-arrow-down-left-icon lucide-stairs-arrow-down-left"><path d="M11.67 1.061c-.222.081-.42.248-.542.455-.092.156-.108.229-.107.484 0 .212.022.341.074.44.04.077 1.741 1.809 3.779 3.85L18.579 10h-.843c-.924 0-1.102.029-1.354.221-.08.061-.195.194-.254.295-.091.156-.108.23-.108.484 0 .256.016.328.111.489.125.213.318.375.539.454.118.042.616.054 2.35.055l2.2.001.2-.093c.237-.11.425-.311.517-.552.059-.156.065-.406.054-2.414L21.98 6.7l-.109-.186a1.01 1.01 0 0 0-1.742 0l-.109.186-.013.937-.012.936-3.728-3.721c-3.409-3.404-3.744-3.727-3.924-3.787a1.015 1.015 0 0 0-.673-.004M1.695 4.057a1.04 1.04 0 0 0-.567.459c-.091.156-.108.23-.108.484 0 .256.016.328.111.489.125.213.318.375.539.454.118.042.599.054 2.239.055L5.997 6l.012 2.15.011 2.15.111.189c.125.213.318.375.539.454.118.042.599.054 2.24.055L11 11l.002 2.09c.001 1.641.013 2.122.055 2.24.079.221.241.414.454.539l.189.111 2.149.011 2.148.012.012 2.148.011 2.149.111.189c.125.213.318.375.539.454.22.078 5.44.078 5.66 0 .221-.079.414-.241.539-.454.095-.161.111-.233.111-.489 0-.254-.017-.328-.108-.484a1.209 1.209 0 0 0-.254-.295c-.284-.217-.336-.221-2.563-.221h-2.052l-.012-2.15-.011-2.15-.108-.184a1.209 1.209 0 0 0-.254-.295c-.284-.217-.336-.221-2.563-.221h-2.052l-.012-2.15-.011-2.15-.108-.184a1.209 1.209 0 0 0-.254-.295C12.334 9.004 12.282 9 10.055 9H8.003l-.012-2.15L7.98 4.7l-.108-.184a1.02 1.02 0 0 0-.582-.461c-.259-.078-5.346-.076-5.595.002" fill-rule="evenodd" fill="#000" stroke="none"/></svg> 