<svg xmlns="http://www.w3.org/2000/svg" width="24" height="24" fill="none" stroke="currentColor" stroke-width="2" stroke-linecap="round" stroke-linejoin="round" class="icon icon-tabler icons-tabler-outline icon-tabler-forms"><path d="M5.695 2.057c-.644.201-.896.983-.497 1.534.188.259.415.369.85.41.477.046.721.121 1.015.311.453.293.774.746.878 1.237.086.405.086 12.497 0 12.902-.078.37-.231.64-.541.953-.374.379-.854.596-1.322.596-.567 0-1.012.371-1.065.888a.99.99 0 0 0 .492.977c.582.341 2.067-.013 2.935-.701.099-.079.265-.222.37-.319l.19-.176.19.176c.459.426.805.65 1.322.859.774.312 1.61.38 1.983.161.753-.441.626-1.56-.205-1.81a1.553 1.553 0 0 0-.368-.055c-.81 0-1.635-.659-1.849-1.477-.063-.243-.069-.737-.071-6.495-.002-6.92-.016-6.549.263-7.014.181-.302.377-.506.672-.7.293-.192.536-.267 1.015-.313.286-.027.413-.06.551-.141.745-.436.612-1.557-.213-1.805-.231-.07-.414-.069-.895.003-.814.123-1.563.494-2.203 1.093L9 3.331l-.192-.18c-.64-.599-1.389-.97-2.203-1.093-.464-.069-.69-.07-.91-.001M3.477 6.073c-.671.176-1.239.75-1.417 1.435-.09.343-.09 8.641 0 8.984.093.36.25.626.536.912.286.286.552.443.912.536.304.08 1.602.081 1.822.003.221-.079.414-.241.539-.454.095-.161.111-.233.111-.489 0-.254-.017-.328-.108-.484-.239-.406-.52-.516-1.318-.516H4V8l.59-.002c.387-.001.642-.02.74-.055.221-.079.414-.241.539-.454.095-.161.111-.233.111-.489 0-.254-.017-.328-.108-.484a1.02 1.02 0 0 0-.582-.461c-.277-.083-1.471-.071-1.813.018m9.218-.016a1.04 1.04 0 0 0-.567.459c-.091.156-.108.23-.108.484 0 .256.016.328.111.489.125.213.318.375.539.454.121.043.846.054 3.74.055L20 8v8h-3.554c-3.856 0-3.768-.005-4.064.221-.08.061-.195.194-.254.295-.091.156-.108.23-.108.484 0 .256.016.328.111.489.125.213.318.375.539.454.121.043.867.054 3.872.055 4.048.002 3.932.008 4.388-.223.266-.135.708-.575.841-.838.237-.466.229-.303.228-4.923 0-4.588.004-4.494-.218-4.931-.135-.267-.484-.634-.764-.802-.474-.285-.331-.276-4.457-.276-2.913 0-3.735.011-3.865.052m0 4.998a1.05 1.05 0 0 0-.567.461c-.091.156-.108.23-.108.484 0 .257.016.327.113.492.518.882 1.865.526 1.865-.492a.994.994 0 0 0-.535-.888 1.17 1.17 0 0 0-.768-.057m4 0a1.05 1.05 0 0 0-.567.461c-.091.156-.108.23-.108.484 0 .257.016.327.113.492.518.882 1.865.526 1.865-.492a.994.994 0 0 0-.535-.888 1.17 1.17 0 0 0-.768-.057" fill="#000" fill-rule="evenodd" stroke="none"/></svg>