<svg xmlns="http://www.w3.org/2000/svg" width="24" height="24" fill="none" stroke="currentColor" stroke-width="2" stroke-linecap="round" stroke-linejoin="round" class="icon icon-tabler icons-tabler-outline icon-tabler-trash-x"><path d="M9.477 2.073c-.671.176-1.239.75-1.417 1.435-.046.177-.06.486-.06 1.36V6H5.946c-2.229 0-2.28.004-2.564.221a1.03 1.03 0 0 0-.347 1.043c.102.374.454.677.841.723a.753.753 0 0 1 .204.039l.48 5.785c.397 4.772.494 5.817.564 6.049.284.952 1.056 1.72 2.036 2.026l.3.094h9.08l.3-.094c.98-.306 1.752-1.074 2.036-2.026.07-.232.167-1.277.564-6.049l.48-5.785c0-.008.092-.026.204-.039.387-.046.739-.349.841-.723a1.03 1.03 0 0 0-.347-1.043C20.334 6.004 20.283 6 18.054 6H16l-.001-1.11c0-1.199-.029-1.434-.218-1.807-.135-.267-.484-.634-.764-.802-.453-.273-.493-.276-3.017-.276-2.008 0-2.289.007-2.523.068M14 5v1h-4V4h4v1m3.9 3.15c-.011.082-.219 2.562-.461 5.51-.241 2.948-.458 5.452-.481 5.564a1.01 1.01 0 0 1-.472.647l-.186.109H7.7l-.184-.108a1.09 1.09 0 0 1-.44-.499c-.025-.062-.249-2.561-.498-5.553a1501.09 1501.09 0 0 0-.474-5.63L6.084 8h11.837l-.021.15m-8.205 2.907a1.04 1.04 0 0 0-.567.459c-.092.156-.108.229-.107.484 0 .213.022.34.075.44.04.077.39.46.777.85l.704.71-.704.71c-.387.391-.734.771-.772.845-.229.453-.045 1.046.407 1.312.165.097.234.113.492.112.213 0 .34-.022.44-.075.077-.04.46-.39.85-.777l.71-.704.71.704c.391.387.773.737.85.777.1.053.227.075.44.075.258.001.327-.015.492-.112.222-.13.409-.369.473-.603a1.187 1.187 0 0 0-.066-.709c-.038-.074-.385-.454-.772-.845l-.704-.71.704-.71c.387-.39.737-.773.777-.85.053-.1.075-.227.075-.44.001-.255-.015-.328-.107-.484a1.02 1.02 0 0 0-.582-.461c-.236-.071-.347-.069-.61.009-.195.058-.283.131-.947.787l-.733.723-.733-.723c-.664-.656-.752-.729-.947-.787-.254-.076-.401-.077-.625-.007" fill="#000" fill-rule="evenodd" stroke="none"/></svg>