<svg xmlns="http://www.w3.org/2000/svg" width="24" height="24" fill="none" stroke="currentColor" stroke-width="2" stroke-linecap="round" stroke-linejoin="round" class="icon icon-tabler icons-tabler-outline icon-tabler-trash"><path d="M9.477 2.073c-.671.176-1.239.75-1.417 1.435-.046.177-.06.486-.06 1.36V6H5.946c-2.229 0-2.28.004-2.564.221a1.03 1.03 0 0 0-.347 1.043c.102.374.454.677.841.723a.753.753 0 0 1 .204.039l.48 5.785c.397 4.772.494 5.817.564 6.049.284.952 1.056 1.72 2.036 2.026l.3.094h9.08l.3-.094c.98-.306 1.752-1.074 2.036-2.026.07-.232.167-1.277.564-6.049l.48-5.785c0-.008.092-.026.204-.039.387-.046.739-.349.841-.723a1.03 1.03 0 0 0-.347-1.043C20.334 6.004 20.283 6 18.054 6H16l-.001-1.11c0-1.199-.029-1.434-.218-1.807-.135-.267-.484-.634-.764-.802-.453-.273-.493-.276-3.017-.276-2.008 0-2.289.007-2.523.068M14 5v1h-4V4h4v1m3.9 3.15c-.011.082-.219 2.562-.461 5.51-.241 2.948-.458 5.452-.481 5.564a1.01 1.01 0 0 1-.472.647l-.186.109H7.7l-.184-.108a1.09 1.09 0 0 1-.44-.499c-.025-.062-.249-2.561-.498-5.553a1501.09 1501.09 0 0 0-.474-5.63L6.084 8h11.837l-.021.15m-8.205 1.907a1.04 1.04 0 0 0-.567.459l-.108.184v6.606l.121.197a.998.998 0 0 0 1.718 0l.121-.197V10.7l-.108-.184a1.005 1.005 0 0 0-1.177-.459m4 0a1.04 1.04 0 0 0-.567.459l-.108.184v6.606l.121.197a.998.998 0 0 0 1.718 0l.121-.197V10.7l-.108-.184a1.005 1.005 0 0 0-1.177-.459" fill="#000" fill-rule="evenodd" stroke="none"/></svg>