<svg xmlns="http://www.w3.org/2000/svg" width="24" height="24" fill="none" stroke="currentColor" stroke-width="3" stroke-linecap="round" stroke-linejoin="round" class="icon icon-tabler icons-tabler-outline icon-tabler-bold"><path d="M6.516 3.579a1.53 1.53 0 0 0-1 1.253c-.023.162-.033 3.115-.027 7.369L5.5 19.3l.105.248c.167.398.449.68.847.847l.248.105h3.88c4.154 0 4.09.003 4.813-.206 2.707-.779 4.229-3.665 3.349-6.35a4.918 4.918 0 0 0-1.47-2.215c-.139-.118-.248-.23-.243-.248.004-.018.062-.112.127-.208a5.067 5.067 0 0 0 .783-3.535 5.01 5.01 0 0 0-3.371-3.977c-.721-.24-.738-.241-4.488-.238-2.74.002-3.449.013-3.564.056m7.09 3.02c.699.216 1.25.861 1.364 1.597a2.02 2.02 0 0 1-1.37 2.213c-.252.082-.338.086-2.67.102l-2.41.016V6.52h2.416c2.288 0 2.429.004 2.67.079m1 7c.504.155.935.529 1.179 1.022.539 1.091-.015 2.395-1.185 2.79-.257.086-.297.088-3.17.1l-2.91.013V13.52h2.916c2.785 0 2.927.004 3.17.079" fill="#000" fill-rule="evenodd" stroke="none"/></svg>