<svg xmlns="http://www.w3.org/2000/svg" width="24" height="24" fill="none" stroke="currentColor" stroke-width="2" stroke-linecap="round" stroke-linejoin="round" class="icon icon-tabler icons-tabler-outline icon-tabler-underline"><path d="M6.695 4.057a1.04 1.04 0 0 0-.567.459L6.02 4.7v3.02c0 3.008 0 3.022.093 3.44.537 2.439 2.304 4.205 4.727 4.725.606.13 1.714.13 2.32 0 1.209-.259 2.18-.776 3.035-1.616.871-.855 1.417-1.858 1.692-3.109.093-.418.093-.432.093-3.44V4.7l-.109-.186a1.01 1.01 0 0 0-1.742 0l-.109.186-.023 2.94c-.02 2.538-.032 2.978-.089 3.215-.379 1.579-1.571 2.744-3.135 3.062-2.109.43-4.166-.915-4.681-3.062-.057-.237-.069-.677-.089-3.215L7.98 4.7l-.108-.184a1.005 1.005 0 0 0-1.177-.459m-2 14a1.04 1.04 0 0 0-.567.459c-.091.156-.108.23-.108.484 0 .256.016.328.111.489.125.213.318.375.539.454.223.079 14.437.079 14.66 0 .221-.079.414-.241.539-.454.095-.161.111-.233.111-.489 0-.254-.017-.328-.108-.484a1.02 1.02 0 0 0-.582-.461c-.263-.079-14.343-.077-14.595.002" fill="#000" fill-rule="evenodd" stroke="none"/></svg>