<svg xmlns="http://www.w3.org/2000/svg" width="24" height="24" fill="none" stroke="currentColor" stroke-width="2" stroke-linecap="round" stroke-linejoin="round" class="icon icon-tabler icons-tabler-outline icon-tabler-text-size"><path d="M2.695 4.057a1.04 1.04 0 0 0-.567.459L2.02 4.7v2.606l.121.197a.998.998 0 0 0 1.718 0c.12-.195.121-.203.134-.85L4.007 6H9v12h-.554c-.798 0-1.079.11-1.318.516-.091.156-.108.23-.108.484 0 .256.016.328.111.489.125.213.318.375.539.454.219.078 4.441.078 4.66 0 .221-.079.414-.241.539-.454.095-.161.111-.233.111-.489 0-.254-.017-.328-.108-.484-.239-.406-.52-.516-1.318-.516H11V6H14.993l.014.653c.013.647.014.655.134.85a.998.998 0 0 0 1.718 0l.121-.197V4.7l-.108-.184a1.02 1.02 0 0 0-.582-.461c-.262-.079-13.343-.077-13.595.002m12 7a1.04 1.04 0 0 0-.567.459c-.105.178-.108.207-.121.888-.008.421.004.768.03.864.062.23.25.469.471.599.165.097.235.113.495.113.268 0 .326-.014.5-.121.239-.147.443-.437.479-.68l.027-.179H17v4.987l-.214.048c-.271.061-.516.24-.657.479-.093.158-.109.231-.109.486 0 .256.016.328.111.489.125.213.318.375.539.454.215.077 2.445.077 2.66 0 .221-.079.414-.241.539-.454.095-.161.111-.233.111-.489 0-.255-.016-.328-.109-.486a1.041 1.041 0 0 0-.657-.479L19 17.987V13h.991l.027.179c.036.243.24.533.479.68.174.107.232.121.5.121.26 0 .33-.016.495-.113a1.07 1.07 0 0 0 .471-.599c.026-.096.038-.443.03-.864-.013-.681-.016-.71-.121-.888a1.02 1.02 0 0 0-.582-.461c-.26-.078-6.345-.076-6.595.002" fill="#000" fill-rule="evenodd" stroke="none"/></svg>