<svg xmlns="http://www.w3.org/2000/svg" width="24" height="24" fill="none" stroke="currentColor" stroke-width="2" stroke-linecap="round" stroke-linejoin="round" class="icon icon-tabler icons-tabler-outline icon-tabler-strikethrough"><path d="M10.56 4.027a4.565 4.565 0 0 0-1.614.484C6.676 5.672 5.84 8.445 7.08 10.704l.162.296H6.067c-1.279 0-1.419.018-1.685.221a1.03 1.03 0 0 0-.347 1.043c.064.234.251.473.473.603l.192.113 4.4.021c4.121.019 4.414.025 4.62.094.402.133.69.315 1.022.645.522.519.737 1.031.737 1.76 0 .726-.214 1.237-.737 1.764-.241.242-.397.36-.622.47-.516.253-.713.275-2.26.254-1.182-.015-1.409-.028-1.731-.1-.49-.109-.851-.23-1.169-.392-.339-.173-.411-.234-.593-.497-.208-.3-.46-.451-.787-.472-.453-.029-.795.164-.972.546-.22.475-.089.913.439 1.469.701.738 1.849 1.223 3.313 1.4.652.079 2.854.078 3.34-.001a4.548 4.548 0 0 0 2.826-1.652c1.127-1.418 1.282-3.376.394-4.993L16.758 13l1.211-.002c1.302-.002 1.385-.012 1.65-.215.077-.058.189-.191.25-.294.095-.161.111-.233.111-.489 0-.254-.017-.328-.108-.484a1.209 1.209 0 0 0-.254-.295c-.299-.228-.154-.221-4.694-.222-4.643 0-4.487.008-5.044-.265-.223-.109-.384-.23-.625-.47-.518-.517-.734-1.035-.734-1.764 0-.731.217-1.251.734-1.76.344-.339.641-.523 1.045-.646.346-.107 2.371-.107 2.939-.002.831.155 1.506.44 1.756.741.357.429.436.505.605.58.217.096.556.101.769.01a1.16 1.16 0 0 0 .522-.479c.13-.246.121-.657-.019-.926-.553-1.06-2.099-1.823-4.008-1.976-.477-.039-1.98-.048-2.304-.015" fill="#000" fill-rule="evenodd" stroke="none"/></svg>