<svg xmlns="http://www.w3.org/2000/svg" width="24" height="24" fill="none" stroke="currentColor" stroke-width="2" stroke-linecap="round" stroke-linejoin="round" class="lucide lucide-text-initial-icon lucide-text-initial"><path d="M6.655 3.035a1.58 1.58 0 0 0-.985.793c-.184.354-3.543 7.661-3.615 7.866C1.838 12.309 2.338 13 3 13c.242 0 .521-.119.696-.296.12-.123.248-.354.509-.924l.348-.76h4.895l.346.76c.264.58.384.799.509.924.176.177.456.296.697.296.662 0 1.162-.691.945-1.306-.072-.203-3.43-7.51-3.615-7.866-.258-.494-.705-.785-1.246-.811a2.058 2.058 0 0 0-.429.018m8.04 1.022a1.04 1.04 0 0 0-.567.459c-.091.156-.108.23-.108.484 0 .256.016.328.111.489.125.213.318.375.539.454.221.079 6.439.079 6.66 0 .221-.079.414-.241.539-.454.095-.161.111-.233.111-.489 0-.254-.017-.328-.108-.484a1.02 1.02 0 0 0-.582-.461c-.26-.078-6.345-.076-6.595.002M7.768 7.37l.74 1.61-.754.011a63.17 63.17 0 0 1-1.508 0l-.754-.011.74-1.61c.407-.885.753-1.61.768-1.61.015 0 .361.725.768 1.61m6.927 3.687a1.04 1.04 0 0 0-.567.459c-.091.156-.108.23-.108.484 0 .256.016.328.111.489.125.213.318.375.539.454.221.079 6.439.079 6.66 0 .221-.079.414-.241.539-.454.095-.161.111-.233.111-.489 0-.254-.017-.328-.108-.484a1.02 1.02 0 0 0-.582-.461c-.26-.078-6.345-.076-6.595.002m-12 7a1.04 1.04 0 0 0-.567.459c-.091.156-.108.23-.108.484 0 .256.016.328.111.489.125.213.318.375.539.454.223.08 18.437.08 18.66 0 .221-.079.414-.241.539-.454.095-.161.111-.233.111-.489 0-.254-.017-.328-.108-.484a1.02 1.02 0 0 0-.582-.461c-.263-.079-18.343-.077-18.595.002" fill-rule="evenodd" fill="#000" stroke="none"/></svg>