<svg xmlns="http://www.w3.org/2000/svg" width="24" height="24" fill="none" stroke="currentColor" stroke-width="2" stroke-linecap="round" stroke-linejoin="round" class="icon icon-tabler icons-tabler-outline icon-tabler-italic"><path d="M10.695 4.057c-.644.201-.896.983-.497 1.534.065.09.205.214.31.276l.192.113.984.02.985.02L10.96 12l-1.708 5.98-1.256.021c-.868.014-1.291.036-1.369.07a1.13 1.13 0 0 0-.499.445c-.091.156-.108.23-.108.484 0 .256.016.328.111.489.125.213.318.375.539.454.221.079 6.439.079 6.66 0 .221-.079.414-.241.539-.454.095-.161.111-.233.111-.489 0-.254-.017-.328-.108-.484a1.136 1.136 0 0 0-.499-.445c-.073-.031-.452-.056-1.077-.07l-.965-.021L13.04 12l1.708-5.98L16.024 6l1.276-.02.192-.113c.756-.444.631-1.561-.202-1.812-.26-.078-6.345-.076-6.595.002" fill="#000" fill-rule="evenodd" stroke="none"/></svg>