<svg xmlns="http://www.w3.org/2000/svg" width="24" height="24" fill="none" stroke="currentColor" stroke-width="2" stroke-linecap="round" stroke-linejoin="round" class="lucide lucide-volume-x-icon lucide-volume-x"><path d="M9.908 3.044c-.461.108-.512.152-2.459 2.092L5.597 6.98l-1.508.022c-1.683.025-1.719.03-2.152.31-.281.182-.586.51-.721.776C.997 8.519 1 8.472 1 12c0 3.547-.004 3.478.225 3.93.136.269.576.709.845.845.414.21.553.225 2.041.225.93 0 1.403.014 1.462.044.048.025.897.851 1.887 1.835 1.062 1.057 1.874 1.832 1.98 1.892 1.005.569 2.282.003 2.521-1.118.027-.129.037-2.702.03-7.773L11.98 4.3l-.144-.3c-.353-.734-1.164-1.136-1.928-.956M10 12.009v6.57l-1.53-1.526c-1.61-1.605-1.815-1.778-2.307-1.942-.248-.082-.348-.088-1.713-.102L3 14.995V9h1.354c1.217 0 1.384-.008 1.662-.079.614-.157.657-.192 2.384-1.909.869-.864 1.585-1.571 1.59-1.571.005-.001.01 2.955.01 6.568m5.67-3.948c-.222.081-.42.248-.542.455-.092.156-.108.229-.107.484 0 .213.022.341.074.44.041.077.616.685 1.279 1.35L17.578 12l-1.204 1.21c-.663.666-1.236 1.271-1.273 1.345-.229.454-.045 1.046.407 1.312.165.097.234.113.492.112.213 0 .341-.022.44-.074.077-.041.685-.616 1.35-1.279L19 13.422l1.21 1.204c.666.663 1.271 1.236 1.345 1.273.454.229 1.046.045 1.312-.407.097-.165.113-.234.112-.492 0-.213-.022-.341-.074-.44-.041-.077-.616-.684-1.279-1.35L20.422 12l1.204-1.21c.663-.665 1.238-1.273 1.279-1.35.052-.099.074-.227.074-.44.001-.255-.015-.328-.107-.484a1 1 0 0 0-1.215-.45c-.173.058-.345.213-1.427 1.288L19 10.576l-1.23-1.222c-1.082-1.075-1.254-1.23-1.427-1.288a1.003 1.003 0 0 0-.673-.005" fill-rule="evenodd" fill="#000" stroke="none"/></svg>