<svg xmlns="http://www.w3.org/2000/svg" width="24" height="24" fill="none" stroke="currentColor" stroke-width="2" stroke-linecap="round" stroke-linejoin="round" class="lucide lucide-volume2-icon lucide-volume-2"><path d="M9.908 3.044c-.461.108-.512.152-2.459 2.092L5.597 6.98l-1.508.022c-1.683.025-1.719.03-2.152.31-.281.182-.586.51-.721.776C.997 8.519 1 8.472 1 12c0 3.547-.004 3.478.225 3.93.136.269.576.709.845.845.414.21.553.225 2.041.225.93 0 1.403.014 1.462.044.048.025.897.851 1.887 1.835 1.062 1.057 1.874 1.832 1.98 1.892 1.005.569 2.282.003 2.521-1.118.027-.129.037-2.702.03-7.773L11.98 4.3l-.144-.3c-.353-.734-1.164-1.136-1.928-.956m9.125 1.652c-.503.179-.784.75-.617 1.251.045.137.156.297.367.528 1.19 1.309 1.837 2.622 2.122 4.305.095.561.097 1.807.004 2.4-.263 1.671-.94 3.055-2.128 4.344-.405.44-.503.752-.363 1.152.14.394.459.64.875.674.38.03.592-.078.993-.506 1.407-1.498 2.294-3.342 2.62-5.444.1-.646.1-2.154 0-2.8-.325-2.093-1.205-3.93-2.602-5.427-.462-.495-.832-.634-1.271-.477M10 12.009v6.57l-1.53-1.526c-1.61-1.605-1.815-1.778-2.307-1.942-.248-.082-.348-.088-1.713-.102L3 14.995V9h1.354c1.217 0 1.384-.008 1.662-.079.614-.157.657-.192 2.384-1.909.869-.864 1.585-1.571 1.59-1.571.005-.001.01 2.955.01 6.568m5.67-3.954a1.01 1.01 0 0 0-.658.837c-.029.285.028.451.307.888.488.763.657 1.332.657 2.22 0 .888-.169 1.457-.657 2.22-.28.438-.336.602-.306.891.075.732.925 1.129 1.533.717.339-.23.85-1.081 1.13-1.88.367-1.048.42-2.323.143-3.414-.249-.984-.885-2.142-1.314-2.393-.219-.129-.613-.169-.835-.086" fill-rule="evenodd" fill="#000" stroke="none"/></svg>