<svg xmlns="http://www.w3.org/2000/svg" width="24" height="24" fill="none" stroke="currentColor" stroke-width="2" stroke-linecap="round" stroke-linejoin="round" class="lucide lucide-volume-off-icon lucide-volume-off"><path d="M1.67 1.061c-.222.081-.42.248-.542.455-.091.156-.108.23-.108.484s.016.327.107.48c.06.099 1.07 1.141 2.25 2.32C4.556 5.977 5.52 6.953 5.52 6.97c0 .016-.625.031-1.39.032-1.56.003-1.724.024-2.147.279-.28.168-.629.535-.764.802C.997 8.52 1 8.467 1 12c0 3.547-.004 3.478.225 3.93.136.269.576.709.845.845.414.21.553.225 2.041.225.93 0 1.403.014 1.462.044.048.025.897.851 1.887 1.835 1.062 1.057 1.874 1.832 1.98 1.892.996.564 2.262.013 2.518-1.096.025-.109.04-1.312.041-3.215L12 13.42l4.71 4.706c2.59 2.588 4.773 4.739 4.85 4.779.099.052.228.074.44.074.258.001.327-.015.492-.112.476-.28.647-.9.373-1.359-.055-.092-4.65-4.715-10.212-10.273C3.3 1.889 2.525 1.125 2.343 1.065a1.015 1.015 0 0 0-.673-.004m8.339 1.943c-.64.108-1.169.622-1.169 1.134.001.333.069.502.294.728.22.219.396.293.696.294H10v.165c0 .263.082.468.269.676.486.541 1.325.408 1.637-.261.083-.179.093-.257.093-.74-.001-.297-.019-.62-.042-.718a1.765 1.765 0 0 0-1.098-1.215 2.025 2.025 0 0 0-.85-.063m9.056 1.677c-.279.084-.541.346-.647.646-.141.399-.044.701.374 1.157 1.18 1.29 1.819 2.589 2.114 4.298.085.496.097 1.88.02 2.358a9.363 9.363 0 0 1-.448 1.688c-.247.673-.261.753-.18 1.03.117.404.538.741.925.742.375.001.748-.226.913-.554.27-.536.597-1.613.75-2.473.078-.442.091-.651.092-1.513 0-.762-.016-1.104-.069-1.435-.266-1.655-.808-3.052-1.663-4.285-.486-.702-1.175-1.457-1.455-1.597a1.03 1.03 0 0 0-.726-.062M15.67 8.055a1.011 1.011 0 0 0-.658.839c-.028.27.044.496.259.813.33.486.516.933.655 1.573.099.458.14.542.356.737.219.198.385.263.669.263.601 0 1.071-.534.992-1.128a7.502 7.502 0 0 0-.407-1.46c-.313-.73-.748-1.385-1.031-1.551-.219-.129-.613-.169-.835-.086M8.51 9.93 10 11.42V18.579l-1.53-1.526c-1.61-1.605-1.815-1.778-2.307-1.942-.248-.082-.348-.088-1.713-.102L3 14.995V9h1.354c1.217 0 1.384-.008 1.662-.079.325-.083.733-.278.848-.405.038-.042.088-.076.112-.076.025 0 .715.671 1.534 1.49" fill-rule="evenodd" fill="#000" stroke="none"/></svg>