<svg xmlns="http://www.w3.org/2000/svg" width="24" height="24" fill="none" stroke="currentColor" stroke-width="2" stroke-linecap="round" stroke-linejoin="round" class="lucide lucide-volume-icon lucide-volume"><path d="M9.908 3.044c-.461.108-.512.152-2.459 2.092L5.597 6.98l-1.508.022c-1.683.025-1.719.03-2.152.31-.281.182-.586.51-.721.776C.997 8.519 1 8.472 1 12c0 3.547-.004 3.478.225 3.93.136.269.576.709.845.845.414.21.553.225 2.041.225.93 0 1.403.014 1.462.044.048.025.897.851 1.887 1.835 1.062 1.057 1.874 1.832 1.98 1.892 1.005.569 2.282.003 2.521-1.118.027-.129.037-2.702.03-7.773L11.98 4.3l-.144-.3c-.353-.734-1.164-1.136-1.928-.956M10 12.009v6.57l-1.53-1.526c-1.61-1.605-1.815-1.778-2.307-1.942-.248-.082-.348-.088-1.713-.102L3 14.995V9h1.354c1.217 0 1.384-.008 1.662-.079.614-.157.657-.192 2.384-1.909.869-.864 1.585-1.571 1.59-1.571.005-.001.01 2.955.01 6.568" fill-rule="evenodd" fill="#000" stroke="none"/></svg>