<svg xmlns="http://www.w3.org/2000/svg" width="24" height="24" fill="none" stroke="currentColor" stroke-width="2" stroke-linecap="round" stroke-linejoin="round" class="lucide lucide-fullscreen-icon lucide-fullscreen"><path d="M4.499 2.043C3.383 2.23 2.461 3.048 2.114 4.16c-.091.291-.094.343-.094 1.723v1.423l.121.197a.998.998 0 0 0 1.718 0l.121-.196L4 6.023c.023-1.442.025-1.452.321-1.74.271-.262.395-.283 1.716-.285 1.229-.002 1.319-.014 1.582-.215.077-.058.189-.191.25-.294.095-.161.111-.233.111-.489 0-.254-.017-.328-.108-.484a1.209 1.209 0 0 0-.254-.295C7.35 2.016 7.216 2 5.904 2.005c-.662.002-1.295.02-1.405.038m12.196.012a1.05 1.05 0 0 0-.567.461c-.091.156-.108.23-.108.484 0 .256.016.328.111.489.061.103.173.236.25.294.263.201.353.213 1.582.215 1.321.002 1.445.023 1.716.285.296.288.298.298.321 1.74l.02 1.284.121.196a.998.998 0 0 0 1.718 0l.121-.197V5.883c0-1.38-.003-1.432-.094-1.723a3.077 3.077 0 0 0-2.025-2.036c-.31-.096-.366-.099-1.661-.11-1.034-.009-1.378 0-1.505.041M7.477 7.073c-.671.176-1.239.75-1.417 1.435C6.009 8.702 6 9.237 6 12c0 3.547-.004 3.478.225 3.93.136.269.576.709.845.845.459.233.29.225 4.93.225s4.471.008 4.93-.225c.266-.135.708-.575.841-.838.232-.458.229-.4.228-3.923 0-3.499 0-3.503-.218-3.931-.135-.267-.484-.634-.764-.802-.478-.288-.266-.276-5.017-.276-3.898 0-4.282.005-4.523.068M16 12v3H8V9h8v3M2.695 16.057a1.04 1.04 0 0 0-.567.459l-.108.184v1.42c0 1.377.003 1.429.094 1.72a3.106 3.106 0 0 0 2.026 2.044c.264.086.355.092 1.624.107.883.01 1.399.001 1.504-.028.23-.062.469-.25.599-.471.097-.165.113-.235.113-.492 0-.254-.017-.328-.108-.484a1.136 1.136 0 0 0-.499-.445c-.077-.033-.519-.055-1.393-.07L4.7 19.98l-.184-.108a1.136 1.136 0 0 1-.445-.499c-.034-.078-.056-.508-.07-1.393L3.98 16.7l-.108-.184a1.005 1.005 0 0 0-1.177-.459m18 0a1.04 1.04 0 0 0-.567.459l-.108.184-.021 1.28c-.015.874-.037 1.316-.07 1.393a1.136 1.136 0 0 1-.445.499l-.184.108-1.28.021c-.874.015-1.316.037-1.393.07a1.136 1.136 0 0 0-.499.445c-.091.156-.108.23-.108.484 0 .257.016.327.113.492.13.221.369.409.599.471.105.029.621.038 1.504.028 1.269-.015 1.36-.021 1.624-.107a3.106 3.106 0 0 0 2.026-2.044c.091-.291.094-.343.094-1.72V16.7l-.108-.184a1.005 1.005 0 0 0-1.177-.459" fill-rule="evenodd" fill="#000" stroke="none"/></svg>