<svg xmlns="http://www.w3.org/2000/svg" width="24" height="24" fill="none" stroke="currentColor" stroke-width="2" stroke-linecap="round" stroke-linejoin="round" class="lucide lucide-expand-icon lucide-expand"><path d="M2.58 2.094c-.237.11-.425.311-.516.552-.06.157-.066.443-.055 2.917l.011 2.743.121.197a.998.998 0 0 0 1.718 0l.121-.197.012-1.44.012-1.441 2.208 2.203C7.426 8.84 8.481 9.862 8.555 9.899c.455.229 1.046.045 1.312-.407.097-.165.113-.234.112-.492 0-.212-.022-.341-.074-.44-.04-.077-1.066-1.135-2.279-2.35L5.421 4 6.8 3.998c1.484-.002 1.55-.009 1.819-.215.077-.058.189-.191.25-.294.095-.161.111-.233.111-.489 0-.254-.017-.328-.108-.484a1.209 1.209 0 0 0-.254-.295C8.327 1.999 8.334 2 5.444 2l-2.664.001-.2.093m13.115-.037a1.04 1.04 0 0 0-.567.459c-.091.156-.108.23-.108.484 0 .256.016.328.111.489.061.103.173.236.25.294.269.206.335.213 1.819.215L18.579 4l-2.205 2.21c-1.213 1.215-2.236 2.271-2.273 2.345-.229.455-.045 1.046.407 1.312.165.097.234.113.492.112.212 0 .341-.022.44-.074.077-.04 1.134-1.065 2.348-2.277l2.208-2.203.012 1.441.012 1.44.121.197a.998.998 0 0 0 1.718 0l.121-.197.011-2.743c.011-2.474.005-2.76-.055-2.917a1.007 1.007 0 0 0-.516-.552l-.2-.093-2.68.002c-2.074.002-2.717.014-2.845.054M8.64 14.068c-.154.053-.501.383-2.408 2.284l-2.228 2.222-.012-1.437L3.98 15.7l-.109-.186a1.041 1.041 0 0 0-.657-.479 1.009 1.009 0 0 0-1.085.479l-.109.186-.011 2.74c-.011 2.471-.005 2.757.055 2.914.091.241.279.442.516.552l.2.093 2.7-.001c2.152-.001 2.73-.012 2.85-.055.221-.079.414-.241.539-.454.095-.161.111-.233.111-.489 0-.254-.017-.328-.108-.484a1.209 1.209 0 0 0-.254-.295C8.347 20.015 8.225 20 6.764 20H5.421l2.205-2.21c1.213-1.215 2.239-2.273 2.279-2.35.052-.099.074-.228.074-.44.001-.255-.015-.328-.107-.484a1.016 1.016 0 0 0-1.232-.448m6.03-.007c-.222.081-.42.248-.542.455-.092.156-.108.229-.107.484 0 .212.022.341.074.44.04.077 1.066 1.135 2.279 2.35L18.579 20h-1.343c-1.461 0-1.583.015-1.854.221-.08.061-.195.194-.254.295-.091.156-.108.23-.108.484 0 .256.016.328.111.489.125.213.318.375.539.454.12.043.698.054 2.85.055l2.7.001.2-.093c.237-.11.425-.311.516-.552.06-.157.066-.443.055-2.914l-.011-2.74-.109-.186a1.01 1.01 0 0 0-1.742 0l-.109.186-.012 1.437-.012 1.437-2.228-2.222c-2.013-2.006-2.247-2.228-2.425-2.287a1.015 1.015 0 0 0-.673-.004" fill-rule="evenodd" fill="#000" stroke="none"/></svg>