<svg xmlns="http://www.w3.org/2000/svg" width="1024" height="1024"><path d="M703.94 87.107c-56.632 9.923-100.817 57.138-105.893 113.156l-1.148 12.672-11.977 1.18c-51.355 5.061-93.964 39.917-110.66 90.525-3.837 11.632-3.957 13.957-4.545 88.32l-.605 76.373H427.137l-1.166-12.871c-4.609-50.864-42.398-96.066-92.247-110.345-13.23-3.789-16.026-3.93-77.724-3.93-61.698 0-64.494.141-77.724 3.93-41.383 11.854-74.887 45.085-88.093 87.376-3.9 12.492-3.996 14.385-3.996 78.507s.096 66.015 3.996 78.507c13.147 42.101 45.209 74.163 87.31 87.31 12.506 3.904 14.331 3.996 79.36 3.988l66.56-.009 13.085-4.458c49.778-16.961 84.969-60.093 89.459-109.649l1.18-13.022H469.112l.605 76.373c.588 74.363.708 76.688 4.545 88.32 16.612 50.354 59.96 86.058 109.984 90.592l12.656 1.146 1.146 12.656c4.571 50.44 41.029 94.32 91.445 110.063 12.492 3.9 14.385 3.996 78.507 3.996s66.015-.096 78.507-3.996c41.242-12.878 72.671-43.76 86.831-85.319l4.458-13.085.009-66.56c.008-65.029-.084-66.854-3.988-79.36-13.206-42.291-46.71-75.522-88.093-87.376-13.23-3.789-16.026-3.93-77.724-3.93-61.698 0-64.494.141-77.724 3.93-49.928 14.301-87.637 59.473-92.263 110.523l-1.183 13.049-7.002-1.119c-9.224-1.475-19.869-7.859-25.574-15.338-10.007-13.12-9.587-4.493-9.587-197.143 0-199.43-.828-186.725 13.071-200.624 6.875-6.875 19.422-12.798 27.11-12.798 1.267 0 2.447 4.774 3.181 12.871 4.591 50.666 40.952 94.506 91.464 110.279 12.492 3.9 14.385 3.996 78.507 3.996s66.015-.096 78.507-3.996c41.242-12.878 72.671-43.76 86.831-85.319l4.458-13.085.009-66.56c.008-65.029-.084-66.854-3.988-79.36-13.048-41.784-45.279-74.184-86.435-86.887-13.332-4.115-15.196-4.231-74.262-4.613-33.323-.215-64.454.286-69.18 1.114m119.973 86.157c11.883 3.529 23.294 14.94 26.823 26.823 3.578 12.048 3.779 99.23.257 110.935-3.124 10.38-10.142 19.238-19.687 24.849l-7.839 4.609H712.533l-7.839-4.609c-9.107-5.353-16.004-13.736-19.533-23.738-3.801-10.773-3.608-101.749.239-113.041 3.661-10.744 15.55-22.522 25.971-25.729 11.915-3.667 100.266-3.745 112.542-.099m-512 256c11.883 3.529 23.294 14.94 26.823 26.823 3.578 12.048 3.779 99.23.257 110.935-3.124 10.38-10.142 19.238-19.687 24.849l-7.839 4.609H200.533l-7.839-4.609c-9.107-5.353-16.004-13.736-19.533-23.738-3.801-10.773-3.608-101.749.239-113.041 3.661-10.744 15.55-22.522 25.971-25.729 11.915-3.667 100.266-3.745 112.542-.099m512 256c11.883 3.529 23.294 14.94 26.823 26.823 3.578 12.048 3.779 99.23.257 110.935-3.124 10.38-10.142 19.238-19.687 24.849l-7.839 4.609H712.533l-7.839-4.609c-9.107-5.353-16.004-13.736-19.533-23.738-3.801-10.773-3.608-101.749.239-113.041 3.661-10.744 15.55-22.522 25.971-25.729 11.915-3.667 100.266-3.745 112.542-.099" fill-rule="evenodd"/></svg>